<?xml version="1.0" encoding="utf-8"?>
<!-- Generator: Adobe Illustrator 23.0.6, SVG Export Plug-In . SVG Version: 6.00 Build 0)  -->
<svg version="1.1" id="Layer_1" xmlns="http://www.w3.org/2000/svg" xmlns:xlink="http://www.w3.org/1999/xlink" x="0px" y="0px"
	 viewBox="0 0 700 700" style="enable-background:new 0 0 700 700;" xml:space="preserve">
<style type="text/css">
	.st0{fill:#fff;}
</style>
<g>
	<path class="st0" d="M350,88c-93,0-168,75-168,168v168c0,93,75,168,168,168s168-75,168-168V256C518,163,443,88,350,88z M495.6,424
		c0,80.6-65,145.6-145.6,145.6s-145.6-65-145.6-145.6V256c0-80.6,65-145.6,145.6-145.6s145.6,65,145.6,145.6V424z"/>
	<path class="st0" d="M357.8,287.4c-4.5-4.5-11.2-4.5-15.7,0l-72.8,72.8c-4.5,4.5-4.5,11.2,0,15.7c4.5,4.5,11.2,4.5,15.7,0l65-65
		l65,65c4.5,4.5,11.2,4.5,15.7,0c4.5-4.5,4.5-11.2,0-15.7L357.8,287.4z"/>
	<path class="st0" d="M378,194.4c0,15.5-12.5,28-28,28s-28-12.5-28-28c0-15.5,12.5-28,28-28S378,178.9,378,194.4"/>
</g>
</svg>
