<svg viewBox="0 0 754 278" xmlns="http://www.w3.org/2000/svg" fill-rule="evenodd" clip-rule="evenodd" stroke-linejoin="round" stroke-miterlimit="2"><ellipse cx="781.3" cy="872.9" rx="50.1" ry="23.9" fill="#d1d8ef" transform="matrix(1.18225 -.1503 -.18723 .33224 -700.9 94)"/><ellipse cx="781.3" cy="872.9" rx="50.1" ry="23.9" fill="#d1d8ef" transform="matrix(-.65626 -.15217 -1.00939 .33275 1663.4 93.4)"/><path d="M135.6 153c-6.3-7.6 46.8-21.7 264.3-75.3 31-7.8 64.6-6 35.6 14.6-272.1 58.5-306 69-299.9 60.7" fill="#d1d8ef"/><path d="M516.5 50c88-9.6 21.9 204.7-336.3 212.2-409 21.4 207.1-197.8 336.3-212.1z" fill="#d1d8ef"/><ellipse cx="933.8" cy="286" rx="90.5" ry="71" fill="#d1d8ef" transform="matrix(.80992 0 -.71326 .39536 -34 -64.9)"/><path d="M538 10.2a562.9 562.9 0 00-39.3 19.1c10.2 3.2 21.4 6 37.9 7 19.9-1.8 40.7-4 65.5-9a151.6 151.6 0 0032.3-20.7L538 10.2z" fill="#d1d8ef"/><path fill="#d1d8ef" d="M451.3 13.8L600 0l112 7.2L563.3 21z"/><ellipse cx="922.5" cy="281.2" rx="7.6" ry="10.5" fill="#d1d8ef" transform="matrix(1 0 -.65786 .36466 -234.1 -58.1)"/><ellipse cx="922.5" cy="281.2" rx="7.6" ry="10.5" fill="#d1d8ef" transform="matrix(1 0 -.65786 .36466 -192 -58.3)"/><path d="M751.9 92.7c10.8-6.2-47-.2-199.3-20.6-24.9-1.3-67 9.5-63.3 26.2 211.9 9.5 251.1 5.7 262.6-5.6" fill="#d1d8ef"/></svg>