<?xml version="1.0" encoding="UTF-8" standalone="no"?>
<!DOCTYPE svg PUBLIC "-//W3C//DTD SVG 1.1//EN" "http://www.w3.org/Graphics/SVG/1.1/DTD/svg11.dtd">
<svg width="100%" height="100%" viewBox="0 0 2750 567" version="1.1" xmlns="http://www.w3.org/2000/svg" xmlns:xlink="http://www.w3.org/1999/xlink" xml:space="preserve" xmlns:serif="http://www.serif.com/" style="fill-rule:evenodd;clip-rule:evenodd;stroke-linejoin:round;stroke-miterlimit:2;">
    <g transform="matrix(1,0,0,1,-2459.16,-14430.1)">
        <g transform="matrix(8.33333,0,0,8.33333,0,10125)">
            <g opacity="0.4">
                <g transform="matrix(1,0,0,1,381.847,568.096)">
                    <path d="M0,-42.828C-0.143,-42.759 -0.359,-42.759 -0.431,-41.622C-0.502,-40.199 -0.502,-25.143 -0.502,-24.005C-0.502,-22.942 -0.215,-22.726 0,-22.726C0.431,-22.656 1.365,-22.656 1.94,-22.656C4.022,-22.656 8.475,-23.224 9.912,-24.148C11.922,-25.569 14.22,-28.479 14.22,-32.317C14.22,-36.081 13.071,-38.78 11.204,-40.483C9.264,-42.26 6.679,-43.326 2.37,-43.326C1.436,-43.326 0.359,-43.042 0,-42.828M14.292,-41.905C17.381,-39.703 18.746,-36.505 18.746,-33.38C18.746,-28.624 16.303,-26.565 14.652,-25.286C13.431,-24.218 11.42,-23.366 10.271,-22.942C9.984,-22.8 10.126,-22.303 10.414,-21.592C11.85,-18.823 16.52,-11.575 18.53,-8.879C20.755,-5.893 22.264,-4.119 23.772,-2.627C26.071,-0.356 28.154,0.283 29.447,0.283C30.021,0.283 30.381,0.497 30.381,0.71C30.381,0.855 30.093,1.068 29.519,1.278C28.943,1.49 27.793,1.562 26.789,1.562C22.408,1.562 19.535,-0.78 16.877,-4.048C13.216,-8.665 7.184,-18.465 6.177,-19.675C5.459,-20.454 4.812,-21.096 3.95,-21.307C3.234,-21.52 2.227,-21.661 0.359,-21.592C0,-21.592 -0.289,-21.307 -0.359,-21.022C-0.502,-20.313 -0.573,-11.222 -0.502,-8.381C-0.431,-5.113 -0.143,-2.556 0.071,-1.919C0.359,-1.065 0.862,-0.356 3.447,0.071C4.239,0.212 4.524,0.355 4.524,0.638C4.524,0.925 3.95,1.139 3.087,1.139C1.581,1.139 0.214,0.781 -2.225,0.781C-4.883,0.781 -6.968,1.139 -8.331,1.139C-9.049,1.139 -9.553,0.994 -9.553,0.638C-9.553,0.355 -9.049,0.212 -8.115,0.001C-5.89,-0.427 -5.099,-1.065 -4.883,-4.048C-4.667,-8.097 -4.525,-13.423 -4.525,-23.724C-4.525,-33.667 -4.813,-37.428 -4.955,-39.703C-5.099,-41.762 -5.243,-42.759 -8.259,-43.253C-8.905,-43.395 -9.48,-43.54 -9.48,-43.893C-9.48,-44.106 -9.119,-44.318 -8.188,-44.318C-7.181,-44.318 -5.458,-44.034 -2.873,-44.034C-0.215,-44.034 2.443,-44.39 4.812,-44.39C9.122,-44.39 11.922,-43.61 14.292,-41.905" style="fill:rgb(35,31,32);fill-rule:nonzero;"/>
                </g>
                <g transform="matrix(1,0,0,1,425.946,538.725)">
                    <path d="M0,24.887C2.303,23.1 5.045,19.037 5.045,12.937C5.045,8.502 3.737,4.496 0.872,1.664C-0.872,-0.125 -3.614,-1.847 -7.538,-1.847C-10.156,-1.847 -13.083,-0.309 -14.888,1.601C-17.505,4.313 -18.315,8.256 -18.315,12.258C-18.315,15.649 -16.881,19.652 -14.763,22.053C-11.774,25.565 -8.721,26.614 -5.546,26.614C-3.489,26.614 -1.621,26.057 0,24.887M-22.365,12.074C-22.365,7.824 -20.62,3.634 -15.948,0.248C-13.269,-1.787 -10.092,-2.773 -6.666,-2.773C2.24,-2.773 8.97,4.126 8.97,12.63C8.97,19.897 3.798,24.703 0,26.242C-2.057,27.106 -4.175,27.66 -6.479,27.66C-15.45,27.66 -22.365,20.391 -22.365,12.074" style="fill:rgb(35,31,32);fill-rule:nonzero;"/>
                </g>
                <g transform="matrix(1,0,0,1,463.381,564.661)">
                    <path d="M0,-26.984C0.247,-26.921 0.622,-26.492 0.622,-26.181C0.496,-25.074 0.682,-22.732 0.682,-22.301C0.745,-21.562 0.496,-21.07 0.31,-21.07C0.062,-21.07 0,-21.377 -0.128,-21.809C-0.562,-23.472 -1.187,-24.705 -2.743,-25.812C-4.301,-26.921 -6.294,-27.845 -10.032,-27.845C-13.582,-27.845 -16.821,-26.305 -18.814,-24.271C-20.87,-22.177 -22.488,-18.236 -22.488,-13.738C-22.488,-9.425 -20.435,-5.363 -18.317,-3.203C-15.825,-0.677 -12.212,0.553 -9.283,0.553C-6.417,0.553 -4.923,0.121 -3.554,-0.739C-1.747,-1.911 -0.375,-3.511 0.373,-5.363C0.622,-5.976 0.745,-6.222 0.994,-6.222C1.18,-6.222 1.243,-5.73 1.243,-5.299C1.243,-4.375 0.622,-2.65 0.496,-2.217C0.373,-1.787 0.123,-0.986 -0.251,-0.739C-3.24,0.862 -5.545,1.725 -9.906,1.725C-16.012,1.725 -19.251,-0.062 -22.364,-2.836C-24.545,-4.743 -26.601,-8.996 -26.601,-13.371C-26.601,-18.545 -24.173,-22.301 -20.994,-24.95C-18.317,-27.168 -14.206,-28.709 -9.782,-28.709C-5.484,-28.709 -2.244,-27.722 0,-26.984" style="fill:rgb(35,31,32);fill-rule:nonzero;"/>
                </g>
                <g transform="matrix(1,0,0,1,469.573,561.395)">
                    <path d="M0,-20.453C0,-22.422 -0.311,-23.408 -2.366,-23.781C-2.989,-23.902 -3.486,-24.088 -3.486,-24.334C-3.486,-24.58 -2.865,-24.704 -2.428,-24.704C-1.617,-24.704 0,-24.517 1.56,-24.517C2.804,-24.517 5.234,-24.704 5.857,-24.704C6.418,-24.704 6.854,-24.64 6.854,-24.393C6.854,-24.088 6.232,-23.841 5.857,-23.781C4.235,-23.473 3.739,-22.857 3.677,-21.376C3.677,-20.391 3.553,-12.753 3.614,-12.195C3.677,-11.767 3.739,-11.336 4.05,-11.336L17.07,-11.336C21.306,-11.336 21.742,-11.336 22.054,-11.397C22.426,-11.457 22.489,-11.643 22.552,-11.951C22.675,-12.629 22.613,-18.544 22.552,-20.145C22.426,-22.795 21.991,-23.473 20.245,-23.719C19.686,-23.841 19.062,-24.027 19.062,-24.273C19.062,-24.58 19.561,-24.704 20.245,-24.704C22.364,-24.704 22.552,-24.517 24.544,-24.517C26.102,-24.517 27.162,-24.704 28.345,-24.704C29.216,-24.704 29.589,-24.58 29.589,-24.334C29.589,-24.149 29.216,-23.902 28.593,-23.841C26.414,-23.534 26.102,-22.547 26.102,-20.7C26.102,-19.529 26.039,-12.568 26.102,-9.425C26.164,-6.346 26.227,-1.787 26.227,-0.37C26.227,2.217 26.476,2.774 28.969,3.328C29.589,3.447 29.965,3.572 29.965,3.881C29.965,4.127 29.53,4.251 28.905,4.251C28.096,4.251 25.354,4.067 24.358,4.067C23.05,4.067 21.056,4.251 20.435,4.251C19.561,4.251 19.188,4.127 19.188,3.881C19.188,3.572 19.686,3.447 20.121,3.328C21.991,3.019 22.364,2.774 22.552,0.862C22.613,0.063 22.613,-3.696 22.613,-8.685C22.613,-9.24 22.24,-9.733 22.116,-9.733C21.245,-9.857 18.378,-9.916 11.962,-9.916L3.926,-9.916C3.677,-9.916 3.488,-9.609 3.488,-8.994C3.488,0.678 3.614,1.232 3.739,1.725C3.926,2.651 4.487,2.895 5.92,3.266C6.605,3.447 6.979,3.634 6.979,3.881C6.979,4.251 6.169,4.251 5.857,4.251C4.922,4.251 2.93,4.067 1.434,4.067C0.125,4.067 -1.617,4.251 -2.366,4.251C-2.865,4.251 -3.611,4.191 -3.611,3.818C-3.611,3.634 -2.989,3.387 -2.492,3.328C-0.371,2.895 -0.311,2.342 -0.185,1.048C-0.062,-0.246 0,-3.266 0,-10.412L0,-20.453Z" style="fill:rgb(35,31,32);fill-rule:nonzero;"/>
                </g>
                <g transform="matrix(1,0,0,1,501.64,565.215)">
                    <path d="M0,-28.093C0,-28.337 0.375,-28.524 0.749,-28.524C1.992,-28.524 3.673,-28.337 4.858,-28.337C7.537,-28.337 13.328,-28.46 15.323,-28.46C17.129,-28.46 18.688,-28.524 19.125,-28.524C19.373,-28.524 19.559,-28.093 19.622,-27.784C19.683,-27.292 19.871,-25.135 19.995,-24.273C20.058,-23.781 19.932,-23.41 19.683,-23.41C19.498,-23.41 19.31,-23.718 19.125,-24.15C18.188,-26.241 17.379,-26.982 16.631,-27.107C15.823,-27.228 15.635,-27.292 7.414,-27.292C7.102,-27.292 6.914,-27.168 6.914,-26.614C6.914,-24.088 6.853,-17.066 6.914,-15.711C6.914,-15.463 7.039,-15.217 7.288,-15.217L12.644,-15.217C15.137,-15.217 16.196,-15.463 16.694,-15.711C17.003,-15.894 17.379,-16.263 17.878,-17.497C18.003,-17.866 18.188,-18.234 18.437,-18.234C18.624,-18.234 18.688,-17.988 18.688,-17.372C18.688,-17.126 18.437,-15.277 18.375,-14.602C18.316,-13.86 18.316,-12.198 18.375,-11.829C18.437,-11.396 18.316,-10.905 18.127,-10.905C17.878,-10.905 17.753,-11.212 17.441,-11.952C17.129,-12.692 16.818,-13.677 16.072,-13.801C15.323,-13.984 13.891,-14.107 7.164,-14.107C7.039,-14.107 6.79,-13.925 6.79,-13.491C6.727,-12.011 6.914,-4.499 6.977,-3.574C7.102,-1.85 7.164,-1.046 8.223,-0.925C8.846,-0.864 10.651,-0.739 13.268,-0.739C17.813,-0.739 18.252,-0.987 19,-1.54C19.498,-1.972 20.183,-2.835 21.117,-4.437C21.367,-4.929 21.616,-5.238 21.801,-5.238C22.052,-5.238 22.113,-4.803 21.801,-3.943C21.616,-3.448 20.868,-0.864 20.742,-0.247C20.681,0.061 20.246,0.431 19.871,0.431C14.578,0.431 9.592,0.247 5.107,0.247C3.488,0.247 1.369,0.431 0.811,0.431C0.247,0.431 -0.437,0.431 -0.437,0.061C-0.437,-0.186 0.062,-0.372 0.561,-0.433C2.244,-0.739 2.991,-1.232 3.114,-3.08C3.3,-6.036 3.3,-11.458 3.3,-16.078L3.3,-24.273C3.3,-26.736 2.553,-27.228 0.872,-27.601C0.312,-27.722 0.062,-27.907 0.062,-28.154L0,-28.093Z" style="fill:rgb(35,31,32);fill-rule:nonzero;"/>
                </g>
                <g transform="matrix(1,0,0,1,530.334,560.102)">
                    <path d="M0,-17.867C0,-15.464 1.558,-13.739 3.118,-12.63C4.922,-11.46 6.543,-10.411 8.35,-9.365C10.217,-8.132 13.27,-5.975 13.27,-2.158C13.27,3.08 8.411,6.283 3.427,6.283C1.184,6.283 -1.554,5.729 -3.176,4.927C-3.798,4.74 -3.923,3.944 -4.108,3.204C-4.171,2.401 -4.359,1.416 -4.484,-0.125C-4.545,-0.679 -4.484,-1.172 -4.235,-1.172C-3.986,-1.172 -3.674,-0.741 -3.423,-0.002C-2.927,1.664 -2.18,2.955 -1.058,3.82C0.437,4.989 2.431,5.36 3.616,5.36C7.475,5.36 9.719,2.895 9.719,-0.308C9.719,-3.636 7.85,-5.3 3.677,-7.763C0.126,-9.857 -3.113,-12.385 -3.113,-16.449C-3.113,-18.668 -2.052,-20.945 -0.123,-22.302C1.621,-23.597 4.051,-24.15 6.168,-24.15C8.597,-24.15 10.655,-23.411 11.276,-23.164C11.651,-23.041 11.837,-22.795 11.9,-22.548C11.9,-21.254 12.149,-19.776 12.275,-19.097C12.398,-18.42 12.335,-17.99 12.086,-17.99C11.837,-17.99 11.651,-18.298 11.463,-18.914C10.965,-20.269 10.341,-21.254 9.409,-21.933C8.288,-22.856 6.791,-23.287 5.359,-23.287C3.055,-23.287 0,-21.994 0,-17.867" style="fill:rgb(35,31,32);fill-rule:nonzero;"/>
                </g>
                <g transform="matrix(1,0,0,1,567.037,564.782)">
                    <path d="M0,-27.904C2.244,-27.904 3.114,-28.027 3.924,-28.338C4.235,-28.519 4.547,-28.706 4.669,-28.584C4.797,-28.459 4.797,-28.277 4.734,-28.027C4.547,-27.66 4.362,-25.625 4.422,-23.532C4.422,-22.853 4.298,-22.359 4.05,-22.359C3.863,-22.359 3.675,-22.791 3.612,-23.099C3.488,-23.717 2.989,-25.441 2.679,-25.872C2.306,-26.366 2.179,-26.613 0.624,-26.613L-6.667,-26.613C-6.914,-26.613 -7.039,-26.056 -7.039,-25.808L-7.165,-9.609C-7.165,-6.898 -7.165,-3.633 -6.976,-2.217C-6.79,-0.86 -6.104,-0.368 -4.485,-0.058C-3.801,0.061 -3.426,0.31 -3.426,0.557C-3.426,0.804 -4.174,0.926 -4.61,0.926C-6.104,0.926 -7.165,0.68 -9.034,0.68C-11.587,0.68 -12.707,0.926 -13.455,0.926C-14.33,0.926 -14.639,0.741 -14.639,0.557C-14.639,0.31 -14.204,0.123 -13.581,-0C-11.277,-0.305 -10.963,-0.86 -10.902,-3.203C-10.712,-7.822 -10.589,-25.317 -10.589,-25.808C-10.589,-26.056 -10.651,-26.549 -10.902,-26.613L-14.825,-26.613C-16.881,-26.613 -18.376,-26.549 -18.999,-26.488C-19.935,-26.366 -20.682,-25.75 -21.18,-23.285C-21.305,-22.731 -21.491,-22.423 -21.678,-22.423C-21.927,-22.423 -22.052,-22.791 -22.052,-23.347C-22.052,-24.334 -21.554,-26.426 -21.554,-28.027C-21.554,-28.338 -21.491,-28.584 -21.368,-28.706C-21.18,-28.83 -21.054,-28.706 -20.807,-28.459C-20.617,-28.277 -19.935,-28.153 -19.248,-28.091C-18.563,-28.027 -13.518,-27.904 -8.408,-27.904L0,-27.904Z" style="fill:rgb(35,31,32);fill-rule:nonzero;"/>
                </g>
                <g transform="matrix(1,0,0,1,573.767,565.215)">
                    <path d="M0,-28.093C0,-28.337 0.374,-28.524 0.748,-28.524C1.994,-28.524 3.673,-28.337 4.857,-28.337C7.536,-28.337 13.331,-28.46 15.324,-28.46C17.13,-28.46 18.686,-28.524 19.123,-28.524C19.372,-28.524 19.561,-28.093 19.622,-27.784C19.685,-27.292 19.873,-25.135 19.997,-24.273C20.057,-23.781 19.935,-23.41 19.685,-23.41C19.496,-23.41 19.31,-23.718 19.123,-24.15C18.19,-26.241 17.378,-26.982 16.632,-27.107C15.822,-27.228 15.635,-27.292 7.413,-27.292C7.099,-27.292 6.915,-27.168 6.915,-26.614C6.915,-24.088 6.852,-17.066 6.915,-15.711C6.915,-15.463 7.039,-15.217 7.287,-15.217L12.643,-15.217C15.138,-15.217 16.195,-15.463 16.695,-15.711C17.004,-15.894 17.378,-16.263 17.878,-17.497C18.001,-17.866 18.19,-18.234 18.437,-18.234C18.627,-18.234 18.686,-17.988 18.686,-17.372C18.686,-17.126 18.437,-15.277 18.376,-14.602C18.313,-13.86 18.313,-12.198 18.376,-11.829C18.437,-11.396 18.313,-10.905 18.128,-10.905C17.878,-10.905 17.755,-11.212 17.44,-11.952C17.13,-12.692 16.819,-13.677 16.072,-13.801C15.324,-13.984 13.891,-14.107 7.164,-14.107C7.039,-14.107 6.791,-13.925 6.791,-13.491C6.727,-12.011 6.915,-4.499 6.975,-3.574C7.099,-1.85 7.164,-1.046 8.223,-0.925C8.846,-0.864 10.65,-0.739 13.269,-0.739C17.815,-0.739 18.25,-0.987 19,-1.54C19.496,-1.972 20.18,-2.835 21.117,-4.437C21.365,-4.929 21.616,-5.238 21.801,-5.238C22.051,-5.238 22.114,-4.803 21.801,-3.943C21.616,-3.448 20.869,-0.864 20.742,-0.247C20.683,0.061 20.245,0.431 19.873,0.431C14.577,0.431 9.594,0.247 5.106,0.247C3.488,0.247 1.37,0.431 0.811,0.431C0.25,0.431 -0.434,0.431 -0.434,0.061C-0.434,-0.186 0.06,-0.372 0.56,-0.433C2.243,-0.739 2.991,-1.232 3.116,-3.08C3.301,-6.036 3.301,-11.458 3.301,-16.078L3.301,-24.273C3.301,-26.736 2.554,-27.228 0.872,-27.601C0.311,-27.722 0.06,-27.907 0.06,-28.154L0,-28.093Z" style="fill:rgb(35,31,32);fill-rule:nonzero;"/>
                </g>
                <g transform="matrix(1,0,0,1,604.329,564.596)">
                    <path d="M0,-26.609C-0.125,-26.549 -0.312,-26.241 -0.374,-25.379C-0.435,-24.64 -0.56,-15.523 -0.56,-14.783C-0.56,-14.537 -0.435,-13.859 -0.125,-13.859C0.624,-13.797 1.621,-13.797 2.616,-13.797C4.485,-13.859 5.98,-14.351 7.041,-14.968C8.412,-15.83 9.781,-17.496 9.781,-20.018C9.781,-21.867 9.157,-23.408 8.098,-24.64C6.79,-26.058 4.86,-26.982 2.431,-26.982C1.932,-26.982 0.5,-26.856 0,-26.609M-0.56,-6.284C-0.56,-3.017 -0.374,-1.969 -0.312,-1.599C-0.247,-0.613 0.5,-0.12 1.869,0.127C2.306,0.186 2.867,0.371 2.867,0.618C2.867,0.866 2.306,1.05 1.745,1.05C0.685,1.05 -1.183,0.866 -2.927,0.866C-4.674,0.866 -5.605,1.05 -6.54,1.05C-7.286,1.05 -7.6,0.866 -7.6,0.68C-7.6,0.433 -7.225,0.246 -6.54,0.127C-4.795,-0.182 -4.297,-0.674 -4.173,-2.338C-3.985,-4.925 -3.985,-8.13 -3.985,-14.719C-3.985,-21.005 -3.985,-23.469 -4.049,-24.701C-4.108,-26.058 -4.546,-26.735 -6.478,-27.042C-6.976,-27.103 -7.413,-27.35 -7.413,-27.535C-7.413,-27.781 -6.852,-27.905 -6.478,-27.905C-5.792,-27.905 -4.61,-27.718 -2.927,-27.718C-0.747,-27.718 1.372,-27.967 3.551,-27.967C6.79,-27.967 8.721,-27.35 10.342,-26.241C12.398,-24.945 13.331,-22.914 13.331,-20.943C13.331,-17.248 10.778,-15.031 7.663,-14.045C7.289,-13.92 7.289,-13.736 7.538,-13.241C8.66,-11.211 11.089,-7.759 13.021,-5.235C14.515,-3.263 15.575,-2.275 16.509,-1.353C17.816,-0.12 19.312,0.371 20.37,0.371C20.932,0.371 20.807,0.743 20.37,0.99C19.934,1.235 19.188,1.358 18.002,1.358C14.763,1.358 13.209,-0.058 11.152,-2.216C8.721,-4.802 5.233,-10.286 4.176,-11.703C3.675,-12.257 2.743,-12.626 2.118,-12.75C1.683,-12.81 0.624,-12.873 -0.125,-12.873C-0.374,-12.873 -0.56,-12.441 -0.56,-12.012L-0.56,-6.284Z" style="fill:rgb(35,31,32);fill-rule:nonzero;"/>
                </g>
                <g transform="matrix(1,0,0,1,570.646,526.874)">
                    <path d="M0,-3.826C-0.838,-2.463 -1.136,-0.976 -1.136,-0.087C-1.136,0.578 -0.856,1.052 -0.21,1.052C0.104,1.052 0.437,0.858 0.944,0.142C1.537,-0.68 2.236,-2.707 2.236,-3.738C2.236,-4.314 2.063,-4.927 1.38,-4.927C1.066,-4.927 0.56,-4.734 0,-3.826M3.53,-3.178C3.53,-1.537 2.744,0.367 1.45,1.26C0.926,1.609 0.297,1.889 -0.314,1.889C-1.73,1.889 -2.517,0.403 -2.498,-0.837C-2.481,-2.48 -1.555,-4.21 -0.472,-5.033C0.07,-5.434 1.014,-5.715 1.398,-5.715C2.778,-5.715 3.53,-4.437 3.53,-3.178" style="fill:rgb(35,31,32);fill-rule:nonzero;"/>
                </g>
                <g transform="matrix(1,0,0,1,580.784,528.168)">
                    <path d="M0,-6.814C0.333,-6.832 0.402,-6.728 0.402,-6.622C0.402,-6.464 0.228,-6.099 0,-6.044C-0.176,-6.011 -0.996,-5.975 -1.346,-5.96C-1.451,-5.96 -1.748,-5.871 -1.8,-5.679C-2.621,-1.799 -3.163,0.246 -3.512,1.538C-3.878,2.866 -4.352,3.443 -5.366,4.074C-6.168,4.562 -6.765,4.736 -7.182,4.736C-7.602,4.736 -8.389,4.405 -8.389,3.828C-8.389,3.495 -8.213,3.093 -8.039,2.988C-7.952,2.955 -7.532,2.849 -7.445,2.935C-7.025,3.338 -6.519,3.688 -6.187,3.688C-5.768,3.688 -5.418,3.566 -5.051,2.168C-4.544,0.246 -3.39,-5.016 -3.25,-5.713C-3.25,-5.784 -3.286,-5.922 -3.373,-5.922L-4.508,-5.889C-4.58,-5.889 -4.701,-6.028 -4.701,-6.116C-4.701,-6.378 -4.404,-6.673 -4.335,-6.673C-4.194,-6.692 -3.494,-6.728 -3.198,-6.745C-3.076,-6.745 -2.989,-6.918 -2.953,-6.954C-2.482,-8.527 -1.608,-10.241 -0.402,-11.01C0.228,-11.413 0.839,-11.55 1.153,-11.55C2.307,-11.55 2.796,-10.92 2.796,-10.293C2.796,-10.117 2.725,-9.733 2.429,-9.505C2.29,-9.402 2.062,-9.332 1.939,-9.332C1.853,-9.332 1.624,-9.436 1.607,-9.577C1.521,-10.309 1.241,-10.763 0.577,-10.763C0.384,-10.763 0,-10.59 -0.35,-10.1C-0.683,-9.61 -1.172,-8.372 -1.486,-6.902C-1.503,-6.832 -1.38,-6.745 -1.363,-6.745L0,-6.814Z" style="fill:rgb(35,31,32);fill-rule:nonzero;"/>
                </g>
                <g transform="matrix(1,0,0,1,418.979,530.803)">
                    <path d="M0,-13.118C0.862,-13.118 1.335,-12.977 2.474,-12.977C3.391,-12.977 3.864,-13.032 4.586,-13.032C5.17,-13.032 5.392,-12.866 5.392,-12.727C5.392,-12.534 5.281,-12.366 4.641,-12.228C3.836,-12.061 3.391,-11.893 3.391,-10.839C3.363,-9.255 3.391,-7.307 3.419,-5.53C3.447,-3.723 4.253,-2.529 4.698,-2.167C5.226,-1.78 6.197,-1.364 7.143,-1.364C8.921,-1.364 10.422,-1.835 10.729,-5.169C10.867,-7.169 10.84,-10.366 10.84,-10.698C10.756,-11.588 10.617,-12.089 9.312,-12.309C9.006,-12.366 8.727,-12.534 8.727,-12.727C8.727,-12.977 9.088,-13.032 9.45,-13.032C10.145,-13.032 10.061,-12.977 10.756,-12.977C11.868,-12.977 12.841,-13.118 13.452,-13.118C13.869,-13.118 14.091,-12.923 14.091,-12.84C14.091,-12.561 13.812,-12.45 13.452,-12.366C12.424,-12.116 12.119,-11.782 12.089,-10.643C12.062,-9.866 11.951,-8.364 11.896,-6.696C11.839,-4.391 11.367,-2.25 9.894,-1.083C9.088,-0.415 8.004,0 6.531,0C5.003,0 3.753,-0.472 2.974,-1.139C1.807,-2.11 1.195,-3.501 1.195,-6.892C1.195,-7.642 1.168,-10.809 1.111,-11.311C1.085,-11.588 1,-12.089 -0.11,-12.339C-0.444,-12.421 -0.75,-12.645 -0.75,-12.783C-0.75,-13.032 -0.444,-13.118 0,-13.118" style="fill:rgb(35,31,32);fill-rule:nonzero;"/>
                </g>
                <g transform="matrix(1,0,0,1,435.68,530.775)">
                    <path d="M0,-13.063C0.639,-13.063 2.501,-12.895 3.141,-12.895C3.361,-12.895 3.502,-12.783 3.696,-12.534C4.224,-11.866 4.835,-11.256 5.557,-10.422C6.309,-9.559 9.921,-5.643 11.339,-4.141C11.365,-4.114 11.533,-4.084 11.533,-4.251C11.561,-5.782 11.7,-9.421 11.561,-10.754C11.478,-11.56 11.173,-12.006 9.837,-12.311C9.616,-12.393 9.254,-12.506 9.254,-12.755C9.254,-13.063 9.837,-13.063 9.921,-13.063C10.866,-13.063 11.588,-12.95 12.284,-12.95C12.839,-12.95 13.534,-13.063 14.229,-13.063C14.507,-13.063 14.813,-12.95 14.813,-12.755C14.813,-12.559 14.673,-12.477 14.229,-12.311C13.145,-12.006 12.922,-11.644 12.812,-10.562C12.701,-9.504 12.562,-5.948 12.562,-4.334C12.562,-2.778 12.644,-0.944 12.644,-0.75C12.644,-0.305 12.533,0 12.284,0C12.088,0 11.672,-0.222 11.449,-0.417C10.978,-0.973 9.894,-2.446 8.364,-4.084C7.086,-5.475 5.141,-7.866 3.502,-9.588C3.446,-9.672 3.251,-9.672 3.251,-9.475C3.224,-8.532 3.085,-4.5 3.224,-2.667C3.307,-1.778 3.947,-1.39 4.781,-1.112C5.086,-1 5.28,-0.889 5.28,-0.696C5.28,-0.417 4.892,-0.335 4.642,-0.335C4.558,-0.335 3.696,-0.417 2.918,-0.417C2.223,-0.417 1.057,-0.25 0.445,-0.25C0.084,-0.25 -0.223,-0.335 -0.223,-0.612C-0.223,-0.75 -0.111,-0.861 0.417,-1C1.751,-1.336 1.917,-1.834 2.001,-2.529C2.057,-3.223 2.223,-5.836 2.223,-8.283C2.223,-9.588 2.196,-10.338 2.167,-10.562C2.139,-10.782 1.723,-11.479 1.168,-11.895C0.917,-12.088 0.611,-12.228 0.028,-12.338C-0.473,-12.422 -0.695,-12.559 -0.695,-12.783C-0.695,-12.895 -0.361,-13.063 0,-13.063" style="fill:rgb(35,31,32);fill-rule:nonzero;"/>
                </g>
                <g transform="matrix(1,0,0,1,454.103,530.384)">
                    <path d="M0,-12.642C0.222,-12.614 2.168,-12.559 2.972,-12.559C3.834,-12.559 5.057,-12.642 5.668,-12.725C5.863,-12.754 6.28,-12.559 6.28,-12.421C6.28,-12.227 5.919,-11.977 5.585,-11.92C4.251,-11.531 4.14,-11.307 4.086,-10.309C4.029,-9.696 4.029,-8.28 4.029,-6.474C4.029,-4.888 4.029,-3.471 4.059,-2.889C4.113,-1.304 4.307,-1.055 5.614,-0.748C5.948,-0.664 6.252,-0.443 6.252,-0.194C6.252,0.004 5.975,0.055 5.697,0.055C4.919,0.055 4.168,-0.026 2.972,-0.026C2.168,-0.026 0.695,0.112 0.166,0.112C-0.251,0.112 -0.5,0.004 -0.5,-0.194C-0.5,-0.443 -0.083,-0.636 0.166,-0.721C1.501,-1.055 1.75,-1.362 1.806,-2.416C1.834,-2.914 1.861,-3.777 1.861,-4.695C1.861,-7.614 1.861,-9.558 1.834,-10.002C1.75,-11.198 1.279,-11.559 0.195,-11.865C-0.305,-12.032 -0.389,-12.227 -0.389,-12.392C-0.389,-12.504 -0.305,-12.672 0,-12.642" style="fill:rgb(35,31,32);fill-rule:nonzero;"/>
                </g>
                <g transform="matrix(1,0,0,1,463.911,530.915)">
                    <path d="M0,-13.23C0.528,-13.23 1.639,-13.089 2.53,-13.089C3.364,-13.089 4.169,-13.172 4.808,-13.172C5.362,-13.172 5.53,-13.008 5.53,-12.839C5.53,-12.673 5.335,-12.533 4.892,-12.395C3.807,-12.173 3.863,-11.7 4.113,-11.062C4.474,-10.174 4.892,-9.031 5.474,-7.615C6.114,-6.197 6.782,-4.336 7.114,-3.972C7.225,-3.864 7.337,-3.723 7.447,-4.031C7.78,-4.808 9.616,-9.312 10.061,-10.588C10.476,-11.837 10.421,-12.146 9.31,-12.421C9.06,-12.507 8.726,-12.699 8.726,-12.868C8.726,-12.952 8.949,-13.172 9.394,-13.172C10.144,-13.172 10.505,-13.089 11.2,-13.089C12.173,-13.089 13.034,-13.23 13.478,-13.23C13.785,-13.23 14.09,-13.144 14.09,-12.952C14.09,-12.673 13.757,-12.562 13.368,-12.451C12.479,-12.228 11.95,-11.784 11.255,-10.478C10.616,-9.339 9.894,-7.419 9.004,-5.449C7.67,-2.501 7.225,-1.084 7.087,-0.751C6.975,-0.418 6.586,0 6.363,0C6.17,0 6.003,-0.308 5.948,-0.556C5.892,-0.779 5.474,-2.195 4.92,-3.473C4.28,-4.946 2.335,-9.587 1.501,-11.229C1.168,-11.837 0.779,-12.257 -0.194,-12.478C-0.445,-12.562 -0.806,-12.699 -0.806,-12.895C-0.806,-13.172 -0.389,-13.23 0,-13.23" style="fill:rgb(35,31,32);fill-rule:nonzero;"/>
                </g>
                <g transform="matrix(1,0,0,1,486.113,524.685)">
                    <path d="M0,-1.19C1.194,-1.19 1.334,-1.331 1.723,-2.274C1.862,-2.526 2.056,-2.831 2.251,-2.831C2.473,-2.831 2.501,-2.553 2.501,-2.193C2.501,-1.997 2.417,-1.635 2.417,-0.913C2.417,-0.107 2.501,-0.022 2.501,0.56C2.501,1.171 2.334,1.339 2.112,1.339C1.945,1.339 1.806,1.117 1.667,0.781C1.418,0.227 1.305,-0.022 1.056,-0.133C0.723,-0.245 -0.917,-0.301 -1.362,-0.245C-1.445,-0.245 -1.584,-0.051 -1.64,0.142C-1.724,0.644 -1.751,3.451 -1.584,4.118C-1.556,4.228 -1.222,4.505 -1.112,4.562C-0.945,4.672 -0.083,4.869 0.557,4.869C1.194,4.869 1.974,4.81 2.334,4.7C3.196,4.45 3.53,4.312 4.335,3.063C4.558,2.701 4.725,2.506 4.891,2.506C5.17,2.506 5.17,2.977 5.17,3.115C5.17,3.561 4.613,5.284 4.418,5.562C4.306,5.754 4.14,5.811 3.53,5.811C0.917,5.811 0.945,5.673 -2.862,5.673C-3.752,5.673 -4.697,5.811 -5.363,5.811C-5.726,5.811 -6.198,5.728 -6.198,5.451C-6.198,5.201 -5.864,5.063 -5.558,4.978C-4.003,4.619 -3.946,4.283 -3.863,3.312C-3.809,2.56 -3.779,0.754 -3.779,-1.051C-3.779,-2.331 -3.779,-3.749 -3.835,-4.943C-3.863,-5.525 -4.03,-5.917 -5.196,-6.192C-5.531,-6.278 -5.864,-6.417 -5.864,-6.666C-5.864,-6.86 -5.558,-6.973 -5.114,-6.973C-4.613,-6.973 -3.724,-6.86 -2.667,-6.86C2.667,-6.86 2.778,-6.833 3.446,-6.973C3.611,-7.001 3.779,-6.833 3.779,-6.722C3.779,-5.917 3.974,-4.749 3.974,-4.359C3.974,-4.024 3.779,-3.859 3.695,-3.859C3.557,-3.859 3.335,-3.971 3.112,-4.414C2.613,-5.441 2.278,-5.805 1.418,-5.917C1.028,-5.944 0.723,-6.028 -1.334,-6.028C-1.445,-6.028 -1.556,-5.776 -1.584,-5.665C-1.667,-5.249 -1.696,-2.442 -1.64,-1.58C-1.64,-1.44 -1.529,-1.302 -1.306,-1.247C-0.861,-1.19 -0.25,-1.19 0,-1.19" style="fill:rgb(35,31,32);fill-rule:nonzero;"/>
                </g>
                <g transform="matrix(1,0,0,1,498.477,529.747)">
                    <path d="M0,-11.116C-0.139,-11.06 -0.277,-10.893 -0.277,-10.67C-0.277,-10.392 -0.362,-6.502 -0.362,-6.252C-0.362,-6.087 -0.249,-5.947 -0.084,-5.947C1.139,-5.947 2.557,-6.17 2.917,-6.418C3.335,-6.726 4.084,-7.448 4.084,-8.56C4.084,-9.726 3.196,-11.254 0.778,-11.254C0.5,-11.254 0.193,-11.2 0,-11.116M-3.918,-11.949L-2.362,-11.949C-1.695,-11.949 -0.611,-12.062 1.695,-12.062C3.501,-12.062 4.725,-11.644 5.308,-11.033C6.002,-10.392 6.308,-9.672 6.308,-8.84C6.308,-6.891 4.753,-6.032 3.918,-5.781C3.864,-5.752 3.779,-5.64 3.807,-5.613C4.363,-4.558 5.475,-2.75 6.614,-1.473C7.254,-0.779 8.143,-0.084 8.92,0.055C9.338,0.139 9.42,0.195 9.42,0.444C9.42,0.778 8.782,0.946 7.753,0.946C6.614,0.946 5.586,0.555 4.391,-0.779C3.891,-1.334 2.334,-3.837 1.89,-4.502C1.64,-4.891 0.833,-5.253 0.193,-5.253C0.083,-5.253 -0.056,-5.224 -0.249,-5.058C-0.306,-5.002 -0.362,-4.92 -0.362,-4.835C-0.362,-4.251 -0.333,-2.777 -0.277,-1.279C-0.249,-0.443 0.222,-0.333 0.944,-0.111C1.168,-0.056 1.5,0.084 1.5,0.305C1.5,0.641 1.028,0.693 0.75,0.693C-0.139,0.693 -0.723,0.612 -1.417,0.612C-2.279,0.612 -3.14,0.806 -4.002,0.806C-4.475,0.806 -4.752,0.666 -4.752,0.473C-4.752,0.305 -4.529,0.084 -4.059,-0.027C-2.807,-0.333 -2.612,-0.582 -2.557,-1.806C-2.528,-2.361 -2.417,-4.781 -2.417,-7.392C-2.417,-8.588 -2.391,-9.281 -2.446,-9.947C-2.501,-10.532 -2.528,-10.978 -3.918,-11.2C-4.335,-11.283 -4.613,-11.449 -4.613,-11.644C-4.613,-11.841 -4.28,-11.949 -3.918,-11.949" style="fill:rgb(35,31,32);fill-rule:nonzero;"/>
                </g>
                <g transform="matrix(1,0,0,1,518.262,530.36)">
                    <path d="M0,-12.535C0.196,-12.508 0.277,-12.174 0.277,-11.867C0.277,-11.064 0.305,-10.424 0.25,-10.061C0.167,-9.534 -0.055,-9.453 -0.138,-9.453C-0.389,-9.453 -0.499,-9.784 -0.583,-10.119C-0.805,-10.924 -1.167,-11.369 -1.529,-11.674C-1.889,-11.978 -2.529,-12.228 -3.196,-12.228C-4.584,-12.228 -5.531,-11.257 -5.531,-10.061C-5.531,-9.119 -4.752,-8.367 -3.807,-7.84C-2.918,-7.34 -2.167,-6.977 -1.361,-6.506C-0.194,-5.838 0.75,-4.81 0.75,-3.252C0.75,-1.974 -0.111,-0.922 -0.917,-0.419C-1.5,-0.029 -2.778,0.443 -4.001,0.443C-5.669,0.443 -6.863,0.053 -7.502,-0.419C-7.727,-0.558 -7.781,-0.836 -7.809,-1.003C-7.836,-1.338 -8.059,-2.67 -8.059,-3.088C-8.059,-3.615 -7.864,-3.837 -7.67,-3.837C-7.42,-3.837 -7.337,-3.531 -7.225,-3.225C-7.087,-2.865 -6.809,-2.281 -6.585,-1.92C-5.892,-1.003 -4.918,-0.335 -3.695,-0.335C-2.14,-0.335 -1.389,-1.447 -1.389,-2.392C-1.389,-3.476 -1.974,-4.059 -3.001,-4.699C-3.835,-5.199 -4.584,-5.589 -5.198,-5.976C-6.196,-6.616 -7.475,-7.699 -7.475,-9.367C-7.475,-11.451 -5.752,-12.978 -2.973,-12.978C-1.555,-12.978 -0.778,-12.648 0,-12.535" style="fill:rgb(35,31,32);fill-rule:nonzero;"/>
                </g>
                <g transform="matrix(1,0,0,1,523.54,530.384)">
                    <path d="M0,-12.642C0.222,-12.614 2.168,-12.559 2.974,-12.559C3.835,-12.559 5.059,-12.642 5.67,-12.725C5.865,-12.754 6.281,-12.559 6.281,-12.421C6.281,-12.227 5.919,-11.977 5.586,-11.92C4.253,-11.531 4.141,-11.307 4.085,-10.309C4.031,-9.696 4.031,-8.28 4.031,-6.474C4.031,-4.888 4.031,-3.471 4.058,-2.889C4.113,-1.304 4.307,-1.055 5.614,-0.748C5.948,-0.664 6.254,-0.443 6.254,-0.194C6.254,0.004 5.976,0.055 5.697,0.055C4.919,0.055 4.169,-0.026 2.974,-0.026C2.168,-0.026 0.696,0.112 0.167,0.112C-0.249,0.112 -0.5,0.004 -0.5,-0.194C-0.5,-0.443 -0.083,-0.636 0.167,-0.721C1.5,-1.055 1.752,-1.362 1.807,-2.416C1.833,-2.914 1.863,-3.777 1.863,-4.695C1.863,-7.614 1.863,-9.558 1.833,-10.002C1.752,-11.198 1.279,-11.559 0.194,-11.865C-0.306,-12.032 -0.388,-12.227 -0.388,-12.392C-0.388,-12.504 -0.306,-12.672 0,-12.642" style="fill:rgb(35,31,32);fill-rule:nonzero;"/>
                </g>
                <g transform="matrix(1,0,0,1,541.962,529.717)">
                    <path d="M0,-11.892C3.142,-11.892 3.391,-12.087 4.085,-12.533C4.198,-12.587 4.503,-12.447 4.503,-12.115C4.448,-10.864 4.586,-9.724 4.586,-9.418C4.586,-9.029 4.337,-8.81 4.198,-8.81C4.003,-8.81 3.836,-9.003 3.753,-9.308C3.252,-10.753 2.809,-10.837 2.224,-10.864C1.64,-10.892 0.083,-10.864 -0.806,-10.781C-0.917,-10.781 -1,-10.531 -1.028,-10.392C-1.082,-9.975 -1.082,-6.89 -1.082,-4.056C-1.082,-2.526 -1.028,-1.609 -0.89,-1.138C-0.722,-0.496 -0.471,-0.388 0.668,-0.081C1.168,0.031 1.363,0.197 1.363,0.391C1.363,0.585 0.973,0.753 0.611,0.753C-0.555,0.753 -0.833,0.641 -2.167,0.641C-2.888,0.641 -4.39,0.779 -5.085,0.779C-5.474,0.779 -5.779,0.614 -5.779,0.391C-5.779,0.169 -5.362,0.031 -5.001,-0.054C-3.444,-0.443 -3.417,-0.777 -3.361,-1.859C-3.278,-4.305 -3.196,-7.197 -3.196,-10.421C-3.196,-10.473 -3.307,-10.726 -3.472,-10.753C-3.973,-10.837 -5.697,-10.976 -6.279,-10.919C-6.808,-10.864 -7.197,-10.614 -7.669,-9.865C-8.004,-9.365 -8.086,-9.113 -8.31,-9.113C-8.531,-9.113 -8.642,-9.446 -8.642,-9.668C-8.615,-10.199 -8.31,-11.501 -8.31,-12.173C-8.31,-12.503 -7.976,-12.671 -7.892,-12.671C-7.697,-12.671 -7.502,-12.447 -7.392,-12.335C-7.142,-12.115 -6.558,-11.892 -3.64,-11.892L0,-11.892Z" style="fill:rgb(35,31,32);fill-rule:nonzero;"/>
                </g>
                <g transform="matrix(1,0,0,1,549.882,530.497)">
                    <path d="M0,-12.812C0.555,-12.812 1.917,-12.671 2.75,-12.671C3.694,-12.671 4.113,-12.754 4.695,-12.754C5.029,-12.754 5.335,-12.617 5.335,-12.45C5.335,-12.228 5.057,-12.033 4.723,-11.95C3.917,-11.755 3.973,-11.366 4.167,-10.921C4.389,-10.337 5.612,-8.198 6.501,-6.615C6.558,-6.531 6.752,-6.558 6.779,-6.615C6.92,-6.863 8.809,-10.144 9.225,-11.06C9.502,-11.617 9.421,-11.755 8.613,-12.003C8.114,-12.144 8.03,-12.281 8.03,-12.45C8.03,-12.617 8.28,-12.754 8.697,-12.754C9.392,-12.754 9.448,-12.671 10.254,-12.671C10.698,-12.671 12.282,-12.785 12.45,-12.785C12.699,-12.785 13.117,-12.699 13.117,-12.504C13.117,-12.199 12.671,-12.033 12.45,-12.003C11.144,-11.783 10.919,-11.419 10.059,-10.337C9.308,-9.421 7.891,-7.001 7.335,-5.89C7.225,-5.669 7.141,-5.503 7.113,-4.863C7.085,-4.251 7.085,-2.638 7.141,-1.999C7.225,-1.332 7.558,-1.083 8.475,-0.861C8.919,-0.749 9.253,-0.666 9.253,-0.417C9.253,-0.221 9.032,-0.057 8.529,-0.057C7.474,-0.057 7.501,-0.138 6.446,-0.138C5.668,-0.138 4.251,0 3.25,0C2.778,0 2.526,-0.083 2.526,-0.361C2.526,-0.471 2.721,-0.666 3.083,-0.749C4.528,-1.058 4.835,-1.388 4.861,-1.861C4.89,-2.388 4.946,-4.085 4.946,-4.528C4.946,-5.197 4.917,-5.224 4.751,-5.669C4.389,-6.586 2.721,-9.449 2.111,-10.255C1.333,-11.419 1.082,-11.755 -0.056,-12.06C-0.473,-12.172 -0.667,-12.339 -0.667,-12.534C-0.667,-12.644 -0.418,-12.812 0,-12.812" style="fill:rgb(35,31,32);fill-rule:nonzero;"/>
                </g>
                <g transform="matrix(1,0,0,1,330.963,558.646)">
                    <path d="M0,-1.269C-0.05,-1.361 -0.161,-1.422 -0.297,-1.457L-1.298,-1.331C-1.71,-1.165 -2.535,-0.952 -2.535,-0.952C-2.622,-0.725 -2.5,-0.581 -2.429,-0.367C-2.396,-0.266 -2.354,-0.132 -2.314,0.009L-1.59,0.101C-1.218,0.148 -1.218,0.148 -1.074,0.156L-0.958,0.161L-0.906,0.166C-0.688,0.179 -0.489,0.188 -0.322,0.176C-0.317,0.154 -0.314,0.136 -0.309,0.113C-0.239,-0.233 0.178,-0.936 0,-1.269" style="fill:rgb(35,31,32);fill-rule:nonzero;"/>
                </g>
                <g transform="matrix(1,0,0,1,331.193,572.152)">
                    <path d="M0,-3.692C-0.071,-3.717 -0.151,-3.735 -0.226,-3.756L-0.304,-3.352L-0.391,-2.478C-0.304,-2.435 -0.229,-2.388 -0.174,-2.338C-0.167,-2.331 -0.16,-2.323 -0.153,-2.316C0.061,-2.084 0.021,-1.678 -0.281,-1.44C-0.51,-1.274 -0.741,-1.157 -0.98,-1.081C-0.967,-1.213 -0.955,-1.346 -0.946,-1.477C-0.913,-1.915 -0.888,-2.198 -0.858,-2.512C-0.833,-2.76 -0.808,-3.024 -0.768,-3.4C-0.758,-3.495 -0.708,-3.702 -0.67,-3.932C-0.629,-4.165 -0.605,-4.421 -0.649,-4.609C-0.666,-4.68 -0.711,-4.733 -0.756,-4.783L-1.229,-4.799L-1.275,-4.799C-1.729,-4.83 -2.047,-4.823 -2.276,-4.807C-2.252,-4.68 -2.227,-4.555 -2.218,-4.421C-2.216,-4.381 -2.214,-4.34 -2.211,-4.3C-2.197,-4.012 -2.123,-3.732 -2.093,-3.446C-2.072,-3.245 -1.972,-2.965 -2.066,-2.778C-2.067,-2.774 -2.068,-2.769 -2.072,-2.766C-2.197,-2.542 -2.261,-2.275 -2.241,-1.977C-2.216,-1.618 -2.171,-1.577 -2.152,-1.239C-2.147,-1.16 -2.137,-1.085 -2.129,-1.004C-2.487,-1.057 -3.021,-1.204 -3.217,-1.626C-3.427,-2.077 -2.962,-2.418 -3.21,-2.51C-3.376,-2.571 -3.791,-2.157 -3.728,-1.581C-3.676,-1.133 -3.421,-0.838 -2.878,-0.517C-2.666,-0.391 -2.357,-0.285 -2.062,-0.215C-2.059,0.017 -2.067,0.193 -2.012,0.421C-1.966,0.601 -2.016,0.825 -1.865,0.972C-1.75,1.086 -1.691,1.076 -1.526,1.138C-1.18,0.954 -1.109,0.365 -1.091,0.064C-1.089,0.017 -1.081,-0.059 -1.074,-0.131C-0.569,-0.159 -0.1,-0.288 0.243,-0.545C0.99,-1.105 1.272,-1.696 1.182,-2.403C1.084,-3.172 0.596,-3.495 0,-3.692" style="fill:rgb(35,31,32);fill-rule:nonzero;"/>
                </g>
                <g transform="matrix(1,0,0,1,330.751,562.461)">
                    <path d="M0,0.997C-0.05,0.852 -0.151,0.78 -0.267,0.641C-0.439,0.433 -0.358,0.012 -0.326,-0.259C-0.308,-0.417 -0.296,-0.573 -0.29,-0.734C-0.287,-0.833 -0.29,-0.935 -0.288,-1.034L-0.592,-1.149C-0.79,-1.229 -1.04,-1.325 -1.155,-1.346C-1.277,-1.366 -1.526,-1.391 -1.812,-1.388C-1.829,-1.022 -1.821,-0.568 -1.997,-0.284C-2.093,-0.131 -2.167,-0.06 -2.188,0.042C-2.2,0.095 -2.198,0.153 -2.181,0.239C-2.135,0.465 -2.066,0.697 -2.005,0.919C-1.865,1.418 -1.835,1.578 -1.799,2.088C-1.798,2.106 -1.796,2.129 -1.792,2.157C-1.785,2.217 -1.777,2.302 -1.769,2.388C-1.531,2.37 -1.287,2.351 -1.028,2.337L-1.03,2.337L-0.415,2.315L-0.213,2.309C-0.2,2.175 -0.186,2.043 -0.178,1.924C-0.175,1.869 -0.116,1.642 -0.067,1.421C-0.023,1.226 0.014,1.042 0,0.997" style="fill:rgb(35,31,32);fill-rule:nonzero;"/>
                </g>
                <g transform="matrix(1,0,0,1,332.428,563.68)">
                    <path d="M0,-3.81C-0.047,-3.701 -0.21,-3.643 -0.39,-3.681C-0.582,-3.722 -0.716,-3.859 -0.687,-3.99C-0.66,-4.116 -0.481,-4.187 -0.288,-4.145C-0.26,-4.138 -0.23,-4.13 -0.202,-4.121C-0.086,-4.076 0.078,-3.976 0.18,-3.728C0.18,-3.728 0.1,-3.764 0,-3.81M1.986,-3.545C1.977,-3.615 1.964,-3.71 1.868,-3.771C1.772,-3.828 1.108,-4.102 0.99,-4.138C0.872,-4.175 0.588,-4.306 0.456,-4.377C0.326,-4.447 0.408,-4.495 -0.149,-4.615C-0.708,-4.732 -1.158,-4.542 -1.419,-4.447C-1.496,-4.419 -1.581,-4.404 -1.672,-4.394C-1.901,-4.371 -2.171,-4.389 -2.451,-4.406C-2.844,-4.428 -2.535,-4.398 -3.875,-4.566C-3.914,-4.57 -3.952,-4.574 -3.99,-4.579C-5.271,-4.7 -6.183,-4.165 -6.512,-3.89C-8.057,-2.585 -7.707,-1.171 -7.588,-0.828C-7.469,-0.484 -7.286,-0.026 -6.879,0.298C-6.242,0.812 -5.5,0.922 -4.742,0.917C-4.545,0.914 -4.348,0.906 -4.153,0.891C-4.077,0.887 -4.015,0.874 -3.943,0.867C-3.977,0.426 -4.003,0.284 -4.131,-0.172L-4.153,-0.247C-4.209,-0.455 -4.27,-0.668 -4.315,-0.888C-4.32,-0.912 -4.314,-0.925 -4.317,-0.947C-4.444,-0.93 -4.569,-0.923 -4.695,-0.925C-4.709,-0.925 -4.725,-0.925 -4.742,-0.93C-5.088,-0.966 -5.696,-1.302 -5.549,-1.922C-5.434,-2.412 -5.189,-2.638 -4.632,-2.874C-4.375,-2.984 -4.078,-3.04 -3.794,-3.061C-3.346,-3.099 -2.929,-3.053 -2.754,-3.027C-2.505,-2.984 -2.06,-2.779 -1.731,-2.664C-1.684,-2.646 -1.639,-2.632 -1.597,-2.619C-1.444,-2.577 -0.718,-2.455 -0.111,-2.499C0.492,-2.548 1.739,-2.81 1.868,-2.939C1.999,-3.07 1.999,-3.473 1.986,-3.545" style="fill:rgb(35,31,32);fill-rule:nonzero;"/>
                </g>
                <g transform="matrix(1,0,0,1,333.502,567.85)">
                    <path d="M0,-4.703C-0.452,-5.64 -1.476,-5.934 -1.951,-5.992C-2.012,-6.002 -2.077,-6.009 -2.146,-6.014C-2.277,-6.024 -2.426,-6.02 -2.58,-6.014C-2.589,-5.866 -2.597,-5.722 -2.612,-5.594L-2.627,-5.493C-2.636,-5.411 -2.658,-5.253 -2.658,-5.138C-2.658,-5.095 -2.653,-5.055 -2.645,-5.032C-2.628,-5.012 -2.579,-4.96 -2.579,-4.96C-2.489,-4.861 -2.378,-4.737 -2.309,-4.541C-2.29,-4.486 -2.282,-4.429 -2.282,-4.362C-2.282,-4.296 -2.292,-4.216 -2.309,-4.122C-2.224,-4.118 -2.137,-4.126 -2.062,-4.101C-1.945,-4.067 -1.843,-4.009 -1.763,-3.911C-1.335,-3.386 -1.576,-2.939 -1.86,-2.753C-2.001,-2.661 -2.365,-2.636 -2.815,-2.616C-3.104,-2.604 -3.43,-2.598 -3.757,-2.583C-4.148,-2.565 -4.529,-2.538 -4.903,-2.493C-5.032,-2.479 -5.159,-2.464 -5.285,-2.446C-6.517,-2.276 -6.982,-1.397 -7.108,-1.079C-7.496,0.085 -6.522,0.769 -5.528,1.118C-5.465,1.14 -5.402,1.161 -5.339,1.179C-5.262,1.204 -5.184,1.228 -5.106,1.249C-5.007,1.274 -4.904,1.299 -4.802,1.321C-4.804,1.272 -4.82,1.177 -4.831,1.118L-4.864,0.907L-4.917,0.577C-4.945,0.402 -4.977,0.221 -4.986,0.025L-4.991,-0.085L-4.995,-0.149C-5.021,-0.162 -5.051,-0.172 -5.076,-0.182C-5.134,-0.21 -5.19,-0.237 -5.241,-0.264C-5.382,-0.345 -5.482,-0.424 -5.509,-0.505C-5.551,-0.708 -5.366,-0.827 -5.093,-0.899C-4.526,-1.044 -3.585,-0.965 -3.518,-0.964C-3.318,-0.956 -3.119,-0.947 -2.926,-0.944C-2.573,-0.938 -2.231,-0.951 -1.917,-1.003C-1.611,-1.057 -1.353,-1.13 -1.07,-1.261C-0.748,-1.401 -0.217,-1.684 0.186,-2.577C0.428,-3.11 0.451,-3.766 0,-4.703" style="fill:rgb(35,31,32);fill-rule:nonzero;"/>
                </g>
                <g transform="matrix(1,0,0,1,342.306,532.477)">
                    <path d="M0,5.432L0,-2.376L0.897,-2.376L0.897,1.771C1.41,2.192 1.736,2.735 1.736,3.337C1.736,4.246 1.03,5.025 0,5.432M0,7.885L0,6.586C0.503,6.744 0.831,6.976 0.831,7.235C0.831,7.496 0.503,7.725 0,7.885M-3.993,7.235C-3.993,6.981 -3.682,6.755 -3.197,6.596L-3.197,7.875C-3.682,7.718 -3.993,7.491 -3.993,7.235M-4.935,3.337C-4.935,2.735 -4.609,2.192 -4.095,1.771L-4.095,-2.376L-3.197,-2.376L-3.197,5.432C-4.228,5.025 -4.935,4.246 -4.935,3.337M-1.833,-2.376L-1.833,5.721C-2.146,5.705 -2.446,5.659 -2.729,5.587L-2.729,-2.376L-1.833,-2.376ZM-1.366,6.375C-1.043,6.387 -0.742,6.42 -0.469,6.471L-0.469,8C-0.742,8.051 -1.043,8.082 -1.366,8.094L-1.366,6.375ZM-1.833,8.094C-2.157,8.08 -2.458,8.047 -2.729,7.993L-2.729,6.479C-2.458,6.424 -2.157,6.391 -1.833,6.377L-1.833,8.094ZM-0.469,-2.376L-0.469,5.587C-0.751,5.659 -1.052,5.705 -1.366,5.721L-1.366,-2.376L-0.469,-2.376ZM3.468,2.502C2.708,1.148 2.544,0.02 2.544,-0.55L2.544,-2.376L2.847,-2.376L2.847,-1.975C2.945,-1.9 3.059,-1.857 3.18,-1.857C3.538,-1.857 3.832,-2.236 3.832,-2.705C3.832,-3.176 3.538,-3.558 3.18,-3.558C3.059,-3.558 2.945,-3.513 2.847,-3.435L2.847,-3.039L2.544,-3.039L2.544,-4.697L0.897,-4.697L0.897,-3.039L0,-3.039L0,-3.105C0,-3.235 -0.106,-3.339 -0.234,-3.339C-0.363,-3.339 -0.469,-3.235 -0.469,-3.105L-0.469,-3.039L-1.366,-3.039L-1.366,-3.105C-1.366,-3.235 -1.47,-3.339 -1.599,-3.339C-1.728,-3.339 -1.833,-3.235 -1.833,-3.105L-1.833,-3.039L-2.729,-3.039L-2.729,-3.105C-2.729,-3.235 -2.835,-3.339 -2.964,-3.339C-3.092,-3.339 -3.197,-3.235 -3.197,-3.105L-3.197,-3.039L-4.095,-3.039L-4.095,-4.697L-5.742,-4.697L-5.742,-3.039L-6.046,-3.039L-6.046,-3.435C-6.142,-3.513 -6.255,-3.558 -6.378,-3.558C-6.739,-3.558 -7.029,-3.176 -7.029,-2.705C-7.029,-2.236 -6.739,-1.857 -6.378,-1.857C-6.255,-1.857 -6.142,-1.9 -6.046,-1.975L-6.046,-2.376L-5.742,-2.376L-5.742,-0.55C-5.742,0.02 -5.906,1.148 -6.666,2.502C-7.632,4.219 -6.904,6.868 -6.829,7.168C-6.613,8.047 -6.004,9.627 -5.673,10.129L2.473,10.129C2.805,9.627 3.418,8.047 3.632,7.168C3.705,6.868 4.434,4.219 3.468,2.502" style="fill:rgb(35,31,32);fill-rule:nonzero;"/>
                </g>
                <g transform="matrix(1,0,0,1,327.212,581.087)">
                    <path d="M0,-59.706C0.065,-59.627 0.148,-59.547 0.25,-59.465C0.348,-59.384 0.54,-59.208 0.596,-59.215C0.634,-59.219 0.722,-59.357 0.764,-59.434C0.808,-59.514 0.837,-59.596 0.858,-59.689C0.877,-59.783 0.885,-59.883 0.885,-59.994C0.885,-60.152 0.858,-60.294 0.81,-60.416C0.762,-60.537 0.693,-60.635 0.608,-60.705C0.525,-60.771 0.423,-60.81 0.314,-60.81C0.216,-60.807 0.124,-60.779 0.048,-60.729C-0.028,-60.68 -0.091,-60.607 -0.136,-60.522C-0.18,-60.438 -0.203,-60.335 -0.203,-60.225C-0.203,-60.13 -0.186,-60.043 -0.152,-59.957C-0.119,-59.871 -0.068,-59.787 0,-59.706M-0.127,-56.726C-0.068,-56.64 0.004,-56.574 0.086,-56.529C0.17,-56.486 0.264,-56.462 0.362,-56.462C0.478,-56.462 0.586,-56.498 0.676,-56.564C0.771,-56.631 0.846,-56.726 0.899,-56.842C0.953,-56.955 0.983,-57.092 0.983,-57.242C0.983,-57.352 0.965,-57.455 0.93,-57.553C0.893,-57.648 0.839,-57.74 0.764,-57.83C0.691,-57.918 0.599,-58.006 0.49,-58.096C0.377,-58.186 0.167,-58.385 0.099,-58.379C0.048,-58.377 -0.071,-58.21 -0.133,-58.111C-0.194,-58.015 -0.242,-57.909 -0.273,-57.795C-0.305,-57.68 -0.319,-57.559 -0.319,-57.431C-0.319,-57.283 -0.302,-57.148 -0.268,-57.029C-0.236,-56.91 -0.188,-56.809 -0.127,-56.726M6.857,-58.139C6.874,-57.988 6.897,-57.853 6.924,-57.734C6.95,-57.611 6.981,-57.506 7.017,-57.418C7.054,-57.326 7.091,-57.251 7.135,-57.189C7.181,-57.129 7.228,-57.084 7.28,-57.055C7.33,-57.022 7.389,-57.008 7.449,-57.008C7.526,-57.006 7.592,-57.027 7.652,-57.068C7.71,-57.107 7.759,-57.172 7.801,-57.253C7.842,-57.334 7.874,-57.437 7.899,-57.561C7.924,-57.685 7.943,-57.832 7.954,-58.001C7.966,-58.17 7.971,-58.357 7.971,-58.566C7.971,-58.774 7.966,-58.969 7.957,-59.146C7.946,-59.325 7.933,-59.488 7.914,-59.639C7.893,-59.787 7.872,-59.926 7.843,-60.045C7.815,-60.166 7.784,-60.273 7.749,-60.365C7.712,-60.455 7.672,-60.531 7.629,-60.596C7.585,-60.655 7.537,-60.705 7.488,-60.736C7.437,-60.768 7.383,-60.783 7.328,-60.786C7.252,-60.786 7.187,-60.769 7.13,-60.727C7.074,-60.686 7.025,-60.627 6.982,-60.541C6.942,-60.459 6.907,-60.355 6.881,-60.23C6.855,-60.105 6.834,-59.957 6.824,-59.787C6.811,-59.621 6.803,-59.43 6.803,-59.219C6.803,-59.009 6.809,-58.813 6.817,-58.633C6.827,-58.454 6.84,-58.289 6.857,-58.139M33.508,-27.18C33.832,-25.698 34.082,-23.642 34.158,-21.685C32.689,-21.874 30.571,-22.119 28.015,-22.373C28.147,-22.766 28.257,-23.141 28.373,-23.521C28.375,-23.521 28.378,-23.519 28.38,-23.519C28.582,-23.496 28.78,-23.471 28.972,-23.447C29.198,-23.419 29.423,-23.391 29.636,-23.361L30.443,-23.258L30.657,-24.049C30.789,-24.537 30.906,-25.016 31.013,-25.478C31.045,-25.619 31.069,-25.751 31.1,-25.891C31.168,-26.208 31.237,-26.521 31.293,-26.823C31.325,-26.985 31.348,-27.137 31.375,-27.293C31.422,-27.557 31.47,-27.822 31.509,-28.07C31.535,-28.244 31.555,-28.402 31.578,-28.57C31.609,-28.785 31.64,-29.006 31.666,-29.213C31.689,-29.394 31.705,-29.562 31.722,-29.736C31.741,-29.903 31.759,-30.074 31.775,-30.234C31.792,-30.435 31.804,-30.617 31.816,-30.797C31.824,-30.908 31.834,-31.023 31.841,-31.127C31.854,-31.344 31.863,-31.537 31.871,-31.727C31.872,-31.778 31.875,-31.835 31.877,-31.885C31.884,-32.112 31.888,-32.316 31.89,-32.507C33.397,-32.305 34.667,-32.119 35.727,-31.967C35.281,-30.797 33.508,-27.18 33.508,-27.18M2.453,-25.744C-10.835,-25.744 -19.635,-24.982 -24.846,-24.285C-25.882,-28.121 -26.052,-31.144 -26.052,-32.71L-26.052,-34.617C-21.039,-35.334 -11.917,-36.23 2.453,-36.23C16.823,-36.23 25.946,-35.334 30.958,-34.617L30.958,-32.71C30.958,-31.144 30.787,-28.121 29.753,-24.285C24.536,-24.982 15.742,-25.744 2.453,-25.744M2.271,-1.493L2.261,-1.493C2.261,-1.493 2.403,-1.434 2.453,-1.405C2.522,-1.439 2.63,-1.482 2.63,-1.482C10.616,-5.107 16.715,-10.383 20.765,-17.182C22.202,-19.598 23.193,-21.899 23.887,-23.982C24.19,-23.955 24.481,-23.928 24.772,-23.9C24.06,-21.713 23.027,-19.287 21.51,-16.74C17.374,-9.791 11.142,-4.393 2.989,-0.693L2.982,-0.69L2.436,-0.455L2.043,-0.641L1.913,-0.701C-6.238,-4.389 -12.467,-9.788 -16.606,-16.74C-18.121,-19.285 -19.156,-21.713 -19.869,-23.9C-19.578,-23.928 -19.288,-23.953 -18.982,-23.98C-18.289,-21.897 -17.299,-19.596 -15.861,-17.182C-11.813,-10.383 -5.716,-5.107 2.271,-1.493M0.549,-24.797C1.177,-24.803 1.803,-24.807 2.453,-24.807C3.102,-24.807 3.73,-24.803 4.356,-24.797C8.441,-23.92 11.515,-20.278 11.515,-15.93C11.515,-10.934 7.449,-6.869 2.453,-6.869C-2.547,-6.869 -6.616,-10.934 -6.616,-15.93C-6.616,-20.278 -3.539,-23.92 0.549,-24.797M-7.104,-15.93C-7.104,-10.665 -2.819,-6.379 2.453,-6.379C7.718,-6.379 12.004,-10.665 12.004,-15.93C12.004,-19.93 9.538,-23.359 6.05,-24.781C6.133,-24.781 6.214,-24.781 6.296,-24.779C6.701,-24.775 7.096,-24.769 7.492,-24.764C10.553,-23.008 12.625,-19.712 12.625,-15.93C12.625,-10.335 8.062,-5.764 2.453,-5.764C-3.158,-5.764 -7.723,-10.335 -7.723,-15.93C-7.723,-19.712 -5.65,-23.008 -2.587,-24.764C-2.195,-24.769 -1.804,-24.775 -1.402,-24.779C-1.318,-24.781 -1.231,-24.781 -1.147,-24.781C-4.637,-23.359 -7.104,-19.93 -7.104,-15.93M22.708,-16.021C18.41,-8.822 11.97,-3.238 3.569,0.567C3.567,0.567 2.915,0.863 2.453,1.074C1.995,0.865 1.338,0.567 1.338,0.567C-7.066,-3.24 -13.505,-8.822 -17.799,-16.025C-19.44,-18.779 -20.542,-21.408 -21.286,-23.762C-20.997,-23.791 -20.704,-23.822 -20.403,-23.852C-19.678,-21.598 -18.617,-19.095 -17.055,-16.469C-12.853,-9.421 -6.543,-3.953 1.698,-0.224C1.698,-0.224 2.127,-0.027 2.453,0.121C2.785,-0.031 3.215,-0.227 3.215,-0.227C11.448,-3.953 17.758,-9.421 21.962,-16.469C23.525,-19.095 24.583,-21.598 25.307,-23.852C25.61,-23.822 25.904,-23.791 26.19,-23.762C25.447,-21.408 24.347,-18.779 22.708,-16.021M-29.258,-21.685C-29.183,-23.642 -28.93,-25.698 -28.607,-27.18C-28.607,-27.18 -30.375,-30.797 -30.822,-31.967C-29.762,-32.119 -28.495,-32.305 -26.988,-32.507L-26.988,-32.503C-26.987,-32.316 -26.982,-32.112 -26.975,-31.887C-26.973,-31.835 -26.971,-31.775 -26.966,-31.718C-26.96,-31.531 -26.952,-31.344 -26.939,-31.132C-26.933,-31.021 -26.922,-30.904 -26.914,-30.789C-26.901,-30.608 -26.888,-30.431 -26.871,-30.234C-26.856,-30.074 -26.838,-29.903 -26.82,-29.736C-26.801,-29.562 -26.786,-29.394 -26.764,-29.213C-26.738,-29.008 -26.706,-28.789 -26.677,-28.572C-26.652,-28.404 -26.632,-28.244 -26.605,-28.07C-26.567,-27.822 -26.519,-27.56 -26.473,-27.299C-26.445,-27.141 -26.42,-26.988 -26.389,-26.823C-26.333,-26.529 -26.265,-26.221 -26.198,-25.914C-26.167,-25.768 -26.141,-25.625 -26.106,-25.477C-26,-25.014 -25.882,-24.537 -25.75,-24.049L-25.539,-23.258L-24.729,-23.361C-24.511,-23.391 -24.281,-23.421 -24.047,-23.45C-23.877,-23.471 -23.704,-23.492 -23.526,-23.512C-23.507,-23.516 -23.486,-23.518 -23.467,-23.521C-23.352,-23.141 -23.243,-22.766 -23.109,-22.373C-25.669,-22.119 -27.789,-21.874 -29.258,-21.685M-5.165,-60.803L-5.165,-59.937C-12.757,-59.578 -19.329,-58.777 -22.906,-58.278C-22.497,-57.363 -21.915,-56.068 -21.915,-56.068L-21.915,-36.069C-22.209,-36.038 -22.504,-36.006 -22.783,-35.977L-22.783,-55.885C-22.783,-55.885 -23.616,-57.74 -24.17,-58.974C-21.208,-59.408 -13.843,-60.391 -5.165,-60.803M-4.11,-56.845C-3.975,-56.899 -3.861,-56.951 -3.765,-57C-3.671,-57.048 -3.599,-57.092 -3.543,-57.134C-3.491,-57.172 -3.454,-57.21 -3.442,-57.238C-3.426,-57.266 -3.417,-57.324 -3.408,-57.42C-3.401,-57.513 -3.397,-57.643 -3.395,-57.808C-3.393,-57.971 -3.393,-58.168 -3.393,-58.398L-3.393,-59.402C-3.393,-59.631 -3.393,-59.825 -3.395,-59.986C-3.397,-60.147 -3.401,-60.277 -3.408,-60.371C-3.417,-60.465 -3.426,-60.526 -3.442,-60.556C-3.456,-60.585 -3.493,-60.616 -3.547,-60.65C-3.602,-60.682 -3.676,-60.717 -3.77,-60.751C-3.865,-60.788 -3.979,-60.824 -4.11,-60.864L-4.11,-60.964C-3.993,-60.969 -3.879,-60.973 -3.765,-60.982C-3.651,-60.988 -3.541,-61 -3.43,-61.008C-3.321,-61.018 -3.212,-61.031 -3.108,-61.043C-3.003,-61.057 -2.897,-61.07 -2.796,-61.088C-2.691,-61.102 -2.505,-61.146 -2.496,-61.138C-2.485,-61.131 -2.499,-61.012 -2.5,-60.934C-2.502,-60.855 -2.505,-60.764 -2.506,-60.662C-2.508,-60.562 -2.509,-60.449 -2.511,-60.326C-2.514,-60.204 -2.515,-60.068 -2.517,-59.924C-2.517,-59.778 -2.518,-59.621 -2.518,-59.453C-2.518,-59.285 -2.52,-59.103 -2.52,-58.914L-2.52,-58.407C-2.52,-58.178 -2.518,-57.98 -2.517,-57.818C-2.514,-57.652 -2.508,-57.523 -2.502,-57.429C-2.496,-57.332 -2.483,-57.269 -2.47,-57.244C-2.453,-57.215 -2.417,-57.182 -2.364,-57.144C-2.307,-57.105 -2.235,-57.062 -2.142,-57.014C-2.048,-56.965 -1.937,-56.914 -1.807,-56.853L-1.807,-56.727C-1.927,-56.736 -2.046,-56.744 -2.156,-56.751C-2.266,-56.759 -2.369,-56.764 -2.463,-56.768C-2.563,-56.771 -2.654,-56.773 -2.736,-56.775L-2.968,-56.775C-3.043,-56.775 -3.123,-56.775 -3.208,-56.773C-3.293,-56.769 -3.384,-56.766 -3.479,-56.762C-3.575,-56.756 -3.674,-56.75 -3.78,-56.742C-3.887,-56.734 -3.994,-56.727 -4.11,-56.719L-4.11,-56.845ZM-20.522,-56.364L-20.522,-36.209C-20.817,-36.18 -21.11,-36.152 -21.391,-36.126L-21.391,-56.18C-21.484,-56.387 -21.664,-56.787 -21.664,-56.787L-22.142,-57.853L-20.982,-58.001C-16.947,-58.525 -11.367,-59.117 -5.165,-59.415L-5.165,-58.545C-11.521,-58.238 -17.151,-57.625 -20.873,-57.144C-20.767,-56.903 -20.522,-56.364 -20.522,-56.364M-6.452,-37.035C-7.074,-37.019 -7.683,-36.996 -8.28,-36.977C-8.307,-36.977 -8.333,-36.976 -8.359,-36.976C-8.38,-36.976 -8.401,-36.976 -8.42,-36.974C-8.634,-36.964 -8.836,-36.957 -9.046,-36.948C-9.395,-36.935 -9.745,-36.924 -10.084,-36.908L-10.093,-36.908C-14.377,-37.631 -17.655,-41.35 -17.655,-45.834C-17.655,-50.838 -13.586,-54.906 -8.585,-54.906C-3.588,-54.906 0.476,-50.838 0.476,-45.834C0.476,-41.574 -2.483,-38.001 -6.452,-37.035M1.587,-45.834C1.587,-42.131 -0.416,-38.887 -3.393,-37.109C-3.858,-37.098 -4.323,-37.093 -4.775,-37.08C-1.4,-38.559 0.965,-41.922 0.965,-45.834C0.965,-51.105 -3.319,-55.396 -8.585,-55.396C-13.857,-55.396 -18.142,-51.105 -18.142,-45.834C-18.142,-41.677 -15.469,-38.143 -11.752,-36.833C-11.978,-36.822 -12.185,-36.809 -12.407,-36.798C-12.65,-36.784 -12.911,-36.772 -13.151,-36.76C-16.473,-38.438 -18.762,-41.875 -18.762,-45.834C-18.762,-51.449 -14.198,-56.016 -8.585,-56.016C-2.978,-56.016 1.587,-51.449 1.587,-45.834M-1.111,-57.582C-1.089,-57.682 -1.053,-57.775 -1.004,-57.864C-0.954,-57.954 -0.895,-58.037 -0.82,-58.119C-0.745,-58.201 -0.657,-58.278 -0.559,-58.353C-0.458,-58.432 -0.221,-58.579 -0.221,-58.579C-0.221,-58.599 -0.45,-58.75 -0.544,-58.842C-0.636,-58.933 -0.711,-59.029 -0.772,-59.131C-0.833,-59.232 -0.878,-59.338 -0.907,-59.449C-0.938,-59.562 -0.952,-59.679 -0.952,-59.801C-0.952,-59.926 -0.937,-60.049 -0.904,-60.166C-0.871,-60.283 -0.824,-60.394 -0.76,-60.499C-0.701,-60.602 -0.625,-60.7 -0.536,-60.783C-0.447,-60.871 -0.349,-60.947 -0.236,-61.008C-0.127,-61.07 -0.005,-61.121 0.124,-61.154C0.255,-61.189 0.396,-61.209 0.542,-61.21C0.678,-61.21 0.805,-61.198 0.919,-61.165C1.034,-61.133 1.139,-61.083 1.229,-61.022C1.32,-60.959 1.398,-60.885 1.463,-60.801C1.527,-60.715 1.574,-60.619 1.61,-60.518C1.642,-60.412 1.66,-60.301 1.66,-60.184C1.66,-60.068 1.645,-59.957 1.615,-59.85C1.588,-59.744 1.543,-59.645 1.482,-59.549C1.426,-59.451 1.351,-59.355 1.262,-59.264C1.173,-59.17 0.953,-58.994 0.953,-58.984C0.955,-58.959 1.173,-58.824 1.267,-58.743C1.358,-58.664 1.44,-58.585 1.507,-58.501C1.576,-58.421 1.634,-58.335 1.679,-58.247C1.725,-58.158 1.756,-58.066 1.779,-57.969C1.803,-57.868 1.815,-57.764 1.815,-57.65C1.815,-57.513 1.8,-57.388 1.771,-57.269C1.744,-57.152 1.7,-57.043 1.64,-56.937C1.581,-56.83 1.505,-56.732 1.414,-56.631C1.322,-56.535 1.225,-56.449 1.124,-56.374C1.022,-56.303 0.918,-56.24 0.809,-56.193C0.699,-56.143 0.584,-56.105 0.465,-56.082C0.346,-56.06 0.222,-56.047 0.093,-56.047C-0.032,-56.047 -0.148,-56.062 -0.258,-56.09C-0.367,-56.117 -0.469,-56.157 -0.561,-56.21C-0.653,-56.263 -0.734,-56.326 -0.807,-56.4C-0.879,-56.473 -0.941,-56.557 -0.994,-56.646C-1.044,-56.736 -1.082,-56.835 -1.109,-56.939C-1.135,-57.043 -1.149,-57.152 -1.149,-57.266C-1.149,-57.379 -1.137,-57.483 -1.111,-57.582M2.568,-56.418C2.717,-56.445 2.855,-56.482 2.985,-56.527C3.113,-56.57 3.233,-56.625 3.344,-56.683C3.452,-56.742 3.55,-56.807 3.64,-56.881C3.728,-56.951 3.805,-57.031 3.875,-57.115C3.941,-57.199 3.997,-57.287 4.042,-57.379C4.088,-57.477 4.122,-57.573 4.145,-57.678C4.167,-57.78 4.179,-57.887 4.179,-57.998C4.179,-58.111 4.165,-58.22 4.136,-58.314C4.107,-58.412 4.063,-58.496 4.005,-58.572C3.948,-58.648 3.875,-58.712 3.79,-58.764C3.705,-58.816 3.606,-58.856 3.493,-58.883C3.381,-58.912 3.255,-58.926 3.117,-58.926C3.06,-58.926 2.993,-58.921 2.914,-58.917C2.832,-58.912 2.646,-58.883 2.638,-58.896C2.617,-58.919 2.684,-59.185 2.707,-59.325C2.728,-59.465 2.75,-59.602 2.77,-59.735C2.79,-59.867 2.81,-59.999 2.829,-60.125C2.847,-60.251 2.868,-60.375 2.884,-60.496C2.9,-60.614 2.917,-60.734 2.934,-60.847C2.945,-60.962 2.958,-61.167 2.975,-61.181C2.992,-61.191 3.135,-61.154 3.228,-61.144C3.322,-61.138 3.427,-61.133 3.537,-61.127C3.648,-61.123 3.768,-61.123 3.897,-61.121L4.211,-61.121C4.316,-61.123 4.417,-61.123 4.515,-61.127C4.613,-61.131 4.709,-61.133 4.802,-61.138C4.897,-61.144 5.067,-61.165 5.078,-61.154C5.09,-61.14 5.064,-60.977 5.061,-60.883C5.058,-60.79 5.058,-60.695 5.058,-60.602C5.058,-60.57 5.058,-60.506 5.06,-60.412C5.061,-60.314 5.064,-60.189 5.071,-60.033L5.017,-60.033C4.963,-60.133 4.911,-60.189 4.85,-60.221C4.787,-60.251 4.718,-60.258 4.634,-60.258C4.591,-60.258 4.536,-60.258 4.475,-60.261C4.358,-60.263 4.255,-60.263 4.161,-60.263C4.066,-60.263 3.977,-60.263 3.89,-60.266C3.803,-60.266 3.715,-60.268 3.621,-60.268L3.307,-60.268C3.289,-60.135 3.272,-60.033 3.258,-59.932C3.243,-59.832 3.228,-59.73 3.209,-59.598C3.312,-59.602 3.412,-59.602 3.509,-59.602C3.661,-59.602 3.803,-59.593 3.933,-59.572C4.063,-59.553 4.182,-59.523 4.292,-59.484C4.402,-59.446 4.498,-59.396 4.586,-59.335C4.672,-59.28 4.75,-59.21 4.814,-59.131C4.879,-59.055 4.934,-58.965 4.978,-58.871C5.02,-58.772 5.053,-58.666 5.075,-58.55C5.095,-58.432 5.107,-58.306 5.107,-58.17C5.107,-58.055 5.097,-57.945 5.08,-57.835C5.063,-57.727 5.035,-57.619 5,-57.517C4.965,-57.418 4.92,-57.318 4.867,-57.224C4.814,-57.131 4.752,-57.043 4.683,-56.955C4.611,-56.87 4.533,-56.791 4.447,-56.717C4.362,-56.642 4.266,-56.57 4.165,-56.507C4.061,-56.443 3.951,-56.385 3.833,-56.33C3.715,-56.279 3.59,-56.236 3.457,-56.195C3.323,-56.156 3.183,-56.123 3.035,-56.099C2.887,-56.074 2.733,-56.056 2.568,-56.047L2.568,-56.418ZM5.919,-59.194C5.93,-59.318 5.95,-59.437 5.974,-59.555C5.997,-59.672 6.026,-59.785 6.064,-59.898C6.1,-60.01 6.141,-60.114 6.189,-60.221C6.246,-60.342 6.307,-60.453 6.374,-60.547C6.44,-60.648 6.514,-60.734 6.591,-60.807C6.668,-60.883 6.751,-60.943 6.836,-60.992C6.922,-61.041 7.01,-61.078 7.102,-61.102C7.193,-61.126 7.286,-61.138 7.382,-61.136C7.49,-61.133 7.596,-61.117 7.696,-61.09C7.797,-61.064 7.891,-61.025 7.983,-60.973C8.073,-60.926 8.157,-60.867 8.235,-60.795C8.314,-60.723 8.387,-60.642 8.452,-60.551C8.519,-60.459 8.578,-60.359 8.628,-60.249C8.68,-60.141 8.724,-60.019 8.76,-59.893C8.795,-59.765 8.822,-59.629 8.841,-59.486C8.858,-59.342 8.867,-59.189 8.867,-59.027C8.867,-58.847 8.858,-58.674 8.84,-58.51C8.82,-58.348 8.791,-58.193 8.753,-58.047C8.718,-57.904 8.672,-57.771 8.619,-57.643C8.565,-57.518 8.504,-57.406 8.438,-57.303C8.373,-57.201 8.298,-57.111 8.22,-57.031C8.14,-56.951 8.054,-56.883 7.966,-56.83C7.876,-56.775 7.782,-56.732 7.686,-56.705C7.587,-56.678 7.485,-56.664 7.382,-56.664C7.271,-56.664 7.167,-56.678 7.066,-56.703C6.968,-56.727 6.872,-56.766 6.782,-56.815C6.692,-56.865 6.607,-56.926 6.528,-56.998C6.451,-57.068 6.378,-57.15 6.315,-57.244C6.249,-57.339 6.189,-57.441 6.139,-57.553C6.088,-57.668 6.043,-57.791 6.009,-57.92C5.974,-58.054 5.947,-58.193 5.928,-58.344C5.911,-58.493 5.9,-58.65 5.9,-58.814C5.9,-58.944 5.905,-59.07 5.919,-59.194M15.003,-36.908C14.702,-36.921 14.388,-36.931 14.08,-36.941C13.812,-36.955 13.548,-36.964 13.276,-36.976C13.238,-36.976 13.201,-36.977 13.161,-36.978C12.573,-37 11.975,-37.019 11.36,-37.035C7.389,-37.999 4.427,-41.574 4.427,-45.834C4.427,-50.838 8.496,-54.906 13.496,-54.906C18.492,-54.906 22.557,-50.838 22.557,-45.834C22.557,-41.35 19.283,-37.629 15.003,-36.908M23.046,-45.834C23.046,-51.105 18.761,-55.396 13.496,-55.396C8.226,-55.396 3.938,-51.105 3.938,-45.834C3.938,-41.922 6.307,-38.554 9.683,-37.08C9.229,-37.093 8.766,-37.098 8.3,-37.109C5.323,-38.887 3.32,-42.131 3.32,-45.834C3.32,-51.449 7.883,-56.016 13.496,-56.016C19.104,-56.016 23.666,-51.449 23.666,-45.834C23.666,-41.875 21.378,-38.438 18.057,-36.76C17.846,-36.77 17.615,-36.779 17.4,-36.793C17.15,-36.805 16.916,-36.82 16.661,-36.833C20.374,-38.143 23.046,-41.677 23.046,-45.834M10.068,-59.415C16.271,-59.117 21.852,-58.525 25.889,-58.001L27.046,-57.853C27.046,-57.853 26.388,-56.389 26.295,-56.18L26.295,-36.123C26.014,-36.152 25.723,-36.18 25.43,-36.209L25.43,-56.364C25.43,-56.364 25.67,-56.903 25.777,-57.144C22.058,-57.625 16.424,-58.238 10.068,-58.545L10.068,-59.415ZM10.068,-60.803C18.747,-60.391 26.111,-59.408 29.071,-58.974C28.518,-57.74 27.685,-55.882 27.685,-55.882L27.685,-35.977C27.407,-36.006 27.111,-36.038 26.817,-36.069L26.817,-56.068C26.817,-56.068 27.398,-57.363 27.809,-58.276C24.231,-58.777 17.661,-59.578 10.068,-59.937L10.068,-60.803ZM37.016,-32.725L35.111,-33.001C34.193,-33.134 33.115,-33.287 31.894,-33.451L31.894,-35.427L31.09,-35.546C30.702,-35.602 30.289,-35.656 29.854,-35.715L29.854,-55.418C30.026,-55.799 32.21,-60.666 32.21,-60.666L30.824,-60.898C30.688,-60.92 17.137,-63.164 2.453,-63.164C-12.236,-63.164 -25.788,-60.92 -25.924,-60.898L-27.31,-60.666C-27.31,-60.666 -25.123,-55.799 -24.951,-55.416L-24.951,-35.71C-25.384,-35.656 -25.796,-35.602 -26.184,-35.546L-26.992,-35.427L-26.992,-33.447C-28.214,-33.287 -29.291,-33.134 -30.208,-33.001L-32.113,-32.732L-31.697,-31.63C-31.308,-30.604 -29.993,-27.89 -29.574,-27.035C-29.888,-25.488 -30.127,-23.553 -30.192,-21.717L-30.234,-20.603L-29.131,-20.754C-27.537,-20.964 -25.357,-21.21 -22.787,-21.463C-22.787,-21.463 -22.787,-21.467 -22.789,-21.471C-22.032,-19.412 -21.026,-17.203 -19.664,-14.915C-15.137,-7.323 -8.373,-1.448 0.441,2.543C0.44,2.543 2.003,3.253 2.003,3.253L2.453,3.458L4.465,2.543C13.276,-1.448 20.042,-7.323 24.57,-14.912C25.931,-17.198 26.936,-19.406 27.691,-21.46C30.26,-21.21 32.44,-20.964 34.035,-20.754L35.136,-20.603L35.092,-21.717C35.027,-23.553 34.79,-25.488 34.48,-27.035C34.894,-27.89 36.212,-30.604 36.604,-31.63L37.016,-32.725Z" style="fill:rgb(35,31,32);fill-rule:nonzero;"/>
                </g>
                <g transform="matrix(1,0,0,1,303.797,547.125)">
                    <path d="M0,7.603C0.649,7.358 0.988,7.205 1.033,6.932C1.086,6.621 1.143,6.185 1.166,5.628C1.281,2.992 1.233,1.58 1.22,1.419C1.178,0.916 1.085,0.878 0.234,0.708L0.22,0.539C0.493,0.539 0.73,0.542 0.956,0.527C1.338,0.495 1.752,0.439 2.235,0.374C3.033,1.976 3.931,3.693 4.962,5.511C5.683,3.642 6.328,1.8 6.917,-0.003C7.313,-0.012 7.651,-0.018 7.935,-0.039C8.226,-0.066 8.596,-0.116 9,-0.172L9.013,-0.003C8.187,0.29 8,0.351 8.032,0.767C8.072,1.24 8.268,2.119 8.542,3.399C8.849,4.824 9.042,5.784 9.239,6.289C9.341,6.552 9.663,6.615 10.287,6.771L10.301,6.937C9.598,6.927 9.111,6.932 8.841,6.957C8.357,6.994 7.773,7.074 7.105,7.197L7.091,7.029C8.017,6.716 8.175,6.702 8.138,6.253C8.072,5.433 7.692,3.695 7.08,1.037C6.353,2.955 5.653,5.074 4.968,7.382L4.832,7.392C3.698,5.14 2.643,3.166 1.687,1.441C1.632,4.39 1.658,6.123 1.702,6.64C1.748,7.201 1.835,7.184 2.781,7.378L2.794,7.548C2.068,7.539 1.604,7.542 1.392,7.56C0.973,7.592 0.515,7.665 0.015,7.775L0,7.603Z" style="fill:rgb(35,31,32);fill-rule:nonzero;"/>
                </g>
                <g transform="matrix(1,0,0,1,314.913,546.673)">
                    <path d="M0,7.196C0.634,6.995 0.973,6.775 1.045,6.646C1.121,6.517 1.093,5.547 1.001,3.719C0.909,1.881 0.839,0.902 0.753,0.783C0.668,0.652 0.296,0.488 -0.341,0.351L-0.355,0.113C0.032,0.163 0.45,0.153 0.89,0.133C1.295,0.111 1.725,0.079 2.175,0.055C2.671,0.031 3.167,0.017 3.653,-0.008C4.206,-0.035 4.746,-0.073 5.285,-0.169L5.382,1.545L5.235,1.552C5.045,0.908 4.857,0.554 4.742,0.482C4.647,0.427 4.16,0.396 3.268,0.441C2.818,0.465 2.343,0.465 1.824,0.491C1.806,1.035 1.829,1.936 1.895,3.267L2.808,3.223C3.779,3.175 4.319,3.135 4.429,3.062C4.538,2.991 4.701,2.653 4.865,2.057L5.022,2.049C4.993,2.584 4.992,2.991 5.005,3.282C5.018,3.566 5.064,4.014 5.129,4.644L4.971,4.653C4.782,4.028 4.583,3.688 4.456,3.617C4.34,3.554 3.799,3.57 2.828,3.618L1.914,3.663C1.926,3.9 1.938,4.138 1.948,4.351C2.002,5.411 2.064,6.211 2.125,6.74C2.657,6.759 3.11,6.759 3.481,6.74C4.484,6.689 5.034,6.574 5.1,6.523C5.219,6.425 5.378,6.021 5.534,5.281L5.715,5.271L5.75,7.09C3.997,7.11 2.813,7.158 2.192,7.189C1.471,7.224 0.739,7.284 0.007,7.365L0,7.196Z" style="fill:rgb(35,31,32);fill-rule:nonzero;"/>
                </g>
                <g transform="matrix(1,0,0,1,322.171,546.597)">
                    <path d="M0,6.929C0.64,6.744 0.987,6.533 1.062,6.406C1.137,6.28 1.137,5.31 1.096,3.48C1.053,1.64 1.007,0.658 0.926,0.536C0.844,0.403 0.479,0.229 -0.157,0.075L-0.162,-0.093C0.495,-0.04 1.036,-0.02 1.477,-0.029C1.918,-0.04 2.448,-0.088 3.101,-0.169L3.104,-0C2.489,0.183 2.119,0.372 2.044,0.513C1.967,0.637 1.967,1.618 2.011,3.458C2.031,4.339 2.077,5.378 2.138,6.575C2.511,6.577 2.837,6.579 3.132,6.575C4.103,6.552 4.644,6.472 4.744,6.402C4.845,6.331 5.06,5.933 5.291,5.168L5.47,5.163L5.376,6.986C3.672,6.968 2.497,6.97 1.854,6.989C1.29,6.999 0.679,7.035 0.003,7.098L0,6.929Z" style="fill:rgb(35,31,32);fill-rule:nonzero;"/>
                </g>
                <g transform="matrix(1,0,0,1,328.706,546.56)">
                    <path d="M0,6.843C0.645,6.677 0.994,6.472 1.074,6.349C1.155,6.225 1.181,5.253 1.185,3.424C1.192,1.584 1.174,0.601 1.095,0.478C1.016,0.34 0.655,0.159 0.025,-0.011L0.025,-0.18C0.68,-0.112 1.221,-0.077 1.662,-0.073C2.102,-0.073 2.632,-0.104 3.286,-0.17L3.286,-0.001C2.665,0.167 2.292,0.344 2.212,0.48C2.133,0.605 2.108,1.587 2.099,3.426C2.095,5.255 2.113,6.229 2.191,6.353C2.27,6.476 2.621,6.683 3.262,6.853L3.262,7.023C2.608,6.952 2.078,6.917 1.637,6.914C1.196,6.912 0.655,6.945 0,7.011L0,6.843Z" style="fill:rgb(35,31,32);fill-rule:nonzero;"/>
                </g>
                <g transform="matrix(1,0,0,1,336.71,553.463)">
                    <path d="M0,-6.75C-1.489,-6.798 -2.382,-5.753 -2.445,-3.765C-2.519,-1.408 -1.625,-0.059 -0.1,-0.011C1.401,0.039 2.294,-1.008 2.355,-2.984C2.43,-5.341 1.522,-6.704 0,-6.75M2.52,-0.705C1.888,0.029 0.936,0.429 -0.159,0.396C-1.163,0.363 -2.01,-0.024 -2.619,-0.72C-3.263,-1.454 -3.595,-2.414 -3.561,-3.508C-3.529,-4.488 -3.207,-5.35 -2.621,-6.03C-1.965,-6.79 -1.038,-7.179 0.069,-7.144C1.073,-7.112 1.909,-6.725 2.518,-6.028C3.173,-5.284 3.504,-4.314 3.468,-3.206C3.439,-2.247 3.118,-1.399 2.52,-0.705" style="fill:rgb(35,31,32);fill-rule:nonzero;"/>
                </g>
                <g transform="matrix(1,0,0,1,343.302,550.966)">
                    <path d="M0,-0.992L0.745,-0.947C2.109,-0.865 2.802,-1.276 2.86,-2.246C2.921,-3.261 2.234,-3.707 0.792,-3.795C0.647,-3.805 0.453,-3.805 0.204,-3.799C0.121,-2.783 0.054,-1.851 0,-0.992M4.583,3.12C4.606,3.121 4.629,3.121 4.65,3.121L4.639,3.305C4.371,3.266 4.112,3.237 3.854,3.222C3.594,3.207 3.344,3.203 3.096,3.212C2.398,1.865 1.679,0.624 0.979,-0.525C0.9,-0.542 0.766,-0.551 0.598,-0.558C0.438,-0.568 0.225,-0.582 -0.024,-0.587C-0.039,-0.328 -0.053,-0.091 -0.067,0.123C-0.135,1.274 -0.143,1.963 -0.134,2.166C-0.12,2.521 0.189,2.64 0.941,2.911L0.933,3.079C0.282,2.973 -0.257,2.908 -0.706,2.881C-1.045,2.86 -1.589,2.86 -2.326,2.885L-2.315,2.713C-1.663,2.584 -1.301,2.403 -1.215,2.283C-1.129,2.164 -1.047,1.196 -0.937,-0.632C-0.827,-2.467 -0.79,-3.449 -0.861,-3.578C-0.932,-3.716 -1.282,-3.921 -1.902,-4.127L-1.893,-4.297C-1.489,-4.227 -1.164,-4.185 -0.926,-4.17C0.019,-4.115 0.813,-4.146 1.456,-4.106C3.18,-4.004 4.013,-3.363 3.947,-2.281C3.897,-1.445 3.262,-0.877 2.046,-0.597C3.341,1.754 3.85,3.074 4.583,3.12" style="fill:rgb(35,31,32);fill-rule:nonzero;"/>
                </g>
                <g transform="matrix(1,0,0,1,352.892,550.219)">
                    <path d="M0,1.585C-0.257,0.634 -0.551,-0.423 -0.907,-1.553C-1.389,-0.696 -1.905,0.278 -2.462,1.373L0,1.585ZM-5.067,3.871C-4.561,3.755 -4.268,3.655 -4.123,3.418C-3.885,3.03 -2.679,0.867 -0.605,-3.125L-0.4,-3.106C0.792,0.952 1.521,3.28 1.765,3.892C1.886,4.194 2.189,4.347 2.74,4.541L2.725,4.71C1.999,4.577 1.463,4.498 1.126,4.471C0.664,4.429 0.121,4.429 -0.526,4.429L-0.512,4.261C0.222,4.163 0.595,4.04 0.608,3.892C0.623,3.724 0.481,3.11 0.132,2.05L-2.671,1.812C-3.174,2.798 -3.44,3.387 -3.458,3.587C-3.472,3.768 -3.167,3.908 -2.535,4.065L-2.551,4.257C-3.052,4.145 -3.488,4.073 -3.824,4.045C-4.096,4.023 -4.503,4.021 -5.082,4.04L-5.067,3.871Z" style="fill:rgb(35,31,32);fill-rule:nonzero;"/>
                </g>
                <g transform="matrix(1,0,0,1,323.229,531.279)">
                    <path d="M0,7.081C-0.437,7.148 -1.004,7.195 -1.586,7.133C-2.802,6.999 -2.631,6.69 -3.574,6.679C-3.841,6.677 -4.041,6.72 -4.203,6.772L-4.203,-1.263C-4.203,-1.263 -4.05,-1.347 -3.803,-1.378C-3.74,-1.388 -3.667,-1.394 -3.583,-1.392C-3.267,-1.388 -3.179,-1.351 -2.989,-1.271C-2.74,-1.166 -2.395,-1.023 -1.673,-0.943C-1.067,-0.876 -0.476,-0.916 0,-0.982L0,7.081ZM-5.003,6.77C-5.167,6.72 -5.364,6.677 -5.631,6.679C-6.576,6.69 -6.405,6.999 -7.621,7.133C-8.201,7.198 -8.77,7.148 -9.207,7.081L-9.207,-0.982C-8.731,-0.916 -8.14,-0.876 -7.533,-0.943C-6.813,-1.023 -6.469,-1.166 -6.218,-1.271C-6.028,-1.351 -5.94,-1.388 -5.624,-1.392C-5.539,-1.394 -5.467,-1.388 -5.404,-1.378C-5.155,-1.347 -5.003,-1.263 -5.003,-1.263L-5.003,6.77ZM2.831,2.283C3.01,2.292 3.154,2.149 3.154,1.954L3.154,1.311C3.154,1.124 3.01,0.958 2.831,0.95L2.219,0.917L2.219,-0.946C2.219,-1.133 2.074,-1.298 1.896,-1.309L1.074,-1.354C1.185,-1.135 1.316,-0.907 1.452,-0.747L1.477,8.175C1.143,7.784 0.802,6.911 0.802,6.911L0.802,-1.962C0.802,-1.962 -0.371,-1.605 -1.586,-1.739C-2.802,-1.874 -2.631,-2.181 -3.574,-2.192C-4.266,-2.199 -4.603,-1.915 -4.603,-1.915C-4.603,-1.915 -4.941,-2.199 -5.631,-2.192C-6.576,-2.181 -6.405,-1.874 -7.621,-1.739C-8.834,-1.605 -10.007,-1.962 -10.007,-1.962L-10.007,6.911C-10.007,6.911 -10.35,7.784 -10.683,8.175L-10.658,-0.747C-10.521,-0.907 -10.39,-1.135 -10.281,-1.354L-11.092,-1.309C-11.271,-1.298 -11.417,-1.133 -11.417,-0.946L-11.417,0.915L-12.038,0.95C-12.217,0.958 -12.363,1.124 -12.363,1.311L-12.363,1.954C-12.363,2.149 -12.217,2.292 -12.038,2.283L-11.417,2.249L-11.417,5.875L-12.038,5.908C-12.217,5.917 -12.363,6.084 -12.363,6.272L-12.363,6.915C-12.363,7.107 -12.217,7.253 -12.038,7.243L-11.417,7.21L-11.417,8.94C-11.417,9.136 -11.271,9.28 -11.092,9.269L-5.745,8.985C-5.499,9.044 -5.079,9.083 -4.603,9.083C-4.127,9.083 -3.707,9.044 -3.459,8.985L1.896,9.269C2.074,9.28 2.219,9.136 2.219,8.94L2.219,7.21L2.831,7.243C3.01,7.253 3.154,7.107 3.154,6.915L3.154,6.272C3.154,6.084 3.01,5.917 2.831,5.908L2.219,5.875L2.219,2.249L2.831,2.283Z" style="fill:rgb(35,31,32);fill-rule:nonzero;"/>
                </g>
            </g>
        </g>
    </g>
</svg>
