<?xml version="1.0" encoding="UTF-8" standalone="no"?>
<!DOCTYPE svg PUBLIC "-//W3C//DTD SVG 1.1//EN" "http://www.w3.org/Graphics/SVG/1.1/DTD/svg11.dtd">
<svg width="100%" height="100%" viewBox="0 0 3542 604" version="1.1" xmlns="http://www.w3.org/2000/svg" xmlns:xlink="http://www.w3.org/1999/xlink" xml:space="preserve" xmlns:serif="http://www.serif.com/" style="fill-rule:evenodd;clip-rule:evenodd;stroke-linejoin:round;stroke-miterlimit:2;">
    <g transform="matrix(1,0,0,1,-6588.88,-16229.1)">
        <g transform="matrix(8.33333,0,0,8.33333,0,10125)">
            <g opacity="0.4">
                <g transform="matrix(1,0,0,1,821.229,762.764)">
                    <path d="M0,11.739C2.94,12.113 8.807,11.99 10.097,11.552L10.097,8.68C6.672,8.518 3.353,8.455 0,8.715L0,11.739ZM2.278,13.096C2.278,13.583 2.245,13.943 2.283,14.29C2.926,20.136 3.576,25.983 4.229,31.833C4.309,32.534 4.178,33.521 5.217,33.488C6.174,33.456 6.132,32.51 6.225,31.784C6.934,26.255 7.651,20.725 8.352,15.194C8.434,14.542 8.435,13.88 8.481,13.096L2.278,13.096ZM2.488,7.567C1.692,6.927 1.11,6.481 0.554,6.001C-1.443,4.284 -2.695,2.149 -2.835,-0.515C-2.949,-2.659 -2.303,-4.632 -1.251,-6.491C-0.987,-6.957 -0.577,-7.543 -0.674,-7.978C-1.026,-9.554 -1.579,-11.077 -2.495,-12.341C-3.502,-10.644 -4.301,-8.907 -5.458,-7.454C-6.781,-5.792 -7.54,-3.996 -7.792,-1.945C-8.481,3.708 -3.535,8.438 2.488,7.567M15.571,-14.382C15.223,-13.818 15.049,-13.577 14.921,-13.315C13.934,-11.306 12.604,-9.631 10.812,-8.218C9.288,-7.019 7.98,-5.512 6.709,-4.031C5.615,-2.757 5.02,-1.183 4.781,0.485C4.458,2.728 5.015,4.769 6.165,6.837C6.384,6.521 6.491,6.433 6.505,6.333C7.128,2.012 9.668,-0.868 13.386,-2.868C14.249,-3.333 15.118,-3.788 15.993,-4.231C16.837,-4.657 17.261,-5.323 17.335,-6.267C17.559,-9.033 16.93,-11.599 15.571,-14.382M7.236,7.29C11.824,8.21 16.114,6.585 18.635,3.026C20.8,-0.033 21.626,-3.524 21.734,-7.216C21.738,-7.369 21.622,-7.523 21.498,-7.835C19.218,-5.327 16.479,-3.634 13.667,-2.017C12.667,-1.445 11.75,-0.677 10.918,0.125C8.919,2.053 7.762,4.444 7.236,7.29M8.271,-18.827C7.032,-15.517 5.01,-13.227 2.902,-10.982C0.614,-8.54 -1.367,-5.9 -2.111,-2.534C-3.091,1.897 0.147,6.498 4.922,7.279C4.716,6.659 4.533,6.098 4.344,5.54C3.613,3.368 3.583,1.177 4.41,-0.954C4.87,-2.144 5.463,-3.324 6.209,-4.355C7.212,-5.74 8.341,-7.061 9.57,-8.249C10.57,-9.216 10.961,-10.248 10.635,-11.547C10.141,-13.509 9.603,-15.454 9.048,-17.398C8.937,-17.783 8.661,-18.122 8.271,-18.827M41.498,42.173L-30.564,42.173L-30.564,-29.902C-29.195,-30.269 37.689,-30.434 41.427,-30.082C41.862,-28.782 41.964,40.008 41.498,42.173"/>
                </g>
                <g transform="matrix(1,0,0,1,919.518,776.637)">
                    <path d="M0,-15.642L3.844,-15.642C4.844,-12.211 5.845,-8.777 6.845,-5.344C6.98,-5.334 7.116,-5.324 7.251,-5.312C8.442,-8.822 9.632,-12.333 10.854,-15.942L13.916,-15.942C15.108,-12.427 16.318,-8.868 17.527,-5.308C17.66,-5.298 17.792,-5.296 17.925,-5.288C19.026,-8.831 20.127,-12.371 21.247,-15.971L24.791,-15.971C22.923,-10.468 21.097,-5.087 19.258,0.329L16.241,0.329C15.031,-3.041 13.815,-6.425 12.438,-10.255C10.829,-6.538 9.9,-3.003 8.512,0.319L5.521,0.319C3.694,-4.966 1.876,-10.218 0,-15.642"/>
                </g>
                <g transform="matrix(1,0,0,1,881.88,776.731)">
                    <path d="M0,-15.658C1.919,-16.224 3.196,-15.667 4.295,-14.063C5.82,-11.845 7.583,-9.787 9.252,-7.664C9.619,-7.196 10.018,-6.754 10.582,-6.086C11.05,-7.972 10.775,-9.606 10.825,-11.217C10.874,-12.795 10.837,-14.373 10.837,-16.049L14.101,-16.049C14.493,-14.783 14.617,-2.649 14.256,0.129C12.632,0.566 11.315,0.419 10.159,-1.159C8.348,-3.629 6.311,-5.935 4.362,-8.304C3.985,-8.763 3.576,-9.194 2.983,-9.594C2.651,-6.36 2.836,-3.144 2.697,0.181L0.105,0.181C-0.254,-1.181 -0.341,-13.238 0,-15.658"/>
                </g>
                <g transform="matrix(1,0,0,1,1078.47,767.746)">
                    <path d="M0,2.558L0,-7.032L3.264,-7.032C3.711,-5.688 3.802,7.078 3.367,9.115C1.71,9.59 0.436,9.329 -0.678,7.723C-2.353,5.304 -4.284,3.061 -6.113,0.75C-6.484,0.284 -6.889,-0.157 -7.471,-0.573C-7.729,1.07 -7.673,2.687 -7.684,4.298C-7.691,5.882 -7.684,7.464 -7.684,9.173L-10.819,9.173L-10.819,-6.721C-10.245,-6.77 -9.769,-6.8 -9.296,-6.862C-8.153,-7.003 -7.361,-6.621 -6.666,-5.628C-5.013,-3.264 -3.229,-0.991 -1.49,1.312C-1.141,1.776 -0.754,2.213 -0.383,2.663C-0.254,2.628 -0.128,2.594 0,2.558"/>
                </g>
                <g transform="matrix(1,0,0,1,1140.67,769.219)">
                    <path d="M0,-0.453C1.632,-0.536 3.151,-0.488 4.626,-0.725C5.785,-0.911 6.275,-1.725 6.302,-2.822C6.331,-4.028 5.829,-4.849 4.655,-5.162C3.118,-5.575 1.557,-5.442 0,-5.268L0,-0.453ZM10.053,7.828C8.947,7.828 8.224,7.79 7.506,7.842C6.686,7.905 6.116,7.618 5.668,6.917C5.075,5.989 4.301,5.161 3.79,4.193C2.889,2.497 1.597,2.036 -0.361,2.687L-0.361,7.666L-3.645,7.666C-3.778,2.478 -3.663,-2.755 -3.708,-8.059C-3.317,-8.165 -3.039,-8.306 -2.759,-8.306C-0.244,-8.312 2.273,-8.358 4.785,-8.269C7.398,-8.175 9.232,-6.7 9.778,-4.434C10.365,-1.997 9.439,0.082 7.147,1.478C6.942,1.605 6.731,1.72 6.331,1.956C7.305,3.939 8.845,5.544 10.053,7.828"/>
                </g>
                <g transform="matrix(1,0,0,1,1002.66,769.328)">
                    <path d="M0,-0.677C1.535,-0.677 2.879,-0.567 4.196,-0.704C5.611,-0.856 6.336,-1.769 6.326,-3.021C6.316,-4.3 5.615,-5.229 4.233,-5.382C2.867,-5.529 1.474,-5.414 0,-5.414L0,-0.677ZM6.279,1.88C7.522,3.76 8.715,5.563 10.131,7.708C8.79,7.708 7.824,7.789 6.881,7.669C6.477,7.617 6.044,7.219 5.763,6.87C5.076,6.006 4.372,5.129 3.853,4.164C2.963,2.512 1.706,1.925 -0.342,2.55L-0.342,7.594L-3.558,7.594L-3.558,-8.291C-3.083,-8.347 -2.671,-8.433 -2.26,-8.433C0.134,-8.433 2.531,-8.466 4.924,-8.379C7.391,-8.288 9.175,-6.839 9.775,-4.607C10.396,-2.294 9.482,-0.068 7.366,1.246C7.062,1.434 6.749,1.606 6.279,1.88"/>
                </g>
                <g transform="matrix(1,0,0,1,989.809,769.116)">
                    <path d="M0,-0.268C-0.029,-3.351 -2.229,-5.634 -5.143,-5.607C-8.058,-5.58 -10.192,-3.265 -10.163,-0.158C-10.136,2.803 -7.981,4.911 -4.995,4.888C-1.965,4.87 0.03,2.809 0,-0.268M-13.75,-0.122C-13.774,-4.998 -10.312,-8.511 -5.454,-8.533C-0.494,-8.554 3.22,-5.03 3.261,-0.261C3.301,4.497 -0.382,8.15 -5.286,8.22C-9.978,8.286 -13.726,4.588 -13.75,-0.122"/>
                </g>
                <g transform="matrix(1,0,0,1,902.748,776.945)">
                    <path d="M0,-15.938L12.297,-15.938L12.297,-13.165L3.443,-13.165L3.443,-9.799L11.066,-9.799L11.066,-6.859L3.402,-6.859L3.402,-3.072C6.316,-2.667 9.256,-3.145 12.271,-2.788L12.271,0L0.025,0C-0.028,-5.295 0.009,-10.53 0,-15.938"/>
                </g>
                <g transform="matrix(1,0,0,1,1118.88,761.38)">
                    <path d="M0,15.456L0,-0.356L12.096,-0.356L12.096,2.386L3.667,2.386L3.667,5.788L10.888,5.788L10.888,8.734L3.61,8.734L3.61,12.622L12.121,12.622L12.121,15.36C10.727,15.741 2.313,15.812 0,15.456"/>
                </g>
                <g transform="matrix(1,0,0,1,1018.63,776.863)">
                    <path d="M0,-15.882L3.069,-15.882L3.069,-9.288C3.691,-9.759 4.041,-9.96 4.312,-10.236C5.767,-11.736 7.253,-13.208 8.622,-14.779C9.425,-15.702 10.308,-16.108 11.505,-15.986C12.144,-15.923 12.793,-15.975 13.441,-15.975C13.487,-15.849 13.533,-15.725 13.58,-15.601C11.573,-13.486 9.57,-11.375 7.499,-9.198C9.735,-6.122 11.889,-3.159 14.272,0.121C12.821,0.137 11.688,0.226 10.572,0.116C10.184,0.078 9.775,-0.4 9.494,-0.767C8.416,-2.185 7.391,-3.642 6.337,-5.075C5.978,-5.566 5.594,-6.036 5.178,-6.575C3.704,-5.786 2.91,-4.74 3.087,-3.04C3.187,-2.077 3.106,-1.092 3.106,0.034L0,0.034L0,-15.882Z"/>
                </g>
                <g transform="matrix(1,0,0,1,1047.06,777.767)">
                    <path d="M0,-16.787L3.135,-16.787C3.181,-16.08 3.25,-15.429 3.259,-14.775C3.288,-12.26 3.204,-9.735 3.342,-7.224C3.468,-4.924 4.801,-3.789 7.055,-3.76C9.263,-3.73 10.54,-4.842 10.619,-7.07C10.712,-9.589 10.655,-12.107 10.661,-14.627C10.664,-15.291 10.661,-15.953 10.661,-16.742L14.033,-16.742C14.101,-16.375 14.232,-15.974 14.234,-15.572C14.251,-12.871 14.246,-10.168 14.238,-7.461C14.234,-4.816 13.339,-2.596 10.89,-1.344C8.254,0 5.544,-0.076 2.951,-1.524C1.541,-2.308 0.755,-3.64 0.346,-5.177C0.174,-5.83 0.022,-6.507 0.015,-7.176C-0.018,-10.297 0,-13.422 0,-16.787"/>
                </g>
                <g transform="matrix(1,0,0,1,1157.28,765.148)">
                    <path d="M0,7.164C1.485,8.174 2.955,8.912 4.682,8.859C5.111,8.843 5.599,8.926 5.954,8.752C6.454,8.504 7.062,8.145 7.254,7.679C7.53,6.992 7.078,6.355 6.4,6.045C5.793,5.766 5.141,5.582 4.504,5.367C3.457,5.018 2.39,4.73 1.366,4.326C-0.467,3.601 -1.514,2.27 -1.442,0.232C-1.369,-1.799 -0.377,-3.254 1.479,-4.078C3.911,-5.156 7.518,-4.627 10.227,-2.73C9.694,-1.83 9.152,-0.915 8.608,0.004C7.482,-0.5 6.523,-1.074 5.481,-1.357C4.7,-1.57 3.79,-1.535 2.988,-1.365C2.562,-1.274 2.003,-0.693 1.95,-0.273C1.898,0.145 2.289,0.828 2.681,1.051C3.574,1.56 4.579,1.883 5.557,2.242C6.126,2.449 6.737,2.562 7.317,2.758C9.059,3.344 10.381,4.334 10.569,6.326C10.774,8.477 10.002,10.184 8.123,11.302C6.569,12.229 4.881,12.32 3.138,12.025C1.216,11.703 -0.476,10.959 -1.955,9.41C-1.296,8.652 -0.672,7.936 0,7.164"/>
                </g>
                <g transform="matrix(1,0,0,1,1109.88,776.931)">
                    <path d="M0,-16.272L3.489,-16.272C1.562,-10.745 -0.557,-5.44 -2.585,0L-5.668,0C-7.973,-5.206 -10.291,-10.451 -12.703,-15.907L-8.546,-15.907C-7.252,-12.368 -5.942,-8.783 -4.634,-5.2C-4.502,-5.192 -4.371,-5.188 -4.24,-5.182C-2.849,-8.823 -1.456,-12.461 0,-16.272"/>
                </g>
                <g transform="matrix(1,0,0,1,963.469,760.836)">
                    <path d="M0,16.087C0,14.608 -0.076,13.208 0.022,11.823C0.127,10.332 -0.314,9.098 -1.149,7.874C-2.809,5.448 -4.354,2.946 -6.104,0.231L-1.978,0.231C-0.73,2.292 0.593,4.481 2.098,6.97C3.025,5.278 3.81,3.853 4.59,2.419C5.91,0.001 5.909,0 8.653,0.056C8.957,0.06 9.259,0.087 9.798,0.12C9.558,0.654 9.417,1.082 9.187,1.454C7.704,3.86 6.229,6.273 4.689,8.638C4.089,9.558 3.816,10.491 3.855,11.58C3.906,13.037 3.868,14.5 3.868,16.087L0,16.087Z"/>
                </g>
                <g transform="matrix(1,0,0,1,1209.7,760.437)">
                    <path d="M0,16.222L-3.224,16.222C-3.247,14.906 -3.362,13.636 -3.264,12.385C-3.134,10.705 -3.601,9.294 -4.549,7.916C-5.869,5.995 -7.046,3.978 -8.276,1.993C-8.59,1.489 -8.868,0.956 -9.155,0.451C-8.972,0.315 -8.886,0.195 -8.793,0.19C-5.653,0 -5.658,0.005 -4.151,2.744C-3.475,3.984 -2.78,5.21 -2.083,6.44C-2.028,6.536 -1.901,6.597 -1.627,6.827C-0.302,4.612 1.007,2.426 2.325,0.218L5.996,0.218C5.724,0.771 5.553,1.21 5.306,1.606C3.819,4.007 2.346,6.417 0.808,8.783C0.244,9.652 -0.005,10.53 0.021,11.552C0.056,13.062 0.015,14.576 0,16.222"/>
                </g>
                <g transform="matrix(1,0,0,1,1182.97,776.945)">
                    <path d="M0,-15.948L13.132,-15.948L13.132,-13.119L8.18,-13.119L8.18,0L4.972,0C4.84,-4.272 4.986,-8.535 4.886,-13.04L0,-13.04L0,-15.948Z"/>
                </g>
                <g transform="matrix(1,0,0,1,1088.81,776.612)">
                    <path d="M0,-15.917L3.25,-15.917L3.25,0L0.096,0C-0.306,-1.287 -0.396,-13.658 0,-15.917"/>
                </g>
                <g transform="matrix(-1,0,0,1,2351.79,457.325)">
                    <rect x="1174.24" y="303.373" width="3.32" height="15.929"/>
                </g>
                <g transform="matrix(1,0,0,1,829.5,770.043)">
                    <path d="M0,-26.106C0.391,-25.401 0.667,-25.062 0.778,-24.676C1.333,-22.733 1.87,-20.788 2.365,-18.826C2.69,-17.527 2.299,-16.495 1.3,-15.528C0.071,-14.339 -1.058,-13.018 -2.062,-11.633C-2.808,-10.603 -3.401,-9.422 -3.861,-8.233C-4.687,-6.101 -4.658,-3.911 -3.927,-1.739C-3.738,-1.18 -3.555,-0.62 -3.349,0C-8.123,-0.781 -11.362,-5.381 -10.381,-9.813C-9.637,-13.178 -7.657,-15.819 -5.369,-18.26C-3.261,-20.505 -1.238,-22.795 0,-26.106" style="fill:white;"/>
                </g>
                <g transform="matrix(1,0,0,1,828.465,755.849)">
                    <path d="M0,14.205C0.526,11.359 1.683,8.969 3.682,7.04C4.514,6.238 5.431,5.471 6.43,4.898C9.243,3.281 11.982,1.588 14.262,-0.92C14.386,-0.608 14.501,-0.454 14.498,-0.301C14.39,3.392 18.703,6.882 16.54,9.941C14.019,13.5 4.588,15.125 0,14.205" style="fill:white;"/>
                </g>
                <g transform="matrix(1,0,0,1,836.8,769.601)">
                    <path d="M0,-21.219C1.359,-18.436 1.988,-15.87 1.764,-13.104C1.689,-12.16 1.266,-11.494 0.422,-11.068C-0.453,-10.625 -1.322,-10.17 -2.186,-9.705C-5.903,-7.705 -8.443,-4.824 -9.066,-0.504C-9.08,-0.404 -9.188,-0.316 -9.407,0C-10.556,-2.068 -11.114,-4.109 -10.791,-6.352C-10.551,-8.02 -9.957,-9.594 -8.862,-10.867C-7.591,-12.349 -6.283,-13.856 -4.759,-15.055C-2.967,-16.468 -1.638,-18.143 -0.65,-20.152C-0.522,-20.414 -0.349,-20.655 0,-21.219" style="fill:white;"/>
                </g>
                <g transform="matrix(1,0,0,1,823.717,751.294)">
                    <path d="M0,19.037C-6.022,19.908 -10.969,15.178 -10.28,9.525C-10.028,7.474 -9.269,5.678 -7.945,4.016C-6.789,2.562 -5.99,0.826 -4.982,-0.871C-4.067,0.392 -3.514,1.916 -3.162,3.492C-3.065,3.927 -3.475,4.513 -3.739,4.978C-4.791,6.838 -5.437,8.81 -5.323,10.955C-5.183,13.619 -3.931,15.754 -1.934,17.471C-1.377,17.951 -0.796,18.396 0,19.037" style="fill:white;"/>
                </g>
                <g transform="matrix(1,0,0,1,823.507,796.285)">
                    <path d="M0,-20.425L6.203,-20.425C6.156,-19.642 6.155,-18.98 6.074,-18.327C5.373,-12.796 4.655,-7.267 3.947,-1.738C3.854,-1.011 3.896,-0.066 2.938,-0.033C1.899,0 2.031,-0.988 1.951,-1.689C1.298,-7.538 0.648,-13.385 0.005,-19.232C-0.034,-19.578 0,-19.939 0,-20.425" style="fill:white;"/>
                </g>
                <g transform="matrix(0,-1,-1,0,827.733,778.096)">
                    <path d="M3.593,6.504L6.618,6.504C6.877,3.151 6.815,-0.168 6.653,-3.593L3.78,-3.593C3.342,-2.304 3.219,3.564 3.593,6.504" style="fill:white;"/>
                </g>
                <g transform="matrix(1,0,0,1,1140.67,763.644)">
                    <path d="M0,5.122L0,0.307C1.557,0.133 3.118,0 4.655,0.413C5.829,0.726 6.331,1.547 6.302,2.753C6.275,3.85 5.785,4.664 4.626,4.85C3.151,5.087 1.632,5.039 0,5.122" style="fill:white;"/>
                </g>
                <g transform="matrix(1,0,0,1,1002.66,763.909)">
                    <path d="M0,4.742L0,0.005C1.474,0.005 2.867,-0.11 4.233,0.037C5.615,0.19 6.316,1.119 6.326,2.398C6.336,3.65 5.611,4.563 4.196,4.715C2.879,4.852 1.535,4.742 0,4.742" style="fill:white;"/>
                </g>
                <g transform="matrix(-0.0108229,-0.999941,-0.999941,0.0108229,984.766,763.672)">
                    <path d="M-5.229,-4.986C-8.307,-4.983 -10.346,-2.966 -10.331,0.064C-10.322,3.05 -8.191,5.182 -5.229,5.177C-2.122,5.173 0.169,3.014 0.165,0.099C0.16,-2.815 -2.146,-4.991 -5.229,-4.986" style="fill:white;"/>
                </g>
            </g>
        </g>
    </g>
</svg>
