<svg xmlns="http://www.w3.org/2000/svg" xmlns:xlink="http://www.w3.org/1999/xlink" viewBox="0 0 1684.34 1188.67"><defs><style>.cls-1{opacity:0.7;fill:url(#linear-gradient);}.cls-2{fill:url(#linear-gradient-2);}.cls-3{fill:#fff;}.cls-4{fill:url(#linear-gradient-3);}.cls-5{fill:url(#linear-gradient-4);}.cls-6{fill:url(#linear-gradient-5);}.cls-45,.cls-7{opacity:0.9;}.cls-7{fill:url(#linear-gradient-6);}.cls-8{fill:#cbeaf4;}.cls-9{fill:url(#linear-gradient-7);}.cls-10{fill:url(#linear-gradient-8);}.cls-11{fill:url(#linear-gradient-9);}.cls-12{fill:url(#linear-gradient-10);}.cls-13{fill:url(#linear-gradient-11);}.cls-14{fill:url(#linear-gradient-12);}.cls-15{fill:#f0fafc;}.cls-16,.cls-43{fill:none;}.cls-17{fill:#dff0f4;}.cls-18{fill:#e4f5f7;}.cls-19{fill:url(#linear-gradient-13);}.cls-20{fill:url(#linear-gradient-14);}.cls-21{fill:url(#linear-gradient-15);}.cls-22{fill:#2d2d2d;}.cls-23{fill:url(#linear-gradient-16);}.cls-24{fill:url(#linear-gradient-17);}.cls-25{fill:url(#linear-gradient-18);}.cls-26{fill:url(#linear-gradient-19);}.cls-27{fill:#dfeeef;}.cls-28{fill:url(#linear-gradient-20);}.cls-29{fill:url(#linear-gradient-21);}.cls-30{fill:url(#linear-gradient-22);}.cls-31{fill:url(#linear-gradient-23);}.cls-32{fill:url(#linear-gradient-24);}.cls-33{fill:url(#linear-gradient-25);}.cls-34{fill:url(#linear-gradient-26);}.cls-35{fill:url(#linear-gradient-27);}.cls-36{fill:url(#linear-gradient-28);}.cls-37{fill:url(#linear-gradient-29);}.cls-38{fill:url(#linear-gradient-30);}.cls-39{fill:url(#linear-gradient-31);}.cls-40,.cls-49,.cls-56{fill-rule:evenodd;}.cls-40{fill:url(#linear-gradient-32);}.cls-41{fill:url(#linear-gradient-33);}.cls-42{fill:url(#linear-gradient-34);}.cls-43{stroke-miterlimit:10;stroke-width:3px;stroke:url(#linear-gradient-35);}.cls-44{fill:url(#linear-gradient-36);}.cls-45{fill:url(#linear-gradient-37);}.cls-46{fill:url(#linear-gradient-38);}.cls-47{fill:url(#linear-gradient-39);}.cls-48{fill:url(#linear-gradient-40);}.cls-49{fill:url(#linear-gradient-41);}.cls-50{fill:url(#linear-gradient-42);}.cls-51{fill:url(#linear-gradient-43);}.cls-52{fill:url(#linear-gradient-44);}.cls-53{fill:url(#linear-gradient-45);}.cls-54{fill:url(#linear-gradient-46);}.cls-55{fill:url(#linear-gradient-47);}.cls-56{fill:url(#linear-gradient-48);}</style><linearGradient id="linear-gradient" x1="919.84" y1="944.13" x2="1680.27" y2="944.13" gradientUnits="userSpaceOnUse"><stop offset="0" stop-color="#ddede0"/><stop offset="1" stop-color="#93ded9"/></linearGradient><linearGradient id="linear-gradient-2" x1="1172.8" y1="1107.4" x2="1531.96" y2="1107.4" gradientUnits="userSpaceOnUse"><stop offset="0" stop-color="#4b99a5"/><stop offset="1" stop-color="#93ded9"/></linearGradient><linearGradient id="linear-gradient-3" x1="802.92" y1="649.01" x2="1680.26" y2="649.01" xlink:href="#linear-gradient"/><linearGradient id="linear-gradient-4" x1="1099.64" y1="864.93" x2="1138.93" y2="864.93" gradientUnits="userSpaceOnUse"><stop offset="0" stop-color="#e5c2a1"/><stop offset="1" stop-color="#f9e4cf"/></linearGradient><linearGradient id="linear-gradient-5" x1="1398.81" y1="504.16" x2="1679.45" y2="504.16" xlink:href="#linear-gradient-2"/><linearGradient id="linear-gradient-6" x1="820.83" y1="540.78" x2="1526.9" y2="540.78" gradientUnits="userSpaceOnUse"><stop offset="0.09" stop-color="#4b99a5"/><stop offset="0.7" stop-color="#7ecaca"/><stop offset="1" stop-color="#93ded9"/></linearGradient><linearGradient id="linear-gradient-7" x1="1478.45" y1="590.95" x2="1635.66" y2="590.95" gradientUnits="userSpaceOnUse"><stop offset="0.41" stop-color="#93ded9"/><stop offset="1" stop-color="#4b99a5"/></linearGradient><linearGradient id="linear-gradient-8" x1="1469.76" y1="583.08" x2="1626.97" y2="583.08" xlink:href="#linear-gradient"/><linearGradient id="linear-gradient-9" x1="1212.18" y1="1039.19" x2="1376.45" y2="1039.19" xlink:href="#linear-gradient-4"/><linearGradient id="linear-gradient-10" x1="1443.23" y1="868.74" x2="1482.52" y2="868.74" xlink:href="#linear-gradient-4"/><linearGradient id="linear-gradient-11" x1="1285.38" y1="1204.36" x2="1303.4" y2="489.87" gradientUnits="userSpaceOnUse"><stop offset="0" stop-color="#e5c2a1"/><stop offset="0.61" stop-color="#f9e4cf"/></linearGradient><linearGradient id="linear-gradient-12" x1="1100.12" y1="743.21" x2="1488.13" y2="743.21" gradientUnits="userSpaceOnUse"><stop offset="0" stop-color="#130051"/><stop offset="1"/></linearGradient><linearGradient id="linear-gradient-13" x1="1178.33" y1="703.18" x2="1469.01" y2="703.18" gradientTransform="matrix(0.96, 0, 0, 1, 33.89, -0.57)" xlink:href="#linear-gradient-2"/><linearGradient id="linear-gradient-14" x1="1276.91" y1="647.49" x2="1373.17" y2="647.49" gradientUnits="userSpaceOnUse"><stop offset="0" stop-color="#e99c7b"/><stop offset="0.99" stop-color="#ffffe2"/></linearGradient><linearGradient id="linear-gradient-15" x1="1269.74" y1="698.46" x2="1373.17" y2="698.46" gradientUnits="userSpaceOnUse"><stop offset="0" stop-color="#e99c7b"/><stop offset="0.99" stop-color="#ff4f3e"/></linearGradient><linearGradient id="linear-gradient-16" x1="1386.33" y1="504.77" x2="1576.8" y2="504.77" xlink:href="#linear-gradient"/><linearGradient id="linear-gradient-17" x1="1539.49" y1="474.29" x2="1557.06" y2="474.29" xlink:href="#linear-gradient-15"/><linearGradient id="linear-gradient-18" x1="1503.91" y1="500.81" x2="1517.23" y2="500.81" xlink:href="#linear-gradient-15"/><linearGradient id="linear-gradient-19" x1="1497.79" y1="516.56" x2="1523.35" y2="516.56" xlink:href="#linear-gradient-15"/><linearGradient id="linear-gradient-20" x1="1351.74" y1="561.67" x2="1368.39" y2="561.67" xlink:href="#linear-gradient-15"/><linearGradient id="linear-gradient-21" x1="1350.87" y1="567.56" x2="1370.09" y2="567.56" gradientTransform="translate(-26.75 47.52) rotate(-3.26)" xlink:href="#linear-gradient-2"/><linearGradient id="linear-gradient-22" x1="1123.58" y1="797.36" x2="1208.01" y2="797.36" gradientTransform="matrix(0.95, -0.24, 0.19, 0.73, -63.95, 330.02)" xlink:href="#linear-gradient-15"/><linearGradient id="linear-gradient-23" x1="1161.4" y1="827.23" x2="1245.82" y2="827.23" gradientTransform="matrix(0.89, -0.23, 0.19, 0.73, -18.99, 318.32)" xlink:href="#linear-gradient-15"/><linearGradient id="linear-gradient-24" x1="1220.87" y1="579.35" x2="1341.95" y2="579.35" xlink:href="#linear-gradient-15"/><linearGradient id="linear-gradient-25" x1="1220.06" y1="546.12" x2="1242.92" y2="546.12" xlink:href="#linear-gradient-15"/><linearGradient id="linear-gradient-26" x1="1181.06" y1="499.82" x2="1329.44" y2="499.82" xlink:href="#linear-gradient-15"/><linearGradient id="linear-gradient-27" x1="889.28" y1="507.93" x2="1857.57" y2="507.93" xlink:href="#linear-gradient-15"/><linearGradient id="linear-gradient-28" x1="1206.52" y1="539.91" x2="1331.98" y2="539.91" xlink:href="#linear-gradient-15"/><linearGradient id="linear-gradient-29" x1="1483.98" y1="284.48" x2="1645.57" y2="284.48" xlink:href="#linear-gradient"/><linearGradient id="linear-gradient-30" x1="197.78" y1="589.75" x2="243.72" y2="589.75" gradientTransform="matrix(-0.97, -0.18, -0.14, 0.74, 1701.56, 270.54)" xlink:href="#linear-gradient-2"/><linearGradient id="linear-gradient-31" x1="167.63" y1="606.55" x2="213.58" y2="606.55" gradientTransform="matrix(-0.9, -0.17, -0.14, 0.74, 1656.52, 261.7)" xlink:href="#linear-gradient-2"/><linearGradient id="linear-gradient-32" x1="1370.8" y1="594.51" x2="1451.44" y2="594.51" gradientUnits="userSpaceOnUse"><stop offset="0" stop-color="#e99c7b"/><stop offset="0.99" stop-color="#ff4f77"/></linearGradient><linearGradient id="linear-gradient-33" x1="776.27" y1="606.17" x2="887.87" y2="606.17" gradientTransform="translate(1773.65 1222.52) rotate(-177.12)" xlink:href="#linear-gradient-15"/><linearGradient id="linear-gradient-34" x1="732.12" y1="632.61" x2="887.87" y2="632.61" gradientTransform="translate(1773.65 1222.52) rotate(-177.12)" xlink:href="#linear-gradient-15"/><linearGradient id="linear-gradient-35" x1="1158.18" y1="714.21" x2="1442.75" y2="714.21" xlink:href="#linear-gradient-12"/><linearGradient id="linear-gradient-36" x1="1749.25" y1="416.22" x2="1564.41" y2="213.43" gradientUnits="userSpaceOnUse"><stop offset="0" stop-color="#4b99a5"/><stop offset="0.73" stop-color="#93ded9"/></linearGradient><linearGradient id="linear-gradient-37" x1="1224.6" y1="471.75" x2="1403.29" y2="234.43" xlink:href="#linear-gradient-6"/><linearGradient id="linear-gradient-38" x1="1407.5" y1="138.73" x2="1679.47" y2="138.73" xlink:href="#linear-gradient"/><linearGradient id="linear-gradient-39" x1="1458" y1="84.69" x2="1679.47" y2="84.69" xlink:href="#linear-gradient"/><linearGradient id="linear-gradient-40" x1="1815.49" y1="-26.2" x2="1407.82" y2="190.26" xlink:href="#linear-gradient"/><linearGradient id="linear-gradient-41" x1="990.06" y1="314.79" x2="1194.67" y2="11.13" xlink:href="#linear-gradient"/><linearGradient id="linear-gradient-42" x1="1505.91" y1="871.06" x2="1704.22" y2="871.06" xlink:href="#linear-gradient"/><linearGradient id="linear-gradient-43" x1="1539.57" y1="783.92" x2="1718.81" y2="783.92" xlink:href="#linear-gradient-2"/><linearGradient id="linear-gradient-44" x1="988.53" y1="783.92" x2="1116.88" y2="783.92" xlink:href="#linear-gradient"/><linearGradient id="linear-gradient-45" x1="1293.24" y1="1090.13" x2="1413.22" y2="1090.13" xlink:href="#linear-gradient-12"/><linearGradient id="linear-gradient-46" x1="1473" y1="998.22" x2="1709.35" y2="998.22" xlink:href="#linear-gradient"/><linearGradient id="linear-gradient-47" x1="1171.18" y1="1084.76" x2="1293.24" y2="1084.76" xlink:href="#linear-gradient-12"/><linearGradient id="linear-gradient-48" x1="893.94" y1="230.89" x2="1050.91" y2="230.89" xlink:href="#linear-gradient-2"/></defs><title>Asset 2</title><g id="Layer_2" data-name="Layer 2"><g id="Layer_1-2" data-name="Layer 1"><path class="cls-1" d="M1680.27,1157l-1.62,31.66s-3.57-33.28-234-36.53c-228.68-3.23-301.71-103.07-330.9-139.86-30.92-39-161.87-245.28-179.56-254.59s-14.05-23.64-14.05-23.64l169.66,94.41,390.76-128.88,198.9,50.14-.18,308.58s.1.71,0,.77l.18,91.76h-.06v5.71Z"/><path class="cls-2" d="M1532,1155.32s-125-1.66-185.26-11.27-106.24-29.66-116-34.62-47.25-26.79-57.2-35.35c-3.5-3,7.93-2.61,14.59-4.84,12.24-4.1,30.18-9.76,30.18-9.76l195,8s105.07,43.29,108.86,54.11S1532,1155.32,1532,1155.32Z"/><path class="cls-3" d="M1,581.89H.18c-.07-.32-.14-.64-.18-1A8.49,8.49,0,0,0,1,581.89Z"/><path class="cls-4" d="M1680.26,201.78l-.79,863.28s5.13,16.94-43.26,16.44c-44-.49-87.49,14.73-87.49,14.73-15.83-16.78,91-16.92,108.73-73.59,34.1-14.21,17.93-137.55,17.93-172.19,0-35.86-32.33-64.94-72.21-64.94s-72.24,29.08-72.24,64.94c0,1.56.07,3.11.19,4.65-9.61-4-17.71-9.44-21.91-13.88-12.93-13.74,0-44.35,0-44.35-18.25.75-19.53-34.42-19.53-34.42l-61.85-10.83L1134.08,925.18s-9.36,92.07-62,32.45c-32.23-36.54-62.25-79-74.39-96.43-12.81-18.44-23.21-38.28-51.42-80.5-53.62-80.25,34-128.07-36-144.89S737.61,504.05,859.43,387.39c121.23-116.08,61.49-123.74,61.49-123.74-17.84-68.77-16.41-59-16.41-59Z"/><path class="cls-5" d="M1136.77,819.11s-43.11,1.09-36.42,55.73c2.51,20.53,29.78,38.26,35.75,35.66S1136.77,819.11,1136.77,819.11Z"/><path class="cls-6" d="M1556.88,237.1s-123,121.46-102.89,210.1,39.23,129.75-8.91,200.92S1398.82,712,1398.82,712l83.7,53.9,2.9-.23s186.65,59.58,190-89.23c2.28-101.8,5.77-241,3.09-325.41-2.66-83.76,3.12-119.7-.81-119.89-27.71-1.38-26.43,3.52-46.49,4.89s-16-3.27-67.09-3.27Z"/><path class="cls-7" d="M1526.9,206.23s-190.17,301.87-320.1,358-181.75,85.86-208.32,159.14,1.76,133.33,10.55,153.89c.61,1.42-55.75-72-98.64-134-42.1-60.81-127.47-185-70.65-255.2,68.4-84.46,286.56,108.42,300.63,25.9S941.12,393.61,1062,294s104.76-89.39,104.76-89.39Z"/><path class="cls-8" d="M1677.84,450.35c-5.45,33.56-40.56,56.29-80.95,54.19-14.23,15.95-34.29,25.9-56.52,25.9s-42.31-10-56.51-25.92A126.76,126.76,0,0,1,1406.07,531a128.9,128.9,0,0,1-24.8-2.41,72.24,72.24,0,0,1-58.83,30.16c-39.85,0-72.1-32-72.1-71.5a71.23,71.23,0,0,1,31.17-58.88,126.3,126.3,0,0,1-2.12-23c0-69.38,56.72-125.63,126.68-125.63a126.8,126.8,0,0,1,66.82,18.87c14.88-11.68,35.37-18.87,58-18.87,45.44,0,82.3,29.08,82.3,64.95a52.77,52.77,0,0,1-6.84,25.87l1,.15C1652.22,378.07,1683.81,413.73,1677.84,450.35Z"/><path class="cls-8" d="M1332.51,490.81c0,51.64-39.17,93.49-87.47,93.49-24.94,0-47.43-11.15-63.36-29a142,142,0,0,1-87.2,29.67,144.74,144.74,0,0,1-27.81-2.7,81,81,0,0,1-66,33.82c-44.65,0-80.84-35.9-80.84-80.16a79.91,79.91,0,0,1,35-66,140.31,140.31,0,0,1-2.38-25.78c0-77.79,63.59-140.85,142-140.85a142.14,142.14,0,0,1,74.9,21.16c16.68-13.09,39.66-21.16,65-21.16,51,0,92.27,32.61,92.27,72.82,0,17.81-8.13,34.14-21.58,46.78A96.27,96.27,0,0,1,1332.51,490.81Z"/><path class="cls-9" d="M1478.45,614.82c0,17.1,12.62,31,28.19,31h100.84c15.56,0,28.18-13.87,28.18-31V567.07c0-17.1-12.62-31-28.18-31H1506.64c-15.57,0-28.19,13.86-28.19,31Z"/><path class="cls-10" d="M1469.76,607c0,17.1,12.62,31,28.18,31h100.85c15.56,0,28.18-13.87,28.18-31V559.2c0-17.1-12.62-31-28.18-31H1497.94c-15.56,0-28.18,13.86-28.18,31Z"/><path class="cls-3" d="M1501.59,570c0,2.92,3.3,5.29,7.38,5.29h78.33c4.08,0,7.39-2.37,7.39-5.29h0c0-2.93-3.31-5.3-7.39-5.3H1509c-4.08,0-7.38,2.37-7.38,5.3Z"/><path class="cls-3" d="M1501.85,585.66c0,2.92,3.31,5.29,7.39,5.29h78.33c4.08,0,7.39-2.37,7.39-5.29h0c0-2.93-3.31-5.3-7.39-5.3h-78.33c-4.08,0-7.39,2.37-7.39,5.3Z"/><path class="cls-3" d="M1501.45,602.25c0,2.93,3.31,5.3,7.39,5.3h78.32c4.09,0,7.4-2.37,7.4-5.3h0c0-2.92-3.31-5.29-7.4-5.29h-78.32c-4.08,0-7.39,2.37-7.39,5.29Z"/><polygon class="cls-11" points="1376.45 1079.88 1212.18 1080.15 1212.18 998.22 1376.45 998.22 1376.45 1079.88"/><path class="cls-12" d="M1445.39,822.92s43.11,1.09,36.43,55.73c-2.51,20.53-29.78,38.26-35.75,35.65S1445.39,822.92,1445.39,822.92Z"/><path class="cls-13" d="M1448.5,749.41,1170,743.21s.42,31-9.84,47.62-15.37,38.22-13.12,55.92-2.52,20.5-7.08,18.29-5.63,33.89-.36,50.85,79.86,114.5,119.21,117.82,75.82,12.88,107.24-18.25c29.54-29.28,82.32-73.57,84-104S1448.5,749.41,1448.5,749.41Z"/><path class="cls-14" d="M1481.92,760.76a11.13,11.13,0,0,1-.68,9.21c-5.64,11.31-26.15,9.16-26.15,9.16v41.65h0l-10.84,45.84-10.84,3.52V829.5s-12.38-16-17.59-36.64-4.54-33.63-4.54-33.63c-2.3-.82-4.11-2-5.81-2.61-24.39-8.24-34.23-2.11-124,22.89-50.4,14-87.86-6.59-111.43-28.89-.66,7-1.64,12.94-1.64,12.94L1156.2,866.62h-15.93l-13.73-52V766s-46.24-72.7-16.38-110.87,59.55-47.31,109-31.28c48.07,15.6,83.46,36.66,100.91,27.21l-98.37,60.89,210.12-20.08c3.18-7.85,15.62,0,25.58,6.06C1481.92,712.9,1497.41,755.73,1481.92,760.76Z"/><path class="cls-15" d="M1306.77,474c0,44.07-33.44,79.8-74.67,79.8-21.29,0-40.49-9.52-54.08-24.8a121.26,121.26,0,0,1-74.44,25.33,122.91,122.91,0,0,1-23.74-2.31,69.11,69.11,0,0,1-56.3,28.87c-38.12,0-69-30.65-69-68.43a68.24,68.24,0,0,1,29.84-56.35,120.75,120.75,0,0,1-2-22c0-66.4,54.27-120.23,121.23-120.23A121.42,121.42,0,0,1,1167.52,332c14.23-11.18,33.84-18.06,55.46-18.06,43.49,0,78.76,27.83,78.76,62.16,0,15.2-6.94,29.14-18.42,39.93A82.18,82.18,0,0,1,1306.77,474Z"/><path class="cls-15" d="M1432.12,383.7c0,44.08-33.44,79.81-74.67,79.81-21.29,0-40.49-9.52-54.08-24.81A121.24,121.24,0,0,1,1228.93,464a123.7,123.7,0,0,1-23.74-2.3,69.12,69.12,0,0,1-56.3,28.87c-38.11,0-69-30.65-69-68.43a68.19,68.19,0,0,1,29.84-56.35,120.05,120.05,0,0,1-2-22c0-66.4,54.28-120.22,121.23-120.22a121.3,121.3,0,0,1,63.94,18.06c14.24-11.18,33.85-18.06,55.47-18.06,43.48,0,78.75,27.83,78.75,62.15,0,15.21-6.93,29.14-18.42,39.93A82.18,82.18,0,0,1,1432.12,383.7Z"/><path class="cls-16" d="M1178.67,559.16s-58.18,2.28-65.6,10.3"/><path class="cls-17" d="M1654.7,433.06c-6.11,37.62-45.47,63.1-90.76,60.75-15.94,17.88-38.44,29-63.36,29s-47.43-11.15-63.35-29.06A142.08,142.08,0,0,1,1350,523.46a144.58,144.58,0,0,1-27.81-2.7,81,81,0,0,1-66,33.82c-44.67,0-80.83-35.91-80.83-80.17a79.89,79.89,0,0,1,34.95-66,141.29,141.29,0,0,1-2.37-25.79c0-77.78,63.58-140.84,142-140.84a142.15,142.15,0,0,1,74.91,21.16c16.68-13.1,39.65-21.16,65-21.16,50.95,0,92.26,32.61,92.26,72.82a59.28,59.28,0,0,1-7.66,29c.36,0,.73.09,1.09.16C1626,352,1661.39,392,1654.7,433.06Z"/><path class="cls-18" d="M1632.1,446.63c-5.45,33.56-40.56,56.3-81,54.19-14.22,15.95-34.29,25.9-56.51,25.9s-42.31-10-56.52-25.92a126.65,126.65,0,0,1-77.78,26.47,128.83,128.83,0,0,1-24.8-2.41A72.26,72.26,0,0,1,1276.69,555c-39.84,0-72.1-32-72.1-71.51a71.28,71.28,0,0,1,31.17-58.88,126.22,126.22,0,0,1-2.11-23c0-69.38,56.72-125.63,126.68-125.63a126.91,126.91,0,0,1,66.82,18.87c14.87-11.68,35.37-18.87,58-18.87,45.44,0,82.29,29.08,82.29,64.95a52.94,52.94,0,0,1-6.83,25.88c.32,0,.65.08,1,.14C1606.48,374.35,1638.06,410,1632.1,446.63Z"/><path class="cls-19" d="M1160.7,704.09c.06,16.25,62.57,29.43,139.47,28.84s144.4-18.23,138-31.71c-7.06-14.92-61.59-28.73-138.5-28.13S1160.66,693.59,1160.7,704.09Z"/><path class="cls-20" d="M1364.05,581.09c.94-1.43,9.12,104.76,9.12,104.76l-17.68,34.34-78.58-17.62L1288,660.2l53.81-85.41S1361.76,584.53,1364.05,581.09Z"/><path class="cls-21" d="M1373.17,687.38l-11,44-40.69,2.49-51.71,1.31,15.63-65s4.15-16,7.19-4-3.81,31,4.75,31.53,17.11-18.36,27.38-14.93,10.26,10,12.55,21.3,2.28,13,10.83,3.89,21.38-24.51,25.1-20.61"/><path class="cls-22" d="M1340.47,578.68c-.56,2.66,4.27,5.92,10.78,7.28s12.24.29,12.79-2.37-4.28-5.92-10.79-7.28S1341,576,1340.47,578.68Z"/><path class="cls-23" d="M1386.33,532.94c0,20.17,15.29,36.52,34.15,36.52h122.17c18.86,0,34.15-16.35,34.15-36.52V476.61c0-20.17-15.29-36.52-34.15-36.52H1420.48c-18.86,0-34.15,16.35-34.15,36.52Z"/><path class="cls-3" d="M1415.05,522.67c0,3.08,1.45,5.57,3.24,5.57H1471c1.79,0,3.25-2.49,3.25-5.57h0c0-3.08-1.46-5.58-3.25-5.58h-52.69c-1.79,0-3.24,2.5-3.24,5.58Z"/><path class="cls-3" d="M1415.05,506.73c0,3.08,1.45,5.57,3.24,5.57H1471c1.79,0,3.25-2.49,3.25-5.57h0c0-3.08-1.46-5.58-3.25-5.58h-52.69c-1.79,0-3.24,2.5-3.24,5.58Z"/><path class="cls-3" d="M1415.05,490.63c0,3.08,1.45,5.58,3.24,5.58H1471c1.79,0,3.25-2.5,3.25-5.58h0c0-3.08-1.46-5.57-3.25-5.57h-52.69c-1.79,0-3.24,2.49-3.24,5.57Z"/><path class="cls-3" d="M1525.2,465.47a12.69,12.69,0,0,0,12.66,12.71h0a12.68,12.68,0,0,0,12.66-12.71h0a12.68,12.68,0,0,0-12.66-12.7h0a12.68,12.68,0,0,0-12.66,12.7Z"/><path class="cls-24" d="M1539.49,474.29a8.79,8.79,0,0,0,8.78,8.81h0a8.8,8.8,0,0,0,8.79-8.81h0a8.81,8.81,0,0,0-8.79-8.82h0a8.8,8.8,0,0,0-8.78,8.82Z"/><rect class="cls-15" x="1489.22" y="491.21" width="41.82" height="37.61" rx="7.63"/><path class="cls-25" d="M1503.91,500.81a6.67,6.67,0,1,0,6.66-7A6.86,6.86,0,0,0,1503.91,500.81Z"/><path class="cls-26" d="M1497.79,516.56c0,4.8,5.72,8.7,12.78,8.7s12.78-3.9,12.78-8.7-5.72-8.71-12.78-8.71S1497.79,511.74,1497.79,516.56Z"/><path class="cls-15" d="M1166.35,713.25c-1.76-4.11-26.55-76.37-63.09-93.92-32.66-15.68,71.76-38.75,103.09-39s115,152.95,91.13,154.18c-28.58,1.49-61.79-2.65-86.73-5.57C1184,725.8,1166.35,713.25,1166.35,713.25Z"/><path class="cls-27" d="M1211,581.13c31.19-2.91,115,151.67,91.19,152.91C1273.58,735.52,1123.34,589.3,1211,581.13Z"/><polygon class="cls-28" points="1368.39 556.5 1351.74 551.55 1354.81 571.79 1368.39 556.5"/><path class="cls-22" d="M1379.5,548.84a7.73,7.73,0,0,1-4.86,7.32,17.48,17.48,0,0,1-11.29.16c-11.26-3.16-15.31-3.16-18-7.23h0a7.77,7.77,0,0,1-.22-8.26c8.21-13.87,33.94-57.26,33.56-56.12h0Z"/><path class="cls-29" d="M1354.26,537.31c.32,5.62,4.87,9.93,10.17,9.63s9.34-5.1,9-10.73-4.87-9.94-10.17-9.63S1353.94,531.69,1354.26,537.31Z"/><path class="cls-30" d="M1153.82,638.16c.82,3.23,4.89,5,9.08,3.9L1228,625.3c4.18-1.08,6.91-4.57,6.09-7.8h0c-.83-3.23-4.89-5-9.08-3.89l-65.1,16.76c-4.19,1.08-6.91,4.57-6.09,7.79Z"/><path class="cls-31" d="M1169.6,657.16c.82,3.23,4.67,5,8.59,4l60.93-15.69c3.92-1,6.43-4.44,5.6-7.66h0c-.82-3.23-4.67-5-8.58-4L1175.2,649.5c-3.91,1-6.43,4.44-5.6,7.66Z"/><path class="cls-32" d="M1336.16,556.5a13.29,13.29,0,0,0-1.77.19,411,411,0,0,0-110,31.71,15.21,15.21,0,0,0-1.41.68,3.76,3.76,0,0,0-1.46,5.43c1.44,2.58,3,5.12,4.47,7.68a405.84,405.84,0,0,1,116-33.41c-.43-2.87-.84-5.75-1.3-8.61A4.34,4.34,0,0,0,1336.16,556.5Z"/><path class="cls-33" d="M1241,566.13q-10-21.57-19.93-43.15a1.89,1.89,0,0,0-.23-.36l-.79.31q10.76,23.34,21.52,46.68l1.34-.51c-.17-.38-.25-.57-.43-1l-.46.18C1241.65,567.51,1241.33,566.81,1241,566.13Z"/><path class="cls-34" d="M1327.07,480.38a521.51,521.51,0,0,0-84-7.83,6.18,6.18,0,0,0-3.26,1c-6,4.15-11.95,8.55-17.69,13a447.88,447.88,0,0,0-40.1,35.49c-.51.5-1.13,1.34-1,1.82a16.44,16.44,0,0,0,1.74,3.2c4.25-2,8.29-3.84,12.27-5.58,3.51,2.61,4.74,2.68,9.11.88A495.48,495.48,0,0,1,1309,492.18a6.89,6.89,0,0,0,2.28-.46c1.38-.85,3.48-1.77,3.73-2.85.52-2.22,2.11-2.41,4.16-2.65,2.84-.34,5.69-.77,8.54-1.15.54-.07,1.06-.24,1.69-.38a19.84,19.84,0,0,1-.36-2.54C1329.07,481,1328.4,480.61,1327.07,480.38Z"/><path class="cls-35" d="M1199.61,525.13a510,510,0,0,1,113.61-32.9c-.12-.6-.18-.91-.29-1.51a511.06,511.06,0,0,0-114,33Z"/><path class="cls-36" d="M1331.92,548.27a5.1,5.1,0,0,0-2.46-3.49,7,7,0,0,0-4.7-.9c-2.33.37-3.5.56-5.83,1l-9.57-46.6c-.25-1.19-3.63-1.62-7.54-.89a17.12,17.12,0,0,0-4.85,1.58c-1.18.63-1.84,1.33-1.69,1.92q5.63,23.15,11.26,46.29c-5.45,1.1-8.17,1.69-13.57,3l-11.52-40.31a.69.69,0,0,0,0-.35c-.62-2.13-.92-3.2-1.53-5.34-.33-1.17-4-1.34-8.09-.29a19.26,19.26,0,0,0-5.07,2c-1.22.73-1.87,1.49-1.68,2.07l.12.38h0L1280,553.38c-5.33,1.44-8,2.21-13.25,3.82q-8.35-22.5-16.72-45c-.42-1.15-4.06-1.08-8.1.23a19,19,0,0,0-4.89,2.3c-1.16.82-1.76,1.61-1.53,2.18l.16.37h0v0q9.21,22,18.33,44c-5.22,1.79-7.82,2.72-13,4.69L1221.08,523a2,2,0,0,0-.12-.22l-.24-.51c-.52-1.12-4.14-.82-8.06.75a19,19,0,0,0-4.72,2.62c-1.09.89-1.63,1.72-1.35,2.27L1228.52,571c-1.62.68-2.42,1-4,1.72-3.17,1.36-4.53,4.67-3.08,7.33a5.72,5.72,0,0,0,3.55,2.68l.37.1a431.75,431.75,0,0,1,105.15-30.25,3.08,3.08,0,0,0,.25-.27A5,5,0,0,0,1331.92,548.27Z"/><path class="cls-37" d="M1645.57,284.08c0,42-33.77,76.24-76.29,78.48-1.48.12-3,.15-4.49.15-42.68,0-77.65-32.21-80.61-73-.13-1.85-.2-3.74-.2-5.63,0-43.42,36.19-77.83,80.81-77.83S1645.57,240.66,1645.57,284.08Z"/><polygon class="cls-3" points="977.19 553.38 975.12 556.88 984.47 562.4 986.49 558.87 977.19 553.38"/><polygon class="cls-3" points="963.43 545.04 961.3 548.5 970.55 554.18 972.64 550.69 963.43 545.04"/><polygon class="cls-3" points="949.85 536.43 947.65 539.84 956.8 545.69 958.95 542.25 949.85 536.43"/><path class="cls-3" d="M936.5,527.48l-2.3,3.36s2.23,1.55,4.5,3l4.51,3,2.24-3.39-4.49-3C938.71,529,936.5,527.48,936.5,527.48Z"/><path class="cls-3" d="M923.42,518.16l-2.4,3.28,4.38,3.22,4.45,3.12,2.33-3.33-4.42-3.1Z"/><path class="cls-3" d="M910.66,508.41l-2.52,3.18,4.29,3.36,2.94,2.31,1.37,1,2.43-3.25-1.35-1-2.91-2.28Z"/><path class="cls-3" d="M898.38,498.12l-2.68,3.05L897,502.3c.75.69,1.78,1.59,2.84,2.45l4.19,3.48,2.56-3.14-4.13-3.44c-1.05-.85-2.06-1.74-2.8-2.42Z"/><path class="cls-3" d="M886.69,487.19l-2.87,2.87s.47.5,1.21,1.2l2.72,2.6,2.71,2.61c.73.71,1.25,1.15,1.25,1.15l2.74-3s-.52-.43-1.24-1.14l-2.66-2.56-2.67-2.55C887.15,487.68,886.69,487.19,886.69,487.19Z"/><path class="cls-3" d="M875.93,475.42l-3.12,2.6,3.61,4.14c1.76,2.1,3.69,4,3.69,4l2.95-2.8s-1.9-1.9-3.62-3.95Z"/><path class="cls-3" d="M866.74,462.7l-3.61,1.89.9,1.51c.59.87,1.39,2,2.19,3.18s1.58,2.33,2.21,3.15l1.06,1.35,3.22-2.47-1-1.31c-.61-.79-1.31-1.88-2.07-2.95l-2-2.95Z"/><path class="cls-3" d="M859.91,448.78l-4.08.8s1,2.61,2,5.22l2.48,5,3.79-1.54-2.32-4.67Z"/><path class="cls-3" d="M857.26,433.55l-4.2-.37a13.15,13.15,0,0,0,0,1.75c.06,1.05.15,2.45.22,3.85l.66,3.81c.08.52.16,1,.21,1.25s.12.47.12.47l4.16-.42s0-.16-.12-.44-.12-.68-.2-1.16l-.63-3.53-.22-3.58A9.82,9.82,0,0,1,857.26,433.55Z"/><path class="cls-3" d="M860.82,418.55l-3.94-1.5s-.28.64-.72,1.6a24,24,0,0,0-1.31,3.62c-.21.66-.43,1.33-.62,2l-.35,1.76c-.19,1-.32,1.73-.32,1.73l4.16.74.3-1.6c.09-.48.2-1,.31-1.64l.59-1.82a23.4,23.4,0,0,1,1.22-3.37Z"/><path class="cls-3" d="M869.85,406l-3.33-2.49-1.18,1.29c-.69.79-1.7,1.77-2.54,2.89l-2.32,3.07a9.85,9.85,0,0,0-.7,1.06l-.25.42,3.77,1.84.23-.39a7.29,7.29,0,0,1,.66-1l2.17-2.85c.79-1,1.74-1.93,2.38-2.67Z"/><path class="cls-3" d="M882,396.37l-2.42-3.28s-2.35,1.54-4.61,3.2c-1.11.87-2.21,1.73-3,2.39s-1.36,1.11-1.36,1.11l3.05,2.77s.48-.44,1.26-1l2.82-2.2C879.78,397.79,882,396.37,882,396.37Z"/><path class="cls-3" d="M895.7,388.77,894,385.09l-1.55.73c-.93.44-2.14,1.1-3.36,1.73s-2.43,1.25-3.34,1.78l-1.5.9,2.1,3.48,1.4-.84c.84-.49,2-1.09,3.22-1.71s2.35-1.26,3.26-1.69Z"/><path class="cls-3" d="M910.39,382.62,909,378.8l-1.6.59c-1,.37-2.24.81-3.5,1.36l-5,2.1,1.61,3.73,4.95-2.05c1.22-.53,2.49-1,3.43-1.33Z"/><path class="cls-3" d="M925.56,377.58l-1.16-3.9-5.21,1.59L914,377l1.32,3.85,5.09-1.71Z"/><path class="cls-3" d="M941,373.41l-1-4s-2.65.61-5.28,1.32l-5.25,1.42,1.08,3.92,5.19-1.4C938.39,374,941,373.41,941,373.41Z"/><path class="cls-3" d="M956.66,369.93l-.8-4s-2.67.51-5.32,1.11l-5.31,1.17.9,4,5.26-1.15C954,370.43,956.66,369.93,956.66,369.93Z"/><path class="cls-3" d="M972.43,367l-.67-4-5.35.95c-2.68.45-5.34,1-5.34,1l.76,4s2.64-.53,5.29-1Z"/><path class="cls-3" d="M988.3,364.56l-.56-4-5.38.76-5.36.85.64,4,5.32-.85Z"/><polygon class="cls-3" points="1004.23 362.49 1003.76 358.45 992.99 359.79 993.52 363.82 1004.23 362.49"/><path class="cls-3" d="M1020.21,360.81l-.39-4.05-5.4.52-5.39.59.45,4,5.36-.58Z"/><polygon class="cls-3" points="1036.22 359.41 1035.91 355.35 1025.11 356.25 1025.47 360.31 1036.22 359.41"/><polygon class="cls-3" points="1052.26 358.31 1052.02 354.25 1041.2 354.97 1041.49 359.03 1052.26 358.31"/><polygon class="cls-3" points="1068.32 357.45 1068.13 353.39 1057.31 353.94 1057.54 358 1068.32 357.45"/><polygon class="cls-3" points="1084.39 356.82 1084.26 352.75 1073.43 353.15 1073.6 357.22 1084.39 356.82"/><polygon class="cls-3" points="1100.47 356.41 1100.39 352.35 1089.56 352.61 1089.67 356.67 1100.47 356.41"/><polygon class="cls-3" points="1116.55 356.2 1116.52 352.13 1105.69 352.25 1105.75 356.32 1116.55 356.2"/><polygon class="cls-3" points="1132.64 356.16 1132.66 352.1 1121.82 352.09 1121.84 356.16 1132.64 356.16"/><polygon class="cls-3" points="1148.73 356.3 1148.79 352.23 1137.96 352.13 1137.93 356.19 1148.73 356.3"/><polygon class="cls-3" points="1164.82 356.62 1164.92 352.55 1154.09 352.33 1154.02 356.4 1164.82 356.62"/><polygon class="cls-3" points="1180.9 357.09 1181.04 353.03 1170.21 352.69 1170.11 356.76 1180.9 357.09"/><polygon class="cls-3" points="1196.98 357.71 1197.15 353.65 1186.34 353.2 1186.19 357.27 1196.98 357.71"/><polygon class="cls-3" points="1213.06 358.47 1213.27 354.41 1202.45 353.88 1202.27 357.94 1213.06 358.47"/><polygon class="cls-3" points="1229.13 359.38 1229.37 355.32 1218.56 354.7 1218.34 358.76 1229.13 359.38"/><polygon class="cls-3" points="1245.18 360.44 1245.47 356.38 1234.66 355.66 1234.4 359.72 1245.18 360.44"/><polygon class="cls-3" points="1261.24 361.63 1261.55 357.57 1250.75 356.76 1250.46 360.82 1261.24 361.63"/><polygon class="cls-3" points="1277.28 362.94 1277.62 358.89 1266.83 357.99 1266.51 362.04 1277.28 362.94"/><polygon class="cls-3" points="1293.31 364.4 1293.69 360.35 1282.91 359.35 1282.55 363.4 1293.31 364.4"/><polygon class="cls-3" points="1309.32 365.98 1309.73 361.93 1298.96 360.84 1298.57 364.9 1309.32 365.98"/><polygon class="cls-3" points="1316.19 362.89 1316.53 359.79 1308.29 358.9 1307.96 362 1316.19 362.89"/><polygon class="cls-3" points="1328.43 364.3 1328.8 361.21 1320.56 360.25 1320.21 363.35 1328.43 364.3"/><polygon class="cls-3" points="1340.66 365.82 1341.06 362.73 1332.83 361.7 1332.45 364.8 1340.66 365.82"/><polygon class="cls-3" points="1352.88 367.44 1353.3 364.35 1345.08 363.25 1344.68 366.34 1352.88 367.44"/><polygon class="cls-3" points="1365.09 369.16 1365.54 366.07 1357.32 364.9 1356.9 367.99 1365.09 369.16"/><polygon class="cls-3" points="1377.28 370.98 1377.75 367.9 1369.55 366.65 1369.1 369.74 1377.28 370.98"/><polygon class="cls-3" points="1389.45 372.9 1389.95 369.83 1381.76 368.52 1381.28 371.6 1389.45 372.9"/><polygon class="cls-3" points="1401.61 374.95 1402.14 371.88 1393.96 370.5 1393.45 373.57 1401.61 374.95"/><polygon class="cls-3" points="1413.74 377.11 1414.3 374.04 1406.13 372.58 1405.6 375.65 1413.74 377.11"/><polygon class="cls-3" points="1425.85 379.38 1426.44 376.32 1418.29 374.78 1417.72 377.84 1425.85 379.38"/><polygon class="cls-3" points="1437.94 381.78 1438.56 378.72 1430.42 377.09 1429.83 380.15 1437.94 381.78"/><polygon class="cls-3" points="1450.01 384.29 1450.66 381.25 1442.54 379.53 1441.91 382.59 1450.01 384.29"/><polygon class="cls-3" points="1462.04 386.95 1462.72 383.91 1454.62 382.11 1453.96 385.16 1462.04 386.95"/><path class="cls-3" d="M1474,389.76l.73-3-4-1-4-.93-.7,3,4,.93Z"/><polygon class="cls-3" points="1486 392.71 1486.76 389.69 1478.7 387.68 1477.97 390.71 1486 392.71"/><polygon class="cls-3" points="1497.92 395.82 1498.72 392.81 1490.69 390.69 1489.92 393.71 1497.92 395.82"/><polygon class="cls-3" points="1509.78 399.12 1510.63 396.12 1502.64 393.88 1501.82 396.89 1509.78 399.12"/><polygon class="cls-3" points="1521.59 402.6 1522.5 399.62 1514.54 397.25 1513.67 400.24 1521.59 402.6"/><polygon class="cls-3" points="1533.34 406.29 1534.3 403.32 1526.38 400.81 1525.46 403.79 1533.34 406.29"/><path class="cls-3" d="M1545,410.22l1-2.94-3.93-1.36-3.94-1.32-1,3,3.92,1.31Z"/><polygon class="cls-3" points="1556.58 414.4 1557.67 411.49 1549.86 408.62 1548.82 411.56 1556.58 414.4"/><path class="cls-3" d="M1568,418.9l1.17-2.89-3.86-1.56-3.88-1.51-1.11,2.91,3.85,1.5Z"/><path class="cls-3" d="M1579.33,423.72l1.27-2.84s-1.89-.88-3.81-1.68l-3.83-1.64-1.2,2.88,3.8,1.62C1577.46,422.85,1579.33,423.72,1579.33,423.72Z"/><path class="cls-3" d="M1590.46,428.93l1.37-2.79-3.76-1.81c-1.87-.91-3.76-1.78-3.76-1.78l-1.3,2.83s1.87.86,3.73,1.77Z"/><path class="cls-3" d="M1601.31,434.64l1.51-2.72-3.66-2c-.91-.5-1.84-1-2.54-1.34l-1.16-.59-1.41,2.78,1.15.58c.69.35,1.6.82,2.5,1.32Z"/><path class="cls-3" d="M1611.83,440.93l1.67-2.63-3.54-2.22c-1.78-1.1-3.59-2.13-3.59-2.13l-1.56,2.7s1.79,1,3.54,2.09Z"/><path class="cls-3" d="M1621.85,447.92l1.88-2.48-3.37-2.48c-.84-.64-1.71-1.22-2.36-1.66l-1.09-.73-1.73,2.58,1.06.72c.64.43,1.49,1,2.31,1.62Z"/><path class="cls-3" d="M1631.07,455.85l2.16-2.24-.94-.93-2.16-1.93c-1.54-1.43-3.19-2.73-3.19-2.73l-2,2.4s1.61,1.27,3.1,2.66l2.1,1.87Z"/><path class="cls-3" d="M1639,464.88l2.54-1.79-2.62-3.38-2.82-3.17-2.27,2.14s1.36,1.51,2.7,3S1639,464.88,1639,464.88Z"/><path class="cls-3" d="M1644.84,475.23l3-1s-.22-.5-.53-1.24-.69-1.76-1.24-2.69-1-1.89-1.42-2.59a6.08,6.08,0,0,0-.49-.84l-.2-.31-2.7,1.54.18.29a7.87,7.87,0,0,1,.47.78l1.31,2.41a22.66,22.66,0,0,1,1.15,2.49Z"/><path class="cls-3" d="M1647.29,486.82l3.14-.09s0-.54-.1-1.34-.15-1.88-.29-2.94-.42-2.11-.59-2.91a10.11,10.11,0,0,0-.31-1.3l-3.06.7a8,8,0,0,1,.3,1.21l.55,2.69c.13,1,.19,2,.26,2.74S1647.29,486.82,1647.29,486.82Z"/><path class="cls-3" d="M1645.5,498.53l3,.82.13-.35a7.82,7.82,0,0,0,.27-.94c.19-.78.46-1.82.72-2.87a29,29,0,0,0,.47-2.92c.11-.79.18-1.33.18-1.33l-3.13-.21s-.07.49-.17,1.24-.18,1.74-.44,2.71-.49,1.93-.68,2.66a6.51,6.51,0,0,1-.25.87C1645.54,498.41,1645.5,498.53,1645.5,498.53Z"/><path class="cls-3" d="M1640.29,509.19l2.63,1.65s1.11-1.84,2.21-3.69,1.89-3.87,1.89-3.87l-2.92-1.1s-.85,1.81-1.76,3.58S1640.29,509.19,1640.29,509.19Z"/><path class="cls-3" d="M1632.79,518.62l2.28,2.12s1.48-1.5,2.79-3.17c.68-.81,1.36-1.62,1.86-2.24l.78-1.07L1638,512.4s-.29.41-.74,1-1.13,1.37-1.78,2.15C1634.22,517.16,1632.79,518.62,1632.79,518.62Z"/><path class="cls-3" d="M1608.51,530.9A15.45,15.45,0,1,0,1624,515.22,15.57,15.57,0,0,0,1608.51,530.9Z"/><path class="cls-3" d="M1286.31,360.36a13.13,13.13,0,1,0,13.13-13.18A13.16,13.16,0,0,0,1286.31,360.36Z"/><path class="cls-3" d="M861.91,398.17a16.48,16.48,0,1,0,16.48-16.54A16.51,16.51,0,0,0,861.91,398.17Z"/><line class="cls-16" x1="1106.23" y1="201.56" x2="1099.77" y2="201.56"/><path class="cls-16" d="M916.64,224.89A37.78,37.78,0,1,0,984,201.16l-58.87-.3A37.58,37.58,0,0,0,916.64,224.89Z"/><path class="cls-16" d="M954.32,187a37.61,37.61,0,0,0-29.19,13.88l58.87.3A37.62,37.62,0,0,0,954.32,187Z"/><path class="cls-3" d="M1362.4,532.31a3,3,0,1,0,3.4-2.76A3.1,3.1,0,0,0,1362.4,532.31Z"/><path class="cls-3" d="M1357.71,538.86c-.41,2.14,1.79,4.36,4.93,5s6-.62,6.41-2.75-1.79-4.37-4.92-5S1358.12,536.73,1357.71,538.86Z"/><path class="cls-15" d="M1425.32,714.08a102.93,102.93,0,0,1,7.86-23.48c5.37-11,11.32-24.36,20.64-29.64,17.15-9.73-40.39-18.38-57.41-17.36s-58.83,88.5-45.82,88.29c15.57-.26,35.48-5.38,48.79-8.51C1417.28,719.17,1425.32,714.08,1425.32,714.08Z"/><path class="cls-27" d="M1396.54,643.41c-17-.42-56.88,86.62-43.88,86.4C1368.23,729.56,1444.42,644.6,1396.54,643.41Z"/><path class="cls-38" d="M1429.67,672.26c-.33,1.78-2.47,2.88-4.78,2.45l-36-6.69c-2.31-.43-3.92-2.22-3.59-4h0c.33-1.79,2.47-2.88,4.78-2.45l36,6.68c2.31.43,3.92,2.23,3.59,4Z"/><path class="cls-39" d="M1421.8,683.16c-.33,1.78-2.35,2.9-4.51,2.5l-33.67-6.26c-2.16-.4-3.65-2.17-3.32-3.95h0c.33-1.79,2.35-2.91,4.52-2.51l33.66,6.26c2.16.41,3.65,2.18,3.32,4Z"/><path class="cls-40" d="M1374.4,614.91c-1.23-3-2.4-5.91-3.6-8.9l8.31-3.4c-.26-2.73-.71-5.38-.72-8s.44-5.29.7-8.17L1370.8,583c1.19-3,2.36-5.83,3.59-8.87,2.34.93,4.64,1.76,6.84,2.78,1.27.59,2,.51,2.78-.76a29.57,29.57,0,0,1,9.18-9,1.31,1.31,0,0,0,.62-1.94c-1-2.44-2-4.93-3-7.56l8.84-3.63c.95,2.37,2,4.65,2.77,7,.45,1.34,1,1.75,2.45,1.4a27.9,27.9,0,0,1,12.82.07c1.11.26,1.59,0,2-1.07.87-2.45,1.88-4.85,2.9-7.38l8.85,3.62c-1,2.52-1.93,5-3,7.42-.39.93-.4,1.47.56,2.08a30.47,30.47,0,0,1,9.37,9.44,1.24,1.24,0,0,0,1.83.57c2.48-1.07,5-2,7.6-3,1.21,3,2.37,5.87,3.6,8.9l-8.65,3.46c.12.64.21,1.22.34,1.79a29.84,29.84,0,0,1-.15,13c-.21.92,0,1.35.87,1.68,2.48.93,4.92,2,7.58,3-1.2,3-2.38,5.89-3.59,8.91-2.59-1-5.11-2-7.58-3a1.22,1.22,0,0,0-1.82.55,31.57,31.57,0,0,1-9.56,9.69,1.16,1.16,0,0,0-.51,1.72c1.05,2.44,2,4.92,3.07,7.55l-8.86,3.62c-1.18-2.9-2.3-5.67-3.49-8.58a31.53,31.53,0,0,1-15.91,0c-1.17,2.84-2.32,5.66-3.53,8.6l-8.85-3.61c1-2.46,1.9-4.89,3-7.26a1.47,1.47,0,0,0-.65-2.19,30.91,30.91,0,0,1-9.38-9.43c-.54-.83-1-1-1.93-.62C1379.4,612.93,1377,613.86,1374.4,614.91Zm36.75,2.84A23.17,23.17,0,1,0,1388,594.57,23,23,0,0,0,1411.15,617.75Z"/><polygon class="cls-41" points="920.16 518.15 1006.55 631.43 1026.25 588.42 1028.8 579.61 920.16 518.15"/><polygon class="cls-42" points="1028.8 579.61 1073.9 561.74 920.16 518.15 1028.8 579.61"/><path class="cls-43" d="M1159.57,700.64c9.09,23.13,38.11,33.79,142.25,33.79,77,0,139.43-13.4,139.43-29.92,0-3.77-3.28-7.38-9.21-10.7"/><path class="cls-15" d="M1167.51,701.36s0,0,0-.05c.19-.83-1.11-2.08-1.77-1.17a2.24,2.24,0,0,0-.4.89l1.79-.13.09.28c-.08-.71-.84-1.49-1.58-1.06a1,1,0,0,0-.5.72l1.8-.13c-.06-.13-.12-.26-.19-.38a.94.94,0,0,0-1.81.41v.66c0,1.3,2,1.65,2,.16v-.47c0-1.13-1.68-1.68-2-.44a5.24,5.24,0,0,0-.1,1l2,.16v-1c0-1.08-1.84-1.74-2-.43l-.09.86,2,.43c0-.22-.07-.44-.1-.66-.18-1.25-2.16-1.66-2-.16,0,.28.07.57.09.86l1.94-.13c0-.16-.09-.32-.13-.48-.22-1.23-2-1.69-2-.16v.67l1.94-.13c0-.16-.09-.32-.13-.47-.22-1.23-2-1.7-2-.16v.66l2,.16a4.43,4.43,0,0,0-.25-1c-.38-1-2.2-1.25-1.93.13a2.77,2.77,0,0,1,.09.86l2,.15a5.62,5.62,0,0,0-.09-.57c-.23-1.21-2-1.7-2-.16v.67l1.93-.13a.53.53,0,0,1,0-.28c0-.93-1.43-1.73-1.91-.69a1.61,1.61,0,0,0-.18.91l1.94-.13a3.23,3.23,0,0,0-.32-.85c-.46-.86-2-.75-1.81.41,0,.19.07.38.1.57.21,1.23,2.18,1.66,2,.16l0-.14-.89.75-.14,0c1.38.43,1.49-1.71.32-2.07a1.53,1.53,0,0,0-.37-.08.83.83,0,0,0-.89.74,2.22,2.22,0,0,0,0,.68l2,.16-.09-.58-1.81.41a1.36,1.36,0,0,1,.06.29c.24,1.13,2.15,1.17,1.93-.12,0,.27,0,.32,0,.14l-1.91-.68a2.41,2.41,0,0,0,.15.85c.43,1.06,1.94,1.25,1.94-.12v-.67l-2-.16a5.4,5.4,0,0,1,.09.58c.18,1.24,2,1.68,2,.15a3,3,0,0,0-.09-.85l-1.94.12c0,.13.09.26.13.38.22,1.23,2,1.7,2,.16v-.66l-2-.16a9.26,9.26,0,0,0,.25,1c.35,1.13,1.94,1.19,1.94-.12v-.67l-2-.16a9.43,9.43,0,0,0,.25,1.05c.34,1.06,2.09,1.22,1.94-.13,0-.28-.07-.57-.1-.85l-2-.16c0,.22.07.44.09.66.15,1,1.84,1.83,2,.44l.09-.86-2-.43v1c0,1.3,2,1.63,2,.16l.09-.49-2-.43v.47c0,1.3,2,1.65,2,.16v-.67l-1.81.41.19.38a1,1,0,0,0,1.8-.13.09.09,0,0,1,0,0l-.41.63.09,0-1.58-1.06a2.74,2.74,0,0,0,.28.85,1,1,0,0,0,1.8-.13s0,0,0,0l-1.76-1.17a.06.06,0,0,0,0,0c-.27,1.2,1.65,2.13,2,.71Z"/><path class="cls-44" d="M1675.34,225.05c-51.26,0-92.64,39.75-92.64,88.78s41.29,88.8,92.55,88.8c1.26,0,2.49,0,3.49-.08V225.12C1677.74,225.08,1676.6,225.05,1675.34,225.05Z"/><path class="cls-45" d="M1147.32,222.81s74.78-69.59,91.07-109.37C1256.59,69,1404.94,12.83,1465.45,3.51c96.38-14.84,136.11,21.58,165.74,31s40,51.6,45.73,48.66c2.94-1.51,2.67,34.45,2.55,69.8-.11,33.49,0,66.22,0,66.22Z"/><path class="cls-46" d="M1679.47,74.45s-99.8,36.07-117.13,75.49S1516.4,166,1484.79,172.6,1407.5,203,1407.5,203h272Z"/><path class="cls-47" d="M1679.47,76.75c0,43.44-44,86.88-103,89.21-2,.12-4.14.15-6.24.15-59.25,0-107.8-33.35-111.91-75.58-.18-1.92-.29-3.88-.29-5.83,0-45,50.26-81.43,112.2-81.43S1679.47,31.78,1679.47,76.75Z"/><path class="cls-48" d="M1381.6,150.9c0,50.19,44.41,92.49,99.2,92.49S1580,201.09,1580,150.9,1535.59,60,1480.8,60,1381.6,100.71,1381.6,150.9Z"/><path class="cls-49" d="M906.34,205.49s66.45-88.07,133.39-80.49,127.09-9.76,159.16-19.55c42.14-12.87,99.91-39.67,99.91-39.67L1319.09,60s-151.78,155-175.73,157.31S906.34,205.49,906.34,205.49Z"/><path class="cls-50" d="M1605.06,777.31c-54.76,0-99.15,42-99.15,93.75s44.39,93.74,99.15,93.74A101.45,101.45,0,0,0,1679.47,933V809.1A101.45,101.45,0,0,0,1605.06,777.31Z"/><path class="cls-16" d="M1684.32,831.29c0-5.24.42-10.25-2.58-14.93v29.73C1684.74,841.45,1684.31,836.47,1684.32,831.29Z"/><path class="cls-51" d="M1629.27,831c-28.56,0-51.39-20.82-51.53-47-.14-25.88,22.76-46.92,51.16-46.94,23,0,42.84,13.26,48.84,32V734.51c-2-2.21-5.53-4.23-8.65-6-2.14-1.24-2.07-2.34-1.21-4.2,2.28-4.94,4.38-10,6.6-15.07l-19.71-7.32c-2.24,5.13-4.49,10-6.44,15-.86,2.2-1.93,2.71-4.4,2.18a67.92,67.92,0,0,0-28.53-.14c-3.33.71-4.43-.12-5.45-2.83-1.79-4.76-4-9.38-6.17-14.18l-19.66,7.36c2.29,5.32,4.34,10.37,6.64,15.33.87,1.88.51,2.85-1.36,3.94A63.48,63.48,0,0,0,1569,746.73c-1.81,2.58-3.36,2.73-6.19,1.54-4.9-2.07-10-3.74-15.22-5.64-2.74,6.17-5.33,12-8,18l18.45,6.91c-.59,5.84-1.57,11.21-1.55,16.57s1,10.69,1.6,16.24l-18.5,6.89,8,18c5.74-2.13,11.14-4,16.44-6.14,2.07-.83,3.13-.42,4.3,1.24a66,66,0,0,0,20.88,19.13c2.13,1.25,2.42,2.39,1.44,4.45-2.32,4.81-4.36,9.72-6.57,14.72l19.7,7.29,7.86-17.41a77.2,77.2,0,0,0,35.42,0l7.77,17.4,19.69-7.34c-2.36-5.33-4.48-10.37-6.83-15.32-.8-1.67-.52-2.53,1.08-3.46,3.25-1.91,7-4,9-6.36V798.83C1671.74,817.61,1652.05,831,1629.27,831Z"/><path class="cls-52" d="M999.82,783.92c0,32.65,26.21,59.13,58.53,59.13s58.53-26.48,58.53-59.13-26.21-59.13-58.53-59.13S999.82,751.26,999.82,783.92Z"/><polyline class="cls-53" points="1376.45 1057.09 1413.21 1067.52 1360.12 1123.18 1293.24 1079.65"/><path class="cls-54" d="M1591.17,893C1525.9,893,1473,940.09,1473,998.22s52.9,105.26,118.17,105.26c35.33,0,66.65-13.81,88.3-35.7l.39-139.12C1658.2,906.78,1626.5,893,1591.17,893Z"/><path class="cls-55" d="M1293.24,1079.65l-55.82,32.78h0a271.22,271.22,0,0,1-37.15-19.38,289.94,289.94,0,0,1-28.92-20.69.44.44,0,0,1-.12-.1l0,0,41-15.14Z"/><path class="cls-56" d="M900.94,270.57c-2.38-5.91-4.65-11.49-7-17.31l16.18-6.62c-.5-5.32-1.38-10.46-1.4-15.58s.85-10.3,1.37-15.91l-16.15-6.62c2.33-5.77,4.59-11.36,7-17.26,4.55,1.81,9,3.42,13.31,5.4,2.46,1.14,3.82,1,5.41-1.48a57.68,57.68,0,0,1,17.87-17.52c1.64-1,2-2,1.2-3.77-2-4.76-3.82-9.6-5.81-14.71l17.2-7.07c1.84,4.61,3.83,9,5.39,13.61.89,2.6,1.85,3.4,4.78,2.72a54.17,54.17,0,0,1,24.94.13c2.16.51,3.1,0,3.86-2.09,1.69-4.75,3.67-9.42,5.65-14.35l17.23,7c-1.94,4.9-3.76,9.71-5.75,14.45-.76,1.79-.78,2.84,1.09,4A59.5,59.5,0,0,1,1025.56,196c1,1.51,1.85,1.83,3.56,1.1,4.82-2.07,9.73-3.92,14.78-5.94l7,17.32-16.84,6.74c.24,1.23.43,2.36.67,3.48a58.28,58.28,0,0,1-.28,25.35c-.42,1.79-.09,2.62,1.67,3.27,4.83,1.81,9.59,3.81,14.77,5.88-2.35,5.79-4.63,11.46-7,17.33-5.05-2-10-3.88-14.76-5.94-1.68-.72-2.57-.45-3.54,1.08a61.41,61.41,0,0,1-18.6,18.86c-1.4.9-1.7,1.72-1,3.33,2.06,4.75,3.91,9.58,6,14.7l-17.23,7L988,293a61.58,61.58,0,0,1-31,0l-6.86,16.72-17.24-7c1.92-4.79,3.71-9.51,5.74-14.12.87-2,.6-3.08-1.26-4.27a60.45,60.45,0,0,1-18.27-18.35c-1-1.61-2-2-3.75-1.2C910.69,266.72,906,268.53,900.94,270.57Zm71.55,5.53A45.08,45.08,0,1,0,927.37,231,44.76,44.76,0,0,0,972.49,276.1Z"/></g></g></svg>