<svg xmlns="http://www.w3.org/2000/svg" xmlns:xlink="http://www.w3.org/1999/xlink" viewBox="0 0 2181 1575.51"><defs><style>.cls-1,.cls-2{fill:none;}.cls-2{clip-path:url(#clip-path);}.cls-3{clip-path:url(#clip-path-2);}.cls-4{opacity:0.8;}.cls-5{clip-path:url(#clip-path-4);}.cls-6{clip-path:url(#clip-path-5);}.cls-7{fill:url(#linear-gradient);}.cls-8{clip-path:url(#clip-path-6);}.cls-9{clip-path:url(#clip-path-7);}.cls-10{fill:url(#linear-gradient-2);}.cls-11{clip-path:url(#clip-path-8);}.cls-12{clip-path:url(#clip-path-9);}.cls-13{clip-path:url(#clip-path-10);}.cls-14{clip-path:url(#clip-path-11);}.cls-15{clip-path:url(#clip-path-12);}.cls-16{fill:url(#linear-gradient-3);}.cls-17{clip-path:url(#clip-path-13);}.cls-18{fill:#f8fffe;}.cls-19{clip-path:url(#clip-path-15);}.cls-20{clip-path:url(#clip-path-16);}.cls-21{fill:url(#linear-gradient-4);}.cls-22{clip-path:url(#clip-path-17);}.cls-23{clip-path:url(#clip-path-18);}.cls-24{fill:url(#linear-gradient-5);}.cls-25{clip-path:url(#clip-path-20);}.cls-26{clip-path:url(#clip-path-21);}.cls-27{fill:url(#linear-gradient-6);}.cls-28{clip-path:url(#clip-path-22);}.cls-29{clip-path:url(#clip-path-23);}.cls-30{fill:url(#linear-gradient-7);}.cls-31{clip-path:url(#clip-path-24);}.cls-32{clip-path:url(#clip-path-27);}.cls-33{clip-path:url(#clip-path-28);}.cls-34{fill:url(#linear-gradient-8);}</style><clipPath id="clip-path"><path class="cls-1" d="M2033.41,1101.3c-25.11,12.39-56.74,13.4-84.63,7.85-33.83-6.73-66.55-24-83.78-50.28-13.33-20.32-12.37-44.32-4.66-66"/></clipPath><clipPath id="clip-path-2" transform="translate(0 -696.96)"><rect class="cls-1" x="114.04" y="49.02" width="1920" height="1080"/></clipPath><clipPath id="clip-path-4" transform="translate(0 -696.96)"><rect class="cls-1" x="1735.96" y="754.57" width="298.2" height="710.85"/></clipPath><clipPath id="clip-path-5" transform="translate(0 -696.96)"><path class="cls-1" d="M1745.34,1265.72c14.35-40.47,67.3-75.91,84-115.62,7.46-17.73,7.61-36.17,8-55,.5-22.27-25.86-42.07-30.24-64.67-7.14-36.75-5-75,10.34-110.13,30.71-70.42,105.8-117.22,181-151,11.75-5.28,23.56-10.26,35.66-14.69v692.36c-41.91,20.69-94.69,22.38-141.24,13.1-56.46-11.24-111.05-40.11-139.81-84-22.24-33.94-20.63-74-7.77-110.32"/></clipPath><linearGradient id="linear-gradient" x1="113.68" y1="46.62" x2="114.68" y2="46.62" gradientTransform="matrix(-600.87, -69.22, 93.56, -444.59, 66319.87, 29066.25)" gradientUnits="userSpaceOnUse"><stop offset="0" stop-color="#4b99a5"/><stop offset="1" stop-color="#93ded9"/></linearGradient><clipPath id="clip-path-6" transform="translate(0 -696.96)"><rect class="cls-1" x="1820.46" y="870.58" width="213.53" height="509.02"/></clipPath><clipPath id="clip-path-7" transform="translate(0 -696.96)"><path class="cls-1" d="M1827.17,1236.61c10.28-29,48.19-54.36,60.15-82.8,5.34-12.69,5.45-25.9,5.75-39.4.36-16-18.52-30.13-21.66-46.32-5.1-26.31-3.54-53.72,7.41-78.85,22-50.43,75.76-83.94,129.63-108.14,8.42-3.78,16.87-7.34,25.54-10.52v495.78c-30,14.82-67.8,16-101.14,9.39-40.43-8.06-79.52-28.72-100.12-60.14-15.92-24.31-14.77-53-5.56-79"/></clipPath><linearGradient id="linear-gradient-2" x1="113.53" y1="45.67" x2="114.53" y2="45.67" gradientTransform="matrix(-430.27, -49.57, 66.99, -318.36, 48067.8, 20638.98)" gradientUnits="userSpaceOnUse"><stop offset="0" stop-color="#ddede0"/><stop offset="1" stop-color="#93ded9"/></linearGradient><clipPath id="clip-path-8" transform="translate(0 -696.96)"><polyline class="cls-1" points="2033.46 0 426.77 0 426.77 902.88 2033.46 902.88"/></clipPath><clipPath id="clip-path-9" transform="translate(0 -696.96)"><polyline class="cls-1" points="2033.46 902.88 426.77 902.88 426.77 0 2033.46 0"/></clipPath><clipPath id="clip-path-10" transform="translate(0 -696.96)"><line class="cls-1" x1="1784.01" y1="1184.11" x2="2033.55" y2="1184.11"/></clipPath><clipPath id="clip-path-11" transform="translate(0 -696.96)"><line class="cls-1" x1="1854.72" y1="1112.37" x2="2033.41" y2="1112.37"/></clipPath><clipPath id="clip-path-12" transform="translate(0 -696.96)"><path class="cls-2" d="M1860.34,992.83c8.6-24.23,40.33-45.45,50.33-69.22,4.48-10.61,4.56-21.65,4.82-32.94.3-13.34-15.5-25.19-18.12-38.72-4.28-22-3-44.92,6.2-65.93"/></clipPath><linearGradient id="linear-gradient-3" x1="113.73" y1="46.37" x2="114.57" y2="46.37" xlink:href="#linear-gradient-2"/><clipPath id="clip-path-13" transform="translate(0 -696.96)"><rect class="cls-1" x="113.28" y="1129.02" width="1920" height="1080"/></clipPath><clipPath id="clip-path-15" transform="translate(0 -696.96)"><rect class="cls-1" x="1735.19" y="754.57" width="298.2" height="710.85"/></clipPath><clipPath id="clip-path-16" transform="translate(0 -696.96)"><path class="cls-1" d="M1744.57,1265.72c14.36-40.47,67.3-75.91,84-115.62,7.46-17.73,7.6-36.17,8-55,.5-22.27-25.86-42.07-30.24-64.67-7.14-36.75-5-75,10.34-110.13,30.7-70.42,105.8-117.22,181-151,11.75-5.28,23.56-10.26,35.66-14.69v692.36c-41.91,20.69-94.69,22.38-141.24,13.11-56.46-11.25-111.06-40.12-139.82-84-22.24-33.94-20.63-74-7.77-110.32"/></clipPath><linearGradient id="linear-gradient-4" x1="113.31" y1="44.24" x2="114.31" y2="44.24" gradientTransform="matrix(-600.87, -69.22, 93.56, -444.59, 66319.87, 27986.25)" xlink:href="#linear-gradient"/><clipPath id="clip-path-17" transform="translate(0 -696.96)"><rect class="cls-1" x="1819.69" y="870.59" width="213.53" height="509.02"/></clipPath><clipPath id="clip-path-18" transform="translate(0 -696.96)"><path class="cls-1" d="M1826.41,1236.61c10.28-29,48.19-54.36,60.14-82.8,5.35-12.69,5.46-25.9,5.76-39.4.36-16-18.52-30.13-21.66-46.32-5.11-26.31-3.54-53.72,7.41-78.85,22-50.43,75.76-83.94,129.63-108.14,8.42-3.78,16.87-7.34,25.53-10.52v495.79c-30,14.81-67.8,16-101.13,9.38-40.43-8.06-79.53-28.72-100.12-60.14-15.93-24.31-14.77-53-5.56-79"/></clipPath><linearGradient id="linear-gradient-5" x1="113.02" y1="42.36" x2="114.02" y2="42.36" gradientTransform="matrix(-430.27, -49.57, 66.99, -318.36, 48067.8, 19558.83)" xlink:href="#linear-gradient-2"/><clipPath id="clip-path-20" transform="translate(0 -696.96)"><rect class="cls-1" x="114.28" y="1701.6" width="230.8" height="542.03"/></clipPath><clipPath id="clip-path-21" transform="translate(0 -696.96)"><path class="cls-1" d="M337.83,2091.36c-11.11-30.86-52.09-57.89-65-88.16-5.77-13.53-5.89-27.58-6.21-42-.39-17,20-32.08,23.4-49.31,5.52-28,3.83-57.21-8-84-23.76-53.7-81.88-89.39-140.11-115.15-9.09-4-18.23-7.83-27.6-11.2v527.93c32.44,15.78,73.29,17.07,109.32,10,43.7-8.57,86-30.58,108.21-64,17.22-25.88,16-56.45,6-84.12"/></clipPath><linearGradient id="linear-gradient-6" x1="113.07" y1="42.74" x2="114.07" y2="42.74" gradientTransform="matrix(465.87, -52.59, -72.54, -337.73, -49727.13, 21701.96)" xlink:href="#linear-gradient"/><clipPath id="clip-path-22" transform="translate(0 -696.96)"><rect class="cls-1" x="116.1" y="1777.81" width="173.09" height="388.14"/></clipPath><clipPath id="clip-path-23" transform="translate(0 -696.96)"><path class="cls-1" d="M283.75,2056.91c-8.34-22.1-39.07-41.45-48.76-63.13-4.33-9.68-4.42-19.75-4.66-30-.3-12.16,15-23,17.55-35.31,4.14-20.07,2.87-41-6-60.13-17.82-38.45-61.4-64-105.08-82.46-6.82-2.88-13.67-5.6-20.69-8v378c24.32,11.3,55,12.22,82,7.16,32.77-6.14,64.46-21.9,81.16-45.86,12.9-18.54,12-40.42,4.51-60.24"/></clipPath><linearGradient id="linear-gradient-7" x1="112.61" y1="39.76" x2="113.61" y2="39.76" gradientTransform="matrix(358.93, -35.61, -55.89, -228.69, -38287.09, 14408.78)" xlink:href="#linear-gradient-2"/><clipPath id="clip-path-24" transform="translate(0 -696.96)"><rect class="cls-1" x="113.28" y="2209.02" width="1920" height="1080"/></clipPath><clipPath id="clip-path-27" transform="translate(0 -696.96)"><rect class="cls-1" x="114.28" y="1701.6" width="230.8" height="542.03"/></clipPath><clipPath id="clip-path-28" transform="translate(0 -696.96)"><path class="cls-1" d="M337.82,2091.36c-11.11-30.86-52.08-57.89-65-88.16-5.77-13.53-5.89-27.58-6.22-42-.38-17,20-32.08,23.41-49.31,5.52-28,3.83-57.21-8-84-23.76-53.7-81.88-89.39-140.11-115.15-9.09-4-18.23-7.83-27.6-11.2v527.93c32.44,15.78,73.29,17.07,109.32,10,43.69-8.57,86-30.58,108.21-64,17.21-25.88,16-56.45,6-84.12"/></clipPath><linearGradient id="linear-gradient-8" x1="112.58" y1="39.62" x2="113.58" y2="39.62" gradientTransform="matrix(465.87, -52.59, -72.54, -337.73, -49727.13, 20621.96)" xlink:href="#linear-gradient"/></defs><title>Asset 24</title><g id="Layer_2" data-name="Layer 2"><g id="Layer_1-2" data-name="Layer 1"><g class="cls-3"><g class="cls-3"><g class="cls-4"><g class="cls-5"><g class="cls-6"><polygon class="cls-7" points="2181 74.53 1738.05 23.5 1584.02 755.43 2026.98 806.47 2181 74.53"/></g></g></g><g class="cls-4"><g class="cls-8"><g class="cls-9"><polygon class="cls-10" points="2139.14 185.74 1821.95 149.2 1711.65 673.32 2028.85 709.86 2139.14 185.74"/></g></g></g></g></g><g class="cls-11"><g class="cls-12"><g class="cls-4"><g class="cls-14"><g class="cls-15"><polyline class="cls-16" points="1763.68 407.62 2029.11 438.17 2121.4 0"/></g></g></g></g></g><g class="cls-17"><rect class="cls-18" x="116.28" y="432.06" width="1917" height="2"/><g class="cls-17"><g class="cls-4"><g class="cls-19"><g class="cls-20"><polygon class="cls-21" points="2180.24 74.53 1737.28 23.5 1583.26 755.43 2026.22 806.47 2180.24 74.53"/></g></g></g><g class="cls-4"><g class="cls-22"><g class="cls-23"><polygon class="cls-24" points="2138.38 185.74 1821.19 149.2 1710.89 673.32 2028.08 709.86 2138.38 185.74"/></g></g></g></g><g class="cls-17"><g class="cls-4"><g class="cls-25"><g class="cls-26"><polygon class="cls-27" points="0 1017.54 343.47 978.77 463.31 1536.74 119.84 1575.51 0 1017.54"/></g></g></g><g class="cls-4"><g class="cls-28"><g class="cls-29"><polygon class="cls-30" points="22.98 1090.09 287.98 1063.8 385.26 1461.88 120.26 1488.17 22.98 1090.09"/></g></g></g></g></g><g class="cls-31"><g class="cls-31"><polygon class="cls-18" points="116.28 1512.06 2034.28 1512.06 2034.28 1133.19 2034.28 434.06 116.28 434.06 116.28 1512.06"/></g><g class="cls-31"><g class="cls-4"><g class="cls-32"><g class="cls-33"><polygon class="cls-34" points="0 1017.54 343.47 978.77 463.31 1536.74 119.84 1575.51 0 1017.54"/></g></g></g></g></g></g></g></svg>