<svg xmlns="http://www.w3.org/2000/svg" xmlns:xlink="http://www.w3.org/1999/xlink" viewBox="0 0 35.43 23.91"><defs><style>.cls-1{fill:none;}.cls-2{clip-path:url(#clip-path);}.cls-3{fill:url(#linear-gradient);}.cls-4{clip-path:url(#clip-path-2);}.cls-5{fill:url(#linear-gradient-2);}</style><clipPath id="clip-path"><path class="cls-1" d="M33.31,6.72c-4.6,2.63-9.23,5.22-13.79,7.91a2.87,2.87,0,0,1-3.34,0C12.1,12.23,8,9.91,3.83,7.56,2.75,6.93,1.64,6.35.3,5.62c0,5.74,0,11.14,0,16.55,0,1.16.82,1.71,2,1.72,1.29,0,2.56,0,3.84,0H32.8c1.36,0,2.56-.25,2.57-1.87.06-5.36,0-10.71,0-16.47L33.31,6.72"/></clipPath><linearGradient id="linear-gradient" x1="-322.89" y1="-4072" x2="-321.89" y2="-4072" gradientTransform="matrix(35.12, 0, 0, -35.12, 11338.69, -142975.21)" gradientUnits="userSpaceOnUse"><stop offset="0" stop-color="#e99c7b"/><stop offset="0.99" stop-color="#ff4f3e"/><stop offset="1" stop-color="#ff4f3e"/></linearGradient><clipPath id="clip-path-2"><path class="cls-1" d="M32.35,0H2.84C1.74,0,.72.12.36,1.37S.55,3.35,1.69,4c4.95,2.75,9.87,5.58,14.76,8.42a2.36,2.36,0,0,0,2.69,0c5-2.92,10.05-5.74,15-8.66.53-.31,1.21-1.2,1.09-1.58a4.4,4.4,0,0,0-1.58-2A1.61,1.61,0,0,0,32.77,0h-.42"/></clipPath><linearGradient id="linear-gradient-2" x1="-322.89" y1="-4072.26" x2="-321.89" y2="-4072.26" gradientTransform="matrix(35.04, 0, 0, -35.04, 11315.77, -142701.75)" xlink:href="#linear-gradient"/></defs><title>Asset 21</title><g id="Layer_2" data-name="Layer 2"><g id="Layer_1-2" data-name="Layer 1"><g class="cls-2"><rect class="cls-3" x="0.27" y="5.57" width="35.16" height="18.34"/></g><g class="cls-4"><rect class="cls-5" width="35.4" height="13.02"/></g></g></g></svg>