<?xml version="1.0" encoding="UTF-8" standalone="no"?>
<!DOCTYPE svg PUBLIC "-//W3C//DTD SVG 1.1//EN" "http://www.w3.org/Graphics/SVG/1.1/DTD/svg11.dtd">
<svg width="100%" height="100%" viewBox="0 0 347 58" version="1.1" xmlns="http://www.w3.org/2000/svg" xmlns:xlink="http://www.w3.org/1999/xlink" xml:space="preserve" xmlns:serif="http://www.serif.com/" style="fill-rule:evenodd;clip-rule:evenodd;stroke-linejoin:round;stroke-miterlimit:2;">
    <g transform="matrix(1,0,0,1,0.00262654,0)">
        <path d="M202.82,3.85L202.82,11.4L208.88,14.99L221.44,7.56L221.44,0L208.4,7.99L202.82,3.85Z" style="fill:url(#_Linear1);fill-rule:nonzero;"/>
        <rect x="205.41" y="18.87" width="9.36" height="37.18" style="fill:white;"/>
        <path d="M163.61,18.81L173.13,18.81L182.53,40.81L191.92,18.81L201.39,18.81L185.54,56.05L179.54,56.05L163.61,18.81Z" style="fill:white;fill-rule:nonzero;"/>
        <path d="M248.07,24L242.28,29.78C239.927,27.447 237.793,26.283 235.88,26.29C235.009,26.239 234.145,26.474 233.42,26.96C232.866,27.33 232.531,27.953 232.53,28.62C232.537,29.134 232.737,29.627 233.09,30C233.923,30.72 234.865,31.304 235.88,31.73L239.3,33.44C242.907,35.22 245.383,37.033 246.73,38.88C248.085,40.775 248.787,43.061 248.73,45.39C248.797,48.55 247.464,51.583 245.09,53.67C242.677,55.89 239.423,57 235.33,57C230.215,57.153 225.343,54.766 222.33,50.63L228.08,44.37C229.158,45.636 230.464,46.687 231.93,47.47C233.123,48.173 234.468,48.578 235.85,48.65C236.922,48.703 237.98,48.389 238.85,47.76C239.54,47.301 239.968,46.538 240,45.71C240,44.28 238.65,42.87 235.93,41.5L232.78,39.93C226.78,36.897 223.78,33.097 223.78,28.53C223.739,25.658 224.952,22.907 227.1,21C229.488,18.869 232.612,17.746 235.81,17.87C240.637,17.837 245.2,20.118 248.07,24Z" style="fill:white;fill-rule:nonzero;"/>
        <path d="M272.2,17.86C275.674,17.847 279.09,18.755 282.1,20.49C285.118,22.171 287.622,24.643 289.34,27.64C291.062,30.603 291.959,33.973 291.94,37.4C291.955,40.856 291.054,44.255 289.33,47.25C287.646,50.244 285.177,52.723 282.19,54.42C279.148,56.16 275.695,57.055 272.19,57.01C267.042,57.09 262.086,55.024 258.52,51.31C254.808,47.675 252.755,42.665 252.85,37.47C252.737,31.917 255.081,26.589 259.25,22.92C262.755,19.634 267.395,17.821 272.2,17.86ZM272.35,26.65C269.618,26.574 266.98,27.666 265.1,29.65C263.14,31.743 262.095,34.535 262.2,37.4C262.075,40.299 263.108,43.132 265.07,45.27C266.944,47.261 269.587,48.355 272.32,48.27C275.067,48.351 277.724,47.26 279.62,45.27C281.595,43.15 282.643,40.326 282.53,37.43C282.652,34.56 281.621,31.758 279.67,29.65C277.77,27.654 275.105,26.562 272.35,26.65Z" style="fill:white;fill-rule:nonzero;"/>
        <path d="M297.61,18.81L305.61,18.81L305.61,23.5C306.355,21.806 307.552,20.349 309.07,19.29C310.462,18.347 312.109,17.849 313.79,17.86C315.112,17.889 316.41,18.213 317.59,18.81L314.68,26.86C313.862,26.376 312.946,26.082 312,26C310.56,26 309.347,26.89 308.36,28.67C307.36,30.44 306.87,33.94 306.87,39.14L306.87,56.05L297.6,56.05L297.61,18.81Z" style="fill:white;fill-rule:nonzero;"/>
        <path d="M345.39,24L339.61,29.78C337.26,27.45 335.12,26.29 333.21,26.29C332.336,26.237 331.468,26.472 330.74,26.96C330.205,27.334 329.886,27.947 329.886,28.599C329.886,29.104 330.077,29.59 330.42,29.96C331.249,30.685 332.192,31.269 333.21,31.69L336.63,33.4C340.23,35.18 342.707,36.993 344.06,38.84C345.411,40.737 346.113,43.021 346.06,45.35C346.127,48.51 344.794,51.543 342.42,53.63C340,55.877 336.747,57 332.66,57C327.546,57.15 322.675,54.763 319.66,50.63L325.41,44.37C326.49,45.633 327.795,46.685 329.26,47.47C330.453,48.171 331.798,48.576 333.18,48.65C334.252,48.705 335.311,48.39 336.18,47.76C336.864,47.294 337.284,46.527 337.31,45.7C337.31,44.27 335.95,42.86 333.24,41.49L330.09,39.92C324.09,36.887 321.09,33.087 321.09,28.52C321.058,25.649 322.278,22.902 324.43,21C326.817,18.868 329.942,17.745 333.14,17.87C337.965,17.834 342.526,20.116 345.39,24Z" style="fill:white;fill-rule:nonzero;"/>
        <path d="M48.74,13.92L42,20.59C37.727,16.077 32.747,13.82 27.06,13.82C22.41,13.695 17.906,15.477 14.6,18.75C11.327,21.871 9.512,26.228 9.6,30.75C9.521,35.417 11.414,39.908 14.81,43.11C18.23,46.466 22.87,48.293 27.66,48.17C30.581,48.251 33.469,47.521 36,46.06C38.439,44.471 40.353,42.195 41.5,39.52L26.94,39.52L26.94,30.52L52.26,30.52L52.33,32.64C52.329,37.047 51.148,41.374 48.91,45.17C46.817,48.913 43.752,52.023 40.04,54.17C36.138,56.32 31.734,57.397 27.28,57.29C22.398,57.379 17.574,56.205 13.28,53.88C9.193,51.624 5.824,48.262 3.56,44.18C1.2,40.053 -0.028,35.374 0,30.62C-0.093,24.198 2.273,17.977 6.61,13.24C11.83,7.373 18.627,4.44 27,4.44C31.219,4.408 35.401,5.234 39.29,6.87C42.902,8.528 46.122,10.93 48.74,13.92Z" style="fill:rgb(25,188,157);fill-rule:nonzero;"/>
        <path d="M55.06,18.81L63.06,18.81L63.06,23.5C63.805,21.806 65.002,20.349 66.52,19.29C67.912,18.347 69.559,17.849 71.24,17.86C72.562,17.889 73.86,18.213 75.04,18.81L72.13,26.86C71.303,26.387 70.38,26.107 69.43,26.04C67.99,26.04 66.78,26.93 65.78,28.71C64.78,30.49 64.3,34 64.3,39.18L64.3,56.05L55.06,56.05L55.06,18.81Z" style="fill:rgb(25,188,157);fill-rule:nonzero;"/>
        <path d="M105.41,17.79L114.75,17.79L114.75,55L105.41,55L105.41,51.09C103.826,52.667 101.965,53.938 99.92,54.84C98.042,55.613 96.03,56.007 94,56C89.23,56.016 84.679,53.974 81.52,50.4C77.998,46.642 76.102,41.639 76.25,36.49C76.25,30.743 77.95,26.03 81.35,22.35C84.472,18.801 88.993,16.787 93.72,16.84C95.877,16.826 98.015,17.255 100,18.1C102.043,19.001 103.891,20.291 105.44,21.9L105.41,17.79ZM95.59,25.46C92.862,25.392 90.234,26.509 88.39,28.52C86.436,30.659 85.404,33.485 85.52,36.38C85.417,39.306 86.466,42.158 88.44,44.32C90.271,46.343 92.891,47.478 95.62,47.43C98.378,47.503 101.039,46.388 102.92,44.37C104.9,42.189 105.942,39.313 105.82,36.37C105.943,33.466 104.898,30.63 102.92,28.5C101.021,26.492 98.353,25.386 95.59,25.46Z" style="fill:rgb(25,188,157);fill-rule:nonzero;"/>
        <path d="M149.82,4.44L159.16,4.44L159.16,56.05L149.82,56.05L149.82,52.12C148.232,53.689 146.371,54.956 144.33,55.86C142.428,56.645 140.387,57.036 138.33,57.01C133.564,57.023 129.016,54.981 125.86,51.41C122.338,47.652 120.442,42.649 120.59,37.5C120.59,31.753 122.29,27.043 125.69,23.37C128.809,19.816 133.332,17.801 138.06,17.86C140.221,17.846 142.362,18.275 144.35,19.12C146.391,20.024 148.239,21.315 149.79,22.92L149.82,4.44ZM139.99,26.44C137.265,26.374 134.641,27.49 132.8,29.5C130.852,31.642 129.82,34.466 129.93,37.36C129.82,40.287 130.87,43.142 132.85,45.3C134.665,47.333 137.275,48.483 140,48.45C142.758,48.523 145.419,47.408 147.3,45.39C149.28,43.209 150.322,40.333 150.2,37.39C150.323,34.486 149.278,31.65 147.3,29.52C145.407,27.521 142.752,26.416 140,26.48L139.99,26.44Z" style="fill:rgb(25,188,157);fill-rule:nonzero;"/>
    </g>
    <defs>
        <linearGradient id="_Linear1" x1="0" y1="0" x2="1" y2="0" gradientUnits="userSpaceOnUse" gradientTransform="matrix(18.62,0,0,18.62,202.82,7.5)"><stop offset="0" style="stop-color:rgb(164,221,212);stop-opacity:1"/><stop offset="0.08" style="stop-color:rgb(164,221,212);stop-opacity:1"/><stop offset="0.48" style="stop-color:rgb(31,189,159);stop-opacity:1"/><stop offset="0.96" style="stop-color:rgb(26,188,157);stop-opacity:1"/><stop offset="0.99" style="stop-color:rgb(25,188,157);stop-opacity:1"/><stop offset="1" style="stop-color:rgb(25,188,157);stop-opacity:1"/></linearGradient>
    </defs>
</svg>
