<svg viewBox="0 0 5946 6913" xmlns="http://www.w3.org/2000/svg" xml:space="preserve" fill-rule="evenodd" clip-rule="evenodd" stroke-miterlimit="10"><path d="M.5-.5c.112 0 .203.224.203.5S.612.5.5.5C.388.5.297.276.297 0S.388-.5.5-.5Z" fill="url(#a)" fill-rule="nonzero" transform="scale(5933.02263) rotate(90 .127 .376)" opacity=".1"/><path d="M.595.216A.18.18 0 0 0 .726.201l.25-.155C1.01.025 1.007-.003.97-.017L.422-.215a.173.173 0 0 0-.13.014l-.268.166c-.034.021-.031.048.007.061l.564.19Z" fill="url(#b)" fill-rule="nonzero" transform="matrix(1489.24107 0 0 -1489.24107 2643.226 6581.442)" opacity=".4"/><path d="M.519-.492c.126 0 .225.22.207.538C.71.305.645.508.519.508.392.508.256.29.256.033c.001-.258.136-.525.263-.525Z" fill="url(#c)" fill-rule="nonzero" transform="scale(-5753.80418 5753.80418) rotate(89.87 -.353 -.141)" opacity=".3"/><path d="M.498.214C.23.213.012.141 0 .052V.035l.001-.249c.003.05.075.099.183.129.086.024.197.039.317.04.12.001.231-.013.317-.036C.923-.109.991-.165 1-.213l-.001.25v.018C.987.143.772.214.506.214H.498Z" fill="url(#d)" fill-rule="nonzero" transform="matrix(5747.05603 0 0 -5747.05603 5.227 2790.935)"/><path d="M3093.684 4228.201v-.083M3193.892 4250.818c-30.992 24.3-83.133 25.733-94.525 9.416-2.55-3.7-4.567-15.416-6.067-31.083-.016 3.433-.941 83.642-18.641 102.675-1.392 1.533-3.892 2.975-7.434 4.342-41.525 16.525-220.616 23.308-258.1-5.425-40.574-31.125-18.866-188.592-18.866-188.592l-81.558 82.042s-9.467 23.616-66.842-26.092c-99.808-86.358-134.8-90.125-134.8-90.125s-16.308-56.408-3.792-65.575c1.125-.758 2.425-1.175 4.034-1.167 19.541.067 160.991 69.042 160.991 69.042l117.859-146.15s59.183-16.208 94.008-28.2v-.075c7.65-2.566 14.191-5.025 18.608-7.066 24.475-11.35 96.1.375 96.1.375l104.05 36.216 106.633 230.142s19.417 30.975-11.658 55.3Z" fill="none" stroke="#b76262" stroke-width="8.33333"/><path d="M3088.725 4079.334s-.4 97.317 4.559 149.742v.083M2814.848 4117.407l-24.612 24.754M2994.059 3928.61s-71.675-11.442-96.109 0c-4.391 2.05-10.916 4.558-18.591 7.133l8.266-20.492s0-3.341 2.575-7.033c1.634-2.242 4.134-4.483 8.267-6.292 7.825-3.166 47.575-1.9 70.55-.858 9.642.417 16.358.858 16.358.858l8.684 26.684ZM2895.324 3873.856c-3.263 29.33-1.882 28.548-5.143 30.714" fill="none" stroke="#b76262" stroke-width="8.33333"/><path d="M3018.475 3723.301v57.059l-49.483 96.616v24.1c-22.975-1.041-62.733-2.308-70.55.859-4.133 1.8-6.633 4.05-8.267 6.283 0 0-12.4-15.992-17.816-19.267-5.425-3.283-11.959-11.975-17.3-21.958-5.417-10.05-9.8-19.342-4.375-35.617 5.416-16.25-2.242-21.758-4.909-37.6-2.766-15.925 0-44.391 0-44.391 1.034.516 2.075 1.283 3.1 2.15l-8.608-9.125s-7.567-5.334-11.267-7.475c-3.783-2.159-20.483-8.092-20.483-8.092s-18.233-23.15-18.233-31.15c0-8.1 19.608-27.792 19.608-27.792 31.408-19.191 21.95.442 55.408-11.35 27.717-9.825 114.009 11.35 114.009 11.35l39.166 55.4ZM2896.225 3876.976H2969M2969 3902.185v-1.117" fill="none" stroke="#b76262" stroke-width="8.33333"/><path d="m2895.309 3873.885-13.159-36.509s12.475-13.05 20.55-16.308c8.175-3.283-9.708-19.558-15.141-42.375-5.409-22.767-17.384 15.083-17.384 15.083s-9.541-31.575-21.075-41.983l-.25-.267M2849.094 3751.799l-.249-.27M2506.976 4109.393s-33.117-11.975-36.384-12.659c-3.283-.758-17.383 0-17.383 0l-26.083-14.458s-16.259-27.183-15.217-34.775c0 0 9.817-8.683 13.067-13.058 3.283-4.317 8.691-14.117 8.691-14.117l-22.8-9.808s-11.941-5.425-15.216-5.425c-3.284 0-8.7-5.425-8.7-6.442v-11.966l77.1 14.116 38.891 43.017c-12.491 9.208 4.034 65.575 4.034 65.575ZM2502.954 4043.879l-.088-.064" fill="none" stroke="#b76262" stroke-width="8.33333"/><path d="M2709.142 4429.893c23-43.684-32.225-112.7-78.241-78.2 34.533-87.409-119.6-188.65-154.134-92.042h-2.283c-20.717-71.317-154.133-32.175-158.725 36.825-29.933-27.6-80.533-20.7-110.45 6.908-13.783 11.492-13.783 32.192-22.983 41.392-11.534 11.5-29.95 9.217-46.025 20.708-69.017 50.617-18.409 190.959 66.716 147.25 20.7 66.709 101.217 85.109 163.317 69.017 16.125-4.608 13.817-16.125 29.933-16.125 6.9 2.325 27.6 18.425 36.792 20.717 27.608 11.5 59.825 18.408 87.417 6.916 11.508-6.916 20.716-20.716 29.933-25.308 18.392-6.917 22.992-2.325 41.392 0 32.208 0 62.133-4.617 89.733-16.117 27.608-13.808 48.308-32.191 55.217-62.108 2.3-13.825 2.3-59.833-25.317-55.208-9.2 2.291 0-2.309-2.292 6.891" fill="none" stroke="#c37bc5" stroke-width="8.33333"/><path d="M.273-.062a.298.298 0 0 1 .094-.163.302.302 0 1 1-.094.163Z" fill="url(#e)" fill-rule="nonzero" transform="scale(5246.95096 -5246.95096) rotate(-48.257 -.137 -.332)"/><path d="M.178.204C.173.194.165.188.159.183.147.174.137.167.138.144.139.107.144.084.121.095.099.105.087.125.07.088.053.051.041-.038.063-.026c.022.012.038 0 .043.03.005.031-.029.043-.014.05C.107.06.115.076.123.051.132.026.131.001.118-.01.105-.02.096-.048.099-.07c.003-.022.028-.007.02-.022C.116-.097.111-.101.107-.105.097-.113.088-.12.102-.131.124-.149.133-.16.143-.147c.009.012-.01.034.002.058.013.024.038.068.056.065.018-.004.03-.013.048.024.017.037.015.055.033.039.019-.015.028-.054 0-.072C.254-.05.243-.05.215-.086.187-.123.146-.141.157-.184.168-.227.201-.28.228-.293.254-.306.289-.3.307-.264c.019.037.028.071.062.067.033-.005.098-.045.13-.049.032-.004.122-.032.127-.012.004.021-.037.051-.048.085-.011.034.015.053-.005.068-.021.016-.045-.01-.062.028C.493-.039.489.015.467.019.457.021.455.014.453.006.449-.004.445-.016.423-.015.383-.014.332-.021.331.003.33.028.344.014.375.017c.031.003.059-.01.063.02.004.03-.034.047-.011.066.023.02.052.046.072.033C.52.124.567.102.572.121.577.14.536.162.53.188.524.215.522.22.547.222.572.224.597.19.61.2l.032.021L.629.23.576.261.517.285.419.308.364.312.295.309.244.3.216.293.203.289.176.28S.194.232.178.204Z" fill="url(#f)" fill-rule="nonzero" transform="scale(3121.42014 -3121.42014) rotate(-56.164 -.157 -1.215)"/><path d="m.268-.053.005-.001c.006-.001.01.016.019.028.009.013.015-.011.022-.025C.32-.064.322-.063.34-.059c.017.003.002.032.003.05 0 .01.006.014.012.018.004.003.008.006.011.011C.372.033.359.049.35.055.342.061.315.023.306.007.297-.01.274-.019.274-.019L.268-.053Z" fill="url(#g)" fill-rule="nonzero" transform="scale(5246.95096 -5246.95096) rotate(-48.257 -.046 -.373)"/><path d="m.268-.035.005.011c.005.011.014.009.028.013.013.004.004.024-.002.032C.293.03.267.018.267.018l.001-.053Z" fill="url(#h)" fill-rule="nonzero" transform="scale(5247.03954 -5247.03954) rotate(-48.257 -.137 -.332)"/><path d="M.287.03c0-.014-.015.002-.015.002L.273.024l.008-.033.009-.024.01-.02.011-.02.009.007c.009.007.008-.003.017.002.009.006-.013.019-.019.035-.006.016.001.019.007.043.004.014.009.012.015.01C.343.022.347.021.351.025c.007.01-.006.011-.02.012C.318.037.318.028.317.038c0 .006.008.01.017.014.006.003.013.006.016.01.006.01-.029.007-.044.01C.302.072.299.071.297.068.289.06.287.041.287.03Z" fill="url(#i)" fill-rule="nonzero" transform="scale(5246.6617 -5246.6617) rotate(-48.257 -.233 -.289)"/><path d="M.58.049.505.1C.496.105.488.085.466.076.444.068.44.057.423.073a.17.17 0 0 1-.059.033C.342.114.327.095.285.086.243.077.214.108.175.118.136.129.127.12.106.136.084.153.084.15.06.148L.023.144C.003.142-.015.15-.023.148-.031.145-.036.143-.025.122-.014.101.014.116.067.094.12.073.108.044.13.009c.023-.034.031-.08.067-.118.036-.038.065-.034.099-.012.035.022.036.038.099.038.062 0 .053.011.088.041.035.03-.003.05-.004.075C.478.058.506.052.54.035.562.024.573.034.577.042L.58.049Z" fill="url(#j)" fill-rule="nonzero" transform="scale(-2483.8012 2483.8012) rotate(-61.215 1.002 1.64)"/><path d="M3340.809 4158.918s43.016-219.533-19.375-270.942c-62.367-51.408-73.5-81.525-109.875-249.291-36.375-167.792 6.641-258.134-105.225-305.459-111.859-47.325-139.017-109.716-251.275-64.533-112.25 45.175-153.433 46.558-198.292 30.075l-44.85-16.467s27.684 33.767 61.209 45.692c39.558 14.067 78.958 19.15 141.766 9.917 62.833-9.209 117.333-25.567 179.158-10 65.042 16.375 77.184 68.266 86.734 105.966 9.55 37.717 37.566 195.234 45.05 234.117 7.491 38.917 66.233 210.517 88.983 267.758 22.725 57.242 58.667 145.7 77.933 173.642 19.275 27.908 48.059 49.525 48.059 49.525" fill="#f3fdff"/><path d="M3500.559 2987.71s-26.684 61.575 0 96c26.666 34.4 45.308 60.217 49.608 64.517 4.317 4.316 25.833 41.6 60.233 87.491 34.425 45.875 43.025 83.092 86.042 63.05 43.016-20.025 65.933-40.392 81.733-37.25l15.808 3.133s-9.866-24.958-31.675-20.125c-21.775 4.85-18.533 10.534-71.258 13-38.308 1.8-55.791-39.716-88.791-88.05-33.009-48.341-79.05-121.8-79.05-121.8l-22.65-59.966Z" fill="#d7f6ff"/><path d="M4241.725 3360.443c-6.942-.283 0 0 10.967-4.5 25.825-10.608 38.241-84.817 45.225-114.983 7.358-31.8 7.566-58.55 45.308-106.117 38.317-48.275 63.683-53.941 77.6-52.683 13.933 1.283 35.05 31.467 50.725 55.658 15.692 24.192 14.992 86.833 15.692 120.158 1.15 57.317 14.441 57.967 14.441 57.967s-1.55-36.492 2.25-67.692c3.817-31.183 50.058-96.833 21.017-140.833-29.034-44.025-86.042-90.316-106.475-90.316-20.442 0-60.233 34.683-77.442 65.875-17.208 31.191-62.375 102.166-61.3 153.441 1.1 53.4-32.358 105.583-51.391 123.742M3255.392 2719.435s50.417 38.75 135.917 13.633c73.525-21.6 97.4-28.233 117.6-17.716 19.025 9.933 3.333 65.266-17.225 105.4-20.259 39.566-79.417 84.183-137.459 58.083-58.033-26.092-101.725-49.833-134.066-60.217-32.325-10.383-71.925-17.866-71.925-17.866s81.733 58.041 118.308 84.916c36.567 26.867 53.767 45.742 98.95 44.884 45.183-.809 93.6-35.234 119.933-61.034 26.35-25.825 67.2-82.533 60.759-117.641-6.459-35.092 43.016-83.3-12.909-109.742-55.933-26.458-58.083-46.692-139.825 0M3166.475 2326.827s22.55-32.858 30.017-54.683c7.458-21.859 7.667-38.159 17.55-40.667 9.867-2.492 17.125 3.158 37.133 11.708 20.05 8.55 42.267 15.559 45.75 24.4 3.475 8.859 6.175 21.342-8.908 40.917-15.017 19.566-33.358 41.258-46.075 52.425-12.717 11.158-63.875 43.308-63.875 43.308s75.283 5.467 95.342-10.317c20.083-15.783 65.966-78.891 64.533-101.816-1.433-22.933-25.808-67.875-58.783-69.775-32.992-1.925-70.284-23.442-91.792 23.883-21.492 47.325-22.942 54.492-60.225 81.742-37.275 27.241-53.067 30.108-57.367 28.683-4.3-1.442 7.375 10.992 7.375 10.992s49.442-10.242 61.475-18.167c12.009-7.933 27.85-22.633 27.85-22.633" fill="#f3fdff"/><path d="M2803.059 2140.444s-39.1 60.266-90.067 57.566c-50.933-2.7-89.1-12.75-120.741-5.925-31.65 6.809-67.025 47.884-119.392 114-56.467 71.317-102.117 86.367-124.825 75.933-22.683-10.441-61.225-41.591-61.225-41.591s95.133 9.75 131.7-39.725c36.558-49.475 38.708-97.758 92.483-123.083 53.792-25.325 124.792-18.117 167.809-20.675 43-2.509 58.075 19 90.333-43.375 32.267-62.384 49.458-83.917 49.458-83.917l-15.533 110.792Z" fill="#f3fdff" fill-rule="nonzero"/><path d="M1459.143 3342.06c0 874.458 708.874 1583.332 1583.324 1583.332s1583.316-708.874 1583.316-1583.332c0-874.45-708.866-1583.333-1583.316-1583.333-522.5 0-985.866 253.092-1274.241 643.366-107.292 145.192-190.35 309.384-243.225 486.609-42.842 143.616-65.858 295.8-65.858 453.358Z" fill="none" stroke="#a3d3cd" stroke-width="8.33333"/><path d="M.593-.034C.534.144.589.08.458.198.327.316.391.307.333.444L.294.376.226.222S.194.126.183.076C.174.039.165.013.158-.035a1.91 1.91 0 0 1-.016-.15L.14-.229v-.018s.023-.155.135-.101c.112.053.164-.028.247.031a.39.39 0 0 1 .06.051c.041.045.053.105.011.232Z" fill="url(#k)" fill-rule="nonzero" transform="scale(-1165.69964 1165.69964) rotate(-47.992 2.952 5.925)"/><path d="M4632.521 3351.601c-.007-350.724-114.646-674.696-308.522-936.807-3.597 102.828-15.243 202.756-34.046 299.596-86.317 1050.895-489.181 1903.254-1019.588 2201.308 769.73-107.351 1362.157-766.637 1362.156-1564.097" fill="#0e7a72" fill-rule="nonzero" opacity=".2"/><path d="M2917.725 3328.718s29.192-34.15 84.9-.808c55.717 33.325 57.75-1.85 94.709 201.783 36.95 203.633 93.758 323.125 113.05 372.492 19.316 49.391 34.416 120.783 43.983 141.633 9.542 20.85-134.925-256.183-154.758-337.833-19.825-81.642-22.509-94.442-81.134-173.792-45.491-61.55-17.566-111.492-71.333-171.75-53.475-59.942-29.417-31.725-29.417-31.725M3616.475 3806.926s-44.966 5.142-83.066 33.742c-38.125 28.6-79.367 80.525-95.142 124.975-15.783 44.458-25.808 116.15-41.583 137.666-15.792 21.5 67.383-42.508 96.066-116.624 28.692-74.1 64.875-125.734 94.1-145.817 29.242-20.067 55.059-33.942 55.059-33.942h-25.434ZM3896.808 3058.952c48.392-20.425 136.584 6.425 161.325 18.816 24.725 12.392 63.475 17.275 82.817 63.775 19.358 46.483 21.592 92.642 28.533 111.508 6.975 18.875-10.25-90.833-10.25-90.833s-1.158-59.2-48.441-84.45c-47.267-25.258-108.592-46.766-126.85-52.15-18.292-5.375-62.417-22.583-81.75-10.75-19.367 11.825-33.342 35.484-38.725 49.475" fill="#057771" fill-rule="nonzero"/><path d="M2766.559 2177.619s-30.9 32.741-73.917 21.275c-43.041-11.467-82.8-47.3-124.566-6.434-41.792 40.842-118.417 151.892-161.834 172.375-43.441 20.483 102.125 17.617 125.775-42.616 23.659-60.234 37.209-105.159 79.917-99.892 42.7 5.233 76.1 35.008 109.383 0 33.292-35.025 45.242-44.708 45.242-44.708M1876.976 3219.493s70.125 11.983 100.15 96.567c30 84.566 20.675 96.266 107.658 137.991 86.942 41.734 132.092 57.817 180.85 110.909 45.2 49.266 45.267 155.166-37.233 273.658-90.784 130.375-123.784 183.783-123.784 183.783s297.4 18.317 342.309-122.491c44.933-140.775 47.783-353.025-75.542-433.342-123.333-80.267-131.958 43.525-249.525-124.508-117.6-168.017-54.508-177.017-186.433-175.392-131.925 1.633-154.883.933-163.483-.133-8.617-1.1-58.359 11.816-60.217 22.233-1.9 10.433 2.942 3.083 16.858 0 13.909-3.092 148.392 30.725 148.392 30.725" fill="#057771"/><path d="M4597.058 3353.251s-98.317-19.533-106.391-53.008c-8.059-33.483 11.308-126.458-12.367-162.791-23.667-36.325-31.867-63.084-60.025-59.375-28.175 3.675-82.65 16.466-96.275 63.85-13.65 47.391-43.275 193.058-62.625 202.974-19.375 9.95-68.933 7.175-65.892 0 3.034-7.166 71.859 55.867 104.134 11.45 32.25-44.433 14.791-169.525 51.85-171.675 37.066-2.141 29.383-34.074 90.125 26.209 52.05 51.691-30.117 132.075 30.108 206.908 60.233 74.817 77.441 61.917 96.8 128.592 19.35 66.691 27.866 87.408 27.866 87.408s9.45-32.483 17.9-112.883c8.459-80.4 6.709-125.634 6.709-125.634l1.783-39.525" fill="#057771" fill-rule="nonzero"/><path d="M2818.559 2705.435s91.241-97.625 150.425-88.408c59.175 9.225 182.775-31.025 220.141-2.825 37.359 28.2 43.042 95.175 80.117 113.833 37.125 18.658 114.558 3.233 166.183-6.792 51.642-10.033 31.109-8.408 62.384-10.758 23.058-1.733 26.525.025 14.891 56.533-12.733 61.784-56.1 94.842-56.1 94.842s27.592-33.958-15.433-58.775c-43.025-24.833-40.15 9.95-126.2-17.483-86.033-27.434-98.242-49.725-166.708-80.167-68.467-30.442-100.792-46.658-179.275-29.942-78.492 16.709-115.767 27.917-138.725 39.517-22.958 11.608-11.7-9.575-11.7-9.575" fill="#057771"/><path d="M3641.975 3566.61c21.5-47.975 96.8-128.3 126.908-174.4 30.1-46.084 75.017-88.55 47.325-112.759l-27.683-24.216s36.767 14.116-40.917 105.208c-77.683 91.075-116.674 152.108-131.891 195.283-15.225 43.175-21.567 69.275 7.358 116.234M3469.892 4461.826s0 209.358-8.6 252.383c-8.608 43.025-94.417 186.05-111.15 185-16.708-1.075-55.025 8.95-95.283 13.633-40.267 4.709 146.2-181.883 157.675-289.208 11.466-107.316 2.866-87.241 37.283-147.466 34.4-60.234 20.075-14.342 20.075-14.342" fill="#057771" fill-rule="nonzero"/><path d="M.451-.178c.011.191-.024.151.015.31a.697.697 0 0 0 .041.123C.531.312.546.331.52.347.48.37.344.169.344.169l-.093-.17-.056-.158L.168-.31c.075.062.243-.041.277.095a.19.19 0 0 1 .006.037Z" fill="url(#l)" fill-rule="nonzero" transform="scale(-1324.47116 1324.47116) rotate(-75.964 1.447 3.347)"/><path d="M4324.002 2373.578c-41.144 1193.18-1103.702 2008.296-2448.131 2032.557 289.653 324.368 708.045 528.102 1173.316 528.101 874.445-.002 1583.328-719.644 1583.322-1607.356 0-356.896-114.642-686.582-308.507-953.302" fill="#148479" fill-rule="nonzero" opacity=".1"/><path d="M0 .158v-.187c0-.072.224-.129.5-.129s.5.051.5.123v.193H0Z" fill="url(#m)" fill-rule="nonzero" transform="matrix(2626.02395 0 0 -2626.02395 1754.06 2362.902)"/><path d="m.537-.096.352.333S.893.24.894.245c0 0-.002.015-.012.014A17.217 17.217 0 0 1 .386.112a18.385 18.385 0 0 1-.371-.353C.013-.247.017-.259.024-.257l.463.132a.145.145 0 0 1 .026.011l.024.018Z" fill="url(#n)" fill-rule="nonzero" transform="scale(-3673.2161 3673.2161) rotate(-30 .75 2.636)"/><path d="M1 .061c.007.002-.491-.122-.5-.12-.015.005-.5.121-.5.121l1-.001Z" fill="url(#o)" fill-rule="nonzero" transform="matrix(3706.61518 0 0 -3706.61518 1164.81 2050.435)" opacity=".5"/><path d="M.8.015a.06.06 0 0 1-.055.031.066.066 0 0 1-.057-.029L.586.018.585.021S.581.049.551.059C.52.069 0 .065 0 .065v-.12l.526-.008s.048-.005.058.031l.001.005.103-.001a.06.06 0 0 1 .055-.031A.062.062 0 0 1 .8-.03l.19-.003.01.045-.2.003Z" fill="url(#p)" fill-rule="nonzero" transform="scale(-866.45593 866.45593) rotate(-89.138 .875 2.332)"/><path d="M2755.059 4428.668c28.85-54.842-40.417-141.425-98.108-98.134 43.275-109.675-150.075-236.65-193.375-115.433h-2.884c-25.983-89.467-193.358-40.408-199.125 46.167-37.533-34.617-101.025-25.984-138.541 8.675-17.309 14.425-17.309 40.4-28.859 51.941-14.441 14.434-37.516 11.55-57.708 25.967-86.591 63.5-149.483 258.317 83.683 184.7 25.975 83.683 126.992 106.775 204.884 86.592 20.233-5.792 17.35-20.2 37.541-20.2 8.65 2.875 34.634 23.066 46.167 25.966 34.642 14.417 75.033 23.084 109.658 8.659 14.459-8.659 25.992-25.975 37.525-31.75 23.084-8.659 28.842-2.875 51.95 0 40.409 0 75.075-21.684 112.55-20.2 37.15 1.466 86.325-18.617 94.984-56.117 2.875-17.308-22.834-96.833-57.475-91.075-11.542 2.9 0-2.875-2.867 8.675" fill="#cbeaf4" fill-rule="nonzero"/><path d="M2758.559 4392.501c28.608-49.217-40.008-126.958-97.175-88.092 42.858-98.458-148.675-212.45-191.542-103.641h-2.866c-25.734-80.3-191.559-36.242-197.267 41.458-37.167-31.083-100.058-23.333-137.233 7.775-17.15 12.958-17.15 36.267-28.567 46.633-14.317 12.959-37.175 10.359-57.2 23.317-85.75 57.017-148.041 231.883 82.917 165.8 25.716 75.15 125.808 95.858 202.983 77.733 20.008-5.191 17.158-18.125 37.158-18.125 8.575 2.584 34.317 20.725 45.75 23.292 34.3 12.958 74.325 20.742 108.625 7.792 14.292-7.792 25.742-23.325 37.142-28.5 22.9-7.775 28.617-2.584 51.5 0 40.008 0 74.342-19.492 111.492-18.134 36.783 1.325 74.266-21.591 82.841-55.258 2.867-15.55-11.366-82.05-45.683-76.883-11.442 2.591 0-2.592-2.875 7.8" fill="#f0fafc" fill-rule="nonzero"/><path d="M4027.558 4188.526c17.95-34.15-25.183-88.083-61.15-61.133 26.967-68.309-93.5-147.392-120.466-71.909h-1.784c-16.183-55.725-120.45-25.166-124.058 28.775-23.367-21.583-62.925-16.2-86.308 5.375-10.775 8.992-10.775 25.175-17.958 32.375-9.017 8.984-23.375 7.192-35.975 16.175-53.934 39.575-93.1 160.934 52.141 115.067 16.175 52.15 79.108 66.542 127.658 53.942 12.575-3.584 10.784-12.592 23.367-12.592 5.392 1.808 21.583 14.4 28.775 16.192 21.583 9 46.733 14.383 68.325 5.4 8.983-5.4 16.167-16.184 23.358-19.784 14.4-5.391 17.975-1.808 32.375 0 25.159 0 46.75-13.525 70.109-12.583 23.141.908 53.775-11.592 59.166-34.975 1.784-10.8-14.2-60.325-35.791-56.717-7.184 1.8 0-1.8-1.784 5.392" fill="#b3def4" fill-rule="nonzero"/><path d="M4029.725 4166.001c17.825-30.667-24.917-79.092-60.533-54.875 26.708-61.333-92.642-132.333-119.325-64.55h-1.775c-16.034-50.042-119.342-22.608-122.909 25.8-23.141-19.342-62.333-14.517-85.5 4.867-10.683 8.05-10.683 22.583-17.774 29.033-8.934 8.075-23.184 6.442-35.634 14.525-53.433 35.508-92.233 144.475 51.634 103.3 16.033 46.817 78.4 59.725 126.466 48.408 12.442-3.216 10.692-11.291 23.142-11.291 5.341 1.616 21.383 12.933 28.5 14.541 21.391 8.067 46.291 12.9 67.666 4.85 8.909-4.85 16.034-14.541 23.175-17.775 14.234-4.85 17.8-1.616 32.059 0 24.916 0 46.3-12.141 69.458-11.3 22.908.817 46.283-13.45 51.608-34.416 1.775-9.675-7.083-51.117-28.466-47.884-7.134 1.6 0-1.625-1.792 4.834" fill="#f0fafc" fill-rule="nonzero"/><path d="M.493-.498s.075.973.07.997l-.07.004-.062-.997.062-.004Z" fill="url(#q)" fill-rule="nonzero" transform="scale(-1209.01982 1209.01982) rotate(83.613 -3.637 1.438)"/><path d="m0 .146.93-.464.07.636-1-.172Z" fill="url(#r)" fill-rule="nonzero" transform="scale(117.15684 -117.15684) rotate(-3.48 -892.51 -225.314)"/><path d="M.027-.078c.089-.847.264-1.456.528-1.428.264.028.516.681.426 1.529C.893.869.606 1.534.342 1.507a.057.057 0 0 1-.018-.003C.073 1.446-.06.749.027-.078Z" fill="url(#s)" fill-rule="nonzero" transform="scale(28.23518 -28.23518) rotate(-13.097 -972.474 -533.295)"/><path d="M-.134-.157h.541l.299.321-.537-.01-.303-.311Z" fill="url(#t)" fill-rule="nonzero" transform="scale(1706.82343 -1706.82343) rotate(-26.749 -6.654 -4.876)"/><path d="M-.013-.091h1.117l-.096.192-1.112-.01.091-.182Z" fill="url(#u)" fill-rule="nonzero" transform="scale(823.59172 -823.59172) rotate(-26.532 -14.712 -9.584)"/><path d="m2686.142 6544.483 6.45-168.808 702.983-243.641-124.791-59.234-699.183 244.042 1.008 174.033" fill="#057771" fill-rule="nonzero"/><path d="M3732.558 6294.159v179.966l-702.333 243.192s-59.966-79.825-.1-176.875" fill="#f0fafc" fill-rule="nonzero"/><path d="M.028-.174h.604l.335.359-.6-.012-.339-.347Z" fill="url(#v)" fill-rule="nonzero" transform="scale(1526.02723 -1526.02723) rotate(-26.75 -7.016 -5.02)"/><path d="M-.013-.091h1.117l-.096.192-1.112-.01.091-.182Z" fill="url(#w)" fill-rule="nonzero" transform="scale(823.59955 -823.59955) rotate(-26.531 -14.078 -9.473)"/><path d="m2700.142 6301.309 6.45-168.792 702.967-243.658-117.809-55.917-706.141 240.725 1 174.05M3746.558 6050.975v179.975l-702.324 243.2s-59.967-79.841-.1-176.875" fill="#f9e1c0" fill-rule="nonzero"/><path d="M.028-.174h.604l.335.359-.6-.012-.339-.347Z" fill="url(#x)" fill-rule="nonzero" transform="scale(1526.01304 -1526.01304) rotate(-26.75 -6.693 -4.964)"/><path d="M-.013-.091h1.117l-.096.192-1.112-.01.091-.182Z" fill="url(#y)" fill-rule="nonzero" transform="scale(823.59956 -823.59956) rotate(-26.53 -13.474 -9.369)"/><path d="m2572.059 5999 8.933-168.875 697.925-241.874-127.033-60.984-691.867 244.025 1.009 174.042" fill="#057771" fill-rule="nonzero"/><path d="M3760.642 5819.484v179.966l-702.317 243.192s-59.966-79.825-.1-176.867" fill="#f0fafc" fill-rule="nonzero"/><path d="m.774-.425.197.022s.066.133 0 .358C.904.18.934.187.934.187L.774.151S.031.408.03.389C.028.371-.012.118.004-.02.02-.158.15-.085.387-.24a2.41 2.41 0 0 1 .14-.085c.147-.081.224-.1.224-.1h.023Z" fill="url(#z)" fill-rule="nonzero" transform="translate(3901.142 825.82) scale(-206.66492 206.66492)"/><path d="m.214.229.401.092-.017-.846.285-.064s-.054.012.064.413c.119.4 0 .635 0 .635L0 .589l.214-.36Z" fill="url(#A)" fill-rule="nonzero" transform="matrix(116.27162 0 0 -116.27162 2236.56 782.544)"/><path d="m0 .005.369.042h.042S.557.012.832-.141L1 .141 0 .005Z" fill="url(#B)" fill-rule="nonzero" transform="matrix(110.18079 0 0 -110.18079 3700.558 743.186)"/><path d="M2511.726 1659.26s3.45 33.334 3.775 60.384c.416 35.491-50.209 38.675-67.559 28.283-11.45-6.867-14.058-7.742-14.85-15.2-1.441-13.9-11.2-75.825-11.2-75.825s37.042 11.417 52.867 9.358c15.825-2.05 36.967-7 36.967-7M2667.142 962.744l88.942 32.717s12.017 28.366.025 42.741c-11.967 14.359-32.4 15.159-53.867 12.742-21.508-2.417-53.233-24.525-53.233-24.525l18.133-63.675Z" fill="#f9e4cf" fill-rule="nonzero"/><path d="M.411.236C.403.218.376.272.376.272S.324.355.277.398A.405.405 0 0 1 .143.48.317.317 0 0 1 .016.439.027.027 0 0 0 .005.43.058.058 0 0 0 .031.423C.062.408.108.303.092.221a1.037 1.037 0 0 1-.018-.226 1.618 1.618 0 0 0-.006-.21c-.007-.058-.015-.063 0-.071.015-.008.277-.069.31-.073.033-.004.049-.018.067-.016.013.002.045-.112.045-.112l.204.007.024-.002.059.059.052.003c.052.004.19.013.169.036a.36.36 0 0 0-.066.128C.917-.203.883-.129.86-.052.836.024.802.175.775.229a.658.658 0 0 1-.148.173C.583.434.41.487.41.487S.419.254.411.236Zm-.41.193C-.001.428 0 .427.005.43L.001.429Z" fill="url(#C)" fill-rule="nonzero" transform="matrix(493.35064 0 0 -493.35064 1771.81 566.336)"/><path d="M.86.254.862.246 1 .266.86.254ZM.838.242S.693.227.608.188C.579.174.55.158.546.158.52.157-.022.1.001.074.024.049.064.059.139-.073.212-.202.19-.266.19-.266s.61.122.665.17c.05.044.015.292.007.342L.838.242Z" fill="url(#D)" fill-rule="nonzero" transform="matrix(235.33907 0 0 -235.33907 1874.976 847.27)"/><path d="M1891.06 216.411s-25.784 83.95-34.426 96.592c-8.633 12.633-15.658 10.283-15.4 16.608.234 6.092 48.992 23.017 73.25 52.658 24.259 29.659 54.342 68.209 55.225 73.25.909 5.067 9.834-22.458 9.834-22.458l-6.125-93.767v-17.65l-.609-10.783s-10.633-6.25-15.816-34.508c-5.2-28.25-11.042-34.6-7.542-64.484 3.475-29.9 12.575-15.141 14.65-48.891 2.092-33.734-14.65-59.609-14.65-59.609s-10.742 17.875-20.525 22.542c-9.783 4.658-20.342 1.192-21.733 17.167-1.375 16.016-5.342 41.283-10.667 56.141-5.3 14.85 4.617 22.734-1.008 22.817-5.659.058-4.459-5.625-4.459-5.625" fill="#f9e4cf" fill-rule="nonzero"/><path d="M2102.392 70.053s15.209 42.841 13.717 60.375c-1.508 17.541-10.317 91.9-11.667 96.85-1.333 4.95-2.05 2.15-27.325 7.083-25.258 4.908-18.958 12.617-49.15 15.425-30.191 2.817-43.516 27.383-49.133 0-5.633-27.375-20.366-66-11.233-104.608 9.117-38.617-1.042-51.967 5.8-59.675 6.833-7.734 10.6-19.325 30.708-7.734 20.083 11.584 37.217 5.609 57.558 5.609 20.384 0 20.384-7.567 28.8-9.042 8.425-1.492 11.925-4.283 11.925-4.283" fill="#f9e4cf" fill-rule="nonzero"/><path d="M0-1.304h.112L1 1.18l-.287.125L0-1.304Z" fill="url(#E)" fill-rule="nonzero" transform="matrix(240.54324 0 0 -240.54324 1611.226 1487.569)"/><path d="M0-2.277h.203L1 2.237l-.508.04L0-2.277Z" fill="url(#F)" fill-rule="nonzero" transform="matrix(129.01995 0 0 -129.01995 1871.393 1507.56)"/><path d="M2096.392 1.82s22.792 6.766-73.866 9.45c-96.65 2.683-117.5 1.341-135.417 38.866-37.783 79.275-14.258 131.317-8.95 150.142 5.425 19.116 14.909 35.066 26.867 8.808 11.883-26.242-13.45-67.8 14.142-78.517 27.575-10.733 32.066-32.175 36.533 4.025 4.467 36.175-11.942 64.334-4.467 109.925 7.467 45.542 12.575 64.6 21.6 66.342 9.059 1.75 83.542 38.608 102.933 30.225 19.392-8.35 43.959-57.733 39.492-88.55-4.483-30.833-13.542-31.108-47.85-25.183-34.317 5.916-68.983 38.841-83.858 9.975-14.95-28.842.483-142.959 4.958-149.659 4.483-6.7 89.483 17.434 113.325-8.041 23.842-25.467 30.817-50.925 13.917-68.359-16.934-17.416-19.359-9.45-19.359-9.45" fill="#2d2d2d" fill-rule="nonzero"/><path d="m0 .122.922-.308L1-.191.942-.13l-.91.321L0 .122Z" fill="url(#G)" fill-rule="nonzero" transform="matrix(199.58492 0 0 -199.58492 2076.31 702.086)"/><path d="M.229.077C.181.037.029.066.029.066L0-.166l.104.001.248-.001H1l-.016.073a.136.136 0 0 1-.107.094C.846.005.813.005.778.005c-.032 0-.066 0-.102.003C.612.013.3.166.3.166S.281.12.229.077Z" fill="url(#H)" fill-rule="nonzero" transform="matrix(354.23152 0 0 -354.23152 2414.892 1747.935)"/><path d="M2124.99 659.149s6.631-72.794-11.852-119.598c-18.467-46.807-24.08-71.156-24.08-71.156l20.18 197.07 15.752-6.316Z" fill="#19bc9d" fill-rule="nonzero"/><path d="M.209.201.208.19v.001A.774.774 0 0 1 .212.033c.005-.044.123-.124.162-.149a.856.856 0 0 1 .202-.077C.651-.211.642-.2.661-.167l.174.299-.084.039S.726.129.668.068C.61.006.581-.024.577-.004.573.015.432.093.386.135.34.176.338.183.268.204.228.215.214.209.21.202L.209.201ZM.208.191v.006-.006Z" fill="url(#I)" fill-rule="nonzero" transform="scale(841.12085 -841.12085) rotate(-58.24 .61 -1.821)"/><path d="M1797.643 377.686s17.391 50.45 13.2 84.867c-4.234 34.408-20.675 92.675-13.2 119.366 7.45 26.667-.167 98.058-1.25 113.8-1.075 15.025-7.042 12.4-4.092 16.6 3.758 5.342 93.858 30.317 115.617 33.775 21.775 3.458 82.45 5.142 85.074 5.142 2.642 0-47.141-12.875-71.65-17.159-19.4-3.4-69.974-13.725-97.333-23.316-19.008-6.659-1.216-81.792-5.075-105.683-3.9-23.875-12.266-79.3-4.775-110.934 7.509-31.641 10.4-63.775 0-89.416-9.4-23.1-16.516-27.042-16.516-27.042" fill="#19bc9d" fill-rule="nonzero"/><path d="m2425.27 1665.916 9.283 59.859 17.756 1.555-5.673-58.386-21.367-3.028ZM2738.809 986.852s10.317 30.142-4.658 43.259c-15.009 13.125-50.3 14.425-50.3 14.425l49.133 13.258s33.275-22.558 29.775-39.008c-3.508-16.442-5.692-23.584-15.75-25.417-10.05-1.817-8.2-6.517-8.2-6.517" fill="#e8c4a6" fill-rule="nonzero"/><path d="M.291.209C.257.13.224.132.187.133a.105.105 0 0 1-.025 0C.117.131 0 .154 0 .154s.578-.386.641-.411c.063-.026.207-.074.305 0 .088.065.051.19.009.244a1.862 1.862 0 0 1-.304.215C.565.252.438.284.342.321L.205.365S.326.292.291.209Z" fill="url(#J)" fill-rule="nonzero" transform="matrix(266.6499 0 0 -266.6499 2677.892 1084.244)"/><path d="M2183.226 679.577s51.333 10.692 51.333 19.125c0 8.417-4.217 14.034-12.642 11.95-8.416-2.116-59.683-10.55-59.683-10.55l-7.025 4.2 48.45 15.917-5.825 14.425-23.658 25.142s-64.609 4.916-73.742 7.016c-9.125 2.117-93.725 44.742-93.725 44.742l-5.1-51.275 74.258-69.525 47.05-18.025 64.6 7.35" fill="#f9e4cf" fill-rule="nonzero"/><path d="M.001.701C.014.637.151.097.167.071.183.046.231-.104.388-.127c.121-.017.324-.004.409.003l.039.004c.011.002.02.005.024.009a.327.327 0 0 1 .049.074L.432.161S.441.228.437.24C.434.252.431.29.416.301.401.311.393.317.375.316a8.974 8.974 0 0 0-.19-.007H.103h.082C.182.31.172.31.164.316.155.322.129.41.129.41a1.292 1.292 0 0 0-.015.286.16.16 0 0 0 .033.085S-.012.765.001.701ZM.185.309Zm.573-.436.23-.654L1-.695.836-.12C.805-.126.758-.127.758-.127Z" fill="url(#K)" fill-rule="nonzero" transform="matrix(878.45798 0 0 -878.45798 1537.976 1109.119)"/><path d="M.007.361s-.032.005.04-.039C.117.279.401.316.401.316l.313-.05V.259L.658-.463S.65-.476.704-.481a.511.511 0 0 1 .112.004L1 .425.91.432.337.49.007.361Z" fill="url(#L)" fill-rule="nonzero" transform="matrix(680.9364 0 0 -680.9364 1963.56 1341.219)"/><path d="M.269.158C.196.121.007.075.007.075s-.018-.111.005-.173C.04-.171.079-.191.079-.191s.277.13.282.128c.005-.003.601-.06.601-.06s.051.151.035.173c0 0-.613.139-.629.141h-.01C.345.191.325.187.269.158Z" fill="url(#M)" fill-rule="nonzero" transform="matrix(760.10303 0 0 -760.10303 1917.643 964.327)"/><path d="M1841.226 327.97s51.983 29.658 65.033 42.708c13.017 13.033 60.684 78.308 64.925 86.7 4.275 8.408-100.158-74.184-100.158-74.184l-50.625-30.641-11.117-16.092 11.267-3.65c1.758-.708 20.675-4.842 20.675-4.842" fill="#fff" fill-rule="nonzero"/><path d="M1967.56 451.336v-2.842l5.39-122.583 25.617 7.992v55.825l-26.733 68.258-4.275-6.65Z" fill="#fff" fill-rule="nonzero"/><path d="m2310.726 745.17-116.609 19.174-116.625 12.433.234 85.859s13.4-4.392 30.9-11.992c23.35-10.1 53.741-24.592 67.458-29.658 10.8-3.975 46.725 3.6 78.725 10.641a75889.44 75889.44 0 0 1 53.925 11.967" fill="#2d2d2d" fill-rule="nonzero"/><path d="M4003.642 883.686s-2.5 3.408-6.342 2.091c-3.842-1.333-6.133-5.225-5.308-6.725" fill="#f9e4cf" fill-rule="nonzero"/><path d="M-.037-.041H.995L1.01 0-.06.079l.023-.12Z" fill="url(#N)" fill-rule="nonzero" transform="scale(614.97689 -614.97689) rotate(-70.324 1.964 -5.78)"/><path d="M-.265-.036h1.369l.011.06L-.25.116l-.015-.152Z" fill="url(#O)" fill-rule="nonzero" transform="scale(431.972 -431.972) rotate(-79.981 2.796 -7.068)"/><path d="M0-.322h.039l.223.636S.217.316.187.322L0-.322Z" fill="url(#P)" fill-rule="nonzero" transform="matrix(903.07464 0 0 -903.07464 3492.809 1528.144)"/><path d="M.89.374A1.296 1.296 0 0 0 .874.095S.85.01.841.003C.832-.002.823-.002.82-.002L.9-.003H.883L.82-.002.635.003C.618.005.61-.001.596-.011.581-.021.578-.059.575-.07.571-.082.579-.147.579-.147L.115-.34s.031-.059.048-.072A.074.074 0 0 1 .187-.42l.038-.004a2.17 2.17 0 0 1 .398-.003c.152.022.199.168.215.193.015.025.149.55.161.613.013.062-.146.073-.146.073S.883.427.89.374ZM.82-.002Z" fill="url(#Q)" fill-rule="nonzero" transform="matrix(903.05797 0 0 -903.05797 3492.809 858.252)"/><path d="M3344.168 1325.654s-88.771 146.735-79.803 154.506c8.935 7.767 76.474-19.53 91.695-36.83 11.846-13.485 39.345-87.24 39.345-87.24l-51.237-30.436Z" fill="#f9e4cf" fill-rule="nonzero"/><path d="m3356.067 1443.47 31.202 68.962-257.125 83.966s-31.3-43.343 22.364-61.212c53.73-17.907 101.66-69.109 111.873-77.343" fill="#022046" fill-rule="nonzero"/><path d="M3955.759 255.376c-6.37 12.888-.704-2.174-13.76 21.527l-8.808 10.617s35.787 85.018 32.46 93.963c-3.367 8.928 10.332 2.092 14.388 5.581" fill="none" stroke="#b71d1d" stroke-width="8.33333"/><path d="M4143.642 572.986c42.458 22.1 125.258 62.917 107.333 74.092-9.242 5.808-168.333 155.008-154.325 168.141 29.1 27.225 290.775-123.4 308.667-165.916 17.883-42.475-138.675-136.442-253.709-241.542-115-105.142-164.125-44.033-173.075-3.775-8.958 40.283-51.866 57.433-80.925 46.275-29.1-11.192-13.433-42.5-13.433-42.5l-24.725-55.317s4.567 12.817-33.417 19.534c-38.033 6.708-46.983-29.067-62.65-76.05-15.641-46.984-26.833 0-17.883-60.392 0 0 7.842-81.642 7.842-86.1 0-4.492 54.783 62.608 99.525 60.383 44.741-2.25 35.65-13.425 67.058 5.584 0 0 2.142-4.467 0 21.241-2.217 25.725 13.533-26.366 37.017-5.583m-146.542 445.1-123.067-93.95s-44.716 40.267-46.974 51.442c-2.242 11.2 183.424 174.6 211.091 181.566 24.35 6.142 39.442 26.483 34.95-13.8l-4.475-40.275s31.325 52.817 24.6 100.217c-6.675 47.416-2.975 30.9-2.975 30.9s35.508-15.55 44.417-15.55M4123.5 757.877c9.725-20.825 0-184.891 0-184.891l28.108 4.133" fill="#f9e4cf" fill-rule="nonzero"/><path d="M4181.558 445.603s9.184 7.783 59.367 48.608c46.867 38.15 41.117 52.258 84.708.825 43.634-51.45-25.708-2.25-44.716-90.842-19.009-88.6-20.142-25.483-108.5-76.625-88.342-51.166-32.425-13.716-55.9-134.5-23.475-120.758-57.025-65.975-119.684-76.841-62.6-10.884-53.641-27.15-146.491-42.792-92.817-15.675-97.775 82.775-97.775 82.775s27.725 34.217 51.166 47.025c23.45 12.825 70.875 19.983 88.867 19.058 17.975-.9 24.425 5.834 24.425 5.834l2.617 19.733s16.033-15.542 26.508-10.558c10.517 4.991-1.892 43.883-2.742 45.266l-10.183 16.192 27.292 70.8 16.091 23.683-2.558 5.042s30.933-36.883 49.217-38.2c18.283-1.3 73.275 17.55 73.275 17.55l85.016 67.967Z" fill="#2d2d2d" fill-rule="nonzero"/><path d="m3682.572 1468.407 146.125 175.15s3.913-65.19-13.42-94.63l-73.014-130.145-59.69 49.625Z" fill="#f9e4cf" fill-rule="nonzero"/><path d="m3815.308 1548.927 70.084-29.133 61.141 277.675s-27.925 14.9-39.325 0c-11.375-14.934-36.725-65.617-56.133-99.917-19.358-34.3-8.442-37.317-22.35-54" fill="#022046" fill-rule="nonzero"/><path d="m3687.058 590.103-34.091-77.9-17.542-13h-27.766l1.816 13.991 20.25 3.45 12.734 32.225-16.609-.425-31.566-13.375-20.175-35.866-22.342-2.725 5.025 56.2 24.275 29.616 34.675 35.575 31.558 15.784" fill="#f9e4cf" fill-rule="nonzero"/><path d="m.443-.015-.002.012S.59.075.609.074h.019s.047-.361.057-.367a.503.503 0 0 1 .12.007c.001.002.016.226.007.346C.804.169.794.24.776.267c-.019.028-.101.02-.173 0C.53.247.175.127.158.122L.126.113l.317-.128Z" fill="url(#R)" fill-rule="nonzero" transform="scale(615.90706 -615.90706) rotate(-54.462 2.683 -6.59)"/><path d="M.225.454A.126.126 0 0 1 .219.359C.233.326.251.307.251.307S.331.234.308.183C.289.141.311.188.282.121.269.092.185.125.185.125L.15.126S.11-.042.175-.079C.24-.116.63-.27.63-.27L.334-.418l.051-.144s.608.197.619.241c.011.045-.004.066-.01.086l-.001.002c.084-.033.139-.078.139-.078l.081.189.05.061-.037.22s-.065-.018-.08.001c-.027.033-.047.105-.047.105L.762.479.326.562S.25.505.226.455L.225.454Zm.553-.655c-.042-.004.04.018.158-.014l.006-.001a.947.947 0 0 1-.164.015Z" fill="url(#S)" fill-rule="nonzero" transform="scale(467.37776 -467.37776) rotate(-63.848 3.447 -6.896)"/><path d="m3977.058 392.336-46.016 55.742 56.641-10.317M3877.392 393.244l28.516 56.459-36.5-2.367" fill="#fff" fill-rule="nonzero"/><path d="M4124.642 493.894s-.25 268.933 7.375 233.708c6.708-31.133 19.5-150.133 19.5-150.133l-26.875-83.575ZM3896.474 793.28s-3.858-65.421-19.31-77.356c-15.44-11.95-25.963-17.558-25.963-17.558s36.012 76.97 41.418 89.173c6.535 14.766 3.855 5.74 3.855 5.74" fill="#f2ddc7" fill-rule="nonzero"/><path d="M.766-.156C.765-.077.629.466.629.466S.519.474.517.452C.514.43.534.282.534.282L.248-.111S.187-.13.171-.14a.3.3 0 0 1-.079-.076.129.129 0 0 1-.009-.058c0-.021.007-.061.016-.08.008-.02.017-.048.035-.07.018-.023.023-.033.045-.047.007-.005.005-.009.006-.01a3.657 3.657 0 0 0 .135.104c.012.005.084.027.166.058.081.031.173.069.228.105.032.021.052.041.052.058Z" fill="url(#T)" fill-rule="nonzero" transform="scale(-795.14625 795.14625) rotate(-32.792 .252 9.248)"/><path d="m4124.975 860.87-13.783 16.324-50.15 61.967h-37.117l-17.058-24.65 17.058-24.509 23.067-40.133-16.959 3.333-26.375 30.475-11.65-4.625s19.85-35.516 19.85-39.6c0-4.108 24.575-17.758 24.575-17.758l62.142-6.483c3.817 5.208 35.833 40.141 35.833 40.141" fill="#f9e4cf" fill-rule="nonzero"/><path d="M.538.107.527.108l.059-.204s.006-.006.032.01c.026.016.099.067.099.067L.538.107Z" fill="url(#U)" fill-rule="nonzero" transform="scale(-815.7739 815.7739) rotate(-62.488 -1.587 5.13)"/><path d="M.416.102S.355.005.353-.013C.35-.03.438-.102.438-.102L.416.102Z" fill="url(#V)" fill-rule="nonzero" transform="scale(-815.5909 815.5909) rotate(-62.488 -1.55 5.109)"/><path d="m4137.225 862.577-48.783-48.633 27.583-37.65 44.733 70.925M3685.846 577.478l-51.374 55.916 25.697 30.389 48.44-68.796-22.763-17.509Z" fill="#fff" fill-rule="nonzero"/><path d="m3785.892 1592.252 39.266 27.333v19.75l-39.266-47.083ZM3395.392 1365.41l-15.817-6.983-50.033 89.125 26.492-4.225" fill="#e8c4a6" fill-rule="nonzero"/><path d="M.577.262C.474.166.28-.243.28-.243L.369-.3c.072.017.268.293.268.293l.197-.386-.003.02a.754.754 0 0 0-.001.159c.01.105.026.224.02.295a.187.187 0 0 1-.009.046C.804.243.668.347.577.262Zm.257-.655.004-.008-.004.008Z" fill="url(#W)" fill-rule="nonzero" transform="scale(736.45404 -736.45404) rotate(72.121 3.84 2.124)"/><path d="m3594.286 535.07 46.516 29.983 14.938-6.195-8.44-11.686-53.014-12.102ZM3877.392 393.244l53.633 54.834-25.117 1.625M4119.975 866.802l-31.517-52.858 45.95 41.775" fill="#e8c4a6" fill-rule="nonzero"/><path d="M3652.999 512.21s-9.42-13.013-17.544-13.01M3609.438 513.191s-12.22-6.062-1.825-13.99" fill="#f9e4cf" fill-rule="nonzero"/><path d="M4031.308 877.202s.8-.8 2.084-2.141c6.075-6.292 23.116-24.534 20.008-27.634-3.767-3.775-16.692-5.8-20.008 0-3.334 5.784-17.184 21.8-17.184 21.8l18.784-16.983 9.091-1.792M2174.142 759.786s-72.575-.175-74.458 0c-1.883.175-93.842 43.266-93.842 43.266l.834 8.492 93.725-44.742 69.633-5.575" fill="#e8c4a6" fill-rule="nonzero"/><path d="M.398-.161c.122.1.249.131.318.092L.377.156.354.171C.266.213.116.135-.036-.018l.342-.226c.031.031.062.059.092.083Z" fill="url(#X)" fill-rule="nonzero" transform="scale(-4138.12504 4138.12504) rotate(-56.576 1 .942)" opacity=".8"/><path d="M4734.641 2700.643c0 73.459 50.284 160.084 113.925 194.35L5193.5 3080.71c75.991 40.917 139.35 7.408 139.35-76.042v-609.2c0-83.45-63.359-173.641-139.35-200.716l-344.934-122.767c-63.641-22.658-113.925 18.959-113.925 92.434v536.224Z" fill="#6bc9b7" fill-rule="nonzero"/><path d="M0 .739v-.9a.4.4 0 0 1 .191-.325l.576-.311C.894-.865 1-.809 1-.669V.353C1 .493.894.644.767.689L.191.894a.174.174 0 0 1-.057.011C.056.905 0 .839 0 .739Z" fill="url(#Y)" fill-rule="nonzero" transform="matrix(594.3031 0 0 -594.3031 4721.141 2598.443)"/><path d="M0 .34c0-.285.22-.632.494-.777C.772-.583 1-.466 1-.174 1 .118.772.469.494.609a.494.494 0 0 1-.215.057C.114.666 0 .546 0 .34Z" fill="url(#Z)" fill-rule="nonzero" transform="matrix(108.39829 0 0 -108.39829 5170.641 2991.252)"/><path d="M.104.065C.111.049.105.034.094.019.081.002.084-.006.104-.018c.018-.01.03-.022.034-.037.006-.021.015-.026.05-.028a.137.137 0 0 0 .063-.018c.021-.011.033-.012.06-.004l.013.004c.009.004.014.003.018-.004L.388-.18c.001-.002.001-.005.005-.005.006 0 .006.003.008.006l.028.034c.006.007.012.008.022.005L.51-.153c.003-.001.007-.003.01-.001s0 .004-.001.006l-.051.085c-.002.003-.005.006 0 .009.005.003.01.001.015 0L.63-.08c.004-.001.007-.002.01 0s0 .004-.001.006l-.028.037c-.004.005-.002.008.007.011l.064.021c.003.001.009.002.009.004 0 .003-.006.003-.01.004a3.998 3.998 0 0 0-.116.02C.555.024.54.024.536.029.532.035.543.041.547.047.558.061.555.072.538.081.516.093.503.106.5.125a.021.021 0 0 1-.013.018.069.069 0 0 1-.038.008.125.125 0 0 0-.066.018C.362.181.347.182.32.172A.164.164 0 0 0 .244.16C.216.162.196.154.185.137A.103.103 0 0 0 .134.102C.119.097.109.091.105.084A.025.025 0 0 1 .104.065Zm.331-.102a.254.254 0 0 0-.238-.009C.133-.01.131.055.196.099a.252.252 0 0 0 .242.013C.486.085.499.043.478.006a.126.126 0 0 0-.043-.043Z" fill="url(#aa)" fill-rule="nonzero" transform="scale(633.1919 -633.1919) rotate(-60.587 .228 -9.122)"/><path d="M0 .346c0-.297.214-.648.489-.794.282-.15.511-.03.511.273C1 .132.776.486.496.627a.494.494 0 0 1-.215.057C.114.684 0 .559 0 .346ZM.448.315l.026.069c.003.009.005.021.018.014C.506.392.508.378.511.366.527.306.544.246.558.187A.1.1 0 0 1 .616.111C.666.087.717.06.769.033.779.028.792.025.797.009.803-.009.789-.009.78-.012.742-.023.704-.035.663-.043.63-.048.624-.073.637-.119c.016-.055.03-.109.043-.164.004-.013.012-.032 0-.035C.668-.32.657-.303.648-.291c-.04.052-.081.103-.119.156-.026.034-.046.046-.071.038C.422-.11.384-.118.347-.127.335-.13.323-.141.309-.123c-.017.019-.003.03 0 .042.013.041.026.082.042.119.012.029.004.055-.023.089a7.342 7.342 0 0 0-.114.148C.204.288.188.304.194.318.199.33.214.317.225.312L.3.273C.36.243.388.225.404.225c.02 0 .022.026.044.09Z" fill="url(#ab)" fill-rule="nonzero" transform="matrix(139.90911 0 0 -139.90911 5151.808 2990.385)"/><path d="M4810.225 2260.102c0 9.65 6.658 20.175 14.891 23.5l313.559 127.016c9.458 3.834 17.166-1.483 17.166-11.866 0-10.4-7.708-21.9-17.166-25.642l-313.559-124.558c-8.233-3.275-14.891 1.9-14.891 11.55M4812.725 2192.319c0 9.683 6.675 20.1 14.925 23.325l313.941 122.324c9.492 3.692 17.159-1.75 17.159-12.158s-7.667-21.791-17.159-25.425l-313.941-119.858c-8.25-3.133-14.925 2.142-14.925 11.792M4812.725 2341.21c0 9.675 3.291 18.875 7.341 20.583l148.709 62.9c4.3 1.817 7.85-4.783 7.85-14.816 0-9.984-3.55-19.592-7.85-21.384l-148.709-61.716c-4.05-1.675-7.341 4.8-7.341 14.433" fill="#fff"/><path d="M4950.725 2633.443c3.45 33.684 3.025 124.825 40.358 153.042 47.742 36.125 53.6-50.292 57.258-83.417 1.959-17.858-24.975-33.891-28.875-18.091-4.375 17.791-7.525 34.7-8.891 54.35-.75 10.608 9.841 23.008 18.483 24.841 22.883 4.909 33.325-8.666 42.867-27.183a18380.61 18380.61 0 0 1-27.142-16.983c18.667 89.708 155.325 38.6 191.117 44.25 19.858 3.175 11.391-34.067-8.484-37.067-19-2.867-149.866 17.242-153.966-2.283-3.034-14.484-21.675-27.659-27.159-16.909-4.391 12.009-12.75 18.892-25.008 20.675 6.183 8.292 12.375 16.584 18.567 24.909 1.058-16.559 3.708-32.009 7.966-46.384-9.65-6.041-19.308-12.091-28.875-18.1-1.716 15.675-13.891 100.15-28.458 40.95-6.967-28.45-8.417-55.941-11.233-83.191-2.217-21.6-30.742-35.125-28.525-13.409" fill="#19bc9d" fill-rule="nonzero"/><path d="m808.53 2278.747 17.931-6.435-15.887-47.2-18.197 5.69 16.154 47.945ZM836.393 2348.735l17.5-7.567-3.117-7.125c-1.825-4.3-4.541-9.908-6.658-15.758-4.492-11.608-8.967-23.216-8.967-23.216l-17.816 6.808s4.558 11.792 9.133 23.6c2.158 5.933 4.892 11.65 6.758 16.008a633.805 633.805 0 0 1 3.167 7.25M868.31 2416.935l17-8.667s-5.5-11.158-11-22.325c-2.767-5.583-5.5-11.166-7.559-15.341-1.883-4.284-3.133-7.134-3.133-7.134l-17.35 7.925s1.275 2.892 3.183 7.234c2.092 4.275 4.892 9.95 7.692 15.616a19665.71 19665.71 0 0 1 11.167 22.692M904.81 2482.893l16.408-9.741s-6.717-10.484-12.5-21.509c-5.992-10.908-11.975-21.825-11.975-21.825l-16.808 9.025s6.1 11.092 12.166 22.175c5.9 11.2 12.709 21.875 12.709 21.875M945.31 2546.41l15.741-10.75s-6.925-10.358-13.841-20.692c-7.117-10.225-13.367-20.991-13.367-20.991l-16.192 10.075s6.367 10.941 13.592 21.341c7.025 10.5 14.067 21.017 14.067 21.017M989.643 2607.293l15.025-11.716s-1.95-2.434-4.858-6.084c-2.784-3.75-6.459-8.758-10.167-13.766-7.375-10.034-14.725-20.067-14.725-20.067l-15.517 11.083s7.475 10.192 14.959 20.392c3.741 5.092 7.508 10.167 10.316 13.975 2.984 3.708 4.967 6.183 4.967 6.183M1037.81 2665.185l14.283-12.608s-8.175-9.384-16.358-18.759c-4.184-4.625-8.025-9.508-10.95-13.158-2.909-3.65-4.859-6.075-4.859-6.075l-14.791 12.008s1.975 2.475 4.941 6.167c2.95 3.717 6.859 8.667 11.084 13.367l16.65 19.058ZM1089.143 2720.268l13.525-13.433s-2.292-2.1-5.467-5.533c-3.208-3.392-7.491-7.909-11.791-12.442l-17.125-18.058-14.034 12.875s8.675 9.175 17.367 18.358c4.367 4.583 8.708 9.175 11.975 12.608 3.217 3.484 5.542 5.634 5.55 5.625M1143.81 2772.002l12.75-14.184s-9.267-8.333-18.534-16.658c-8.95-8.65-17.908-17.325-17.908-17.325l-13.275 13.7s9.083 8.775 18.158 17.575a34844.53 34844.53 0 0 1 18.809 16.892M1201.025 2820.853l11.965-14.856-38.322-31.892-12.467 14.43 38.824 32.318ZM1260.976 2866.285l11.158-15.483s-2.558-1.8-6.341-4.492c-3.825-2.708-8.934-6.292-13.817-10.15l-19.758-15.192-11.692 15.075s10.017 7.692 20.033 15.392c4.967 3.925 10.134 7.533 14 10.267 3.842 2.75 6.417 4.583 6.417 4.583M1323.06 2908.71l10.374-16s-10.416-6.85-20.833-13.708c-10.508-6.709-20.6-14.05-20.6-14.05l-10.867 15.658s10.209 7.417 20.85 14.217a11253.31 11253.31 0 0 0 21.075 13.883M1387.226 2948.135l9.55-16.483s-2.75-1.459-6.75-3.917c-4-2.408-9.325-5.675-14.642-8.917-10.65-6.483-21.291-12.966-21.291-12.966L1344 2922.018s10.767 6.567 21.542 13.142c5.408 3.267 10.791 6.558 14.841 9.008 4.025 2.475 6.825 3.967 6.842 3.967M1453.06 2984.268l8.816-16.891s-11.058-5.75-22.108-11.525c-10.892-6.134-21.759-12.234-21.759-12.234l-9.333 16.617s11.008 6.2 21.992 12.383c11.183 5.825 22.391 11.65 22.391 11.65M1520.393 3017.652l8.091-17.284s-11.25-5.366-22.508-10.775c-5.617-2.691-11.242-5.391-15.467-7.4-4.175-2.15-6.933-3.566-6.933-3.566l-8.575 17.025s2.8 1.441 7.008 3.6c4.267 2.041 9.95 4.775 15.642 7.491 11.383 5.45 22.742 10.909 22.742 10.909M1589.06 3048.16l7.374-17.575s-2.933-1.083-7.208-3.008c-4.258-1.875-10-4.4-15.692-6.909a53123.802 53123.802 0 0 0-22.85-10.083l-7.833 17.375s11.525 5.092 23.075 10.183a3206.879 3206.879 0 0 0 15.858 7c4.325 1.909 7.275 3.017 7.275 3.017M1658.893 3075.71l6.666-17.85s-11.7-4.375-23.391-8.733l-23.15-9.367-7.15 17.675s11.691 4.733 23.4 9.45c11.8 4.425 23.625 8.825 23.625 8.825M1729.726 3100.718l6.008-18.091s-11.825-3.992-23.65-8c-11.875-3.842-23.558-8.284-23.558-8.284l-6.475 17.95s11.8 4.467 23.8 8.359c11.942 4.041 23.875 8.066 23.875 8.066M1801.32 3123.238l5.366-18.296-47.797-14.634-5.783 18.182 48.215 14.748ZM1873.726 3143.077l4.733-18.45s-12.141-2.95-24.141-6.409c-12.034-3.316-24.092-6.65-24.092-6.65l-5.158 18.359 24.3 6.691c12.116 3.492 24.358 6.459 24.358 6.459M1946.643 3160.493l4.166-18.616s-12.191-2.709-24.4-5.409c-12.125-2.983-24.233-5.991-24.233-5.991l-4.567 18.516s12.242 3.017 24.467 6.05c12.283 2.7 24.567 5.45 24.567 5.45M2020.226 3175.651l3.566-18.733s-12.266-2.35-24.558-4.725c-12.283-2.225-24.441-5.066-24.441-5.066l-3.967 18.641s12.267 2.875 24.65 5.125c12.391 2.367 24.75 4.758 24.75 4.758" fill="#fff" fill-rule="nonzero"/><path fill="#fff" d="m2094.055 3188.626 3.052-19.26-49.367-7.824-3.052 19.26z"/><path d="m2168.265 3199.494 2.466-18.898-49.518-7.01-2.82 18.844 49.872 7.064ZM2242.81 3208.151l1.94-18.958s-12.45-1.242-24.84-2.758c-12.4-1.467-24.834-2.9-24.834-2.9l-2.284 18.916s12.484 1.459 25.009 2.934c12.483 1.508 25.008 2.766 25.008 2.766M2317.476 3214.76l1.433-19.025s-12.5-.667-24.933-1.967c-12.442-1.15-24.9-2.317-24.9-2.317l-1.775 18.984s12.525 1.175 25.05 2.341c12.541 1.309 25.125 1.984 25.125 1.984M2392.309 3219.443l.942-19.042s-12.459-.608-24.95-1.2c-12.492-.875-24.967-1.766-24.967-1.766l-1.275 19.05s12.558.875 25.1 1.741c12.575.617 25.15 1.217 25.15 1.217M2467.226 3222.26l.483-19.067s-12.5-.3-25-.617c-12.5-.275-24.983-1.025-24.983-1.025l-.809 19.05s12.559.759 25.134 1.034c12.583.308 25.175.625 25.175.625M2542.226 3223.268l.025-19.075s-12.525-.042-25.009-.067c-12.525.067-25.016-.316-25.016-.316l-.334 19.058s12.584.383 25.159.325c12.583.033 25.175.075 25.175.075" fill="#fff" fill-rule="nonzero"/><path fill="#fff" d="m2617.127 3222.511-.413-19.304-50.022 1.072.413 19.304zM2692.014 3220.031l-.86-19.289-49.992 2.231.86 19.29zM2766.89 3215.894l-1.296-19.332-49.921 3.345 1.295 19.331zM2841.565 3210.124l-1.694-19.326-49.867 4.372 1.694 19.326zM2916.18 3202.728l-2.115-19.318-49.745 5.447 2.116 19.318zM2990.6 3193.821l-2.544-19.359-49.599 6.517 2.544 19.359zM3064.804 3183.365l-2.926-19.296-49.484 7.503 2.926 19.296zM3138.708 3171.447l-3.301-19.235-49.33 8.465 3.302 19.236zM3212.434 3158.054l-3.664-19.144-49.166 9.408 3.663 19.145zM3285.88 3143.271l-4.023-19.063-48.98 10.334 4.023 19.064zM3359.055 3127.062l-4.374-18.96-48.793 11.256 4.374 18.96zM3431.851 3109.505l-4.7-18.822-48.575 12.133 4.701 18.821zM3504.32 3090.614l-5.046-18.723-48.342 13.027 5.045 18.723zM3576.514 3070.43l-5.398-18.625-48.088 13.937 5.398 18.625zM3648.22 3048.942l-5.694-18.459-47.85 14.762 5.695 18.458zM3719.595 3026.18l-5.981-18.27-47.59 15.578 5.98 18.27zM3790.523 3002.198l-6.295-18.148-47.31 16.412 6.296 18.147zM3861.094 2977.003l-6.604-18.01-47.014 17.239 6.604 18.01z"/><path d="m3931.142 2950.61-6.884-17.792s-11.675 4.5-23.366 9c-11.642 4.559-23.392 8.884-23.392 8.884l6.667 17.866s11.791-4.341 23.5-8.925c11.741-4.533 23.475-9.033 23.475-9.033M4000.808 2923.035l-7.158-17.675s-11.608 4.717-23.183 9.442c-11.559 4.8-23.292 9.2-23.292 9.2l6.975 17.75s11.775-4.425 23.358-9.242c11.667-4.742 23.3-9.475 23.3-9.475M4069.975 2894.31l-7.475-17.55s-11.517 4.942-23.017 9.858c-11.575 4.759-23.158 9.517-23.158 9.517l7.258 17.633s11.634-4.775 23.275-9.566c11.542-4.942 23.117-9.892 23.117-9.892M4138.642 2864.46l-7.742-17.417-22.85 10.217c-11.533 4.942-23.042 9.858-23.042 9.858l7.559 17.509 23.116-9.9c11.484-5.134 22.959-10.267 22.959-10.267M4206.808 2833.485l-8.041-17.292s-11.259 5.475-22.717 10.525c-11.425 5.125-22.85 10.267-22.85 10.267l7.858 17.367s11.467-5.142 22.917-10.309c11.5-5.075 22.833-10.55 22.833-10.558M4274.475 2801.418l-8.308-17.158s-11.309 5.392-22.592 10.783c-11.325 5.342-22.642 10.692-22.642 10.692l8.134 17.242s11.35-5.359 22.725-10.734l22.683-10.825" fill="#fff" fill-rule="nonzero"/><path fill="#fff" d="m4341.603 2768.213-8.741-17.347-44.733 22.542 8.741 17.347zM4408.187 2733.85l-8.971-17.107-44.332 23.25 8.972 17.107zM4474.15 2698.457l-9.26-16.934-43.92 24.016 9.259 16.934z"/><path d="m.258-.441.327-.714L1-.101.387.724 0 1.155.258-.441Z" fill="url(#ac)" fill-rule="nonzero" transform="scale(254.57262 -254.57262) rotate(-15.035 -29.862 -12.295)"/><path d="M.523-.329H1l-.186.251C.787-.078 0 .329 0 .329l.523-.658Z" fill="url(#ad)" fill-rule="nonzero" transform="scale(486.31145 -486.31145) rotate(-15.026 -14.597 -6.577)"/><path d="M2206.742 3895.968c0 24.792 20.092 44.908 44.909 44.908 24.8 0 44.891-20.116 44.891-44.908 0-24.8-20.091-44.908-44.891-44.908-24.817 0-44.909 20.108-44.909 44.908" fill="#fff" fill-rule="nonzero"/><path d="M2992.059 5810.267c-.134-2.433-.134-6.683-1.5-36.292-.825-18.716-6.109-49.7-5.834-58.341 28-.392 77.409-5.875 99.2-8.4l2.459 81.5-94.325 21.533ZM3177.475 5793.217c-.116-2.475-.125-6.717-1.466-36.317-.859-18.733-6.134-49.683-5.875-58.341 28.025-.384 77.425-5.867 99.225-8.425l1.175 106.775-93.059-3.692Z" fill="#f9e4cf" fill-rule="nonzero"/><path d="M.577.309H.576A1.218 1.218 0 0 1 .404.255H.403L.238.05S.042.157.017.146L.011.145.007.143C-.011.131.012.053.012.053S.061.048.201-.073c.08-.069.094-.036.094-.036l.114.115s-.03-.221.026-.265c.053-.04.304-.03.363-.007a.029.029 0 0 1 .01.006c.025.027.026.139.026.144A.117.117 0 0 1 .843-.16c.016-.023.089-.021.132.013.044.035.017.078.017.078L.866.22C.854.246.71.3.696.304c0 0-.046.008-.086.008A.169.169 0 0 1 .577.309Z" fill="url(#ae)" fill-rule="nonzero" transform="matrix(1056.54124 0 0 -1056.54124 2433.309 4135.118)"/><path d="m.73-.163.002.008a.842.842 0 0 1 .008.069L.085.059l.664-.098.001.008.006.066-.792.161C-.028.155-.055-.011-.088-.04c0 0 .813-.14.818-.123Z" fill="url(#af)" fill-rule="nonzero" transform="scale(1582.1104 -1582.1104) rotate(-78.521 -.81 -2.587)"/><path d="M.166.122A.162.162 0 0 1 .095.067C.072.035.072.006.072.006L0-.14c.067.023.114.019.162.029.229.053.838 0 .838 0L.924.122.782.13C.677.134.531.14.407.14A.971.971 0 0 1 .166.122Z" fill="url(#ag)" fill-rule="nonzero" transform="matrix(169.76743 0 0 -169.76743 2998.642 3794.635)"/><path d="M3021.392 3736.518c-3.208 29.942-2.967 39.325-4.633 43.483-.95.834-1.784 1.9-2.492 2.859 0 0-18.3-23.767-26.383-28.634-8.075-4.758-17.7-17.708-25.542-32.441-8.083-14.85-14.617-28.634-6.533-52.75 7.958-24-3.334-32.2-7.242-55.609-4.158-23.525-8.208-76.041-8.208-76.041s-11.159-7.959-16.634-11.042c-5.583-3.208-30.291-12-30.291-12s-27.084-34.225-27.084-46.1c0-12 29.109-41.108 29.109-41.108 46.45-28.4 32.425.591 81.975-16.875 40.991-14.492 182.491 15.091 182.491 15.091l52.275 115.725-23.525 68.55-57.733 126.892h-109.55Z" fill="#2d2d2d" fill-rule="nonzero"/><path d="M3130.892 3736.518v35.767c-33.983-1.55-92.908-3.45-104.433 1.183-4.4 1.9-7.492 4.158-9.742 6.533 1.658-4.158 1.425-13.541 4.625-43.483h109.55Z" fill="#2d2d2d" fill-rule="nonzero"/><path d="m2953.424 3551.295-.38-.363" fill="none" stroke="#1e1e1e" stroke-width="2.0833325"/><path d="m3130.892 3736.485.483 36.116c-7.958-.358-17.466-.591-27.691-.708-34.092-.358-75.084.942-84.467 6.767l-1.192-40.984c8.192-1.433 30.892-1.191 30.892-1.191h81.975ZM2389.309 4061.284l.2.092c-.1-.042-.183-.083-.2-.092" fill="#f9e4cf" fill-rule="nonzero"/><path d="M2392.476 4061.834c-2.559-.533-3.225-.575-3.175-.541l-61.092-20.834s-24.1-40.175-22.575-51.433c0 0 14.508-12.841 19.358-19.391 4.884-6.284 12.834-20.9 12.834-20.9l-33.717-14.5s-18.908-4.867-22.583-7.942c-3.334-2.975-9.05-6.067-11.542-8.108-.358-.225-.583-.45-.95-.817-11.383-9.608-.342-18.417-.342-18.417l119.092 26.409 52.583 58.2c-18.416 13.65 6.175 95.041 6.175 95.041s-49.191-15.683-54.066-16.767" fill="#f9e4cf" fill-rule="nonzero"/><path d="m2441.056 3983.674-.138-.12" fill="none" stroke="#b76262" stroke-width="8.33333"/><path d="M.385-.04C.358-.05.298-.048.235-.047a.662.662 0 0 1-.183-.01C-.014-.079-.001-.161.006-.179c.006-.019.991.003.991.003s.01.298-.007.311c0 0-.002.012-.018.01L.965.144S.725.108.666.148C.607.189.603.209.603.209S.442-.021.385-.04Z" fill="url(#ah)" fill-rule="nonzero" transform="matrix(278.03572 0 0 -278.03572 3009.059 5832.175)"/><path d="M.367-.027a.87.87 0 0 0-.253-.025C.071-.048.012-.095.007-.141L0-.2h.655s.012.103.067.125c.054.022.261.005.271.005 0 0 .027.212-.026.24C.941.185.875.175.812.165.756.156.701.147.676.155.622.172.578.2.578.2.545.196.453-.005.367-.027Z" fill="url(#ai)" fill-rule="nonzero" transform="matrix(265.1124 0 0 -265.1124 2835.225 5829.059)"/><path d="m2940.309 3537.435 13.125 13.85c17.058 15.408 31.2 62.158 31.2 62.158s6.45-51.125 25.733-22.292c19.633 29.367 18.708 57.659 7.642 66.209-10.234 7.9-11.15 11.791-11.15 11.791l26.333 67.409-11.383 39.366-7.609 6.967s-18.433-22.383-22.416-25.5c-3.942-3.125-33.175-21.925-38.084-44.608-4.891-22.684-8.841-39.634-1.483-52.625 7.375-12.984 5.283-9.075 0-25.592-5.258-16.492-5.042-26.342-7.033-45.458-2.025-19.092-4.875-43.659-4.875-43.659v-8.016Z" fill="#f9e4cf" fill-rule="nonzero"/><path d="m3210.975 3544.418-51.108-119.042c4.067 1.9 75.825 42.659 51.108 119.042" fill="#2d2d2d" fill-rule="nonzero"/><path d="M.592-1.001c.885-.079.689.003.689.003S.29 1.311.592 1.311c.302 0-.696.023-.696.023s.01-2.275.696-2.335Z" fill="url(#aj)" fill-rule="nonzero" transform="scale(43.6401 -43.6401) rotate(-16.609 -288.216 -236.63)"/><path d="M2158.934 3191.643c0 25.275 20.5 45.783 45.783 45.783 25.284 0 45.809-20.508 45.809-45.783 0-25.292-20.525-45.791-45.809-45.791-25.283 0-45.783 20.5-45.783 45.791M965.785 2614.202c0 25.266 20.508 45.775 45.783 45.775 25.292 0 45.783-20.509 45.783-45.775 0-25.3-20.491-45.792-45.783-45.792-25.275 0-45.783 20.492-45.783 45.792M4408.775 2710.043c0 25.284 20.5 45.792 45.8 45.792 25.267 0 45.766-20.508 45.766-45.792 0-25.283-20.5-45.791-45.766-45.791-25.3 0-45.8 20.508-45.8 45.791" fill="#fff" fill-rule="nonzero"/><path d="M3314.559 4257.86s-51.667-240.976-51.667-262.292c0-21.325 25.842 268.333 25.842 268.333s9.075 122.342-11.334 137.742c-41.783 31.55 4.484 13.425 4.484 13.425s20.133-5.325 27.233-77.759c5.075-51.508 5.442-73.408 5.442-73.408" fill="#f7500f" fill-rule="nonzero"/><path d="M2857.809 4293.443s4.441 78.833 21 100.175c16.533 21.35 14.133 16.616 40.866 26.65" fill="#f49e7f" fill-rule="nonzero"/><ellipse cx=".5" rx=".184" ry=".503" fill="url(#ak)" transform="matrix(0 861.24966 861.24966 0 2027.06 4704.093)" opacity=".9"/><path d="M.499.059C.378.057.281.029.281-.003c.001-.031.099-.056.22-.054.121.002.219.03.218.062C.719.036.625.06.507.059H.499Z" fill="url(#al)" fill-rule="nonzero" transform="scale(924.89482 -924.89482) rotate(-.45 -661.532 -182.769)"/><path d="M.511-.274c.07-.104.133-.089.133-.089s.089.307-.133.564l-.134.16s.064-.53.134-.635Z" fill="url(#am)" fill-rule="nonzero" transform="scale(578.46785 -578.46785) rotate(-36.004 -10.719 -8.28)"/><path d="M.133-.007S.51-.138.648-.109c.139.029.343.085.343.085S.67.11.312.033l-.18-.039.001-.001Z" fill="url(#an)" fill-rule="nonzero" transform="scale(895.74563 -895.74563) rotate(-84.575 -1.532 -3.341)"/><path d="M.485-.194c.201.287.137.581.137.581S.56.4.485.294C.347.099.348-.358.348-.358s.019-.005.137.164Z" fill="url(#ao)" fill-rule="nonzero" transform="scale(-563.03612 563.03612) rotate(41.154 -12.354 -.415)"/><path d="M.508.47C.287.47.097.498.005.538l.079-.912c0-.032.186-.164.423-.164.236 0 .433.132.433.164l.055.905A1.59 1.59 0 0 0 .508.47Z" fill="url(#ap)" fill-rule="nonzero" transform="scale(407.70338 -407.70338) rotate(.521 1358.758 416.885)"/><path d="M.871.007C.636.043.13-.072.13-.072l.741.079Z" fill="url(#aq)" fill-rule="nonzero" transform="scale(594.0295 -594.0295) rotate(-89.284 -2.028 -4.998)"/><path d="M.871.175c-.34-.055-.74-.35-.74-.35l.74.35Z" fill="url(#ar)" fill-rule="nonzero" transform="scale(261.04279 -261.04279) rotate(-89.284 -5.566 -11.765)"/><path d="M.82-.065a4.573 4.573 0 0 0-.152.058C.394.1.13.089.13.089l.69-.154Zm.039-.009L.82-.065c.084-.03.039-.009.039-.009Z" fill="url(#as)" fill-rule="nonzero" transform="scale(300.98506 -300.98506) rotate(-89.284 -4.405 -10.652)"/><path d="M742.726 3643.768v.033c-.05.042-.075.067-.125.109-.108.175-.175.233-.275.408-.525.775-.783 1.167-1.3 1.942.409-.75.609-1.117 1.009-1.859.225-.375.333-.558.55-.933.033.075.041.108.075.175.025.058.05.075.066.125" fill="#f9e4cf" fill-rule="nonzero"/><path d="M742.726 3643.293c0 .15-.058.242-.058.35-.042.108-.025.2-.058.267 0 .125-.042.258-.075.391-.084.009-.125.009-.2.017-.117.025-.175.05-.292.083.225-.375.333-.558.55-.933.058-.075.083-.1.133-.175" fill="#f9e4cf" fill-rule="nonzero"/><path d="M742.81 3643.101s-.025.2-.092.667v.033c-.05.042-.075.067-.125.109 0 .125-.042.258-.075.391-.075.009-.125.009-.2.017-.525.775-.775 1.167-1.3 1.942.408-.742.608-1.117 1.017-1.859.225-.375.325-.558.55-.933.05-.075.075-.1.125-.175.041-.075.066-.117.1-.192" fill="#f9e4cf" fill-rule="nonzero"/><path d="M455.643 4390.31c-.083 85.658 51.95 175.166 120.15 225.216 99.108 59.233 272.275 143.517 391.233 116.75 79.917-25.167 138.659-120.15 141.575-201.35 3.75-196.767 12.9-393.358 18.025-590.091.359-89.409-77.458-170.184-160.475-192.734-121.65-22.366-242.333-47.341-357.533-93-78.592-37.5-140.025 35.242-139.75 109.984-3.1 208.441-9.992 416.791-13.225 625.224" fill="#6bc9b7" fill-rule="nonzero"/><path d="M.017.636C.013.324.004.011 0-.301a.436.436 0 0 1 .18-.326c.165-.106.387-.195.584-.195.123.03.208.179.212.299.005.299.017.598.024.897C1 .507.886.632.76.664a2.446 2.446 0 0 0-.532.143.148.148 0 0 1-.062.015C.078.822.017.728.017.636Z" fill="url(#at)" fill-rule="nonzero" transform="matrix(667.34973 0 0 -667.34973 441.143 4187.101)"/><path d="M605.927 3997.264c-2.933 109.328 53.998 223.549 160.303 263.078 108.868 40.482 171.564-79.216 171.167-169.996-.412-95.778-61.9-213.468-158.57-239.749-92.258-25.068-170.5 57.054-172.9 146.667" fill="#fff" fill-rule="nonzero"/><path d="M.001.212C-.013-.155.21-.519.487-.602c.279-.084.505.157.513.531.007.375-.2.734-.473.81a.395.395 0 0 1-.1.014C.199.753.012.533.001.212Z" fill="url(#au)" fill-rule="nonzero" transform="matrix(83.10138 0 0 -83.10138 732.726 4004.701)"/><path d="M0 .211c-.01-.228.218-.475.494-.566.279-.092.503.037.506.275.003.237-.208.484-.478.565a.563.563 0 0 1-.159.024C.164.509.008.392 0 .211Z" fill="url(#av)" fill-rule="nonzero" transform="matrix(165.01077 0 0 -165.01077 686.976 4134.676)"/><path d="M587.56 4287.56c-.717 16.674 9.558 37.058 23.291 44.974 92.442 43.859 203.55 88.85 305.875 101.534 14.825 1.383 26.634-13.7 26.6-31.3-.033-17.625-12.008-31.4-26.775-32.85-101.391-12.709-210.958-55.692-303.05-98.25-13.741-7.659-25.225-.792-25.941 15.891M618.56 4400.618c-.484 13.016 7.85 28.608 18.991 34.016 78.292 29.909 159.142 62.709 240.625 82.634 11.725 2.591 21.092-6.942 21.05-20.434-.041-13.516-9.425-25.9-21.05-28.458-80.841-19.742-161.15-51.692-238.933-81.108-11.1-5.334-20.2.291-20.683 13.35" fill="#fff" fill-rule="nonzero"/><path d="M1174.31 4389.384c-.292 6.617-2.792 11.792-7.25 16.509-37.692 40.208-62.125 72.283-77.692 92.741-13.892 18.175-27.667 37.117-41.392 56.317-9.516 13.342-22.116 17.867-31.508 10.542-17.567-13.725-35.233-29.05-52.75-46.609-5.892-6-7.908-14.133-5.425-23.816 2.5-9.742 8.192-15.992 16.575-18.95 7.167-2.509 13.35-.959 18.533 3.775 12.442 11.466 24.9 21.95 37.3 31.85 1.625 1.35 2.384.733 3.85-1.3 32.575-44.834 66.884-88.584 103.834-129.792 6.308-7.033 13.725-10.175 21.824-8.642 7.909 1.442 12.4 6.534 13.825 14.35.225 1.2.192 2.425.275 3.025" fill="#19bc9d"/><path d="m.459-.109.01.014.205.262C.631.125.527.099.426.133a.833.833 0 0 0-.153.072l-.2-.255c.166-.098.323-.125.386-.059Z" fill="url(#aw)" fill-rule="nonzero" transform="scale(4945.2094 -4945.2094) rotate(38.194 1.918 .526)" opacity=".8"/><path d="M5243.141 4437.226c-1.416 93.875-65.825 189.75-143.941 238.575-137.859 64.808-257.875 98.408-409.309 88.267-91.166-1.625-167.341-71.892-166.658-164.925 2.3-207.134 7.583-414.2 10.383-621.317 2.784-93.158 79.45-189.258 156.75-235.133 127.384-45.292 278.425-58.692 412.034-89.425 85.083-25.8 139.916 57.483 139.608 132.783.158 217.058.875 434.117 1.133 651.175" fill="#6bc9b7" fill-rule="nonzero"/><path d="M.194.793C.385.746.58.72.769.673A.438.438 0 0 0 .986.337C.99.047.997-.242 1-.531a.235.235 0 0 0-.232-.232C.565-.783.379-.72.2-.626c-.106.068-.198.195-.2.325l.002.903c0 .09.058.197.153.197A.143.143 0 0 0 .194.793Z" fill="url(#ax)" fill-rule="nonzero" transform="matrix(-717.18305 0 0 -717.18305 5258.975 4217.276)"/><path d="M5146.725 4399.701c.416-.217.616-.325 1.025-.533.075-.475.183-1.009.225-1.475-.409.7-.767 1.325-1.25 2.008" fill="#fff" fill-rule="nonzero"/><path d="M4649.475 4465.06c2.683-.65 5.483-.984 8.133-1.209 174.442-14.417 324.233-28.575 488.867-109.183 2.166-1.059 4.3-2.284 6.375-3.1 9.583-3.775 16.05 1.775 16.116 14.208.084 15.267-.216 30.717-.316 45.992-86.625 46.041-172.892 75.208-266.225 104.083-89.867 27.8-178.842 12.425-271.492 18.15.108-15.1.117-30.2.367-45.117.2-11.591 7.658-21.266 18.175-23.825" fill="#fff" fill-rule="nonzero"/><path d="M5040.058 4326.034c-1.05-85.833-2.2-171.741-3.258-257.608-.017-1.225.183-1.6.3-2.325 1.425-.392 2.15-.592 3.566-.992 1.267 92.767 2.684 185.542 3.967 278.309a353.128 353.128 0 0 1-6.558 2.1c-.042-2.267-.075-3.409-.117-5.667.75-.233 1.542-.458 2.267-.758-.059-4.817-.117-8.942-.167-13.059" fill="#6bc9b7" fill-rule="nonzero"/><path d="M.504.205C.655.07.834-.026.988-.162c.009-.007.013-.014.012-.024V-.21l-.012.003C.969-.199.949-.192.93-.183c-.014.005-.025.01-.031-.008-.003-.01-.018-.01-.028-.013C.866-.205.86-.201.855-.2.626-.154.37-.116.137-.04c-.033.011-.04.02-.052.062A2.128 2.128 0 0 1 0 .053c0 .013-.001.025.001.035.001.005.006.007.011.008.118.026.243.045.356.077L.486.21H.49C.494.21.5.208.504.205Z" fill="url(#ay)" fill-rule="nonzero" transform="matrix(-534.76145 0 0 -534.76145 5169.308 3991.551)"/><path d="M.391.059h.003C.386.019.379-.019.366-.059H.364c.013.04.019.078.027.118Z" fill="url(#az)" fill-rule="nonzero" transform="scale(3543.37358) rotate(90 .31 1.075)"/><path d="M4662.558 4418.16c.033-7.709 3.15-15.134 8.133-20.909 4.992-5.792 11.925-9.958 19.509-10.908 10.2-1.275 15.275-1.825 25.416-2.559-.083-84.616-.075-169.241-.158-253.85 0-6.525 11.833-15.033 26.442-17.15 7.241-1.05 13.825-.241 18.558 1.717 4.775 1.975 7.742 5.033 7.75 8.4.225 87.125.475 174.25.742 261.375 23.125 2.5 35.1 3.25 57.05.617-.45-77.167-.917-154.342-1.384-231.517a5.377 5.377 0 0 1-.316-1.825c-.075-12.267-.109-18.392-.167-30.658-.042-6.717 11.558-13.684 25.267-16.759 6.841-1.533 13.058-1.733 17.5-.758 4.341.958 7.175 3.3 7.216 6.65.009.875.025 1.325.034 2.2.025-.008.008-.008.033-.025 1.05 87.225 2.033 174.458 3.058 261.683 20.517-6.033 30.567-9.833 51.275-17-1.5-87.591-3.183-175.175-4.691-262.766-.117-6.734 10.575-15.834 24.4-20.175 6.883-2.15 13.25-2.625 17.883-1.784 4.683.85 7.7 3.117 7.767 6.467.016.867.033 1.308.05 2.175a.959.959 0 0 0 .141-.05v.158c1.809 86.567 3.817 173.134 5.775 259.7 21.584-5.891 35.034-7.216 60.217-15.108-1.058-85.692-2.275-171.383-3.267-257.075-.008-.592.042-1.042.117-1.367-.017-1.233-.033-1.85-.05-3.075-.083-6.666 14.6-15.925 31.333-21.308 8.392-2.692 15.725-3.892 20.992-3.608 5.225.283 8.383 2.158 8.383 5.441.042 86.134.325 172.267.45 258.4a792.338 792.338 0 0 0 17.959-8.341c13.875-6.6 24.858.883 24.841 16.75-.008 8.05-2.841 16.775-7.466 24.275-.392.666-.75 1.275-1.159 1.85-155.541 71.991-293.075 90.933-460.083 100.741-.4-.341-.917-.741-1.325-1.091-5.05-4.309-8.258-11.15-8.225-18.934" fill="#fff" fill-rule="nonzero"/><path d="M5195.633 4045.343c.002-.209-.01-.325-.017-.533" fill="none" stroke="#ec008c" stroke-width="8.33333"/><path d="M5072.725 4165.943c5.075 2.316 7.591 3.458 12.541 5.683 0 0 7.392-12.783 14.325-25.7a7530.561 7530.561 0 0 0 12.567-26.242c-5.208-1.241-7.85-1.875-13.175-3.158 0 0-6.067 12.5-12.242 24.992-6.791 12.3-14.016 24.425-14.016 24.425M5021.141 4232.743c4.75 3.825 7.1 5.725 11.709 9.433 0 0 10.341-10.583 19.216-22.425 4.559-5.817 9.1-11.7 12.45-16.125 3.109-4.592 5.142-7.675 5.142-7.675-4.833-2.7-7.292-4.075-12.25-6.883 0 0-2 2.916-5.042 7.275a964.952 964.952 0 0 1-12.258 15.258c-8.725 11.208-18.967 21.142-18.967 21.142M4966.391 4286.768c3.084 4.658 4.659 6.991 7.784 11.683 0 0 9.15-8.958 18.616-17.583 8.992-9.225 19.692-18.484 19.692-18.484-4.517-4.208-7.158-6.341-10.942-10.741 0 0-8.816 8.766-17.375 17.85-9.008 8.491-17.775 17.275-17.775 17.275M4912.141 4334.334c2.192 5.209 3.284 7.817 5.475 13.025 0 0 2.517-1.65 6.042-4.725 3.567-2.975 8.342-6.975 13.133-10.933 4.775-4 9.684-7.817 13.109-11.167 3.491-3.216 5.825-5.333 5.825-5.333-2.792-4.833-4.184-7.258-6.959-12.067 0 0-2.258 2.084-5.608 5.209-3.275 3.275-7.992 6.975-12.592 10.85-4.608 3.858-9.175 7.7-12.608 10.583-3.383 2.983-5.817 4.558-5.817 4.558M4854.475 4369.526c1.391 5.85 2.1 8.783 3.491 14.625 0 0 2.6-1.092 6.492-2.833 3.917-1.667 8.925-4.792 13.983-7.625a793.158 793.158 0 0 0 13.834-8.242c1.908-1.1 3.416-2.2 4.483-2.975 1.067-.758 1.692-1.208 1.692-1.208-1.925-5.417-2.917-8.134-4.842-13.567 0 0-.558.433-1.592 1.167a43.666 43.666 0 0 1-4.35 2.85 783.76 783.76 0 0 1-13.366 7.875c-4.9 2.7-9.725 5.708-13.517 7.266-3.775 1.642-6.308 2.667-6.308 2.667M4791.225 4382.376c.6 6.208.891 9.3 1.5 15.508 0 0 2.908.125 7.225.142 4.325.175 9.975-.417 15.516-1.358 11.117-1.767 21.909-4.567 21.909-4.567-1.142-6.017-1.717-9.025-2.859-15.05 0 0-10.458 2.617-21.241 4.25-5.384.875-10.859 1.433-15.067 1.233-4.175-.016-6.983-.158-6.983-.158M4723.225 4374.601c-.275 5.933-.392 8.908-.667 14.842 0 0 2.942.308 7.392.891 4.425.75 10.358 1.175 16.258 1.742 11.792 1.25 23.475 3.533 23.475 3.533-.308-6.175-.45-9.25-.775-15.416 0 0-11.325-2.125-22.75-3.225-5.717-.484-11.45-.859-15.75-1.567-4.3-.525-7.183-.8-7.183-.8" fill="#36c4a9" fill-rule="nonzero"/><path d="M.371 1.201 1-.432c-.251-.65-.376-.975-.623-1.623-.124.537-.182.81-.294 1.349C.052.214.026 1.135 0 2.055c.146-.336.219-.508.371-.854Z" fill="url(#aA)" fill-rule="nonzero" transform="rotate(-164.609 2844.74 1744.09) scale(55.57247)"/><path d="M.142-.098c-.182.038-.283.045-.441.089.141.136.264.231.441.354C.617.227.853.146 1.299.009c0 0-1.131-.087-1.157-.107Z" fill="url(#aB)" fill-rule="nonzero" transform="rotate(-36.509 8826.558 -5535.02) scale(123.64427)"/><path d="M4128.725 3767.935c28.842-54.834-40.408-141.409-98.108-98.117 43.275-109.683-150.075-236.667-193.367-115.45h-2.892c-25.975-89.467-193.35-40.408-199.116 46.175-37.533-34.633-101.017-25.983-138.55 8.667-17.3 14.425-17.3 40.391-28.867 51.941-14.425 14.442-37.483 11.55-57.691 25.967-86.575 63.5-149.475 258.317 83.683 184.717 25.975 83.683 126.992 106.766 204.891 86.558 20.209-5.767 17.342-20.175 37.525-20.175 8.667 2.875 34.65 23.058 46.167 25.958 34.65 14.425 75.042 23.084 109.667 8.667 14.441-8.667 25.991-25.983 37.525-31.75 23.091-8.65 28.866-2.875 51.95 0 40.4 0 75.083-21.692 112.541-20.208 37.142 1.466 86.317-18.609 94.975-56.117 2.892-17.308-22.816-96.833-57.45-91.058-11.533 2.883 0-2.884-2.883 8.658" fill="#b3def4" fill-rule="nonzero"/><g><path d="M4132.225 3731.76c28.6-49.209-40.033-126.942-97.192-88.075 42.884-98.459-148.666-212.442-191.525-103.634h-2.875c-25.733-80.308-191.55-36.258-197.274 41.434-37.142-31.059-100.059-23.317-137.225 7.8-17.142 12.95-17.142 36.258-28.575 46.625-14.292 12.966-37.175 10.35-57.192 23.316-85.75 56.992-148.042 231.875 82.925 165.784 25.708 75.15 125.783 95.875 202.966 77.741 20.025-5.183 17.159-18.116 37.159-18.116 8.6 2.575 34.308 20.708 45.758 23.3 34.308 12.95 74.325 20.725 108.633 7.758 14.292-7.758 25.734-23.3 37.159-28.483 22.866-7.775 28.591-2.575 51.475 0 40.016 0 74.35-19.475 111.491-18.125 36.784 1.3 74.259-21.592 82.842-55.259 2.858-15.55-11.367-82.066-45.692-76.883-11.433 2.583 0-2.583-2.858 7.767" fill="#f0fafc" fill-rule="nonzero"/></g><defs><linearGradient id="a" x1="0" y1="0" x2="1" y2="0" gradientUnits="userSpaceOnUse" gradientTransform="matrix(0 1 1 0 .5 -.5)"><stop offset="0" stop-color="#ddede0"/><stop offset="1" stop-color="#93ded9"/></linearGradient><linearGradient id="b" x1="0" y1="0" x2="1" y2="0" gradientUnits="userSpaceOnUse" gradientTransform="matrix(1 0 0 -1 0 0)"><stop offset="0" stop-color="#ddede0"/><stop offset="1" stop-color="#93ded9"/></linearGradient><linearGradient id="c" x1="0" y1="0" x2="1" y2="0" gradientUnits="userSpaceOnUse" gradientTransform="scale(-1 1) rotate(89.87 0 -.493)"><stop offset="0" stop-color="#ddede0"/><stop offset="1" stop-color="#93ded9"/></linearGradient><linearGradient id="d" x1="0" y1="0" x2="1" y2="0" gradientUnits="userSpaceOnUse" gradientTransform="matrix(1 0 0 -1 0 0)"><stop offset="0" stop-color="#ddede0"/><stop offset=".46" stop-color="#81d1d9"/><stop offset=".7" stop-color="#81d1d9"/><stop offset="1" stop-color="#81d1d9"/></linearGradient><linearGradient id="e" x1="0" y1="0" x2="1" y2="0" gradientUnits="userSpaceOnUse" gradientTransform="matrix(1 0 0 -1 0 0)"><stop offset="0" stop-color="#4b99a5"/><stop offset="1" stop-color="#93ded9"/></linearGradient><linearGradient id="f" x1="0" y1="0" x2="1" y2="0" gradientUnits="userSpaceOnUse" gradientTransform="matrix(1 0 0 -1 0 .007)"><stop offset="0" stop-color="#ddede0"/><stop offset="1" stop-color="#93ded9"/></linearGradient><linearGradient id="g" x1="0" y1="0" x2="1" y2="0" gradientUnits="userSpaceOnUse" gradientTransform="matrix(1 0 0 -1 0 -.003)"><stop offset="0" stop-color="#ddede0"/><stop offset="1" stop-color="#93ded9"/></linearGradient><linearGradient id="h" x1="0" y1="0" x2="1" y2="0" gradientUnits="userSpaceOnUse" gradientTransform="matrix(1 0 0 -1 0 -.005)"><stop offset="0" stop-color="#ddede0"/><stop offset="1" stop-color="#93ded9"/></linearGradient><linearGradient id="i" x1="0" y1="0" x2="1" y2="0" gradientUnits="userSpaceOnUse" gradientTransform="matrix(1 0 0 -1 0 0)"><stop offset="0" stop-color="#ddede0"/><stop offset="1" stop-color="#93ded9"/></linearGradient><linearGradient id="j" x1="0" y1="0" x2="1" y2="0" gradientUnits="userSpaceOnUse" gradientTransform="matrix(1 0 0 -1 0 .006)"><stop offset="0" stop-color="#ddede0"/><stop offset="1" stop-color="#93ded9"/></linearGradient><linearGradient id="k" x1="0" y1="0" x2="1" y2="0" gradientUnits="userSpaceOnUse" gradientTransform="matrix(1 0 0 -1 0 .042)"><stop offset="0" stop-color="#ddede0"/><stop offset="1" stop-color="#93ded9"/></linearGradient><linearGradient id="l" x1="0" y1="0" x2="1" y2="0" gradientUnits="userSpaceOnUse" gradientTransform="matrix(1 0 0 -1 0 .02)"><stop offset="0" stop-color="#ddede0"/><stop offset="1" stop-color="#93ded9"/></linearGradient><linearGradient id="m" x1="0" y1="0" x2="1" y2="0" gradientUnits="userSpaceOnUse" gradientTransform="matrix(1 0 0 -1 0 0)"><stop offset="0" stop-color="#e99c7b"/><stop offset=".99" stop-color="#ffffe2"/><stop offset="1" stop-color="#ffffe2"/></linearGradient><linearGradient id="n" x1="0" y1="0" x2="1" y2="0" gradientUnits="userSpaceOnUse" gradientTransform="matrix(1 0 0 -1 0 0)"><stop offset="0" stop-color="#e99c7b"/><stop offset=".99" stop-color="#ff4f3e"/><stop offset="1" stop-color="#ff4f3e"/></linearGradient><linearGradient id="o" x1="0" y1="0" x2="1" y2="0" gradientUnits="userSpaceOnUse" gradientTransform="matrix(1 0 0 -1 0 .002)"><stop offset="0" stop-color="#e99c7b"/><stop offset=".99" stop-color="#ffffe2"/><stop offset="1" stop-color="#ffffe2"/></linearGradient><linearGradient id="p" x1="0" y1="0" x2="1" y2="0" gradientUnits="userSpaceOnUse" gradientTransform="matrix(1 0 0 -1 0 .001)"><stop offset="0" stop-color="#e99c7b"/><stop offset=".99" stop-color="#ff4f3e"/><stop offset="1" stop-color="#ff4f3e"/></linearGradient><linearGradient id="q" x1="0" y1="0" x2="1" y2="0" gradientUnits="userSpaceOnUse" gradientTransform="scale(1 -1) rotate(-87.852 .497 0)"><stop offset="0" stop-color="#130051"/><stop offset=".5" stop-color="#130051"/><stop offset="1"/></linearGradient><linearGradient id="r" x1="0" y1="0" x2="1" y2="0" gradientUnits="userSpaceOnUse" gradientTransform="matrix(1 0 0 -1 0 0)"><stop offset="0" stop-color="#e99c7b"/><stop offset=".56" stop-color="#e99c7b"/><stop offset=".95" stop-color="#ff1577"/><stop offset="1" stop-color="#ff1577"/></linearGradient><linearGradient id="s" x1="0" y1="0" x2="1" y2="0" gradientUnits="userSpaceOnUse" gradientTransform="matrix(1 0 0 -1 0 0)"><stop offset="0" stop-color="#e99c7b"/><stop offset=".56" stop-color="#e99c7b"/><stop offset=".95" stop-color="#ff1577"/><stop offset="1" stop-color="#ff1577"/></linearGradient><linearGradient id="t" x1="0" y1="0" x2="1" y2="0" gradientUnits="userSpaceOnUse" gradientTransform="scale(-1 1) rotate(-.775 0 42.314)"><stop offset="0" stop-color="#ddede0"/><stop offset="1" stop-color="#93ded9"/></linearGradient><linearGradient id="u" x1="0" y1="0" x2="1" y2="0" gradientUnits="userSpaceOnUse" gradientTransform="scale(1 -1) rotate(-26.532 .5 0)"><stop offset="0" stop-color="#4b99a5"/><stop offset="1" stop-color="#93ded9"/></linearGradient><linearGradient id="v" x1="0" y1="0" x2="1" y2="0" gradientUnits="userSpaceOnUse" gradientTransform="scale(1 -1) rotate(-26.75 .5 0)"><stop offset="0" stop-color="#e99c7b"/><stop offset=".99" stop-color="#ff4a77"/><stop offset="1" stop-color="#ff4a77"/></linearGradient><linearGradient id="w" x1="0" y1="0" x2="1" y2="0" gradientUnits="userSpaceOnUse" gradientTransform="scale(1 -1) rotate(-26.531 .5 0)"><stop offset="0" stop-color="#e99c7b"/><stop offset=".99" stop-color="#ff4a77"/><stop offset="1" stop-color="#ff4a77"/></linearGradient><linearGradient id="x" x1="0" y1="0" x2="1" y2="0" gradientUnits="userSpaceOnUse" gradientTransform="scale(1 -1) rotate(-26.75 .5 0)"><stop offset="0" stop-color="#ddede0"/><stop offset="1" stop-color="#93ded9"/></linearGradient><linearGradient id="y" x1="0" y1="0" x2="1" y2="0" gradientUnits="userSpaceOnUse" gradientTransform="scale(1 -1) rotate(-26.53 .5 0)"><stop offset="0" stop-color="#4b99a5"/><stop offset="1" stop-color="#93ded9"/></linearGradient><linearGradient id="z" x1="0" y1="0" x2="1" y2="0" gradientUnits="userSpaceOnUse" gradientTransform="matrix(1 0 0 -1 0 -.017)"><stop offset="0" stop-color="#4b99a5"/><stop offset="1" stop-color="#93ded9"/></linearGradient><linearGradient id="A" x1="0" y1="0" x2="1" y2="0" gradientUnits="userSpaceOnUse" gradientTransform="matrix(1 0 0 -1 0 0)"><stop offset="0" stop-color="#e99c7b"/><stop offset=".99" stop-color="#ff4f77"/><stop offset="1" stop-color="#ff4f77"/></linearGradient><linearGradient id="B" x1="0" y1="0" x2="1" y2="0" gradientUnits="userSpaceOnUse" gradientTransform="matrix(1 0 0 -1 0 0)"><stop offset="0" stop-color="#4b99a5"/><stop offset="1" stop-color="#93ded9"/></linearGradient><linearGradient id="C" x1="0" y1="0" x2="1" y2="0" gradientUnits="userSpaceOnUse" gradientTransform="matrix(1 0 0 -1 0 0)"><stop offset="0" stop-color="#19bc9d"/><stop offset=".6" stop-color="#93ded9"/><stop offset="1" stop-color="#93ded9"/></linearGradient><linearGradient id="D" x1="0" y1="0" x2="1" y2="0" gradientUnits="userSpaceOnUse" gradientTransform="matrix(1 0 0 -1 0 0)"><stop offset="0" stop-color="#19bc9d"/><stop offset="1" stop-color="#93ded9"/></linearGradient><linearGradient id="E" x1="0" y1="0" x2="1" y2="0" gradientUnits="userSpaceOnUse" gradientTransform="matrix(1 0 0 -1 0 0)"><stop offset="0" stop-color="#eabfc6"/><stop offset=".2" stop-color="#eabfc6"/><stop offset=".84" stop-color="#ff7e61"/><stop offset="1" stop-color="#ff7e61"/></linearGradient><linearGradient id="F" x1="0" y1="0" x2="1" y2="0" gradientUnits="userSpaceOnUse" gradientTransform="matrix(1 0 0 -1 0 0)"><stop offset="0" stop-color="#eabfc6"/><stop offset=".2" stop-color="#eabfc6"/><stop offset=".84" stop-color="#ff7e61"/><stop offset="1" stop-color="#ff7e61"/></linearGradient><linearGradient id="G" x1="0" y1="0" x2="1" y2="0" gradientUnits="userSpaceOnUse" gradientTransform="matrix(1 0 0 -1 0 0)"><stop offset="0" stop-color="#130051"/><stop offset="1"/></linearGradient><linearGradient id="H" x1="0" y1="0" x2="1" y2="0" gradientUnits="userSpaceOnUse" gradientTransform="matrix(1 0 0 -1 0 0)"><stop offset="0" stop-color="#130051"/><stop offset="1"/></linearGradient><linearGradient id="I" x1="0" y1="0" x2="1" y2="0" gradientUnits="userSpaceOnUse" gradientTransform="matrix(1 0 0 -1 0 .004)"><stop offset="0" stop-color="#19bc9d"/><stop offset="1" stop-color="#93ded9"/></linearGradient><linearGradient id="J" x1="0" y1="0" x2="1" y2="0" gradientUnits="userSpaceOnUse" gradientTransform="matrix(1 0 0 -1 0 .034)"><stop offset="0" stop-color="#130051"/><stop offset="1"/></linearGradient><linearGradient id="K" x1="0" y1="0" x2="1" y2="0" gradientUnits="userSpaceOnUse" gradientTransform="matrix(1 0 0 -1 0 0)"><stop offset="0" stop-color="#e99c7b"/><stop offset=".99" stop-color="#ff4f77"/><stop offset="1" stop-color="#ff4f77"/></linearGradient><linearGradient id="L" x1="0" y1="0" x2="1" y2="0" gradientUnits="userSpaceOnUse" gradientTransform="matrix(1 0 0 -1 0 .004)"><stop offset="0" stop-color="#130051"/><stop offset="1"/></linearGradient><linearGradient id="M" x1="0" y1="0" x2="1" y2="0" gradientUnits="userSpaceOnUse" gradientTransform="matrix(1 0 0 -1 0 0)"><stop offset="0" stop-color="#130051"/><stop offset=".68" stop-color="#12004e"/><stop offset="1"/></linearGradient><linearGradient id="N" x1="0" y1="0" x2="1" y2="0" gradientUnits="userSpaceOnUse" gradientTransform="scale(1 -1) rotate(32.696 .455 0)"><stop offset="0" stop-color="#4b99a5"/><stop offset="1" stop-color="#93ded9"/></linearGradient><linearGradient id="O" x1="0" y1="0" x2="1" y2="0" gradientUnits="userSpaceOnUse" gradientTransform="scale(1 -1) rotate(22.79 .41 0)"><stop offset="0" stop-color="#4b99a5"/><stop offset="1" stop-color="#93ded9"/></linearGradient><linearGradient id="P" x1="0" y1="0" x2="1" y2="0" gradientUnits="userSpaceOnUse" gradientTransform="matrix(1 0 0 -1 0 0)"><stop offset="0" stop-color="#4b99a5"/><stop offset="1" stop-color="#93ded9"/></linearGradient><linearGradient id="Q" x1="0" y1="0" x2="1" y2="0" gradientUnits="userSpaceOnUse" gradientTransform="matrix(1 0 0 -1 0 .008)"><stop offset="0" stop-color="#ddede0"/><stop offset="1" stop-color="#93ded9"/></linearGradient><linearGradient id="R" x1="0" y1="0" x2="1" y2="0" gradientUnits="userSpaceOnUse" gradientTransform="matrix(1 0 0 -1 0 -.005)"><stop offset="0" stop-color="#e99c7b"/><stop offset=".45" stop-color="#ffffe2"/><stop offset="1" stop-color="#ffffe2"/></linearGradient><linearGradient id="S" x1="0" y1="0" x2="1" y2="0" gradientUnits="userSpaceOnUse" gradientTransform="matrix(1 0 0 -1 0 0)"><stop offset="0" stop-color="#e99c7b"/><stop offset=".99" stop-color="#ffffe2"/><stop offset="1" stop-color="#ffffe2"/></linearGradient><linearGradient id="T" x1="0" y1="0" x2="1" y2="0" gradientUnits="userSpaceOnUse" gradientTransform="matrix(1 0 0 -1 0 -.007)"><stop offset="0" stop-color="#130051"/><stop offset=".68" stop-color="#12004e"/><stop offset="1"/></linearGradient><linearGradient id="U" x1="0" y1="0" x2="1" y2="0" gradientUnits="userSpaceOnUse" gradientTransform="matrix(1 0 0 -1 0 .005)"><stop offset="0" stop-color="#4b99a5"/><stop offset="1" stop-color="#93ded9"/></linearGradient><linearGradient id="V" x1="0" y1="0" x2="1" y2="0" gradientUnits="userSpaceOnUse" gradientTransform="matrix(1 0 0 -1 0 0)"><stop offset="0" stop-color="#4b99a5"/><stop offset="1" stop-color="#93ded9"/></linearGradient><linearGradient id="W" x1="0" y1="0" x2="1" y2="0" gradientUnits="userSpaceOnUse" gradientTransform="matrix(1 0 0 -1 0 -.054)"><stop offset="0" stop-color="#130051"/><stop offset=".68" stop-color="#12004e"/><stop offset="1"/></linearGradient><linearGradient id="X" x1="0" y1="0" x2="1" y2="0" gradientUnits="userSpaceOnUse" gradientTransform="matrix(1 0 0 -1 0 -.03)"><stop offset="0" stop-color="#d7f7f2"/><stop offset=".27" stop-color="#d7f7f2"/><stop offset="1" stop-color="#ff4f3e"/></linearGradient><linearGradient id="Y" x1="0" y1="0" x2="1" y2="0" gradientUnits="userSpaceOnUse" gradientTransform="matrix(1 0 0 -1 0 .04)"><stop offset="0" stop-color="#ddede0"/><stop offset="1" stop-color="#93ded9"/></linearGradient><linearGradient id="Z" x1="0" y1="0" x2="1" y2="0" gradientUnits="userSpaceOnUse" gradientTransform="matrix(1 0 0 -1 0 .083)"><stop offset="0" stop-color="#e99c7b"/><stop offset=".65" stop-color="#ffffe2"/><stop offset="1" stop-color="#ffffe2"/></linearGradient><linearGradient id="aa" x1="0" y1="0" x2="1" y2="0" gradientUnits="userSpaceOnUse" gradientTransform="matrix(1 0 0 -1 0 -.003)"><stop offset="0" stop-color="#e99c7b"/><stop offset=".41" stop-color="#fe5240"/><stop offset=".99" stop-color="#ff4f3e"/><stop offset="1" stop-color="#ff4f3e"/></linearGradient><linearGradient id="ab" x1="0" y1="0" x2="1" y2="0" gradientUnits="userSpaceOnUse" gradientTransform="matrix(1 0 0 -1 0 .086)"><stop offset="0" stop-color="#e99c7b"/><stop offset=".99" stop-color="#ff4f3e"/><stop offset="1" stop-color="#ff4f3e"/></linearGradient><linearGradient id="ac" x1="0" y1="0" x2="1" y2="0" gradientUnits="userSpaceOnUse" gradientTransform="matrix(1 0 0 -1 0 0)"><stop offset="0" stop-color="#e99c7b"/><stop offset=".99" stop-color="#ff4f3e"/><stop offset="1" stop-color="#ff4f3e"/></linearGradient><linearGradient id="ad" x1="0" y1="0" x2="1" y2="0" gradientUnits="userSpaceOnUse" gradientTransform="scale(1 -1) rotate(.009 .491 0)"><stop offset="0" stop-color="#e99c7b"/><stop offset=".99" stop-color="#ff4f3e"/><stop offset="1" stop-color="#ff4f3e"/></linearGradient><linearGradient id="ae" x1="0" y1="0" x2="1" y2="0" gradientUnits="userSpaceOnUse" gradientTransform="matrix(1 0 0 -1 0 .013)"><stop offset="0" stop-color="#e99c7b"/><stop offset=".99" stop-color="#ff4f3e"/><stop offset="1" stop-color="#ff4f3e"/></linearGradient><linearGradient id="af" x1="0" y1="0" x2="1" y2="0" gradientUnits="userSpaceOnUse" gradientTransform="matrix(1 0 0 -1 0 .016)"><stop offset="0" stop-color="#130051"/><stop offset="1"/></linearGradient><linearGradient id="ag" x1="0" y1="0" x2="1" y2="0" gradientUnits="userSpaceOnUse" gradientTransform="matrix(1 0 0 -1 0 0)"><stop offset="0" stop-color="#130051"/><stop offset="1"/></linearGradient><linearGradient id="ah" x1="0" y1="0" x2="1" y2="0" gradientUnits="userSpaceOnUse" gradientTransform="matrix(1 0 0 -1 0 .011)"><stop offset="0" stop-color="#130051"/><stop offset="1"/></linearGradient><linearGradient id="ai" x1="0" y1="0" x2="1" y2="0" gradientUnits="userSpaceOnUse" gradientTransform="matrix(1 0 0 -1 0 0)"><stop offset="0" stop-color="#130051"/><stop offset="1"/></linearGradient><linearGradient id="aj" x1="0" y1="0" x2="1" y2="0" gradientUnits="userSpaceOnUse" gradientTransform="scale(1 -1) rotate(-16.609 .073 0)"><stop offset="0" stop-color="#130051"/><stop offset="1"/></linearGradient><linearGradient id="ak" x1="0" y1="0" x2="1" y2="0" gradientUnits="userSpaceOnUse" gradientTransform="scale(-1 1) rotate(-83.095 0 .564)"><stop offset="0" stop-color="#ddede0"/><stop offset="1" stop-color="#93ded9"/></linearGradient><linearGradient id="al" x1="0" y1="0" x2="1" y2="0" gradientUnits="userSpaceOnUse" gradientTransform="matrix(1 0 0 -1 0 .001)"><stop offset="0" stop-color="#e99c7b"/><stop offset=".99" stop-color="#ff4f3e"/><stop offset="1" stop-color="#ff4f3e"/></linearGradient><linearGradient id="am" x1="0" y1="0" x2="1" y2="0" gradientUnits="userSpaceOnUse" gradientTransform="scale(1 -1) rotate(53.28 .484 0)"><stop offset="0" stop-color="#dbe2b5"/><stop offset=".18" stop-color="#54c57f"/><stop offset="1" stop-color="#273136"/></linearGradient><linearGradient id="an" x1="0" y1="0" x2="1" y2="0" gradientUnits="userSpaceOnUse" gradientTransform="matrix(1 0 0 -1 0 -.028)"><stop offset="0" stop-color="#a4ddd4"/><stop offset=".16" stop-color="#54c57f"/><stop offset="1" stop-color="#273136"/></linearGradient><linearGradient id="ao" x1="0" y1="0" x2="1" y2="0" gradientUnits="userSpaceOnUse" gradientTransform="scale(1 -1) rotate(-83.029 .491 0)"><stop offset="0" stop-color="#dbe2b5"/><stop offset=".18" stop-color="#54c57f"/><stop offset="1" stop-color="#273136"/></linearGradient><linearGradient id="ap" x1="0" y1="0" x2="1" y2="0" gradientUnits="userSpaceOnUse" gradientTransform="matrix(1 0 0 -1 0 0)"><stop offset="0" stop-color="#e99c7b"/><stop offset=".99" stop-color="#ffffe2"/><stop offset="1" stop-color="#ffffe2"/></linearGradient><linearGradient id="aq" x1="0" y1="0" x2="1" y2="0" gradientUnits="userSpaceOnUse" gradientTransform="matrix(1 0 0 -1 0 -.029)"><stop offset="0" stop-color="#dbe2b5"/><stop offset=".19" stop-color="#dbe2b5"/><stop offset=".41" stop-color="#54c57f"/><stop offset=".76" stop-color="#51bc7a"/><stop offset="1" stop-color="#273136"/></linearGradient><linearGradient id="ar" x1="0" y1="0" x2="1" y2="0" gradientUnits="userSpaceOnUse" gradientTransform="matrix(1 0 0 -1 0 0)"><stop offset="0" stop-color="#dbe2b5"/><stop offset=".65" stop-color="#54c57f"/><stop offset="1" stop-color="#273136"/></linearGradient><linearGradient id="as" x1="0" y1="0" x2="1" y2="0" gradientUnits="userSpaceOnUse" gradientTransform="matrix(1 0 0 -1 0 .004)"><stop offset="0" stop-color="#dbe2b5"/><stop offset=".66" stop-color="#54c57f"/><stop offset="1" stop-color="#273136"/></linearGradient><linearGradient id="at" x1="0" y1="0" x2="1" y2="0" gradientUnits="userSpaceOnUse" gradientTransform="matrix(1 0 0 -1 0 0)"><stop offset="0" stop-color="#ddede0"/><stop offset="1" stop-color="#93ded9"/></linearGradient><linearGradient id="au" x1="0" y1="0" x2="1" y2="0" gradientUnits="userSpaceOnUse" gradientTransform="matrix(1 0 0 -1 0 .067)"><stop offset="0" stop-color="#e99c7b"/><stop offset=".99" stop-color="#ff4f3e"/><stop offset="1" stop-color="#ff4f3e"/></linearGradient><linearGradient id="av" x1="0" y1="0" x2="1" y2="0" gradientUnits="userSpaceOnUse" gradientTransform="matrix(1 0 0 -1 0 .062)"><stop offset="0" stop-color="#e99c7b"/><stop offset=".99" stop-color="#ff4f3e"/><stop offset="1" stop-color="#ff4f3e"/></linearGradient><linearGradient id="aw" x1="0" y1="0" x2="1" y2="0" gradientUnits="userSpaceOnUse" gradientTransform="matrix(1 0 0 -1 0 .03)"><stop offset="0" stop-color="#d7f7f2"/><stop offset=".27" stop-color="#d7f7f2"/><stop offset="1" stop-color="#ff4f3e"/></linearGradient><linearGradient id="ax" x1="0" y1="0" x2="1" y2="0" gradientUnits="userSpaceOnUse" gradientTransform="matrix(1 0 0 -1 0 .016)"><stop offset="0" stop-color="#ddede0"/><stop offset="1" stop-color="#93ded9"/></linearGradient><linearGradient id="ay" x1="0" y1="0" x2="1" y2="0" gradientUnits="userSpaceOnUse" gradientTransform="matrix(1 0 0 -1 0 0)"><stop offset="0" stop-color="#e99c7b"/><stop offset=".99" stop-color="#ffffe2"/><stop offset="1" stop-color="#ffffe2"/></linearGradient><linearGradient id="az" x1="0" y1="0" x2="1" y2="0" gradientUnits="userSpaceOnUse" gradientTransform="matrix(0 1 1 0 .379 -.379)"><stop offset="0" stop-color="#e99c7b"/><stop offset=".99" stop-color="#ffffe2"/><stop offset="1" stop-color="#ffffe2"/></linearGradient><linearGradient id="aA" x1="0" y1="0" x2="1" y2="0" gradientUnits="userSpaceOnUse" gradientTransform="matrix(1 0 0 -1 0 0)"><stop offset="0" stop-color="#e99c7b"/><stop offset=".99" stop-color="#ff4f3e"/><stop offset="1" stop-color="#ff4f3e"/></linearGradient><linearGradient id="aB" x1="0" y1="0" x2="1" y2="0" gradientUnits="userSpaceOnUse" gradientTransform="scale(-1 1) rotate(-51.9 0 1.028)"><stop offset="0" stop-color="#e99c7b"/><stop offset=".99" stop-color="#ff4f3e"/><stop offset="1" stop-color="#ff4f3e"/></linearGradient></defs></svg>