<svg viewBox="0 0 2500 1080" xmlns="http://www.w3.org/2000/svg" fill-rule="evenodd" clip-rule="evenodd" stroke-linejoin="round" stroke-miterlimit="2"><path fill="#edf1f9" d="M1216.8-23l1351.4-2 .5 1344.6-1351.3 2.1z"/><path fill="#00113b" d="M-2-1h1249v1079.4H-2z"/><path fill="#2c427c" d="M804.4 1094.6l587.3-331 228.5 405.3-587.3 331z"/><path fill="#5b71a6" d="M940.7 1014.6l371.7-218.3 240.8 410-371.7 218.3z"/><path fill="#26428a" d="M710.4 692.8l556.8 476.8L829 1681.2l-556.8-476.8z"/><path fill="#2c4c9e" d="M790 766.4l393.7 337.2-329.2 384.3-393.7-337.1z"/><path fill="#4866b1" d="M789.1-785.5l783 517-339 513.4L450-272z"/><path fill="#9db4f1" d="M687.2-836.1l783 517-339 513.4-783-517z"/><path fill="#4a5d8e" d="M2318-481.9l844.7-127L3515 1733.8l-844.7 127z"/><path fill="#406cdb" d="M2592.4 9.8l1126.3 322.6L3240 2003.8l-1126.3-322.6z"/><path fill="#a4b2d6" d="M2546-395.8l908.2 94.1L3270 1475.4l-908.2-94z"/></svg>