<svg viewBox="0 0 5946 6913" xmlns="http://www.w3.org/2000/svg" xml:space="preserve" fill-rule="evenodd" clip-rule="evenodd" stroke-miterlimit="10"><path d="M.5-.5c.1 0 .2.2.2.5S.7.5.5.5C.4.5.3.3.3 0s0-.5.2-.5Z" fill="url(#a)" fill-rule="nonzero" transform="scale(5933.02263) rotate(90 .1 .4)"/><path d="M.6.2h.1L1 0 .4-.2H.3L0 0l.6.2Z" fill="url(#b)" fill-rule="nonzero" transform="matrix(1489.24107 0 0 -1489.24107 2643.2 6581.4)"/><path d="M.5-.5c.1 0 .2.2.2.5S.7.5.5.5C.4.5.3.3.3 0c0-.2 0-.5.2-.5Z" fill="url(#c)" fill-rule="nonzero" transform="scale(-5753.80418 5753.80418) rotate(89.9 -.4 -.1)"/><path d="M.5.2 0 .1v-.3l.2.1a1.3 1.3 0 0 0 .6 0L1-.2V0C1 .2.8.3.5.3Z" fill="url(#d)" fill-rule="nonzero" transform="matrix(5747.06437 0 0 -5747.06437 5.2 2791)"/><path d="M3193.9 4250.8c-31 24.3-83.1 25.8-94.5 9.4-2.6-3.7-4.6-15.4-6-31-.1 3.4-1 83.6-18.7 102.6-1.4 1.6-4 3-7.5 4.4-41.5 16.5-220.6 23.3-258-5.5-40.6-31-19-188.5-19-188.5l-81.5 82s-9.5 23.6-66.8-26C2542 4111.6 2507 4108 2507 4108s-16.3-56.4-3.8-65.6a6.9 6.9 0 0 1 4-1.2c19.5.1 161 69 161 69l117.9-146s59.1-16.3 94-28.3c7.6-2.6 14.2-5 18.6-7.1 24.4-11.4 96 .4 96 .4l104.1 36.2 106.7 230.1s19.4 31-11.7 55.3Z" fill="none" stroke="#b76262" stroke-width="8.33333"/><path d="M3088.7 4079.3s-.4 97.4 4.6 149.8M2814.9 4117.4l-24.7 24.8M2994 3928.6s-71.6-11.4-96 0c-4.4 2-11 4.6-18.6 7.1l8.2-20.4s0-3.4 2.6-7c1.6-2.3 4.1-4.6 8.3-6.4 7.8-3.1 47.5-1.9 70.5-.8l16.4.8 8.7 26.7ZM2895.3 3873.9c-3.2 29.3-1.9 28.5-5.1 30.7" fill="none" stroke="#b76262" stroke-width="8.33333"/><path d="M3018.5 3723.3v57L2969 3877v24c-23-1-62.7-2.2-70.6 1-4 1.7-6.6 4-8.2 6.2 0 0-12.4-16-17.8-19.2-5.5-3.3-12-12-17.3-22-5.5-10-9.8-19.3-4.4-35.6s-2.3-21.8-5-37.6c-2.7-16 0-44.4 0-44.4 1.1.5 2.2 1.3 3.2 2.1l-8.6-9s-7.6-5.4-11.3-7.6c-3.8-2.1-20.5-8-20.5-8s-18.2-23.2-18.2-31.2c0-8.1 19.6-27.8 19.6-27.8 31.4-19.2 22 .4 55.4-11.3 27.7-9.9 114 11.3 114 11.3l39.2 55.4ZM2896.2 3877h72.8M2969 3902.2v-1.1" fill="none" stroke="#b76262" stroke-width="8.33333"/><path d="m2895.3 3873.9-13.1-36.5s12.4-13 20.5-16.3c8.2-3.3-9.7-19.6-15.1-42.4-5.4-22.8-17.4 15-17.4 15s-9.6-31.5-21-41.9l-.3-.3M2849.1 3751.8l-.2-.3M2507 4109.4s-33.1-12-36.4-12.7c-3.3-.7-17.4 0-17.4 0l-26-14.4s-16.3-27.2-15.3-34.8c0 0 9.8-8.7 13-13 3.4-4.4 8.8-14.2 8.8-14.2l-22.8-9.8s-12-5.4-15.2-5.4c-3.3 0-8.7-5.4-8.7-6.4v-12l77 14.1 39 43c-12.5 9.2 4 65.6 4 65.6ZM2503 4043.9h-.1" fill="none" stroke="#b76262" stroke-width="8.33333"/><path d="M2709.1 4429.9c23-43.7-32.2-112.7-78.2-78.2 34.5-87.4-119.6-188.7-154.1-92h-2.3c-20.7-71.4-154.1-32.2-158.7 36.8-30-27.6-80.6-20.7-110.5 6.9-13.8 11.5-13.8 32.2-23 41.4-11.5 11.5-30 9.2-46 20.7-69 50.6-18.4 191 66.7 147.2 20.7 66.7 101.2 85.1 163.3 69 16.2-4.6 13.9-16 30-16 6.9 2.3 27.6 18.4 36.8 20.6 27.6 11.5 59.8 18.5 87.4 7 11.5-7 20.7-20.8 30-25.3 18.3-7 23-2.4 41.3 0 32.2 0 62.1-4.7 89.7-16.2 27.6-13.8 48.3-32.2 55.3-62 2.3-13.9 2.3-59.9-25.4-55.3-9.2 2.3 0-2.3-2.3 7" fill="none" stroke="#c37bc5" stroke-width="8.33333"/><path d="M.3 0v-.2a.3.3 0 1 1 0 .1Z" fill="url(#e)" fill-rule="nonzero" transform="scale(5246.95096 -5246.95096) rotate(-48.3 -.1 -.3)"/><path d="M.2.2V0H0v-.2h.1V0c.1 0 .1 0 0 0v-.2c0-.1 0-.1.1 0H.7V0L.4 0H.2h.1v.1h.1v.1h.1L.3.4H.2V.2Z" fill="url(#f)" fill-rule="nonzero" transform="scale(3121.42014 -3121.42014) rotate(-56.2 -.2 -1.2)"/><path d="M.3 0Z" fill="url(#g)" fill-rule="nonzero" transform="scale(5246.95096 -5246.95096) rotate(-48.3 0 -.4)"/><path d="M.3 0Z" fill="url(#h)" fill-rule="nonzero" transform="scale(5247.03954 -5247.03954) rotate(-48.3 -.1 -.3)"/><path d="M.3 0Z" fill="url(#i)" fill-rule="nonzero" transform="scale(5246.7385 -5246.7385) rotate(-48.3 -.2 -.3)"/><path d="M.6 0v.1H0h.1l.1-.2h.2c.1 0 0 .1 0 .1h.1Z" fill="url(#j)" fill-rule="nonzero" transform="scale(-2483.8012 2483.8012) rotate(-61.2 1 1.6)"/><path d="M3340.8 4159s43-219.6-19.4-271c-62.3-51.4-73.5-81.5-109.8-249.3-36.4-167.8 6.6-258.1-105.3-305.5-111.8-47.3-139-109.7-251.2-64.5-112.3 45.2-153.5 46.6-198.3 30l-44.9-16.4s27.7 33.8 61.2 45.7c39.6 14 79 19.1 141.8 10 62.8-9.3 117.3-25.7 179.2-10 65 16.3 77.1 68.2 86.7 105.9 9.5 37.7 37.6 195.2 45 234.1 7.5 39 66.3 210.5 89 267.8 22.7 57.2 58.7 145.7 78 173.6 19.2 28 48 49.5 48 49.5" fill="#f3fdff"/><path d="M3500.6 2987.7s-26.7 61.6 0 96c26.6 34.4 45.3 60.2 49.6 64.5 4.3 4.3 25.8 41.6 60.2 87.5 34.4 45.9 43 83.1 86 63 43-20 66-40.3 81.8-37.2l15.8 3.2s-9.9-25-31.7-20.2c-21.8 4.9-18.5 10.6-71.2 13-38.4 1.8-55.8-39.7-88.8-88-33-48.4-79-121.8-79-121.8l-22.7-60Z" fill="#d7f6ff"/><path d="M4241.7 3360.4c-7-.2 0 0 11-4.5 25.8-10.6 38.2-84.8 45.2-115 7.4-31.7 7.6-58.5 45.3-106 38.3-48.3 63.7-54 77.6-52.7 14 1.2 35 31.4 50.8 55.6 15.6 24.2 15 86.9 15.6 120.2 1.2 57.3 14.5 58 14.5 58s-1.6-36.5 2.2-67.7c3.9-31.2 50.1-96.9 21-140.9-29-44-86-90.3-106.4-90.3-20.5 0-60.3 34.7-77.5 65.9-17.2 31.2-62.3 102.1-61.3 153.4 1.1 53.4-32.3 105.6-51.4 123.8M3255.4 2719.4s50.4 38.8 136 13.7c73.4-21.6 97.3-28.3 117.5-17.7 19 9.9 3.3 65.2-17.2 105.4-20.3 39.5-79.4 84.1-137.5 58-58-26-101.7-49.8-134-60.2-32.4-10.4-72-17.8-72-17.8s81.8 58 118.3 84.9c36.6 26.8 53.8 45.7 99 44.9 45.2-.9 93.6-35.3 120-61 26.3-25.9 67.1-82.6 60.7-117.7-6.5-35.1 43-83.3-13-109.8-55.9-26.4-58-46.6-139.7 0M3166.5 2326.8s22.5-32.8 30-54.6c7.5-21.9 7.7-38.2 17.5-40.7 10-2.5 17.2 3.2 37.2 11.7 20 8.6 42.2 15.6 45.7 24.4 3.5 8.9 6.2 21.3-8.9 41a423 423 0 0 1-46 52.3c-12.8 11.2-64 43.4-64 43.4s75.4 5.4 95.4-10.4c20.1-15.7 66-78.9 64.5-101.8-1.4-23-25.8-67.8-58.7-69.8-33-1.9-70.3-23.4-91.8 24-21.5 47.3-23 54.4-60.3 81.7-37.2 27.2-53 30-57.3 28.7-4.3-1.5 7.4 11 7.4 11s49.4-10.3 61.4-18.2c12-8 27.9-22.7 27.9-22.7" fill="#f3fdff"/><path d="M2803 2140.5s-39 60.2-90 57.5c-51-2.7-89.1-12.7-120.7-6-31.7 6.9-67 48-119.4 114-56.5 71.4-102.2 86.5-124.9 76-22.6-10.4-61.2-41.6-61.2-41.6s95.1 9.8 131.7-39.7c36.6-49.5 38.7-97.7 92.5-123 53.8-25.4 124.8-18.2 167.8-20.7 43-2.6 58 19 90.3-43.4s49.5-84 49.5-84l-15.5 110.9Z" fill="#f3fdff" fill-rule="nonzero"/><path d="M1459.1 3342c0 874.5 709 1583.4 1583.4 1583.4 874.4 0 1583.3-708.9 1583.3-1583.3 0-874.5-708.9-1583.4-1583.3-1583.4-522.5 0-985.9 253.1-1274.3 643.4a1577.7 1577.7 0 0 0-309 940Z" fill="none" stroke="#a3d3cd" stroke-width="8.33333"/><path d="M.6 0 .5.2.3.4V.2L.1.1v-.4h.3V0Z" fill="url(#k)" fill-rule="nonzero" transform="scale(-1165.70974 1165.70974) rotate(-48 3 6)"/><path d="M4632.5 3351.6c0-350.7-114.6-674.7-308.5-936.8a1922.6 1922.6 0 0 1-34 299.6c-86.4 1050.9-489.2 1903.3-1019.6 2201.3 769.7-107.3 1362.1-766.6 1362.1-1564" fill="#0e7a72" fill-rule="nonzero" opacity=".2"/><path d="M2917.7 3328.7s29.2-34.1 85-.8c55.6 33.3 57.7-1.8 94.6 201.8 37 203.6 93.8 323.1 113 372.5 19.4 49.4 34.5 120.8 44 141.6 9.6 20.9-134.9-256.2-154.7-337.8-19.8-81.7-22.5-94.5-81.1-173.8-45.5-61.6-17.6-111.5-71.4-171.8-53.4-59.9-29.4-31.7-29.4-31.7M3616.5 3807s-45 5-83 33.7c-38.2 28.6-79.5 80.5-95.2 125-15.8 44.4-25.8 116.1-41.6 137.6s67.4-42.5 96-116.6c28.7-74.1 65-125.7 94.2-145.8 29.2-20 55-34 55-34h-25.4ZM3896.8 3059c48.4-20.5 136.6 6.4 161.3 18.8 24.8 12.4 63.5 17.2 82.9 63.7 19.3 46.5 21.5 92.7 28.5 111.6 7 18.8-10.3-90.9-10.3-90.9s-1.1-59.2-48.4-84.4a824.2 824.2 0 0 0-126.9-52.2c-18.2-5.4-62.4-22.6-81.7-10.7-19.4 11.8-33.3 35.5-38.7 49.4" fill="#057771" fill-rule="nonzero"/><path d="M2766.6 2177.6s-31 32.8-74 21.3c-43-11.5-82.8-47.3-124.5-6.4-41.8 40.8-118.4 151.9-161.9 172.3-43.4 20.5 102.2 17.7 125.8-42.6 23.7-60.2 37.2-105.1 80-99.9 42.6 5.3 76 35 109.3 0s45.3-44.7 45.3-44.7M1877 3219.5s70.1 12 100.1 96.6c30 84.5 20.7 96.2 107.7 138 87 41.7 132 57.8 180.8 110.9 45.2 49.2 45.3 155.1-37.2 273.6-90.8 130.4-123.8 183.8-123.8 183.8S2402 4040.7 2447 3900c45-140.8 47.8-353-75.5-433.3-123.3-80.3-132 43.5-249.5-124.5-117.6-168-54.5-177-186.5-175.4-131.9 1.6-154.9 1-163.5-.2-8.6-1-58.3 11.9-60.2 22.3-1.9 10.4 3 3 16.9 0 13.9-3.1 148.4 30.7 148.4 30.7" fill="#057771"/><path d="M4597 3353.3s-98.3-19.6-106.3-53c-8-33.5 11.3-126.5-12.4-162.8-23.7-36.4-31.9-63.1-60-59.4-28.2 3.7-82.7 16.4-96.3 63.8-13.6 47.4-43.3 193-62.6 203-19.4 10-69 7.2-66 0 3.1-7.2 72 55.9 104.2 11.5 32.3-44.5 14.8-169.6 51.9-171.7 37-2.2 29.4-34 90.1 26.2 52 51.7-30.1 132 30.1 206.9 60.2 74.8 77.4 62 96.8 128.6 19.4 66.7 27.9 87.4 27.9 87.4s9.4-32.5 17.9-112.9c8.4-80.4 6.7-125.6 6.7-125.6l1.8-39.5" fill="#057771" fill-rule="nonzero"/><path d="M2818.6 2705.4s91.2-97.6 150.4-88.4c59.2 9.3 182.8-31 220.1-2.8 37.4 28.2 43 95.2 80.1 113.8 37.2 18.7 114.6 3.3 166.2-6.8 51.7-10 31.1-8.4 62.4-10.7 23-1.7 26.5 0 15 56.5a170.2 170.2 0 0 1-56.2 94.9s27.6-34-15.4-58.8c-43-24.8-40.2 10-126.2-17.5-86-27.4-98.3-49.7-166.7-80.2-68.5-30.4-100.8-46.6-179.3-29.9-78.5 16.7-115.8 28-138.7 39.5-23 11.6-11.7-9.6-11.7-9.6" fill="#057771"/><path d="M3642 3566.6c21.5-48 96.8-128.3 126.9-174.4 30-46 75-88.5 47.3-112.7l-27.7-24.3s36.8 14.2-40.9 105.2c-77.7 91.1-116.7 152.2-131.9 195.3-15.2 43.2-21.5 69.3 7.4 116.3M3469.9 4461.8s0 209.4-8.6 252.4-94.4 186-111.2 185c-16.7-1-55 9-95.2 13.6-40.3 4.8 146.2-181.8 157.6-289.2 11.5-107.3 3-87.2 37.3-147.4 34.4-60.3 20.1-14.4 20.1-14.4" fill="#057771" fill-rule="nonzero"/><path d="M.5-.2v.5L.3.2V0L.2-.2v-.1h.2v.1Z" fill="url(#l)" fill-rule="nonzero" transform="scale(-1324.46287 1324.46287) rotate(-76 1.4 3.3)"/><path d="M4324 2373.6C4283 3566.8 3220.3 4381.9 1876 4406c289.6 324.4 708 528.1 1173.3 528.1 874.4 0 1583.3-719.6 1583.3-1607.3 0-357-114.6-686.6-308.5-953.3" fill="#148479" fill-rule="nonzero" opacity=".1"/><path d="M0 .2V0c0-.1.2-.2.5-.2S1-.2 1 0v.2H0Z" fill="url(#m)" fill-rule="nonzero" transform="matrix(2626.02395 0 0 -2626.02395 1754 2362.9)"/><path d="m.5-.1.4.3a17.2 17.2 0 0 1-.5 0A18.4 18.4 0 0 1 0-.4a138.7 138.7 0 0 1 .5.2Z" fill="url(#n)" fill-rule="nonzero" transform="scale(-3673.22333 3673.22333) rotate(-30 .7 2.6)"/><path d="M1 0H0h1Z" fill="url(#o)" fill-rule="nonzero" transform="matrix(3706.61518 0 0 -3706.61518 1164.8 2050.5)" opacity=".5"/><path d="M.8 0H0h1-.2Z" fill="url(#p)" fill-rule="nonzero" transform="scale(-866.45593 866.45593) rotate(-89.1 .9 2.3)"/><path d="M2755 4428.7c29-54.9-40.4-141.5-98-98.2 43.2-109.6-150.1-236.6-193.4-115.4h-2.9c-26-89.5-193.4-40.4-199.1 46.2-37.6-34.6-101-26-138.6 8.6-17.3 14.5-17.3 40.4-28.8 52-14.5 14.4-37.5 11.5-57.7 26-86.6 63.5-149.5 258.3 83.6 184.7 26 83.6 127 106.7 205 86.5 20.2-5.7 17.3-20.2 37.5-20.2 8.6 3 34.6 23.1 46.1 26 34.7 14.4 75 23.1 109.7 8.7 14.5-8.7 26-26 37.5-31.8 23.1-8.6 28.9-2.9 52 0 40.4 0 75-21.7 112.5-20.2 37.2 1.5 86.3-18.6 95-56 2.9-17.4-22.8-97-57.5-91.2-11.5 3 0-2.8-2.8 8.7" fill="#cbeaf4" fill-rule="nonzero"/><path d="M2758.6 4392.5c28.6-49.2-40-127-97.2-88 42.8-98.5-148.7-212.5-191.6-103.7h-2.8c-25.8-80.3-191.6-36.3-197.3 41.4-37.2-31-100-23.3-137.2 7.8-17.2 13-17.2 36.3-28.6 46.6-14.3 13-37.2 10.4-57.2 23.4-85.7 57-148 231.8 83 165.8 25.6 75.1 125.7 95.8 203 77.7 20-5.2 17-18.1 37-18.1 8.6 2.5 34.4 20.7 45.8 23.3 34.3 13 74.3 20.7 108.6 7.7 14.3-7.7 25.8-23.3 37.2-28.5 22.9-7.7 28.6-2.5 51.5 0 40 0 74.3-19.4 111.5-18 36.8 1.2 74.2-21.7 82.8-55.3 2.9-15.6-11.3-82-45.7-77-11.4 2.7 0-2.5-2.8 7.9" fill="#f0fafc" fill-rule="nonzero"/><path d="M4027.6 4188.5c18-34.1-25.2-88-61.2-61.1 27-68.3-93.5-147.4-120.5-72h-1.7c-16.2-55.6-120.5-25-124 28.9-23.5-21.6-63-16.2-86.4 5.3-10.8 9-10.8 25.2-18 32.4-9 9-23.3 7.2-36 16.2-53.9 39.6-93 161 52.2 115 16.2 52.2 79.1 66.6 127.7 54 12.5-3.6 10.7-12.6 23.3-12.6 5.4 1.8 21.6 14.4 28.8 16.2 21.6 9 46.7 14.4 68.3 5.4 9-5.4 16.2-16.2 23.4-19.8 14.4-5.4 18-1.8 32.4 0 25.1 0 46.7-13.5 70-12.6 23.2 1 53.8-11.6 59.2-35 1.8-10.7-14.2-60.3-35.8-56.7-7.1 1.8 0-1.8-1.7 5.4" fill="#b3def4" fill-rule="nonzero"/><path d="M4029.7 4166c17.9-30.7-24.9-79-60.5-54.9 26.7-61.3-92.6-132.3-119.3-64.5h-1.8c-16-50-119.3-22.6-123 25.8-23-19.4-62.2-14.5-85.4 4.8-10.7 8.1-10.7 22.6-17.8 29-9 8.2-23.2 6.5-35.6 14.6-53.5 35.5-92.3 144.5 51.6 103.3 16 46.8 78.4 59.7 126.5 48.4 12.4-3.2 10.7-11.3 23.1-11.3 5.4 1.6 21.4 13 28.5 14.6 21.4 8 46.3 12.9 67.7 4.8 8.9-4.8 16-14.5 23.2-17.8 14.2-4.8 17.8-1.6 32 0 25 0 46.3-12.1 69.5-11.3 22.9.9 46.3-13.4 51.6-34.4 1.8-9.7-7-51-28.5-47.9-7.1 1.6 0-1.6-1.8 4.9" fill="#f0fafc" fill-rule="nonzero"/><path d="M.5-.5v1-1Z" fill="url(#q)" fill-rule="nonzero" transform="scale(-1209.01135 1209.01135) rotate(83.6 -3.6 1.4)"/><path d="m0 .1 1-.4v.6L0 .1Z" fill="url(#r)" fill-rule="nonzero" transform="scale(117.156 -117.156) rotate(-3.5 -892.5 -225.3)"/><path d="M0 0c.1-1 .3-1.5.6-1.5.2 0 .5.7.4 1.5C.9 1 .6 1.5.3 1.5.1 1.5 0 .7 0-.1Z" fill="url(#s)" fill-rule="nonzero" transform="scale(28.22782 -28.22782) rotate(-13.1 -972.7 -533.4)"/><path d="M-.1-.2h.5l.3.4H.2l-.3-.4Z" fill="url(#t)" fill-rule="nonzero" transform="scale(1706.81793 -1706.81793) rotate(-26.8 -6.7 -4.9)"/><path d="M0 0H1V0H-.2v-.2Z" fill="url(#u)" fill-rule="nonzero" transform="scale(823.59135 -823.59135) rotate(-26.5 -14.7 -9.6)"/><path d="m2686.1 6544.5 6.5-168.8 703-243.7-124.8-59.2-699.2 244 1 174" fill="#057771" fill-rule="nonzero"/><path d="M3732.6 6294.2v180l-702.4 243.1s-60-79.8 0-176.9" fill="#f0fafc" fill-rule="nonzero"/><path d="M0-.2h.6l.4.4H.4L0-.2Z" fill="url(#v)" fill-rule="nonzero" transform="scale(1526.02723 -1526.02723) rotate(-26.8 -7 -5)"/><path d="M0 0H1V0H-.2v-.2Z" fill="url(#w)" fill-rule="nonzero" transform="scale(823.59955 -823.59955) rotate(-26.5 -14 -9.5)"/><path d="m2700.1 6301.3 6.5-168.8 703-243.6-117.8-56-706.2 240.8 1 174M3746.6 6051v180l-702.4 243.2s-60-79.9 0-177" fill="#f9e1c0" fill-rule="nonzero"/><path d="M0-.2h.6l.4.4H.4L0-.2Z" fill="url(#x)" fill-rule="nonzero" transform="scale(1526.0131 -1526.0131) rotate(-26.8 -6.7 -5)"/><path d="M0 0H1V0H-.2v-.2Z" fill="url(#y)" fill-rule="nonzero" transform="scale(823.59993 -823.59993) rotate(-26.5 -13.5 -9.4)"/><path d="m2572 5999 9-168.9 698-241.8-127.1-61-691.9 244 1 174" fill="#057771" fill-rule="nonzero"/><path d="M3760.6 5819.5v180l-702.3 243.1s-60-79.8 0-176.8" fill="#f0fafc" fill-rule="nonzero"/><path d="M.8-.4H1V0C.9.2 1 .2 1 .2H.7L0 .4V0c0-.2.1 0 .4-.2a2.4 2.4 0 0 1 .4-.2Z" fill="url(#z)" fill-rule="nonzero" transform="matrix(-206.66408 0 0 206.66408 3901 825.8)"/><path d="m.2.2.4.1v-.8h.3v.3c.2.4 0 .7 0 .7H0L.2.3Z" fill="url(#A)" fill-rule="nonzero" transform="matrix(116.27329 0 0 -116.27329 2236.6 782.6)"/><path d="M0 0h.4L.8 0 1 0 0 0Z" fill="url(#B)" fill-rule="nonzero" transform="matrix(110.17996 0 0 -110.17996 3700.6 743.2)"/><path d="M2511.7 1659.3s3.5 33.3 3.8 60.4c.4 35.4-50.2 38.6-67.6 28.2-11.4-6.8-14-7.7-14.8-15.2-1.4-13.9-11.2-75.8-11.2-75.8s37 11.4 52.9 9.4c15.8-2 37-7 37-7M2667.1 962.8l89 32.7s12 28.3 0 42.7c-12 14.4-32.4 15.2-53.9 12.7-21.5-2.4-53.2-24.5-53.2-24.5l18.1-63.6Z" fill="#f9e4cf" fill-rule="nonzero"/><path d="M.4.2.3.5H0S.1.3 0 .2v-.4l.4-.2H1v.1L.8 0 .8.2.6.4H.4V.3ZM0 .4Z" fill="url(#C)" fill-rule="nonzero" transform="matrix(493.35147 0 0 -493.35147 1771.8 566.3)"/><path d="M.9.3H1 .9Zm0 0L.5.1 0 0l.1-.2c.1-.1 0-.2 0-.2L1 0v.3Z" fill="url(#D)" fill-rule="nonzero" transform="matrix(235.3399 0 0 -235.3399 1875 847.3)"/><path d="M1891 216.4s-25.7 84-34.4 96.6c-8.6 12.6-15.6 10.3-15.4 16.6.3 6.1 49 23 73.3 52.7 24.2 29.6 54.3 68.2 55.2 73.2 1 5 9.8-22.4 9.8-22.4l-6-93.8v-17.7l-.7-10.7s-10.6-6.3-15.8-34.5c-5.2-28.3-11-34.6-7.5-64.5 3.4-30 12.5-15.2 14.6-49 2.1-33.7-14.6-59.5-14.6-59.5s-10.8 17.8-20.6 22.5c-9.8 4.7-20.3 1.2-21.7 17.2-1.4 16-5.3 41.3-10.7 56.1-5.3 14.9 4.6 22.8-1 22.8s-4.4-5.6-4.4-5.6" fill="#f9e4cf" fill-rule="nonzero"/><path d="M2102.4 70s15.2 42.9 13.7 60.4c-1.5 17.6-10.3 92-11.7 96.9-1.3 5-2 2.1-27.3 7-25.2 5-19 12.7-49.1 15.5-30.2 2.8-43.5 27.4-49.2 0-5.6-27.4-20.3-66-11.2-104.6 9.1-38.6-1-52 5.8-59.7 6.8-7.7 10.6-19.3 30.7-7.7 20.1 11.6 37.2 5.6 57.6 5.6s20.4-7.6 28.8-9c8.4-1.6 11.9-4.3 11.9-4.3" fill="#f9e4cf" fill-rule="nonzero"/><path d="M0-1.3h.1L1 1.2l-.3.1L0-1.3Z" fill="url(#E)" fill-rule="nonzero" transform="matrix(240.54324 0 0 -240.54324 1611.2 1487.6)"/><path d="M0-2.3h.2L1 2.2H.5L0-2.2Z" fill="url(#F)" fill-rule="nonzero" transform="matrix(129.01995 0 0 -129.01995 1871.4 1507.6)"/><path d="M2096.4 1.8s22.8 6.8-73.9 9.5C1926 14 1905 12.6 1887.1 50c-37.8 79.3-14.2 131.4-9 150.2 5.5 19.1 15 35 27 8.8 11.8-26.2-13.5-67.8 14-78.5 27.6-10.8 32.1-32.2 36.6 4s-12 64.3-4.5 110c7.5 45.5 12.6 64.5 21.6 66.3 9.1 1.7 83.6 38.6 103 30.2 19.4-8.4 44-57.7 39.5-88.6-4.5-30.8-13.6-31-47.9-25.1-34.3 5.9-69 38.8-83.8 10-15-29 .4-143 5-149.7 4.4-6.7 89.4 17.4 113.2-8 23.9-25.5 30.9-51 14-68.4-17-17.4-19.4-9.5-19.4-9.5" fill="#2d2d2d" fill-rule="nonzero"/><path d="m0 .1 1-.3-1 .4Z" fill="url(#G)" fill-rule="nonzero" transform="matrix(199.58409 0 0 -199.58409 2076.3 702)"/><path d="M.3.1H0L0-.2h1L.9 0H.7a2 2 0 0 0-.4.2Z" fill="url(#H)" fill-rule="nonzero" transform="matrix(346.25653 0 0 -346.25653 2417.7 1751)"/><path d="M2125 659.2s6.6-72.8-11.9-119.7c-18.4-46.7-24-71.1-24-71.1l20.1 197 15.8-6.2Z" fill="#19bc9d" fill-rule="nonzero"/><path d="M.2.2V0L.4 0h.2c0-.1 0-.1 0 0l.2.2H.7L.6 0 .4.1.3.2Zm0 0Z" fill="url(#I)" fill-rule="nonzero" transform="scale(841.1197 -841.1197) rotate(-58.2 .6 -1.8)"/><path d="M1797.6 377.7s17.4 50.4 13.2 84.9c-4.2 34.4-20.6 92.6-13.2 119.3 7.5 26.7-.1 98-1.2 113.8-1 15-7 12.4-4 16.6 3.7 5.4 93.8 30.3 115.5 33.8 21.8 3.5 82.5 5.2 85.1 5.2 2.6 0-47.1-13-71.7-17.2-19.4-3.4-70-13.7-97.3-23.3-19-6.7-1.2-81.8-5-105.7-4-23.9-12.3-79.3-4.8-111 7.5-31.6 10.4-63.7 0-89.4-9.4-23-16.6-27-16.6-27" fill="#19bc9d" fill-rule="nonzero"/><path d="m2425.3 1666 9.3 59.8 17.7 1.5-5.7-58.3-21.3-3ZM2738.8 986.9s10.3 30.1-4.6 43.2c-15 13.1-50.3 14.4-50.3 14.4l49 13.3s33.4-22.6 29.9-39-5.7-23.6-15.8-25.4c-10-1.8-8.2-6.5-8.2-6.5" fill="#e8c4a6" fill-rule="nonzero"/><path d="M.3.2H0l.6-.5H1V0L.8.2.3.3H.2s.1 0 0 0Z" fill="url(#J)" fill-rule="nonzero" transform="matrix(266.65406 0 0 -266.65406 2677.9 1084.2)"/><path d="M2183.2 679.6s51.4 10.7 51.4 19.1c0 8.4-4.3 14-12.7 12-8.4-2.2-59.7-10.6-59.7-10.6l-7 4.2 48.5 16-5.9 14.4-23.6 25s-64.6 5-73.8 7.1c-9 2.1-93.7 44.7-93.7 44.7l-5-51.2 74.2-69.5 47-18 64.6 7.3" fill="#f9e4cf" fill-rule="nonzero"/><path d="M0 .7.2.1s0-.2.2-.2h.5L.4.3v.1H0v.4H0ZM.2.3ZM.8 0 1-.8v.1L.8 0Z" fill="url(#K)" fill-rule="nonzero" transform="matrix(878.45798 0 0 -878.45798 1538 1109.1)"/><path d="M0 .4C.1.2.4.3.4.3L.7.2v-.8h.1l.2 1H.2L0 .4Z" fill="url(#L)" fill-rule="nonzero" transform="matrix(680.9339 0 0 -680.9339 1963.6 1341.2)"/><path d="M.3.2 0 0v-.2h.4A48.9 48.9 0 0 1 1 0L.4.3H.3Z" fill="url(#M)" fill-rule="nonzero" transform="matrix(760.10136 0 0 -760.10136 1917.6 964.3)"/><path d="M1841.2 328s52 29.6 65 42.7c13 13 60.7 78.3 65 86.7 4.3 8.4-100.2-74.2-100.2-74.2l-50.6-30.6-11.1-16.1 11.3-3.7c1.7-.7 20.6-4.8 20.6-4.8" fill="#fff" fill-rule="nonzero"/><path d="M1967.6 451.3v-2.8l5.4-122.6 25.6 8v55.8l-26.8 68.3-4.2-6.7Z" fill="#fff" fill-rule="nonzero"/><path d="m2310.7 745.2-116.6 19.1-116.6 12.5.2 85.8s13.4-4.3 31-12c23.3-10 53.7-24.5 67.4-29.6 10.8-4 46.7 3.6 78.7 10.6l54 12" fill="#2d2d2d" fill-rule="nonzero"/><path d="M4003.6 883.7s-2.5 3.4-6.3 2c-3.8-1.2-6.1-5.1-5.3-6.6" fill="#f9e4cf" fill-rule="nonzero"/><path d="M0 0h1-1Z" fill="url(#N)" fill-rule="nonzero" transform="scale(614.98053 -614.98053) rotate(-70.3 2 -5.8)"/><path d="M-.3 0h1.4L-.3.1V0Z" fill="url(#O)" fill-rule="nonzero" transform="scale(431.97245 -431.97245) rotate(-80 2.8 -7)"/><path d="m0-.3.3.6H.2L0-.3Z" fill="url(#P)" fill-rule="nonzero" transform="matrix(903.07464 0 0 -903.07464 3492.8 1528.1)"/><path d="M.9.4V0H.5v-.1L0-.3v-.1h.5c.2 0 .2.1.2.2l.2.6H.9Zm0-.4Z" fill="url(#Q)" fill-rule="nonzero" transform="matrix(903.05797 0 0 -903.05797 3492.8 858.3)"/><path d="M3344.2 1325.7s-88.8 146.7-79.8 154.5c9 7.7 76.4-19.6 91.7-36.9 11.8-13.5 39.3-87.2 39.3-87.2l-51.2-30.4Z" fill="#f9e4cf" fill-rule="nonzero"/><path d="m3356 1443.5 19.5 43a25.6 25.6 0 0 1-15.4 34.8l-194.2 63.4c-30.9 10.1-48.4-35.7-18.2-47.8l4.8-1.7c53.7-18 101.7-69.1 111.9-77.3" fill="#022046" fill-rule="nonzero"/><path d="M3955.8 255.4c-6.4 12.9-.7-2.2-13.8 21.5l-8.8 10.6s35.8 85 32.5 94c-3.4 9 10.3 2 14.3 5.6" fill="none" stroke="#b71d1d" stroke-width="8.33333"/><path d="M4143.6 573c42.5 22 125.3 63 107.4 74-9.3 5.9-168.4 155-154.3 168.2 29 27.3 290.7-123.4 308.6-165.9 18-42.5-138.7-136.4-253.7-241.5-115-105.2-164.1-44-173-3.8-9 40.3-52 57.4-81 46.3-29-11.2-13.4-42.5-13.4-42.5l-24.7-55.3s4.5 12.8-33.5 19.5c-38 6.7-47-29-62.6-76-15.7-47-26.8 0-17.9-60.5 0 0 7.8-81.6 7.8-86 0-4.5 54.8 62.6 99.6 60.3 44.7-2.2 35.6-13.4 67 5.6 0 0 2.2-4.5 0 21.3-2.2 25.7 13.6-26.4 37-5.6m-146.5 445-123-93.9s-44.8 40.3-47 51.5c-2.3 11.2 183.4 174.6 211 181.5 24.4 6.2 39.5 26.5 35-13.8l-4.5-40.2s31.4 52.8 24.6 100.2c-6.6 47.4-3 30.9-3 30.9s35.6-15.6 44.5-15.6M4123.5 758c9.7-20.8 0-185 0-185l28.1 4.2" fill="#f9e4cf" fill-rule="nonzero"/><path d="M4181.6 445.6s9.1 7.8 59.3 48.6c46.9 38.2 41.1 52.3 84.7.8 43.7-51.4-25.7-2.2-44.7-90.8-19-88.6-20.1-25.5-108.5-76.6-88.3-51.2-32.4-13.7-55.9-134.5s-57-66-119.7-76.9c-62.6-10.8-53.6-27.1-146.5-42.8-92.8-15.6-97.7 82.8-97.7 82.8s27.7 34.2 51.1 47c23.5 12.9 71 20 89 19.1 17.9-.9 24.3 5.8 24.3 5.8l2.6 19.8s16-15.6 26.6-10.6c10.5 5-2 43.9-2.8 45.3l-10.2 16.2 27.3 70.8 16.1 23.6-2.5 5.1s30.9-36.9 49.2-38.2c18.3-1.3 73.2 17.5 73.2 17.5l85 68Z" fill="#2d2d2d" fill-rule="nonzero"/><path d="m3682.6 1468.4 146.1 175.2s4-65.2-13.4-94.7l-73-130.1-59.7 49.6Z" fill="#f9e4cf" fill-rule="nonzero"/><path d="m3815.3 1549 45.7-19a22.1 22.1 0 0 1 30 15.6l51 231.3c3.4 15.3-10 30.1-25.2 26.6-3.7-.9-7-2.7-9.6-6-11.4-15-36.7-65.6-56.1-100-19.4-34.2-8.5-37.3-22.4-54" fill="#022046" fill-rule="nonzero"/><path d="m3687 590.1-33.2-76a7.6 7.6 0 0 0-2.4-3l-14-10.4a7.5 7.5 0 0 0-4.5-1.5h-16.7a7.5 7.5 0 0 0-1.2 15l10.6 1.7c2.6.5 4.7 2.2 5.7 4.7l7 17.7c2 5-1.8 10.4-7.2 10.3l-3.8-.1c-1 0-1.9-.2-2.8-.6l-27.9-11.8a7.5 7.5 0 0 1-3.6-3.2l-17-30.4a7.5 7.5 0 0 0-5.7-3.7l-9.3-1.2a7.5 7.5 0 0 0-8.4 8.1l4 44.7c.1 1.5.7 3 1.7 4l22.6 27.7.4.4L3615 617c.5.6 1.2 1 2 1.5l30.4 15.2" fill="#f9e4cf" fill-rule="nonzero"/><path d="M.4 0h.2v-.3h.2V.3H.6L.2 0 .3 0Z" fill="url(#R)" fill-rule="nonzero" transform="scale(615.91723 -615.91723) rotate(-54.5 2.7 -6.6)"/><path d="M.2.5V.4L.4.1C.3 0 .2.1.2.1v-.3l.4-.2-.3-.1v-.2l.7.3H1l.1.2v.3H1L.8.6H.3Zm.6-.7h.1-.1Z" fill="url(#S)" fill-rule="nonzero" transform="scale(467.38223 -467.38223) rotate(-63.8 3.4 -6.9)"/><path d="m3977 392.3-46 55.8 56.7-10.3M3877.4 393.3l28.5 56.4-36.5-2.3" fill="#fff" fill-rule="nonzero"/><path d="M4124.6 493.9s-.2 269 7.4 233.7c6.7-31.1 19.5-150.1 19.5-150.1l-26.9-83.6ZM3896.5 793.3s-3.9-65.4-19.3-77.4c-15.5-12-26-17.5-26-17.5s36 77 41.4 89.1c6.6 14.8 3.9 5.8 3.9 5.8" fill="#f2ddc7" fill-rule="nonzero"/><path d="M.8-.2.6.5V.3L.1-.1 0-.2v-.2h.4l.2.2Z" fill="url(#T)" fill-rule="nonzero" transform="scale(-795.16613 795.16613) rotate(-32.8 .3 9.2)"/><path d="m4125 860.9-13.8 16.3-44.9 55.4a17.6 17.6 0 0 1-13.7 6.6h-19.4c-5.8 0-11.2-2.9-14.5-7.6l-4.9-7c-4.2-6-4.1-14 0-20.1l9.7-13.9.8-1.2 22.7-39.5-11 2.1c-3.9.8-7.4 2.8-10 5.8l-14.1 16.4c-5 5.7-13 7.6-19.9 4.9 0 0 19.9-35.5 19.9-39.6 0-3.2 14.6-12 21.3-16 2.1-1.2 4.5-2 7-2.2l49.1-5.1c5.7-.6 11.3 1.6 15 5.9 10.4 11.8 30.1 33.3 30.1 33.3" fill="#f9e4cf" fill-rule="nonzero"/><path d="M.5.1V0h.2L.5.2Z" fill="url(#U)" fill-rule="nonzero" transform="scale(-815.77316 815.77316) rotate(-62.5 -1.6 5.1)"/><path d="M.4.1v-.2.2Z" fill="url(#V)" fill-rule="nonzero" transform="scale(-815.63786 815.63786) rotate(-62.5 -1.5 5.1)"/><path d="m4137.2 862.6-48.8-48.6 27.6-37.7 44.8 71M3685.9 577.5l-51.4 55.9 25.7 30.4 48.4-68.8-22.7-17.5Z" fill="#fff" fill-rule="nonzero"/><path d="m3785.9 1592.3 39.3 27.3v19.7l-39.3-47ZM3395.4 1365.4l-15.8-7-50 89.2 26.4-4.3" fill="#e8c4a6" fill-rule="nonzero"/><path d="M.6.3.3-.2v-.1l.3.3.2-.4v.5L.6.3Zm.2-.7Z" fill="url(#W)" fill-rule="nonzero" transform="scale(736.45245 -736.45245) rotate(72.1 3.8 2.1)"/><path d="m3594.3 535 46.5 30 15-6.1-8.5-11.7-53-12.1ZM3877.4 393.3 3931 448l-25 1.6M4120 866.8l-31.5-52.8 46 41.7" fill="#e8c4a6" fill-rule="nonzero"/><path d="M3653 512.2s-9.4-13-17.5-13" fill="#f9e4cf" fill-rule="nonzero"/><path d="m4031.3 877.2 2.1-2.1c6-6.3 23.1-24.6 20-27.7-3.8-3.7-16.7-5.8-20 0a257.2 257.2 0 0 1-17.2 21.8l18.8-17 9-1.7M2174.1 759.8s-72.5-.2-74.4 0c-1.9.2-93.9 43.3-93.9 43.3l.9 8.5 93.7-44.8 69.6-5.6" fill="#e8c4a6" fill-rule="nonzero"/><path d="M.4-.2c.1.1.2.2.3.1L.4.2C.3.2 0 .2 0 0l.3-.2h.1Z" fill="url(#X)" fill-rule="nonzero" transform="scale(-4138.12504 4138.12504) rotate(-56.6 1 1)" opacity=".8"/><path d="M4734.6 2700.6c0 73.5 50.3 160.1 114 194.4l345 185.7c75.9 41 139.3 7.4 139.3-76v-609.2c0-83.5-63.4-173.7-139.4-200.7l-345-122.8c-63.6-22.7-113.9 19-113.9 92.4v536.2Z" fill="#6bc9b7" fill-rule="nonzero"/><path d="M0 .7v-.9s0-.2.2-.3l.6-.3.2.1v1L.8.8.2.9C0 1 0 1 0 .7Z" fill="url(#Y)" fill-rule="nonzero" transform="matrix(594.3031 0 0 -594.3031 4721.1 2598.5)"/><path d="M0 .3c0-.2.2-.6.5-.7.3-.2.5 0 .5.2C1 .1.8.5.5.6H.3C0 .7 0 .7 0 .4Z" fill="url(#Z)" fill-rule="nonzero" transform="matrix(108.39829 0 0 -108.39829 5170.6 2991.3)"/><path d="m.1 0 .2-.1H.7V0L.4.2H0Zm.3 0H.2V0h.2s.1 0 0 0V0Z" fill="url(#aa)" fill-rule="nonzero" transform="scale(633.19118 -633.19118) rotate(-60.6 .2 -9.1)"/><path d="M0 .3c0-.3.2-.6.5-.7.3-.2.5 0 .5.2C1 .1.8.5.5.6H.3C0 .7 0 .7 0 .4Zm.4 0v.1h.1V.2h.1L.8 0H.7V-.3L.4 0H.3v.4H.1h.2Z" fill="url(#ab)" fill-rule="nonzero" transform="matrix(139.90828 0 0 -139.90828 5151.8 2990.4)"/><path d="M4810.2 2260.1c0 9.7 6.7 20.2 15 23.5l313.5 127c9.4 3.9 17.1-1.5 17.1-11.8 0-10.4-7.7-22-17.1-25.7L4825 2248.6c-8.2-3.3-14.9 1.9-14.9 11.5M4812.7 2192.3c0 9.7 6.7 20.1 15 23.4l313.9 122.3c9.5 3.7 17.2-1.8 17.2-12.2a29 29 0 0 0-17.2-25.4l-314-119.9c-8.2-3.1-14.9 2.2-14.9 11.8M4812.7 2341.2c0 9.7 3.3 18.9 7.4 20.6l148.7 62.9c4.3 1.8 7.8-4.8 7.8-14.8s-3.5-19.6-7.8-21.4l-148.7-61.7c-4-1.7-7.4 4.8-7.4 14.4" fill="#fff"/><path d="M4950.7 2633.5c3.5 33.6 3 124.8 40.4 153 47.7 36.1 53.6-50.3 57.2-83.4 2-17.9-25-34-28.8-18.1a309.8 309.8 0 0 0-9 54.3c-.7 10.6 10 23 18.6 24.9 22.8 4.9 33.3-8.7 42.8-27.2l-27.1-17c18.7 89.7 155.3 38.6 191.1 44.3 19.9 3.1 11.4-34.1-8.5-37.1-19-2.9-149.8 17.2-154-2.3-3-14.5-21.6-27.7-27.1-16.9a29.6 29.6 0 0 1-25 20.7l18.6 24.9c1-16.6 3.7-32 8-46.4l-29-18.1c-1.7 15.7-13.8 100.1-28.4 41-7-28.5-8.4-56-11.2-83.2-2.3-21.6-30.8-35.2-28.6-13.4" fill="#19bc9d" fill-rule="nonzero"/><path d="m808.5 2278.8 18-6.5-16-47.2-18.1 5.7 16.1 48ZM836.4 2348.7l17.5-7.5-3.1-7.1c-1.8-4.3-4.6-10-6.7-15.8l-9-23.2-17.8 6.8 9.2 23.6c2.1 6 4.9 11.6 6.7 16l3.2 7.2M868.3 2417l17-8.7-11-22.3-7.5-15.4-3.2-7.1-17.3 7.9 3.2 7.2a4895.6 4895.6 0 0 0 18.8 38.3M904.8 2482.9l16.4-9.7s-6.7-10.5-12.5-21.5l-12-21.9-16.8 9 12.2 22.2a349.6 349.6 0 0 0 12.7 21.9M945.3 2546.4l15.8-10.7-13.9-20.7c-7.1-10.2-13.4-21-13.4-21l-16.1 10s6.3 11 13.5 21.4l14.1 21M989.6 2607.3l15-11.7-4.8-6.1-10.2-13.8-14.7-20-15.5 11 15 20.4 10.3 14 5 6.2M1037.8 2665.2l14.3-12.6-16.4-18.8c-4.1-4.6-8-9.5-11-13.1l-4.8-6.1-14.8 12 5 6.2c3 3.7 6.8 8.6 11 13.3l16.7 19ZM1089.1 2720.3l13.6-13.5s-2.3-2-5.5-5.5a13924.5 13924.5 0 0 0-29-30.5l-14 12.9 17.4 18.3 12 12.6c3.2 3.5 5.5 5.7 5.5 5.7M1143.8 2772l12.8-14.2-18.6-16.6-17.9-17.4-13.3 13.7 18.2 17.6 18.8 17M1201 2820.9l12-14.9-38.3-31.9-12.5 14.4 38.8 32.4ZM1261 2866.3l11.1-15.5-6.3-4.5c-3.8-2.7-9-6.3-13.8-10.1l-19.8-15.2-11.7 15 20 15.4c5 4 10.2 7.6 14 10.3l6.5 4.6M1323 2908.7l10.4-16-20.8-13.7c-10.5-6.7-20.6-14-20.6-14l-10.9 15.6s10.2 7.4 20.9 14.2l21 14M1387.2 2948.1l9.6-16.4s-2.8-1.5-6.8-4l-14.6-8.9-21.3-13-10 16.2 21.4 13.2c5.5 3.2 10.8 6.5 14.9 9l6.8 4M1453 2984.3l8.9-17-22.1-11.4-21.8-12.3-9.3 16.6 22 12.4 22.4 11.7M1520.4 3017.7l8-17.3-22.4-10.8-15.5-7.4-7-3.6-8.5 17 7 3.7 15.7 7.4 22.7 11M1589 3048.2l7.4-17.6s-2.9-1-7.2-3l-15.7-7-22.8-10-7.8 17.4a36097.5 36097.5 0 0 0 46.2 20.2M1658.9 3075.7l6.7-17.8-23.4-8.8-23.2-9.3-7.1 17.6 23.4 9.5 23.6 8.8M1729.7 3100.7l6-18-23.6-8c-11.9-4-23.6-8.4-23.6-8.4l-6.4 18s11.8 4.5 23.8 8.4l23.8 8M1801.3 3123.2l5.4-18.3-47.8-14.6-5.8 18.2 48.2 14.7ZM1873.7 3143l4.8-18.4s-12.2-3-24.2-6.4l-24-6.6-5.2 18.3 24.3 6.7c12 3.5 24.3 6.5 24.3 6.5M1946.6 3160.5l4.2-18.6-24.4-5.4-24.2-6-4.6 18.5 24.5 6 24.5 5.5M2020.2 3175.7l3.6-18.8-24.6-4.7c-12.2-2.2-24.4-5-24.4-5l-4 18.6s12.3 2.8 24.7 5.1l24.7 4.8" fill="#fff" fill-rule="nonzero"/><path fill="#fff" d="m2094 3188.9 3-19-49.3-7.8-3 19z"/><path d="m2168.3 3199.5 2.4-18.9-49.5-7-2.8 18.8 49.9 7.1ZM2242.8 3208.2l2-19s-12.5-1.2-24.9-2.8l-24.8-2.9-2.3 19 25 2.9 25 2.8M2317.5 3214.8l1.4-19s-12.5-.7-25-2l-24.8-2.3-1.8 19 25 2.3c12.6 1.3 25.2 2 25.2 2M2392.3 3219.4l1-19-25-1.2-25-1.8-1.2 19 25 1.8 25.2 1.2M2467.2 3222.3l.5-19.1-25-.6c-12.5-.3-25-1-25-1l-.8 19s12.6.8 25.2 1l25.1.7M2542.2 3223.3v-19.1h-25c-12.5 0-25-.4-25-.4l-.3 19s12.6.5 25.2.4h25.1" fill="#fff" fill-rule="nonzero"/><path fill="#fff" d="m2617 3222.7-.3-19.2-50 1 .4 19.2zM2692.2 3220l-.9-19.2-50 2.2 1 19.2zM2766.5 3215.6l-1.2-19.1-50 3.3 1.3 19.2zM2841.5 3210.5l-1.6-19.1-49.8 4.4 1.6 19zM2916.4 3203l-2-19.1-49.7 5.4 2 19zM2990.3 3193.9l-2.5-19-49.5 6.5 2.5 19zM3064.8 3183.3l-2.9-19-49.4 7.5 2.9 19zM3139 3171.2l-3.2-19-49.3 8.5 3.2 19zM3212.2 3157.8l-3.6-18.8-49.1 9.4 3.6 18.8zM3286 3142.9l-4-18.8-49 10.4 4 18.7zM3358.8 3127.5l-4.3-18.6-48.8 11.2 4.4 18.7zM3431.9 3109.9l-4.7-18.6-48.5 12 4.7 18.7zM3504.7 3090.8l-5-18.5-48.3 13 5 18.6zM3576.4 3070.7l-5.4-18.4-48 14 5.4 18.4zM3648.4 3049.2l-5.6-18.4-47.8 14.8 5.6 18.3zM3719.3 3026.6l-6-18.2-47.5 15.5 6 18.3zM3790.6 3002.5l-6.3-18.1-47.2 16.4 6.2 18zM3861.5 2977.2l-6.6-18-47 17.2 6.6 18z"/><path d="m3931.1 2950.6-6.8-17.8-23.4 9c-11.6 4.6-23.4 9-23.4 9l6.7 17.8s11.8-4.4 23.5-9l23.4-9M4000.8 2923l-7.1-17.6-23.2 9.4c-11.6 4.8-23.3 9.2-23.3 9.2l7 17.8s11.7-4.5 23.3-9.3l23.3-9.5M4070 2894.3l-7.5-17.5-23 9.8-23.2 9.5 7.3 17.7 23.3-9.6 23-9.9M4138.6 2864.5l-7.7-17.5-22.8 10.3-23 9.8 7.5 17.5 23-9.9 23-10.2M4206.8 2833.5l-8-17.3s-11.3 5.5-22.7 10.5l-22.9 10.3 7.9 17.4 22.9-10.4a796 796 0 0 0 22.8-10.5M4274.5 2801.4l-8.3-17.1-22.6 10.7-22.7 10.7 8.2 17.3 22.7-10.8 22.7-10.8" fill="#fff" fill-rule="nonzero"/><path fill="#fff" d="m4341.5 2768.5-8.6-17-44.6 22.4 8.6 17.1zM4408.5 2734.1l-8.9-17-44.3 23.3 9 17zM4473.7 2698.3l-9.2-16.8-43.9 24 9.2 16.8z"/><path d="m.3-.4.3-.8L1 0 .4.7l-.4.5.3-1.6Z" fill="url(#ac)" fill-rule="nonzero" transform="scale(254.57612 -254.57612) rotate(-15 -29.9 -12.3)"/><path d="M.5-.3H1l-.2.2-.8.4.5-.6Z" fill="url(#ad)" fill-rule="nonzero" transform="scale(486.31334 -486.31334) rotate(-15 -14.6 -6.6)"/><path d="M2206.7 3896a45 45 0 1 0 89.9 0 45 45 0 0 0-89.9 0" fill="#fff" fill-rule="nonzero"/><path d="M2992 5810.3c0-2.5 0-6.7-1.4-36.3-.9-18.7-6.1-49.7-5.9-58.4 28-.4 77.4-5.8 99.2-8.4l2.5 81.5-94.3 21.6ZM3177.5 5793.2c-.1-2.5-.1-6.7-1.5-36.3-.8-18.7-6.1-49.7-5.9-58.3 28-.4 77.5-5.9 99.3-8.5l1.1 106.8-93-3.7Z" fill="#f9e4cf" fill-rule="nonzero"/><path d="M.6.3H.4L.2 0 0 .1l.2-.2.2.1v-.3h.4V0H1L.9.2.7.3H.5Z" fill="url(#ae)" fill-rule="nonzero" transform="matrix(1056.54958 0 0 -1056.54958 2433.3 4135.1)"/><path d="M.7-.2a.8.8 0 0 1 0 .1L.1.1.7 0 0 .2V0l.7-.2Z" fill="url(#af)" fill-rule="nonzero" transform="scale(1582.1104 -1582.1104) rotate(-78.5 -.8 -2.6)"/><path d="M.2.1H0L0-.2h1V0H.3a1 1 0 0 1-.2 0Z" fill="url(#ag)" fill-rule="nonzero" transform="matrix(169.7666 0 0 -169.7666 2998.6 3794.6)"/><path d="M3021.4 3736.6c-3.2 29.9-3 39.3-4.8 43.4-1 1-1.6 2-2.3 2.9 0 0-18.3-23.8-26.4-28.6-8-4.8-17.7-17.7-25.6-32.5-8-14.8-14.6-28.6-6.5-52.7 8-24-3.3-32.2-7.2-55.6-4.2-23.6-8.2-76-8.2-76s-11.2-8-16.7-11.1a374 374 0 0 0-30.3-12s-27-34.2-27-46.1c0-12 29-41.1 29-41.1 46.5-28.4 32.5.6 82-16.9 41-14.5 182.5 15 182.5 15l52.3 115.8-23.5 68.6-57.8 126.9h-109.5Z" fill="#2d2d2d" fill-rule="nonzero"/><path d="M3130.9 3736.5v35.8c-34-1.5-93-3.4-104.4 1.2a29.6 29.6 0 0 0-9.9 6.5c1.8-4.1 1.5-13.5 4.7-43.5H3131Z" fill="#2d2d2d" fill-rule="nonzero"/><path d="m2953.4 3551.3-.3-.4" fill="none" stroke="#1e1e1e" stroke-width="2.499999"/><path d="m3130.9 3736.5.5 36.1c-8-.3-17.5-.6-27.7-.7-34.1-.3-75 1-84.5 6.8l-1.2-41c8.2-1.4 31-1.2 31-1.2h81.9ZM2389.3 4061.3h.2-.2M2392.5 4061.8l-3.2-.5-61-20.8s-24.2-40.2-22.7-51.5c0 0 14.5-12.8 19.4-19.4 4.9-6.2 12.8-20.9 12.8-20.9l-33.7-14.5s-18.9-4.8-22.6-7.9c-3.3-3-9-6-11.5-8.1l-1-.8c-11.3-9.6-.3-18.4-.3-18.4l119 26.4 52.7 58.2c-18.4 13.6 6.1 95 6.1 95s-49.1-15.7-54-16.8" fill="#f9e4cf" fill-rule="nonzero"/><path d="M2441 3983.7v-.1" fill="none" stroke="#b76262" stroke-width="8.33333"/><path d="M.4 0H0C0 0 0-.3 0-.3H1v.3H.7L.6.2.4 0Z" fill="url(#ah)" fill-rule="nonzero" transform="matrix(278.03656 0 0 -278.03656 3009 5832.2)"/><path d="M.4 0H0v-.1L0-.2h.7v.1H1v.3H.6L.4 0Z" fill="url(#ai)" fill-rule="nonzero" transform="matrix(265.1099 0 0 -265.1099 2835.2 5829)"/><path d="m2940.3 3537.4 13.1 13.9c17.1 15.4 31.2 62.1 31.2 62.1s6.5-51 25.8-22.2c19.6 29.3 18.7 57.6 7.6 66.2-10.2 7.9-11.1 11.8-11.1 11.8l26.3 67.4-11.4 39.3-7.6 7s-18.4-22.4-22.4-25.5c-4-3.1-33.2-22-38-44.6-5-22.7-9-39.6-1.6-52.6s5.3-9.1 0-25.6c-5.2-16.5-5-26.4-7-45.5-2-19-4.9-43.6-4.9-43.6v-8Z" fill="#f9e4cf" fill-rule="nonzero"/><path d="m3211 3544.4-51.1-119c4 1.9 75.8 42.6 51 119" fill="#2d2d2d" fill-rule="nonzero"/><path d="M.6-1h.7S.3 1.3.6 1.3h-.7S-.1-.9.6-1Z" fill="url(#aj)" fill-rule="nonzero" transform="matrix(41.8224 12.4725 12.4725 -41.8224 2427 4026)"/><path d="M2159 3191.6a45.8 45.8 0 1 0 91.5 0 45.8 45.8 0 0 0-91.6 0M965.8 2614.2a45.8 45.8 0 1 0 91.6 0 45.8 45.8 0 0 0-91.6 0M4408.8 2710a45.8 45.8 0 1 0 91.6 0 45.8 45.8 0 0 0-91.6 0" fill="#fff" fill-rule="nonzero"/><path d="M3314.6 4257.9s-51.7-241-51.7-262.3c0-21.4 25.8 268.3 25.8 268.3s9.1 122.3-11.3 137.7c-41.8 31.6 4.5 13.5 4.5 13.5s20.1-5.4 27.2-77.8c5.1-51.5 5.5-73.4 5.5-73.4" fill="#f7500f" fill-rule="nonzero"/><path d="M2857.8 4293.4s4.5 78.9 21 100.2c16.5 21.4 14.1 16.6 40.9 26.7" fill="#f49e7f" fill-rule="nonzero"/><ellipse cx=".5" rx=".2" ry=".5" fill="url(#ak)" transform="matrix(0 861.24966 861.24966 0 2027 4704.1)" opacity=".9"/><path d="M.5 0H.3h.4-.2Z" fill="url(#al)" fill-rule="nonzero" transform="scale(924.89482 -924.89482) rotate(-.4 -661.5 -182.8)"/><path d="M.5-.3h.1v.5L.3.4l.1-.7Z" fill="url(#am)" fill-rule="nonzero" transform="scale(578.46534 -578.46534) rotate(-36 -10.7 -8.3)"/><path d="m.1 0 .5-.1H1S.7.2.3 0H.1Z" fill="url(#an)" fill-rule="nonzero" transform="scale(895.74563 -895.74563) rotate(-84.6 -1.5 -3.3)"/><path d="M.5-.2c.2.3.1.6.1.6L.5.3C.3 0 .3-.4.3-.4l.2.2Z" fill="url(#ao)" fill-rule="nonzero" transform="scale(-563.0311 563.0311) rotate(41.2 -12.4 -.4)"/><path d="M.5.5H0v-.9l.5-.1.4.1v1L.6.4Z" fill="url(#ap)" fill-rule="nonzero" transform="scale(407.70422 -407.70422) rotate(.5 1358.8 416.9)"/><path d="M.9 0H0 1Z" fill="url(#aq)" fill-rule="nonzero" transform="scale(594.03367 -594.03367) rotate(-89.3 -2 -5)"/><path d="M.9.2C.5.2 0-.2 0-.2l.8.4Z" fill="url(#ar)" fill-rule="nonzero" transform="scale(261.04612 -261.04612) rotate(-89.3 -5.6 -11.8)"/><path d="M.8 0H.1h.7Zm0 0c.1-.1 0 0 0 0Z" fill="url(#as)" fill-rule="nonzero" transform="scale(300.98673 -300.98673) rotate(-89.3 -4.4 -10.7)"/><path d="m742.7 3643.8-.1.1-.3.4-1.3 2 1-1.9.6-1v.2l.1.2" fill="#f9e4cf" fill-rule="nonzero"/><path d="M742.7 3643.3v.4l-.1.2v.4h-.3l-.3.1.6-1 .1-.1" fill="#f9e4cf" fill-rule="nonzero"/><path d="M742.8 3643.1v.7l-.2.1v.4h-.3a261.6 261.6 0 0 1-.3.1l.6-1 .1-.1.1-.2" fill="#f9e4cf" fill-rule="nonzero"/><path d="M455.6 4390.3c-2.6 84 54.4 177 120.2 225.2 101 60.4 269.5 135.6 390.8 120.8 76-4.4 137.7-71.7 135.7-148.8 5-213 16.7-425.7 23.4-638.6 1.3-88.4-73.2-181-159.5-201-121.7-22-242.4-47.2-357.6-92.8-78.2-43.1-137.2 41.4-139.7 110-3.1 208.4-10 416.8-13.3 625.2" fill="#6bc9b7" fill-rule="nonzero"/><path d="M0 .6v-.9c0-.1 0-.3.2-.3l.6-.2s.2 0 .2.2v1L.8.7a2.5 2.5 0 0 0-.6.1C0 .8 0 .8 0 .6Z" fill="url(#at)" fill-rule="nonzero" transform="matrix(666.56807 0 0 -666.56807 441.1 4186.9)"/><path d="M606 3997.3c-.8 106.8 58 222 160.2 263 105 42.3 171.6-85.6 171.2-170-.4-94.7-62.5-213.6-158.6-239.7-89.1-24.2-172.4 59.1-172.9 146.7" fill="#fff" fill-rule="nonzero"/><path d="M0 .2c0-.4.2-.7.5-.8.3 0 .5.2.5.5C1 .3.8.7.5.7S0 .6 0 .3Z" fill="url(#au)" fill-rule="nonzero" transform="matrix(83.08772 0 0 -83.08772 732.7 4004.7)"/><path d="M0 .2c0-.2.2-.5.5-.6.3 0 .5 0 .5.3S.8.4.5.5H.4C.2.5 0 .4 0 .2Z" fill="url(#av)" fill-rule="nonzero" transform="matrix(165.01327 0 0 -165.01327 687 4134.7)"/><path d="M587.6 4287.6c-.8 16.6 9.5 37 23.2 45 92.2 43.7 204.2 88.9 306 101.5 14.7 1.3 26.5-13 26.5-30.7 0-17.6-12-32-26.8-33.5-100.8-12.6-211.2-55.8-303-98.2-13.7-7.7-25.2-.8-26 15.9M618.6 4400.6c-.5 13 7.8 28.6 19 34 78 29.5 159.2 63.7 240.6 82.7 11.7 2.6 21-7 21-20.5s-9.4-25.9-21-28.4c-80.8-18.8-161.4-52.1-239-81.1-11-5.4-20.2.3-20.6 13.3" fill="#fff" fill-rule="nonzero"/><path d="M1167.7 4448.4c-.3 7.3-2.9 13-7.3 17.7-37.8 41-61.3 64.4-76.3 80a5576.8 5576.8 0 0 0-39.8 41.6c-9.1 9.7-21.1 9-30-2.1l-51-63a27 27 0 0 1-5.3-24.8c2.4-9.4 8-14.7 16.2-15.8 7-.8 13 2.4 18 8.7l35.8 45.5c1.5 2 2.2 1.7 3.6.1 32.7-34.3 66.5-67.4 100.9-102.5 6.2-6.4 13.5-8.5 21.5-5.8 7.7 2.6 12.2 8.4 13.5 17 .2 1.4.1 2.8.2 3.4" fill="#19bc9d"/><path d="m.5-.1.2.3H.3L0-.1h.4Z" fill="url(#aw)" fill-rule="nonzero" transform="scale(4945.21594 -4945.21594) rotate(38.2 2 .5)" opacity=".8"/><path d="M5238.1 4400.5c-1.3 91-65.6 192.8-143.9 238.6-129.5 63-267 116.3-405.8 155-90.4 29.5-170.1-46.8-165.2-137.2 2.4-224.5 7.7-449 10.4-673.5-1-93.1 81-195.5 156.8-240.6 130.7-46.7 270.6-94.8 407-126.2 81.6-20 143.4 54.4 139.6 132.8.2 217 .8 434 1.1 651.1" fill="#6bc9b7" fill-rule="nonzero"/><path d="M.2.9.8.7 1 .3v-1S.9-.7.8-.6l-.6.1-.2.4v.9s0 .2.2.2Z" fill="url(#ax)" fill-rule="nonzero" transform="rotate(180 2627 2112) scale(712.44555)"/><path d="m5141.7 4363 1-.5.3-1.5-1.3 2" fill="#fff" fill-rule="nonzero"/><path d="M4648.6 4498c2.7-1.3 5.4-2.2 8.1-3 163.1-53.7 329.6-100.5 484.8-177 2.2-1 4.3-2.3 6.4-3.1 9.6-3.8 16 1.8 16.1 14.2.1 15.3-.2 30.7-.3 46-169.8 90.2-351.6 141-533.5 199.1.1-15.8.1-31.6.4-47.4a33 33 0 0 1 18-28.8" fill="#fff" fill-rule="nonzero"/><path d="m5035 4289.4-3.2-257.7c0-1.2.2-1.6.3-2.3l3.6-1 4 278.3-6.6 2.1-.1-5.6 2.2-.8-.1-13" fill="#6bc9b7" fill-rule="nonzero"/><path d="M.5.2 1-.2H.8L0 0 0 .2l.4.1h.1Z" fill="url(#ay)" fill-rule="nonzero" transform="rotate(180 2582.2 1992.7) scale(530.10062)"/><path d="M.4 0Z" fill="url(#az)" fill-rule="nonzero" transform="scale(-3505.51375) rotate(72 .3 -1.8)"/><path d="M4661.6 4446c0-8 3.2-16.4 8.2-23.5 5-7.1 11.9-13 19.5-15.6 10.2-3.6 15.2-5.3 25.4-8.5l.2-260.8c0-6.7 11.9-16.8 26.6-20.8 7.3-2 14-2 18.8-.5 4.8 1.3 7.8 4 7.8 7.4l.7 262.1c23.7-3.2 35.7-5 57.3-12.8l-1.6-228.9c-.2-.5-.3-1-.3-1.7l-.2-30.3c0-6.7 11.3-16 24.6-22.1 6.6-3 12.6-4.7 17-4.8 4 0 6.8 1.7 6.9 5v2.2c1.1 86.1 2.3 172.3 3.3 258.5 19.8-10 29.4-15.6 49.3-25.5l-4.8-261.1c-.1-6.7 10.2-17.8 23.6-23.8 6.7-3 13-4 17.5-3.6 4.6.4 7.6 2.5 7.7 5.9v2.1h.2v.1c1.7 86.5 3.8 173 5.7 259.5 21.3-6.9 34.9-7.8 60-15.7l-3.2-257v-4.4c0-6.8 14.7-16 31.4-21.4a62.3 62.3 0 0 1 21-3.6c5.2.3 8.4 2.1 8.4 5.4 0 86.2.3 172.3.4 258.4a847 847 0 0 0 18-8.3c13.8-6.6 24.8.9 24.8 16.7a47.8 47.8 0 0 1-8.6 26.2c-147.7 68.4-301.5 116-456 164l-1.4-.8c-5-3.3-8.2-9.8-8.2-18" fill="#fff" fill-rule="nonzero"/><path d="M5190.6 4008.7v-.6" fill="none" stroke="#ec008c" stroke-width="8.33333"/><path d="m5067.8 4129.3 12.5 5.6c4.8-8.5 9.8-17 14.4-25.6l12.5-26.3-13.1-3.2-12.3 25c-4.4 8.3-9.3 16.3-14 24.5M5016.1 4196l11.8 9.5 10-10.9 9.2-11.5c6-7.8 12.3-15.5 17.6-23.8l-12.3-7c-5.1 8-11.4 15.3-17.3 22.6l-9 11-10 10.2M4961.8 4251.5c3 4.4 4.6 6.6 7.6 11.2 7.2-7.6 10.9-11.3 18.4-18.4 6-6.2 12.3-12.2 19.7-18.6-4.6-4.2-7.2-6.3-11-10.7-5.9 5.8-11.5 12-17.2 18.2-7.2 7-10.6 10.8-17.5 18.3M4909.3 4305.3l5.3 12.1c6.3-5.7 12.2-12.2 18.5-18.2l9.2-9 9.1-9.5-6.8-11.3-8.6 9.3-9 8.9c-6 5.8-11.6 12.1-17.7 17.7M4853.9 4351.4l3.4 13.7c3.4-2.3 6.7-4.4 10-6.9 4-3 5.9-4.6 9.7-7.7 6.5-5.3 13-10.2 19.3-16l-4.7-12.7c-6 5.7-12.3 10.4-18.6 15.6a660 660 0 0 1-9.4 7.4c-3.2 2.4-6.5 4.4-9.7 6.6M4791.4 4378.7l1.5 15c15.7-2.5 30.2-9.5 44.3-16.1l-2.8-14.3c-13.7 6.3-27.8 13-43 15.4M4722.4 4387.2l-.7 15.3c16-1.4 31.9-5 47.9-5.5l-.8-15.3c-15.5.6-31 4-46.4 5.5" fill="#36c4a9" fill-rule="nonzero"/><path d="M.4 1.2 1-.4.4-2.1 0-.7 0 2l.4-.9Z" fill="url(#aA)" fill-rule="nonzero" transform="scale(-55.58516) rotate(15.4 229.8 -378)"/><path d="M.1-.1h-.4l.4.4C.6.3 1 .1 1.3 0L.1 0Z" fill="url(#aB)" fill-rule="nonzero" transform="scale(123.60993) rotate(-36.5 71 -44.9)"/><path d="M4128.7 3768c28.9-54.9-40.4-141.5-98-98.2 43.2-109.7-150.2-236.6-193.4-115.4h-3c-26-89.5-193.3-40.4-199 46.1-37.6-34.6-101-26-138.6 8.7-17.3 14.4-17.3 40.4-28.9 52-14.4 14.4-37.5 11.5-57.7 26-86.5 63.4-149.4 258.2 83.7 184.6 26 83.7 127 106.8 205 86.6 20.1-5.8 17.3-20.2 37.4-20.2 8.7 2.9 34.7 23 46.2 26 34.7 14.4 75 23 109.7 8.6 14.4-8.6 26-26 37.5-31.7 23-8.7 28.9-2.9 52 0 40.3 0 75-21.7 112.5-20.2 37.1 1.5 86.3-18.6 95-56.1 2.9-17.3-22.9-96.9-57.5-91-11.5 2.8 0-3-2.9 8.6" fill="#b3def4" fill-rule="nonzero"/><g><path d="M4132.2 3731.8c28.6-49.2-40-127-97.2-88.1 43-98.5-148.6-212.5-191.5-103.6h-2.9c-25.7-80.4-191.5-36.3-197.2 41.4-37.2-31-100-23.3-137.3 7.8-17.1 13-17.1 36.2-28.5 46.6-14.3 13-37.2 10.4-57.2 23.3-85.8 57-148 232 82.9 165.8 25.7 75.2 125.8 95.9 203 77.8 20-5.2 17.1-18.2 37.1-18.2 8.6 2.6 34.3 20.7 45.8 23.3 34.3 13 74.3 20.8 108.6 7.8 14.3-7.8 25.7-23.3 37.2-28.5 22.8-7.8 28.6-2.6 51.4 0 40 0 74.4-19.5 111.5-18.1 36.8 1.3 74.3-21.6 82.9-55.3 2.8-15.5-11.4-82-45.7-76.9-11.4 2.6 0-2.5-2.9 7.8" fill="#f0fafc" fill-rule="nonzero"/></g><defs><linearGradient id="a" x1="0" y1="0" x2="1" y2="0" gradientUnits="userSpaceOnUse" gradientTransform="matrix(0 1 1 0 .5 -.5)"><stop offset="0" stop-color="#ddede0"/><stop offset="1" stop-color="#93ded9"/></linearGradient><linearGradient id="b" x1="0" y1="0" x2="1" y2="0" gradientUnits="userSpaceOnUse" gradientTransform="matrix(1 0 0 -1 0 0)"><stop offset="0" stop-color="#ddede0"/><stop offset="1" stop-color="#93ded9"/></linearGradient><linearGradient id="c" x1="0" y1="0" x2="1" y2="0" gradientUnits="userSpaceOnUse" gradientTransform="scale(-1 1) rotate(89.9 0 -.5)"><stop offset="0" stop-color="#ddede0"/><stop offset="1" stop-color="#93ded9"/></linearGradient><linearGradient id="d" x1="0" y1="0" x2="1" y2="0" gradientUnits="userSpaceOnUse" gradientTransform="matrix(1 0 0 -1 0 0)"><stop offset="0" stop-color="#ddede0"/><stop offset=".5" stop-color="#81d1d9"/><stop offset=".7" stop-color="#81d1d9"/><stop offset="1" stop-color="#81d1d9"/></linearGradient><linearGradient id="e" x1="0" y1="0" x2="1" y2="0" gradientUnits="userSpaceOnUse" gradientTransform="matrix(1 0 0 -1 0 0)"><stop offset="0" stop-color="#4b99a5"/><stop offset="1" stop-color="#93ded9"/></linearGradient><linearGradient id="f" x1="0" y1="0" x2="1" y2="0" gradientUnits="userSpaceOnUse" gradientTransform="matrix(1 0 0 -1 0 0)"><stop offset="0" stop-color="#ddede0"/><stop offset="1" stop-color="#93ded9"/></linearGradient><linearGradient id="g" x1="0" y1="0" x2="1" y2="0" gradientUnits="userSpaceOnUse" gradientTransform="matrix(1 0 0 -1 0 0)"><stop offset="0" stop-color="#ddede0"/><stop offset="1" stop-color="#93ded9"/></linearGradient><linearGradient id="h" x1="0" y1="0" x2="1" y2="0" gradientUnits="userSpaceOnUse" gradientTransform="matrix(1 0 0 -1 0 0)"><stop offset="0" stop-color="#ddede0"/><stop offset="1" stop-color="#93ded9"/></linearGradient><linearGradient id="i" x1="0" y1="0" x2="1" y2="0" gradientUnits="userSpaceOnUse" gradientTransform="matrix(1 0 0 -1 0 0)"><stop offset="0" stop-color="#ddede0"/><stop offset="1" stop-color="#93ded9"/></linearGradient><linearGradient id="j" x1="0" y1="0" x2="1" y2="0" gradientUnits="userSpaceOnUse" gradientTransform="matrix(1 0 0 -1 0 0)"><stop offset="0" stop-color="#ddede0"/><stop offset="1" stop-color="#93ded9"/></linearGradient><linearGradient id="k" x1="0" y1="0" x2="1" y2="0" gradientUnits="userSpaceOnUse" gradientTransform="matrix(1 0 0 -1 0 0)"><stop offset="0" stop-color="#ddede0"/><stop offset="1" stop-color="#93ded9"/></linearGradient><linearGradient id="l" x1="0" y1="0" x2="1" y2="0" gradientUnits="userSpaceOnUse" gradientTransform="matrix(1 0 0 -1 0 0)"><stop offset="0" stop-color="#ddede0"/><stop offset="1" stop-color="#93ded9"/></linearGradient><linearGradient id="m" x1="0" y1="0" x2="1" y2="0" gradientUnits="userSpaceOnUse" gradientTransform="matrix(1 0 0 -1 0 0)"><stop offset="0" stop-color="#e99c7b"/><stop offset="1" stop-color="#ffffe2"/><stop offset="1" stop-color="#ffffe2"/></linearGradient><linearGradient id="n" x1="0" y1="0" x2="1" y2="0" gradientUnits="userSpaceOnUse" gradientTransform="matrix(1 0 0 -1 0 0)"><stop offset="0" stop-color="#e99c7b"/><stop offset="1" stop-color="#ff4f3e"/><stop offset="1" stop-color="#ff4f3e"/></linearGradient><linearGradient id="o" x1="0" y1="0" x2="1" y2="0" gradientUnits="userSpaceOnUse" gradientTransform="matrix(1 0 0 -1 0 0)"><stop offset="0" stop-color="#e99c7b"/><stop offset="1" stop-color="#ffffe2"/><stop offset="1" stop-color="#ffffe2"/></linearGradient><linearGradient id="p" x1="0" y1="0" x2="1" y2="0" gradientUnits="userSpaceOnUse" gradientTransform="matrix(1 0 0 -1 0 0)"><stop offset="0" stop-color="#e99c7b"/><stop offset="1" stop-color="#ff4f3e"/><stop offset="1" stop-color="#ff4f3e"/></linearGradient><linearGradient id="q" x1="0" y1="0" x2="1" y2="0" gradientUnits="userSpaceOnUse" gradientTransform="scale(1 -1) rotate(-87.9 .5 0)"><stop offset="0" stop-color="#130051"/><stop offset=".5" stop-color="#130051"/><stop offset="1"/></linearGradient><linearGradient id="r" x1="0" y1="0" x2="1" y2="0" gradientUnits="userSpaceOnUse" gradientTransform="matrix(1 0 0 -1 0 0)"><stop offset="0" stop-color="#e99c7b"/><stop offset=".6" stop-color="#e99c7b"/><stop offset=".9" stop-color="#ff1577"/><stop offset="1" stop-color="#ff1577"/></linearGradient><linearGradient id="s" x1="0" y1="0" x2="1" y2="0" gradientUnits="userSpaceOnUse" gradientTransform="matrix(1 0 0 -1 0 0)"><stop offset="0" stop-color="#e99c7b"/><stop offset=".6" stop-color="#e99c7b"/><stop offset=".9" stop-color="#ff1577"/><stop offset="1" stop-color="#ff1577"/></linearGradient><linearGradient id="t" x1="0" y1="0" x2="1" y2="0" gradientUnits="userSpaceOnUse" gradientTransform="scale(-1 1) rotate(-.8 0 42.3)"><stop offset="0" stop-color="#ddede0"/><stop offset="1" stop-color="#93ded9"/></linearGradient><linearGradient id="u" x1="0" y1="0" x2="1" y2="0" gradientUnits="userSpaceOnUse" gradientTransform="scale(1 -1) rotate(-26.5 .5 0)"><stop offset="0" stop-color="#4b99a5"/><stop offset="1" stop-color="#93ded9"/></linearGradient><linearGradient id="v" x1="0" y1="0" x2="1" y2="0" gradientUnits="userSpaceOnUse" gradientTransform="scale(1 -1) rotate(-26.8 .5 0)"><stop offset="0" stop-color="#e99c7b"/><stop offset="1" stop-color="#ff4a77"/><stop offset="1" stop-color="#ff4a77"/></linearGradient><linearGradient id="w" x1="0" y1="0" x2="1" y2="0" gradientUnits="userSpaceOnUse" gradientTransform="scale(1 -1) rotate(-26.5 .5 0)"><stop offset="0" stop-color="#e99c7b"/><stop offset="1" stop-color="#ff4a77"/><stop offset="1" stop-color="#ff4a77"/></linearGradient><linearGradient id="x" x1="0" y1="0" x2="1" y2="0" gradientUnits="userSpaceOnUse" gradientTransform="scale(1 -1) rotate(-26.8 .5 0)"><stop offset="0" stop-color="#ddede0"/><stop offset="1" stop-color="#93ded9"/></linearGradient><linearGradient id="y" x1="0" y1="0" x2="1" y2="0" gradientUnits="userSpaceOnUse" gradientTransform="scale(1 -1) rotate(-26.5 .5 0)"><stop offset="0" stop-color="#4b99a5"/><stop offset="1" stop-color="#93ded9"/></linearGradient><linearGradient id="z" x1="0" y1="0" x2="1" y2="0" gradientUnits="userSpaceOnUse" gradientTransform="matrix(1 0 0 -1 0 0)"><stop offset="0" stop-color="#4b99a5"/><stop offset="1" stop-color="#93ded9"/></linearGradient><linearGradient id="A" x1="0" y1="0" x2="1" y2="0" gradientUnits="userSpaceOnUse" gradientTransform="matrix(1 0 0 -1 0 0)"><stop offset="0" stop-color="#e99c7b"/><stop offset="1" stop-color="#ff4f77"/><stop offset="1" stop-color="#ff4f77"/></linearGradient><linearGradient id="B" x1="0" y1="0" x2="1" y2="0" gradientUnits="userSpaceOnUse" gradientTransform="matrix(1 0 0 -1 0 0)"><stop offset="0" stop-color="#4b99a5"/><stop offset="1" stop-color="#93ded9"/></linearGradient><linearGradient id="C" x1="0" y1="0" x2="1" y2="0" gradientUnits="userSpaceOnUse" gradientTransform="matrix(1 0 0 -1 0 0)"><stop offset="0" stop-color="#19bc9d"/><stop offset=".6" stop-color="#93ded9"/><stop offset="1" stop-color="#93ded9"/></linearGradient><linearGradient id="D" x1="0" y1="0" x2="1" y2="0" gradientUnits="userSpaceOnUse" gradientTransform="matrix(1 0 0 -1 0 0)"><stop offset="0" stop-color="#19bc9d"/><stop offset="1" stop-color="#93ded9"/></linearGradient><linearGradient id="E" x1="0" y1="0" x2="1" y2="0" gradientUnits="userSpaceOnUse" gradientTransform="matrix(1 0 0 -1 0 0)"><stop offset="0" stop-color="#eabfc6"/><stop offset=".2" stop-color="#eabfc6"/><stop offset=".8" stop-color="#ff7e61"/><stop offset="1" stop-color="#ff7e61"/></linearGradient><linearGradient id="F" x1="0" y1="0" x2="1" y2="0" gradientUnits="userSpaceOnUse" gradientTransform="matrix(1 0 0 -1 0 0)"><stop offset="0" stop-color="#eabfc6"/><stop offset=".2" stop-color="#eabfc6"/><stop offset=".8" stop-color="#ff7e61"/><stop offset="1" stop-color="#ff7e61"/></linearGradient><linearGradient id="G" x1="0" y1="0" x2="1" y2="0" gradientUnits="userSpaceOnUse" gradientTransform="matrix(1 0 0 -1 0 0)"><stop offset="0" stop-color="#130051"/><stop offset="1"/></linearGradient><linearGradient id="H" x1="0" y1="0" x2="1" y2="0" gradientUnits="userSpaceOnUse" gradientTransform="matrix(1 0 0 -1 0 0)"><stop offset="0" stop-color="#130051"/><stop offset="1"/></linearGradient><linearGradient id="I" x1="0" y1="0" x2="1" y2="0" gradientUnits="userSpaceOnUse" gradientTransform="matrix(1 0 0 -1 0 0)"><stop offset="0" stop-color="#19bc9d"/><stop offset="1" stop-color="#93ded9"/></linearGradient><linearGradient id="J" x1="0" y1="0" x2="1" y2="0" gradientUnits="userSpaceOnUse" gradientTransform="matrix(1 0 0 -1 0 0)"><stop offset="0" stop-color="#130051"/><stop offset="1"/></linearGradient><linearGradient id="K" x1="0" y1="0" x2="1" y2="0" gradientUnits="userSpaceOnUse" gradientTransform="matrix(1 0 0 -1 0 0)"><stop offset="0" stop-color="#e99c7b"/><stop offset="1" stop-color="#ff4f77"/><stop offset="1" stop-color="#ff4f77"/></linearGradient><linearGradient id="L" x1="0" y1="0" x2="1" y2="0" gradientUnits="userSpaceOnUse" gradientTransform="matrix(1 0 0 -1 0 0)"><stop offset="0" stop-color="#130051"/><stop offset="1"/></linearGradient><linearGradient id="M" x1="0" y1="0" x2="1" y2="0" gradientUnits="userSpaceOnUse" gradientTransform="matrix(1 0 0 -1 0 0)"><stop offset="0" stop-color="#130051"/><stop offset=".7" stop-color="#12004e"/><stop offset="1"/></linearGradient><linearGradient id="N" x1="0" y1="0" x2="1" y2="0" gradientUnits="userSpaceOnUse" gradientTransform="scale(1 -1) rotate(32.7 .5 0)"><stop offset="0" stop-color="#4b99a5"/><stop offset="1" stop-color="#93ded9"/></linearGradient><linearGradient id="O" x1="0" y1="0" x2="1" y2="0" gradientUnits="userSpaceOnUse" gradientTransform="scale(1 -1) rotate(22.8 .4 0)"><stop offset="0" stop-color="#4b99a5"/><stop offset="1" stop-color="#93ded9"/></linearGradient><linearGradient id="P" x1="0" y1="0" x2="1" y2="0" gradientUnits="userSpaceOnUse" gradientTransform="matrix(1 0 0 -1 0 0)"><stop offset="0" stop-color="#4b99a5"/><stop offset="1" stop-color="#93ded9"/></linearGradient><linearGradient id="Q" x1="0" y1="0" x2="1" y2="0" gradientUnits="userSpaceOnUse" gradientTransform="matrix(1 0 0 -1 0 0)"><stop offset="0" stop-color="#ddede0"/><stop offset="1" stop-color="#93ded9"/></linearGradient><linearGradient id="R" x1="0" y1="0" x2="1" y2="0" gradientUnits="userSpaceOnUse" gradientTransform="matrix(1 0 0 -1 0 0)"><stop offset="0" stop-color="#e99c7b"/><stop offset=".5" stop-color="#ffffe2"/><stop offset="1" stop-color="#ffffe2"/></linearGradient><linearGradient id="S" x1="0" y1="0" x2="1" y2="0" gradientUnits="userSpaceOnUse" gradientTransform="matrix(1 0 0 -1 0 0)"><stop offset="0" stop-color="#e99c7b"/><stop offset="1" stop-color="#ffffe2"/><stop offset="1" stop-color="#ffffe2"/></linearGradient><linearGradient id="T" x1="0" y1="0" x2="1" y2="0" gradientUnits="userSpaceOnUse" gradientTransform="matrix(1 0 0 -1 0 0)"><stop offset="0" stop-color="#130051"/><stop offset=".7" stop-color="#12004e"/><stop offset="1"/></linearGradient><linearGradient id="U" x1="0" y1="0" x2="1" y2="0" gradientUnits="userSpaceOnUse" gradientTransform="matrix(1 0 0 -1 0 0)"><stop offset="0" stop-color="#4b99a5"/><stop offset="1" stop-color="#93ded9"/></linearGradient><linearGradient id="V" x1="0" y1="0" x2="1" y2="0" gradientUnits="userSpaceOnUse" gradientTransform="matrix(1 0 0 -1 0 0)"><stop offset="0" stop-color="#4b99a5"/><stop offset="1" stop-color="#93ded9"/></linearGradient><linearGradient id="W" x1="0" y1="0" x2="1" y2="0" gradientUnits="userSpaceOnUse" gradientTransform="matrix(1 0 0 -1 0 0)"><stop offset="0" stop-color="#130051"/><stop offset=".7" stop-color="#12004e"/><stop offset="1"/></linearGradient><linearGradient id="X" x1="0" y1="0" x2="1" y2="0" gradientUnits="userSpaceOnUse" gradientTransform="matrix(1 0 0 -1 0 0)"><stop offset="0" stop-color="#d7f7f2"/><stop offset=".3" stop-color="#d7f7f2"/><stop offset="1" stop-color="#ff4f3e"/></linearGradient><linearGradient id="Y" x1="0" y1="0" x2="1" y2="0" gradientUnits="userSpaceOnUse" gradientTransform="matrix(1 0 0 -1 0 0)"><stop offset="0" stop-color="#ddede0"/><stop offset="1" stop-color="#93ded9"/></linearGradient><linearGradient id="Z" x1="0" y1="0" x2="1" y2="0" gradientUnits="userSpaceOnUse" gradientTransform="matrix(1 0 0 -1 0 0)"><stop offset="0" stop-color="#e99c7b"/><stop offset=".7" stop-color="#ffffe2"/><stop offset="1" stop-color="#ffffe2"/></linearGradient><linearGradient id="aa" x1="0" y1="0" x2="1" y2="0" gradientUnits="userSpaceOnUse" gradientTransform="matrix(1 0 0 -1 0 0)"><stop offset="0" stop-color="#e99c7b"/><stop offset=".4" stop-color="#fe5240"/><stop offset="1" stop-color="#ff4f3e"/><stop offset="1" stop-color="#ff4f3e"/></linearGradient><linearGradient id="ab" x1="0" y1="0" x2="1" y2="0" gradientUnits="userSpaceOnUse" gradientTransform="matrix(1 0 0 -1 0 0)"><stop offset="0" stop-color="#e99c7b"/><stop offset="1" stop-color="#ff4f3e"/><stop offset="1" stop-color="#ff4f3e"/></linearGradient><linearGradient id="ac" x1="0" y1="0" x2="1" y2="0" gradientUnits="userSpaceOnUse" gradientTransform="matrix(1 0 0 -1 0 0)"><stop offset="0" stop-color="#e99c7b"/><stop offset="1" stop-color="#ff4f3e"/><stop offset="1" stop-color="#ff4f3e"/></linearGradient><linearGradient id="ad" x1="0" y1="0" x2="1" y2="0" gradientUnits="userSpaceOnUse" gradientTransform="scale(1 -1)"><stop offset="0" stop-color="#e99c7b"/><stop offset="1" stop-color="#ff4f3e"/><stop offset="1" stop-color="#ff4f3e"/></linearGradient><linearGradient id="ae" x1="0" y1="0" x2="1" y2="0" gradientUnits="userSpaceOnUse" gradientTransform="matrix(1 0 0 -1 0 0)"><stop offset="0" stop-color="#e99c7b"/><stop offset="1" stop-color="#ff4f3e"/><stop offset="1" stop-color="#ff4f3e"/></linearGradient><linearGradient id="af" x1="0" y1="0" x2="1" y2="0" gradientUnits="userSpaceOnUse" gradientTransform="matrix(1 0 0 -1 0 0)"><stop offset="0" stop-color="#130051"/><stop offset="1"/></linearGradient><linearGradient id="ag" x1="0" y1="0" x2="1" y2="0" gradientUnits="userSpaceOnUse" gradientTransform="matrix(1 0 0 -1 0 0)"><stop offset="0" stop-color="#130051"/><stop offset="1"/></linearGradient><linearGradient id="ah" x1="0" y1="0" x2="1" y2="0" gradientUnits="userSpaceOnUse" gradientTransform="matrix(1 0 0 -1 0 0)"><stop offset="0" stop-color="#130051"/><stop offset="1"/></linearGradient><linearGradient id="ai" x1="0" y1="0" x2="1" y2="0" gradientUnits="userSpaceOnUse" gradientTransform="matrix(1 0 0 -1 0 0)"><stop offset="0" stop-color="#130051"/><stop offset="1"/></linearGradient><linearGradient id="aj" x1="0" y1="0" x2="1" y2="0" gradientUnits="userSpaceOnUse" gradientTransform="scale(1 -1) rotate(-16.6 0 0)"><stop offset="0" stop-color="#130051"/><stop offset="1"/></linearGradient><linearGradient id="ak" x1="0" y1="0" x2="1" y2="0" gradientUnits="userSpaceOnUse" gradientTransform="scale(-1 1) rotate(-83.1 0 .6)"><stop offset="0" stop-color="#ddede0"/><stop offset="1" stop-color="#93ded9"/></linearGradient><linearGradient id="al" x1="0" y1="0" x2="1" y2="0" gradientUnits="userSpaceOnUse" gradientTransform="matrix(1 0 0 -1 0 0)"><stop offset="0" stop-color="#e99c7b"/><stop offset="1" stop-color="#ff4f3e"/><stop offset="1" stop-color="#ff4f3e"/></linearGradient><linearGradient id="am" x1="0" y1="0" x2="1" y2="0" gradientUnits="userSpaceOnUse" gradientTransform="scale(1 -1) rotate(53.3 .5 0)"><stop offset="0" stop-color="#dbe2b5"/><stop offset=".2" stop-color="#54c57f"/><stop offset="1" stop-color="#273136"/></linearGradient><linearGradient id="an" x1="0" y1="0" x2="1" y2="0" gradientUnits="userSpaceOnUse" gradientTransform="matrix(1 0 0 -1 0 0)"><stop offset="0" stop-color="#a4ddd4"/><stop offset=".2" stop-color="#54c57f"/><stop offset="1" stop-color="#273136"/></linearGradient><linearGradient id="ao" x1="0" y1="0" x2="1" y2="0" gradientUnits="userSpaceOnUse" gradientTransform="scale(1 -1) rotate(-83 .5 0)"><stop offset="0" stop-color="#dbe2b5"/><stop offset=".2" stop-color="#54c57f"/><stop offset="1" stop-color="#273136"/></linearGradient><linearGradient id="ap" x1="0" y1="0" x2="1" y2="0" gradientUnits="userSpaceOnUse" gradientTransform="matrix(1 0 0 -1 0 0)"><stop offset="0" stop-color="#e99c7b"/><stop offset="1" stop-color="#ffffe2"/><stop offset="1" stop-color="#ffffe2"/></linearGradient><linearGradient id="aq" x1="0" y1="0" x2="1" y2="0" gradientUnits="userSpaceOnUse" gradientTransform="matrix(1 0 0 -1 0 0)"><stop offset="0" stop-color="#dbe2b5"/><stop offset=".2" stop-color="#dbe2b5"/><stop offset=".4" stop-color="#54c57f"/><stop offset=".8" stop-color="#51bc7a"/><stop offset="1" stop-color="#273136"/></linearGradient><linearGradient id="ar" x1="0" y1="0" x2="1" y2="0" gradientUnits="userSpaceOnUse" gradientTransform="matrix(1 0 0 -1 0 0)"><stop offset="0" stop-color="#dbe2b5"/><stop offset=".7" stop-color="#54c57f"/><stop offset="1" stop-color="#273136"/></linearGradient><linearGradient id="as" x1="0" y1="0" x2="1" y2="0" gradientUnits="userSpaceOnUse" gradientTransform="matrix(1 0 0 -1 0 0)"><stop offset="0" stop-color="#dbe2b5"/><stop offset=".7" stop-color="#54c57f"/><stop offset="1" stop-color="#273136"/></linearGradient><linearGradient id="at" x1="0" y1="0" x2="1" y2="0" gradientUnits="userSpaceOnUse" gradientTransform="matrix(1 0 0 -1 0 0)"><stop offset="0" stop-color="#ddede0"/><stop offset="1" stop-color="#93ded9"/></linearGradient><linearGradient id="au" x1="0" y1="0" x2="1" y2="0" gradientUnits="userSpaceOnUse" gradientTransform="matrix(1 0 0 -1 0 0)"><stop offset="0" stop-color="#e99c7b"/><stop offset="1" stop-color="#ff4f3e"/><stop offset="1" stop-color="#ff4f3e"/></linearGradient><linearGradient id="av" x1="0" y1="0" x2="1" y2="0" gradientUnits="userSpaceOnUse" gradientTransform="matrix(1 0 0 -1 0 0)"><stop offset="0" stop-color="#e99c7b"/><stop offset="1" stop-color="#ff4f3e"/><stop offset="1" stop-color="#ff4f3e"/></linearGradient><linearGradient id="aw" x1="0" y1="0" x2="1" y2="0" gradientUnits="userSpaceOnUse" gradientTransform="matrix(1 0 0 -1 0 0)"><stop offset="0" stop-color="#d7f7f2"/><stop offset=".3" stop-color="#d7f7f2"/><stop offset="1" stop-color="#ff4f3e"/></linearGradient><linearGradient id="ax" x1="0" y1="0" x2="1" y2="0" gradientUnits="userSpaceOnUse" gradientTransform="matrix(1 0 0 -1 0 0)"><stop offset="0" stop-color="#ddede0"/><stop offset="1" stop-color="#93ded9"/></linearGradient><linearGradient id="ay" x1="0" y1="0" x2="1" y2="0" gradientUnits="userSpaceOnUse" gradientTransform="matrix(1 0 0 -1 0 0)"><stop offset="0" stop-color="#e99c7b"/><stop offset="1" stop-color="#ffffe2"/><stop offset="1" stop-color="#ffffe2"/></linearGradient><linearGradient id="az" x1="0" y1="0" x2="1" y2="0" gradientUnits="userSpaceOnUse" gradientTransform="scale(1 -1) rotate(72 .4 0)"><stop offset="0" stop-color="#e99c7b"/><stop offset="1" stop-color="#ffffe2"/><stop offset="1" stop-color="#ffffe2"/></linearGradient><linearGradient id="aA" x1="0" y1="0" x2="1" y2="0" gradientUnits="userSpaceOnUse" gradientTransform="matrix(1 0 0 -1 0 0)"><stop offset="0" stop-color="#e99c7b"/><stop offset="1" stop-color="#ff4f3e"/><stop offset="1" stop-color="#ff4f3e"/></linearGradient><linearGradient id="aB" x1="0" y1="0" x2="1" y2="0" gradientUnits="userSpaceOnUse" gradientTransform="scale(-1 1) rotate(-51.9 0 1)"><stop offset="0" stop-color="#e99c7b"/><stop offset="1" stop-color="#ff4f3e"/><stop offset="1" stop-color="#ff4f3e"/></linearGradient></defs></svg>