<svg xmlns="http://www.w3.org/2000/svg" xmlns:xlink="http://www.w3.org/1999/xlink" viewBox="0 0 29.68 38.1"><defs><style>.cls-1{fill:none;}.cls-2{clip-path:url(#clip-path);}.cls-3{fill:url(#linear-gradient);}</style><clipPath id="clip-path"><path class="cls-1" d="M9.34,13a6.37,6.37,0,1,1,6.38,6.44h0A6.34,6.34,0,0,1,9.34,13M12.09.54a12.6,12.6,0,0,0-8,17.84c2.3,4.74,5,9.29,7.68,13.87,1.12,1.94,2.49,3.73,3.93,5.85.94-1.36,1.72-2.43,2.45-3.52,3.68-5.52,7.31-11.08,9.68-17.33a11.89,11.89,0,0,0-2.64-13.1A12.17,12.17,0,0,0,16,0a15.23,15.23,0,0,0-3.93.54"/></clipPath><linearGradient id="linear-gradient" x1="-325.05" y1="-4171.12" x2="-324.05" y2="-4171.12" gradientTransform="matrix(26.04, 0, 0, -26.04, 8467.8, -108607.26)" gradientUnits="userSpaceOnUse"><stop offset="0" stop-color="#e99c7b"/><stop offset="0.99" stop-color="#ff4f3e"/><stop offset="1" stop-color="#ff4f3e"/></linearGradient></defs><title>Asset 22</title><g id="Layer_2" data-name="Layer 2"><g id="Layer_1-2" data-name="Layer 1"><g class="cls-2"><rect class="cls-3" width="29.68" height="38.1"/></g></g></g></svg>