<svg viewBox="0 0 2738 486" xmlns="http://www.w3.org/2000/svg" xml:space="preserve" fill-rule="evenodd" clip-rule="evenodd" stroke-linejoin="round" stroke-miterlimit="2"><path d="m0-.2.5-.3.5.3v.3H.9v-.2L.5-.4.1 0v.5L0 .5v-.7Z" fill="url(#a)" fill-rule="nonzero" transform="matrix(453.85315 0 0 -453.85315 0 242.8)"/><path d="M229 155.2 120.6 81.7v77.2l108.6 73.5 166.8-113 58-39.4V3L229 155.2Z" fill="#333" fill-rule="nonzero"/><g font-family="'CenturyGothic-Bold','Century Gothic',sans-serif" font-weight="700" font-size="53.3" fill="#333"><text x="303.1" y="97.8" transform="translate(-947.7 -432.3) scale(8.33333)">v</text><text x="332.9" y="97.8" transform="translate(-947.7 -432.3) scale(8.33333)">i</text><text x="346.9" y="97.8" transform="translate(-947.7 -432.3) scale(8.33333)">s</text><text x="369.2" y="97.8" transform="translate(-947.7 -432.3) scale(8.33333)">o<tspan x="403.547px 420.791px" y="97.821px 97.821px">rs</tspan></text></g><g font-family="'CenturyGothic-Bold','Century Gothic',sans-serif" font-weight="700" font-size="53.3" fill="#19bc9d"><text x="173.8" y="97.8" transform="translate(-947.7 -432.3) scale(8.33333)">G</text><text x="219.2" y="97.8" transform="translate(-947.7 -432.3) scale(8.33333)">r</text><text x="234.9" y="97" transform="translate(-947.7 -432.3) scale(8.33333)">a</text><text x="268.7" y="97.8" transform="translate(-947.7 -432.3) scale(8.33333)">d</text></g><defs><linearGradient id="a" x1="0" y1="0" x2="1" y2="0" gradientUnits="userSpaceOnUse" gradientTransform="matrix(1 0 0 -1 0 0)"><stop offset="0" stop-color="#a4ddd4"/><stop offset=".1" stop-color="#a4ddd4"/><stop offset=".5" stop-color="#1fbd9f"/><stop offset="1" stop-color="#1abc9d"/><stop offset="1" stop-color="#19bc9d"/><stop offset="1" stop-color="#19bc9d"/></linearGradient></defs></svg>