<svg viewBox="0 0 2738 486" xmlns="http://www.w3.org/2000/svg" xml:space="preserve" style="fill-rule:evenodd;clip-rule:evenodd;stroke-linejoin:round;stroke-miterlimit:2"><path d="m0-.17.5-.36.5.35V.1L.87.02V-.1L.51-.36.14-.1v.54L0 .54v-.71Z" style="fill:url(#a);fill-rule:nonzero" transform="matrix(453.85315 0 0 -453.85315 0 242.8)"/><path d="M0 9.03-13.02.2v9.26L0 18.28 20.02 4.72 26.98 0v-9.26L0 9.03Z" style="fill:#333;fill-rule:nonzero" transform="translate(229.06 80.03) scale(8.33333)"/><text x="303.06" y="97.82" style="font-family:'CenturyGothic-Bold','Century Gothic',sans-serif;font-weight:700;font-size:53.25px;fill:#333" transform="translate(-947.67 -432.32) scale(8.33333)">v</text><text x="332.88" y="97.82" style="font-family:'CenturyGothic-Bold','Century Gothic',sans-serif;font-weight:700;font-size:53.25px;fill:#333" transform="translate(-947.67 -432.32) scale(8.33333)">i</text><text x="346.88" y="97.82" style="font-family:'CenturyGothic-Bold','Century Gothic',sans-serif;font-weight:700;font-size:53.25px;fill:#333" transform="translate(-947.67 -432.32) scale(8.33333)">s</text><text x="369.25" y="97.82" style="font-family:'CenturyGothic-Bold','Century Gothic',sans-serif;font-weight:700;font-size:53.25px;fill:#333" transform="translate(-947.67 -432.32) scale(8.33333)">o<tspan x="403.547px 420.791px" y="97.821px 97.821px">rs</tspan></text><g><text x="173.82" y="97.82" style="font-family:'CenturyGothic-Bold','Century Gothic',sans-serif;font-weight:700;font-size:53.25px;fill:#19bc9d" transform="translate(-947.67 -432.32) scale(8.33333)">G</text><text x="219.19" y="97.82" style="font-family:'CenturyGothic-Bold','Century Gothic',sans-serif;font-weight:700;font-size:53.25px;fill:#19bc9d" transform="translate(-947.67 -432.32) scale(8.33333)">r</text><text x="234.86" y="97.02" style="font-family:'CenturyGothic-Bold','Century Gothic',sans-serif;font-weight:700;font-size:53.25px;fill:#19bc9d" transform="translate(-947.67 -432.32) scale(8.33333)">a</text><text x="268.66" y="97.82" style="font-family:'CenturyGothic-Bold','Century Gothic',sans-serif;font-weight:700;font-size:53.25px;fill:#19bc9d" transform="translate(-947.67 -432.32) scale(8.33333)">d</text></g><defs><linearGradient id="a" x1="0" y1="0" x2="1" y2="0" gradientUnits="userSpaceOnUse" gradientTransform="matrix(1 0 0 -1 0 0)"><stop offset="0" style="stop-color:#a4ddd4;stop-opacity:1"/><stop offset=".08" style="stop-color:#a4ddd4;stop-opacity:1"/><stop offset=".48" style="stop-color:#1fbd9f;stop-opacity:1"/><stop offset=".96" style="stop-color:#1abc9d;stop-opacity:1"/><stop offset=".99" style="stop-color:#19bc9d;stop-opacity:1"/><stop offset="1" style="stop-color:#19bc9d;stop-opacity:1"/></linearGradient></defs></svg>