<?xml version="1.0" encoding="UTF-8" standalone="no"?>
<!DOCTYPE svg PUBLIC "-//W3C//DTD SVG 1.1//EN" "http://www.w3.org/Graphics/SVG/1.1/DTD/svg11.dtd">
<svg width="100%" height="100%" viewBox="0 0 424 76" version="1.1" xmlns="http://www.w3.org/2000/svg" xmlns:xlink="http://www.w3.org/1999/xlink" xml:space="preserve" xmlns:serif="http://www.serif.com/" style="fill-rule:evenodd;clip-rule:evenodd;stroke-linejoin:round;stroke-miterlimit:2;">
    <path d="M244.84,22.76L254.17,22.76L263.38,44.29L272.58,22.76L281.85,22.76L266.33,59.24L260.4,59.24L244.84,22.76Z" style="fill:rgb(51,51,51);fill-rule:nonzero;"/>
    <path d="M290.78,7.74C292.34,7.719 293.84,8.354 294.91,9.49C296.038,10.601 296.66,12.128 296.63,13.71C296.655,15.273 296.041,16.78 294.93,17.88C293.873,19.002 292.391,19.63 290.85,19.61C289.278,19.633 287.768,18.994 286.69,17.85C285.572,16.715 284.961,15.173 285,13.58C284.976,12.027 285.595,10.531 286.71,9.45C287.775,8.347 289.247,7.729 290.78,7.74ZM286.21,22.74L295.36,22.74L295.36,59.24L286.21,59.24L286.21,22.74Z" style="fill:rgb(51,51,51);fill-rule:nonzero;"/>
    <path d="M327.58,27.86L321.91,33.52C319.61,31.24 317.52,30.1 315.64,30.1C314.786,30.05 313.939,30.282 313.23,30.76C312.674,31.114 312.337,31.729 312.337,32.388C312.337,32.903 312.544,33.398 312.91,33.76C313.725,34.466 314.646,35.04 315.64,35.46L319,37.11C322.527,38.85 324.953,40.627 326.28,42.44C329.426,46.967 328.739,53.189 324.68,56.92C322.3,59.093 319.11,60.18 315.11,60.18C310.099,60.327 305.326,57.989 302.37,53.94L308,47.81C309.059,49.036 310.337,50.054 311.77,50.81C312.934,51.513 314.252,51.922 315.61,52C316.652,52.052 317.681,51.741 318.52,51.12C319.188,50.67 319.601,49.925 319.63,49.12C319.63,47.72 318.3,46.34 315.63,45L312.55,43.46C306.65,40.487 303.7,36.763 303.7,32.29C303.668,29.462 304.874,26.756 307,24.89C309.339,22.803 312.398,21.702 315.53,21.82C320.254,21.791 324.718,24.023 327.53,27.82L327.58,27.86Z" style="fill:rgb(51,51,51);fill-rule:nonzero;"/>
    <path d="M351.21,21.82C354.619,21.809 357.97,22.703 360.92,24.41C363.875,26.056 366.327,28.476 368.01,31.41C369.702,34.321 370.583,37.633 370.56,41C370.571,44.376 369.687,47.696 368,50.62C366.346,53.545 363.925,55.966 361,57.62C358.03,59.309 354.666,60.182 351.25,60.15C346.203,60.227 341.346,58.201 337.85,54.56C334.215,50.997 332.206,46.089 332.3,41C332.187,35.564 334.484,30.347 338.57,26.76C341.994,23.557 346.521,21.788 351.21,21.82ZM351.36,30.44C348.675,30.38 346.089,31.473 344.26,33.44C342.347,35.482 341.324,38.204 341.42,41C341.299,43.84 342.31,46.614 344.23,48.71C346.064,50.664 348.651,51.739 351.33,51.66C354.031,51.728 356.636,50.635 358.48,48.66C360.416,46.591 361.446,43.831 361.34,41C361.455,38.185 360.443,35.438 358.53,33.37C356.666,31.42 354.056,30.354 351.36,30.44Z" style="fill:rgb(51,51,51);fill-rule:nonzero;"/>
    <path d="M376.1,22.76L384,22.76L384,27.36C384.726,25.699 385.896,24.27 387.38,23.23C388.743,22.305 390.353,21.814 392,21.82C393.295,21.852 394.566,22.173 395.72,22.76L392.87,30.64C392.058,30.177 391.152,29.903 390.22,29.84C388.82,29.84 387.63,30.71 386.65,32.45C385.67,34.19 385.183,37.61 385.19,42.71L385.19,59.24L376.1,59.24L376.1,22.76Z" style="fill:rgb(51,51,51);fill-rule:nonzero;"/>
    <path d="M422.91,27.86L417.24,33.52C414.94,31.24 412.86,30.1 411,30.1C410.146,30.051 409.3,30.283 408.59,30.76C408.041,31.12 407.709,31.734 407.709,32.391C407.709,32.903 407.91,33.395 408.27,33.76C409.085,34.466 410.006,35.04 411,35.46L414.36,37.13C417.893,38.87 420.317,40.647 421.63,42.46C424.748,46.993 424.049,53.195 420,56.92C417.62,59.093 414.43,60.18 410.43,60.18C405.419,60.329 400.645,57.991 397.69,53.94L403.32,47.81C404.379,49.036 405.657,50.054 407.09,50.81C408.257,51.515 409.579,51.923 410.94,52C411.985,52.052 413.017,51.741 413.86,51.12C414.522,50.665 414.93,49.923 414.96,49.12C414.96,47.72 413.63,46.34 410.96,45L407.88,43.46C401.96,40.487 399,36.76 399,32.28C398.978,29.448 400.2,26.745 402.34,24.89C404.678,22.802 407.738,21.701 410.87,21.82C415.596,21.785 420.063,24.018 422.87,27.82L422.91,27.86Z" style="fill:rgb(51,51,51);fill-rule:nonzero;"/>
    <path d="M128.7,18L122.09,24.54C117.903,20.107 113.027,17.893 107.46,17.9C102.907,17.78 98.497,19.526 95.26,22.73C92.052,25.777 90.265,30.036 90.34,34.46C90.26,39.031 92.117,43.43 95.45,46.56C98.791,49.862 103.334,51.668 108.03,51.56C110.899,51.668 113.742,50.975 116.24,49.56C118.627,48.006 120.499,45.778 121.62,43.16L107.34,43.16L107.34,34.23L132.15,34.23L132.22,36.31C132.217,40.625 131.06,44.862 128.87,48.58C126.817,52.254 123.816,55.31 120.18,57.43C116.35,59.513 112.038,60.548 107.68,60.43C102.913,60.528 98.201,59.395 94,57.14C90,54.927 86.701,51.635 84.48,47.64C82.171,43.586 80.971,38.995 81,34.33C80.916,28.049 83.231,21.966 87.47,17.33C92.59,11.583 99.257,8.71 107.47,8.71C111.59,8.686 115.672,9.495 119.47,11.09C122.999,12.718 126.144,15.073 128.7,18Z" style="fill:rgb(25,188,157);fill-rule:nonzero;"/>
    <path d="M138.52,22.76L146.36,22.76L146.36,27.36C147.087,25.697 148.26,24.267 149.75,23.23C151.115,22.303 152.73,21.812 154.38,21.82C155.675,21.852 156.946,22.173 158.1,22.76L155.25,30.64C154.437,30.179 153.532,29.906 152.6,29.84C151.193,29.84 150.003,30.71 149.03,32.45C148.057,34.19 147.57,37.61 147.57,42.71L147.57,59.24L138.49,59.24L138.52,22.76Z" style="fill:rgb(25,188,157);fill-rule:nonzero;"/>
    <path d="M187.84,21.76L197,21.76L197,58.24L187.85,58.24L187.85,54.38C186.295,55.92 184.472,57.164 182.47,58.05C180.618,58.813 178.633,59.197 176.63,59.18C171.958,59.195 167.498,57.197 164.4,53.7C160.958,50.013 159.106,45.112 159.25,40.07C159.25,34.437 160.917,29.82 164.25,26.22C167.306,22.738 171.738,20.764 176.37,20.82C178.486,20.809 180.583,21.231 182.53,22.06C184.532,22.945 186.343,24.212 187.86,25.79L187.84,21.76ZM178.21,29.27C175.539,29.205 172.966,30.3 171.16,32.27C169.255,34.37 168.249,37.137 168.36,39.97C168.254,42.833 169.278,45.625 171.21,47.74C172.993,49.719 175.546,50.835 178.21,50.8C180.912,50.873 183.519,49.779 185.36,47.8C187.303,45.656 188.324,42.831 188.2,39.94C188.319,37.095 187.296,34.318 185.36,32.23C183.499,30.284 180.902,29.209 178.21,29.27Z" style="fill:rgb(25,188,157);fill-rule:nonzero;"/>
    <path d="M231.34,8.68L240.49,8.68L240.49,59.24L231.34,59.24L231.34,55.38C229.797,56.916 227.987,58.16 226,59.05C224.148,59.813 222.163,60.197 220.16,60.18C215.488,60.195 211.028,58.197 207.93,54.7C204.488,51.013 202.636,46.112 202.78,41.07C202.78,35.443 204.447,30.827 207.78,27.22C210.836,23.738 215.268,21.764 219.9,21.82C221.996,21.817 224.071,22.239 226,23.06C228.002,23.945 229.813,25.212 231.33,26.79L231.34,8.68ZM221.71,30.27C219.039,30.205 216.466,31.3 214.66,33.27C212.755,35.37 211.749,38.137 211.86,40.97C211.754,43.833 212.778,46.625 214.71,48.74C216.493,50.719 219.046,51.835 221.71,51.8C224.412,51.873 227.019,50.779 228.86,48.8C230.803,46.656 231.824,43.831 231.7,40.94C231.819,38.095 230.796,35.318 228.86,33.23C226.999,31.284 224.402,30.209 221.71,30.27Z" style="fill:rgb(25,188,157);fill-rule:nonzero;"/>
    <path d="M70.22,30.26L70.22,50.25L35.44,75.13L0.66,50.25L0,49.78L0,0L0.66,0.45L9.68,6.56L9.68,18.5L9.63,18.46L9.63,44.55L35.44,63.02L61.25,44.55L61.25,36.34L70.22,30.26Z" style="fill:url(#_Linear1);fill-rule:nonzero;"/>
    <path d="M35.44,24.02L18.65,12.64L18.65,24.58L35.44,35.96L61.25,18.46L70.22,12.38L70.22,0.45L35.44,24.02Z" style="fill:rgb(51,51,51);fill-rule:nonzero;"/>
    <defs>
        <linearGradient id="_Linear1" x1="0" y1="0" x2="1" y2="0" gradientUnits="userSpaceOnUse" gradientTransform="matrix(70.22,0,0,70.22,0,37.57)"><stop offset="0" style="stop-color:rgb(164,221,212);stop-opacity:1"/><stop offset="0.08" style="stop-color:rgb(164,221,212);stop-opacity:1"/><stop offset="0.48" style="stop-color:rgb(31,189,159);stop-opacity:1"/><stop offset="0.96" style="stop-color:rgb(26,188,157);stop-opacity:1"/><stop offset="0.99" style="stop-color:rgb(25,188,157);stop-opacity:1"/><stop offset="1" style="stop-color:rgb(25,188,157);stop-opacity:1"/></linearGradient>
    </defs>
</svg>
