<svg viewBox="0 0 405 421" xmlns="http://www.w3.org/2000/svg" fill-rule="evenodd" clip-rule="evenodd" stroke-linecap="round" stroke-linejoin="round" stroke-miterlimit="1.5"><ellipse cx="855.2" cy="842" rx="28.8" ry="12.2" fill="#caeaea" transform="matrix(1.04765 -.26476 .28829 1.14076 -1066.5 -329.2)"/><ellipse cx="855.2" cy="842" rx="28.8" ry="12.2" fill="#caeaea" transform="matrix(1.12717 .29335 -.29635 1.13869 -476.3 -806.3)"/><path d="M105.5 390.5c-.7-3-3.8-4.9-6.8-4.1l-19 4.6c-3 .8-5 3.8-4.2 6.8l2.7 11c.7 3 3.7 4.8 6.8 4l19-4.6c3-.7 4.9-3.8 4.2-6.8l-2.7-11zM233.6 395.7c.5-3-1.6-6-4.6-6.5l-22.2-3.8c-3.1-.5-6 1.5-6.5 4.6l-2 11c-.4 3.1 1.6 6 4.7 6.5l22.2 3.8c3 .6 6-1.5 6.5-4.6l1.9-11z" fill="#ffecdf"/><path d="M106.2 326.2c-43.3-6.4-86.6-12.7-97.7-1.6-7 6.6-9.2 16.3-8.3 28.3-1.2 14.6 52 30 84.2 36.5 3.7 1 7.4-.1 11.2-2.7-.2 7.8 2.8 15 7 21.9 11.6-1 18.4-2.8 52.4-6.7 96.8-12.5 160.6-30.7 153.7-60.3a27.8 27.8 0 00-23-23.1c-18.6-2.4-60.4 4.6-89.1 9.2-29.6 4.7-60.2 1.2-90.4-1.5z" fill="#474659"/><path d="M57.5 383c69.4-12.6 135.1-35.8 199-61.6a852.3 852.3 0 01-166 68c-3 1-25.8-4.5-33-6.4zM212.2 392.8a21 21 0 01-4.5 15.4c-19 .6-36-2.8-52.6-6.4l57.1-9z" fill="#656475"/><g><path d="M36.8 239.8c-12.7 35-19.4 61.2-13.8 69.6 15.7 18.9 67.6 33 99.9 45.2 11.9 11.6 43.8 5.6 53.5 1.1 3-1.4-16.5-8.8-24.2-11-7.1.1-15 0-23.7-.3L58.3 295l15.3-45.8-36.8-9.5zM225.6 237.7c14.7 34.2 27.9 57.8 37.7 60 24.3 3 71.8-22.3 103.7-35.6 21.6 10.7 38.6-18.7 37-38.6-.2-3.4-11.9 12.2-19 15.9-5 5-14.4 5.7-21 11.4L279.2 263l-20.3-42-33.3 16.6z" fill="#ffecdf" stroke="#000"/><path d="M72.7 162c45.5-13 91.1-15.8 136.7-13.6 30.6 7.2 39.5 41 52 71.7L221 239.6a711 711 0 00-1.3 86.1 365.3 365.3 0 01-115 1.6 59 59 0 00-14-8.1 3832 3832 0 00-8.4-72.1l-2.3 3.9-48-12.3C47.8 195.2 63 163.9 72.7 162z" fill="#a77111"/><path d="M71.4 248.8L85 212.2l19.8 115.1c-4-3.4-9-5.5-14-8.1l-8.4-72-2.3 3.8-8.7-2.2zM235 232.6l-14.2-43.2v50l14.3-6.8z" fill="#8a631f"/><g><path d="M122.4 121.8c3.7 12.1 3.7 23.1-.3 31.9 20.5 13.7 35 10.7 44.9-5.6a37 37 0 01-10-31.4c-9.7 13.3-21.6 13.5-34.6 5.1z" fill="#ffecdf" stroke="#000"/><path d="M123.7 124.6c2.2 6.7 2 11.3 2 18.1 12.5.8 23.4-1.5 31.4-12.1-1.1-3.8-.8-8.4-.7-13-8.6 11.6-19 15.8-32.7 7z" fill="#fae3d4"/></g><g><path d="M105.1 97.3c6.7 18.4 21.2 33.7 36 31.8 14.7-5 25.6-24.3 28.6-40.8 8.4-44.4-5.3-59-39.5-46-45.4-6.8-44.4 17.9-25.1 55z" fill="#ffecdf" stroke="#000"/><path d="M104.9 97.4C85.4 63.2 75.5 18.8 96.5 8c6.9-2.1 15.4-2.2 21.3-3.5 4.5-1 11.6-3.4 17.5-4 10.3-1 15.1.6 21.5 5.2 14.6 17.3 21.8 47.3 13 82.7-.5-25.3-3.3-38.8-9.5-45.3-4.6-5-17.1 6.7-27.2 7.7-13.8 6.5-28.3-8-30-4.4-3.7 8.5-7.6 13.7 1.8 51z" fill="#f15f46" stroke="#f15f46" stroke-width=".4"/></g></g></svg>