<svg xmlns="http://www.w3.org/2000/svg" xmlns:xlink="http://www.w3.org/1999/xlink" viewBox="0 0 32.79 34.42"><defs><style>.cls-1{fill:none;}.cls-2{clip-path:url(#clip-path);}.cls-3{fill:url(#linear-gradient);}.cls-4{clip-path:url(#clip-path-2);}.cls-5{fill:url(#linear-gradient-2);}.cls-6{clip-path:url(#clip-path-3);}.cls-7{fill:url(#linear-gradient-3);}</style><clipPath id="clip-path"><path class="cls-1" d="M3.63,1.34C1.47,3,0,5.17.37,8a17.15,17.15,0,0,0,1.48,5.54A45.63,45.63,0,0,0,18.59,31.9c1.89,1.18,4.19,1.7,6.3,2.52a10.07,10.07,0,0,0,5.77-2.92,1.84,1.84,0,0,0,.13-3c-1.43-1.56-2.87-3.11-4.26-4.7-1.15-1.32-2.25-1.33-3.57-.19-2.05,1.77-3.38,1.66-5.25-.37q-3.57-3.84-7.09-7.75C8.44,13.12,8.45,12,10.69,9.7a2,2,0,0,0,.14-3C9.31,5,7.75,3.28,6.19,1.6A1.89,1.89,0,0,0,4.81.88a1.9,1.9,0,0,0-1.18.46"/></clipPath><linearGradient id="linear-gradient" x1="-324.33" y1="-4215.52" x2="-323.33" y2="-4215.52" gradientTransform="matrix(31.16, 0, 0, -31.16, 10107.92, -131358.68)" gradientUnits="userSpaceOnUse"><stop offset="0" stop-color="#e99c7b"/><stop offset="0.99" stop-color="#ff4f3e"/><stop offset="1" stop-color="#ff4f3e"/></linearGradient><clipPath id="clip-path-2"><path class="cls-1" d="M14.75,1.22c.55.4,1.08,1.09,1.67,1.16,8.3.89,13.33,5.9,14.37,14.32.08.61.72,1.14,1.1,1.7.31-.62.91-1.25.89-1.86C32.57,8.07,25.3.72,16.61,0L14.75,1.22"/></clipPath><linearGradient id="linear-gradient-2" x1="-324.32" y1="-4316.45" x2="-323.31" y2="-4316.45" gradientTransform="matrix(18.03, 0, 0, -18.03, 5863.29, -77831.53)" xlink:href="#linear-gradient"/><clipPath id="clip-path-3"><path class="cls-1" d="M16.44,6.46c-.51,0-1,.58-1.49.89.44.37.86,1.06,1.31,1.08a9.92,9.92,0,0,1,9.37,9.31c0,.48.68.94,1,1.4l1-1.09c0-6.07-5.44-11.6-10.92-11.6h-.31"/></clipPath><linearGradient id="linear-gradient-3" x1="-324.33" y1="-4416.69" x2="-323.33" y2="-4416.69" gradientTransform="matrix(12.71, 0, 0, -12.71, 4138.69, -56143.27)" xlink:href="#linear-gradient"/></defs><title>Asset 23</title><g id="Layer_2" data-name="Layer 2"><g id="Layer_1-2" data-name="Layer 1"><g class="cls-2"><rect class="cls-3" y="0.88" width="31.74" height="33.54"/></g><g class="cls-4"><rect class="cls-5" x="14.75" width="18.05" height="18.4"/></g><g class="cls-6"><rect class="cls-7" x="14.95" y="6.45" width="12.74" height="12.69"/></g></g></g></svg>